<mxfile host="65bd71144e">
    <diagram id="pfv1tSFNJHyidwAUFCdS" name="Всплытие и погружение">
        <mxGraphModel dx="1367" dy="1525" grid="1" gridSize="10" guides="1" tooltips="1" connect="1" arrows="1" fold="1" page="1" pageScale="1" pageWidth="850" pageHeight="1100" math="0" shadow="0">
            <root>
                <mxCell id="0"/>
                <mxCell id="1" parent="0"/>
                <mxCell id="7" style="edgeStyle=entityRelationEdgeStyle;html=1;startArrow=none;endArrow=none;segment=10;curved=1;sourcePerimeterSpacing=0;targetPerimeterSpacing=0;exitX=0.5;exitY=1;exitDx=0;exitDy=0;entryX=0.5;entryY=0;entryDx=0;entryDy=0;" edge="1" parent="1" source="4" target="5">
                    <mxGeometry relative="1" as="geometry"/>
                </mxCell>
                <mxCell id="9" style="edgeStyle=entityRelationEdgeStyle;html=1;startArrow=none;endArrow=none;segment=10;curved=1;sourcePerimeterSpacing=0;targetPerimeterSpacing=0;exitX=1;exitY=0.5;exitDx=0;exitDy=0;entryX=0;entryY=0.5;entryDx=0;entryDy=0;" edge="1" parent="1" source="4" target="8">
                    <mxGeometry relative="1" as="geometry"/>
                </mxCell>
                <mxCell id="13" style="edgeStyle=entityRelationEdgeStyle;html=1;startArrow=none;endArrow=none;segment=10;curved=1;sourcePerimeterSpacing=0;targetPerimeterSpacing=0;exitX=0.5;exitY=0;exitDx=0;exitDy=0;entryX=0.5;entryY=1;entryDx=0;entryDy=0;" edge="1" parent="1" source="4" target="12">
                    <mxGeometry relative="1" as="geometry"/>
                </mxCell>
                <mxCell id="4" value="Погружение и всплытие" style="ellipse;whiteSpace=wrap;html=1;align=center;newEdgeStyle={&quot;edgeStyle&quot;:&quot;entityRelationEdgeStyle&quot;,&quot;startArrow&quot;:&quot;none&quot;,&quot;endArrow&quot;:&quot;none&quot;,&quot;segment&quot;:10,&quot;curved&quot;:1,&quot;sourcePerimeterSpacing&quot;:0,&quot;targetPerimeterSpacing&quot;:0};treeFolding=1;treeMoving=1;" vertex="1" parent="1">
                    <mxGeometry x="360" y="130" width="220" height="80" as="geometry"/>
                </mxCell>
                <mxCell id="5" value="Почти все события всплывают, но есть исключения: focus" style="whiteSpace=wrap;html=1;" vertex="1" parent="1">
                    <mxGeometry x="410" y="290" width="220" height="80" as="geometry"/>
                </mxCell>
                <mxCell id="8" value="Можно прервать всплытие или погружение в обработчике:&lt;div&gt;event.stopPropagation/ stopImmediatePropagation&lt;/div&gt;" style="whiteSpace=wrap;html=1;" vertex="1" parent="1">
                    <mxGeometry x="630" y="50" width="220" height="80" as="geometry"/>
                </mxCell>
                <mxCell id="15" style="edgeStyle=none;html=1;exitX=0;exitY=0.5;exitDx=0;exitDy=0;entryX=1;entryY=0.5;entryDx=0;entryDy=0;" edge="1" parent="1" source="12" target="14">
                    <mxGeometry relative="1" as="geometry"/>
                </mxCell>
                <mxCell id="17" style="edgeStyle=none;html=1;exitX=0.5;exitY=0;exitDx=0;exitDy=0;entryX=0.5;entryY=1;entryDx=0;entryDy=0;" edge="1" parent="1" source="12" target="16">
                    <mxGeometry relative="1" as="geometry"/>
                </mxCell>
                <mxCell id="12" value="Погружение" style="rhombus;whiteSpace=wrap;html=1;" vertex="1" parent="1">
                    <mxGeometry x="240" y="-20" width="220" height="80" as="geometry"/>
                </mxCell>
                <mxCell id="14" value="Назначить обработчик на погружение:&lt;div&gt;addEventListener(event, handler, {capture: true})&lt;/div&gt;" style="whiteSpace=wrap;html=1;" vertex="1" parent="1">
                    <mxGeometry x="-50" y="30" width="220" height="80" as="geometry"/>
                </mxCell>
                <mxCell id="16" value="" style="shape=image;verticalLabelPosition=bottom;labelBackgroundColor=default;verticalAlign=top;aspect=fixed;imageAspect=0;image=data:image/png,iVBORw0KGgoAAAANSUhEUgAAA2EAAAMOCAYAAACXrg6wAAAAAXNSR0IArs4c6QAAAARnQU1BAACxjwv8YQUAAAAJcEhZcwAADsMAAA7DAcdvqGQAAP+lSURBVHhe7N0HgBTV4Qbwb3u93ht3B0fvXUAsqIAVEcXeFbsxMTFGk9hi1Bhj7L13VGwoCkhHeoc77jjgeu/b+/+92QXRvxpUhLu976fD7s68mZ29sjvfvaYKCSAiIiIiIqLDQh25JSIiIiIiosOAIYyIiIiIiOgwYggjIiIiIiI6jBjCiIiIiIiIDiOGMCIiIiIiosOIIYyIiIiIiOgwYggjIiIiIiI6jBjCiIiIiIiIDiOGMCIiIiIiosOIIYyIiIiIiOgwYggjIiIiIiI6jBjCiIiIiIiIDiOGMCIiIiIiosOIIYyIiIiIiOgwYggjIiIiIiI6jBjCiIiIiIiIDiOGMCIiIiIiosOIIYyIiIiIiOgwYggjIiIiIiI6jBjCiIiIiIiIDiOGMCIiIiIiosOIIYyIiIiIiOgwYggjIiIiIiI6jBjCiIiIiIiIDiOGMCIiIiIiosOIIYyIiIiIiOgwYggjIiIiIiI6jBjCiIiIiIiIDiOGMCIiIiIiosOIIYyIiIiIiOgwYggjIiIiIiI6jBjCiIiIiIiIDiOGMCIiIiIiosOIIYyIiIiIiOgwYggjIiIiIiI6jFQhIXKfiIh+Iz6fD+1tbfB4vZE1RJ1Peno6NBpN5BEREf1WGMKIiA6DiooKvPLyy9i2YwcsJhP4xkudiVqtVv5I8PIrryAhISGyloiIfisMYUREh0FNTQ3+9dBD2LhxIyZOmACvzxfZQnRkqVQqOJ1OLFu2DAsXLUJqampkCxER/VYYwoiIDgMZwh584AF4vR78/W93wm53RLYQHVlarRZff/01nn/uBXz+5ZcMYUREhwFDGBHRYbAvhLlcTvzl9tsYwqjTkCFs6dJlePmllxnCiIgOE46OSEREREREdBgxhBERERERER1GDGFERERERESHEUMYERERERHRYcQQRkREREREdBgxhBERERERER1GDGFERERERESHEUMYERFFN5UaGq0WOp0OWo0aKlVkPRER0RHCEEZERAdPBhrNjwcalVoDrVYntmuhUYvtkfVhKqg1YrvYV6fVQB3ZKPeRIUkjVhzyfCTP19OCit3F2Lp1K4qqWuD0idUMYkREdAQxhBER0cERgUbtaUVN2U5s3rIFxZWNsHlFsNofplTwtNZg786t2LKlCBWN7fCIj5nwZlFO7UFrdRl2in0376xEo80HlRbwttehvLQUFU12eIKHOIhpjLDWLsLj996C8y+4CNc9txTFLSHo9p00ERHREcAQRkREB0djgLF1I+Y8cTsuvPBiXPvIh1hTHYRBKwONGjqjD7u+fAH3XHsRzr/wajzw7kpUePXQyk8akbZMqnJ89cI/cZ3Y94I7XsXXuxwwaZqx+bPn8Ndbb8VfX1iIwkYvNJpD+dEUQkitg8lsRazFBKtRBw3zFxERHWEMYUREdHACPgRz+qNfzwEYaDGivb4FjfVNCMrQpNJA6ynHruo2NHkSkRwfRFVtI2rrXSJUidSj0SBUU4kapx1OkxF9h/VDXo9MWBpKsGprCUqrqlC4fht2VbXAL1IbcxIREUUzhjAiIjo4oQACuhRkpMYjOU58gFRVo6G+Ec3QiIylQVCErKqWBrSI0KVRa1BXVot6GdJkny+NFvWVlWhrbkQgaEXPzESkxqnhSB2ESROOwcljR+Pk6cdheK806P1+hEQMC/c9i/QVO2BwDWVR+pT9UFST/c604X5nst+aLBfZ8qMO6OcWXsT+3+/vJspoDxzcI7Jafox+e17hc91vf/843W/T342IiLoshjAiop8jFEJIhISg24OAwwl/hw3+tjb4W1uVxdfSioDNJvJKILJDNAkh6I9HVl4qUnMMCLmrUdckQphDDrahQu3u3WgSwUwbY4XRaoVpzy5UVtWiQaWFXutCTUUjWhvE18YwAPlZmUiN9cLr0iF73Om49I9/xmWTBiLdFIAvqIY65EBdeQm2bNyJqjbxtfbbUF9WjO1bZX+zrdi+qwotbvE1PnDwD5UIeyE3Wmt2o2i7LLcFRaU16IBOPL9WfOCFIgW/pRLhS+3rQH3FLmzfvk0ZvGPLtiKUVDTDFZD92CIB0NWA3SWF2Lx5M0pqO+AW21QipWkC7ajYtRNbxTlt3lyE6nY3AuKMVOJc0FGFXTu3YfOmTdjb5IT3UPd3IyKiLoshjIjoB8gQFbDb4WtsgqeiEs7iEtg3bUb7N6vRtngJWr78Ck0ff4KGd2ej7vU3UffqG8pS+9IraP58nghkbZEjRZeA34f0HnlIT8+FTlWD8po61DUCBl0ryssbUV3lQtqIERjQsy+SQ2XY29CAhjYRwlTlKC9rRH09oC3IRXpaMmKDGhgDJfjg0b/ggmlnYtptr2Kp7CdmNMDs34U5T96Nyy65CY99uAQrV3yMJ/52I6649FJceukVmPWnB/HiZ5tR3eFDuJOXCjq1B/Xbl+CNR/6Cm665AhdffCmu/eO/8No28b1QiWPK/mHhl6FQaTQItFejcOlsPPGP23DNVVfi4ksuw8VX3Yg/3P8i5izZgXqnHyGtEZaWFXjq7j/i0osuwc0vrkB5W1AETyMM9Yvw37//XpyT2O+ia/HM0j1o9YlQKl5D+8qn8Pc/XI0LLr4RL62uQod4vRwPhIiIJIYwIqIIWYPlFoHLUViItiVL0fjBHFQ/8xzK7rsfu2/9M3b/+Q6U3fsPVDzyX9Q89wLq33oHTZ98ipb5C9Hy9SJlaV3wNWybtiDoE+EgGgX9CKb1QHZKOtLValTV1KOuuRVaTy3KakQIa9Ujq2AIhvXpgVRjG3aX16Ch2QNNYz2qbG1oEjEoIz8TGamJ0AaC4pEGBpMFMWYTTBYjdCJQhWRto7I+BkmxHuz64lnc88hn2O7PxdCRQ1CQnQpT62bMfuRxfLiiGO2QzQ4NCNQsxqvPvIyPVtXCZ8lG70FDkW/cjXdf/gBrdtaLMKX9Tq2ZHh3Y8P4juPuR17Gg0IGEnP4YMWokhuVa4Nk1F/+58594/qsdaHb5EOg9FhN6ZqNnggX1O0rQ0N6OkF6HuuJi2AJ+pGZmISUpgMKSBtjsAei1zdi6vUWEVjVM6afh+AHJSDAFEfz/lXFERNQNMYQRUbcWCgbha2iEfctWNLz3Psr+8U/s/uPtqPjXI2iY/SFs69bDK7arZH8fiwUakwkaoxEqg0Gs00ElL+zVmv2LrOrQGA3QiFARlUIB+I3ZyE1PRVY84CqrQn1jM9prKlHZWIl6fU9kJfbHsGFxSMoyoGZXJRobW9FWU4HaxjrYgjHolZOKlGQT/AeRSNQi6LU0eJA25ETccNcjeOzhO3HFsb2RYjTBqN2F0qomNHTIwObDpq+WoKiqHn5NDNKGTcHFt9yOe++7HTdMLECcPgiPCHf7qERoCxZ/htkrd6PGoUZij1E49Yrbcf+D9+PvN56KYT3EOZoqMOfdr7Bpdx086n4YNSIVCSl66HZtRlFDB+wqN3YVVaOtKYSxE4cjXQTLiu2laHW6obEXYsNuB9psAZiPGoQeVisM4vUygxERkcQQRkTdUtDlgqeyCu3LVqD6medRdtd9aPzwI/jqG6AWAUstwpYMXsroDPLiXdyqRfjSxFihiY+HLjkJ+vR0GLOzYMzLhTE/vJjy86HPylDKRifZLywO2T1TkJIjgmhTHZpbW7B9byXaamuhyuyJjPQ0DMnPQKIIarq9e1FdX4utVbWwNTciZByA3MxMpMb4D65WKOiD1zgSZ5xxGo4fmghzynCceNJQ9Oyhh+x2JyscQ0EttKFS7NpjR1tbEF79SJx9zjScOnEQcguOxqVXn4mhvVNF4WDkoIBWF0LRxi3oaJO1VXqMnnkhZpw4FNlJqRhw6pWYOSIf6SYNjHu2i8DVhmZvCD0HDUB8bAK02mJs3tUGV9N2bCsW2xyDMeSk0RiSHoeY7Vuwq8ONth1bUOpsR0fAhHFDeiImxoQgq8GIiCiCIYyIuhU5qIardA+aPv0c5Q/8SywPwbZ+vQhZ4g1RhC9J1m7pRNAyZGTA1LMnzAP6I/aosUicOhnJZ05D6vkzkXHZpci8dhayf38zcm//I3L/cpuy5P3tDqTOPEepKYtWSr+wnHC/MI2qCo0tIpRsbkJjnQcxPbOQlBSPuMxcZCTnIC5UiarmQmwrcqC9MQRtQQ9kpaUgTmmKeBBk37yCTKTHW2D2+sVDn3h+vwhe4b2VEQzl4BmtbWj0uuGUgblnGlIseug9PhHSPHDqTbBq9TCIZwzvJUc+bENrYwBel3ycg5QYDdRqL/zi+B5XPFJz9TDGiINrbHC7fPC7/TD0HIK+ifGI16mwo6QazRvXoMjZhva83sjJGYZRyVbEGUqwu74dGzcUwWNrR8A4AiP6i3BmEeGVGYyIiCIYwoio25B9vtqWLEPFw/9G7YsvwVNdDY3ZLN4JxVuhuHjXxMbA3Kc34o87FqnnnYPM62Yh96+3o9eD96PHbbci/dKLkTJjOpKmTEbc0eMRM3woTAUF0GdmKrViypKZAa0IcPv7HkWjoAhGKT2QmZSBVI0X1bXF2F5ci+Y2IwbkZSInxQpXbBZ6paYg22RDc0URCksb0eQEMvOzkJ6aEOkPdpBCKgRE4Z9szGcQoUkOCS/v21xw+4MI7hvZMOCHLxjEd8erFCHNooJa7hBywO0TRw+pRZ4Ti9YLt12Ul936QjrIyaPV8MNrHYBxfRKQHKuGp6wa2wq3oc3ejrj++YjX98bAEYmIT3RgV/kWbNrsgKPDB8OQkSiIj4M59DNeLxERRT2GMCKKfuIC3F1ejvp3Z6PqiafgramDJiYmvE0EMH1KCqxDhyL17BnI/cufkXXDtUicOkWsGwJdcnK4HH0r5IffnI1emanIi1ejobAYJRW70Wzojdz0NKTGe+D1pKFH7zSk5xlQu60Yu6qq0AYr8rNSkJJkPqj+YAdNhsK4TOTGWxCnF6GrvBgbivag3C5iV9CFpuJdqG5rh3f/cPYiYAVikdtLfN9jDOJHoBol20uwp9omwpsfzsb1WL+1Ba3topwlG2kJFhh1Afi9ZhQMzkJMogW66r1YW1SBBpsGY/r1gNWkRlavvoiNS0Ttng3iWG1wubQYMLIfUmMtUB/QH42IiIghjIiimmx+KAfdqHrsKWWgDZWs9dLIt74Q9GmpiB13FDJnXYm8u/+KpDNOgzYxIbwj/YRwv7CM3CQkZRsQrK1He3MjOjJ7IiczHSkaEdL8QWTkZCE1LQ0d1VVobqmH29gHORmpSLYeZH+wgxaE35OK/sOykJZqgl5bhC8+eAdvvbsAi76cjSdem4ddle3Qar/9yAt4Pegx8kQM7d0DMSYNtn70Kl5+9V3Mnf8lZj/xJN7fsQe1Hh1Sjj4aw7OTERsSz+H3IWnASGTEpsCE7dhR2oY2+wD0ybPAYvDBkNMTmZY4hLYVYo+9HR2qnhjZLxExZhWbIhIR0XcwhBFR1JIBzLZ+I6qefg7OnTuVSYRlXyLZBNE6bBgyr74SPf74e8SMGR3pXEQHKxgQgSQ7F0lJqSLQeOF1e2HKSkdSWgoMgaDYHoBJhJL0BBFYlO0e+MTj7PRMJCFwQNO8kNLHyyfL+AMHhJUfWy/IERpFIPKKbX6lWWMIfq8KvY87DSdMHIOcOCsMtevw0VN/xx0Pvo2i+IEoyEmH2ecWxxLl5bGCXtgTx+K86VMxZWxf9Eh2YseXz+Ofd92Hxz7dBZsqCfmDj8c1Z09EzzRLuOYu6IMnYxiOTotBgkoEsFYHHIkF6JFohVnlgy+lF/rHG2FprkONrR3O9FHomxoLizbynERERBGau4XIfSKiqCEnW5YBrPblV+GrqQkPuqFWw5iTg8QpJyLjyitg7JETKf3bs9lsWLFihRIeJh49QQSILj6PmAgVeosGthYnPH4DkjLSMGrC8Th6eD8k6HyyBShg1cFX1wqPR4PYrAzkjRiPY0cOQE6MSoQasV321wraUFPVDBdMSOkzHBOGFiAn0SACtA3VVU3wqMxI6T0cR4v1WQl6BKFGsKMalc1eqM3J6DPiaAwryES81gO3PhuDh+QjWTy/V21FcmYuBh13IX53/UUYH9+BdncAMf3GY3z/bCSZVCI8+mHMG4mjhvdFuimIgCEOaZk5yMnriyHHnYHrr7sYR/eKgzbgly83/KJFODNhDxr9eljj0pB17Mk4bUQeko3ieLBA6yxHq8qEuMQ05J90Ok4Z2gMJhs5dEyanASgvL8emTZtw4UUXwWKxRLYQEdFvRRWSs2ISEUWRkM8H28ZNSgDzVFVDrdcrNV2WIYOQfuH5MPXuHSl5+NSIIPjgAw/A5XLiL7ffBrvdEdnSdSkTKhsNMOjDkyAHvG64PR74QyrlsRzoQm8yKtuVZhd+D1xiuzcgvh3ysSCPYRRl9DoN1AEvnG6xXSY0lfaA9R6x3iv2C4n9xEeWxgiTUa9M7BzwusRzehEQz6mQkzAbxX5aOcgGEPR74Rb7hnRGGMXPgdrvhNPjQ+Db0epFFtRCJ0L6vn1ktZUcAdKj1LR97yNSbFMbLDCJ16S0avW74RDHV46nnJpZ2SaPE/K5xHmL5+rkn7JarRZLly7Dyy+9jM+//BKpqamRLURE9Fthc0QiiiqyBsyxoxA1z8vRD2v2BzDr8GHIuOLyIxLAopWs+/G6nbB1dKBDLEoYiQQwZbsqCJ/Ybo9s73B64DsggEnyGB6XQzlGu8MttougJb5f310v95MBLLwHRChzOWyR55Qh54AjhuSw8w7YbXK7DXbxnLIpYcDjgsPWDpvruwFMCgX939mnw2aHwyX2+6H0JM4t6HXCYd/3miIBTNkmT028Xlt4m/JcnTyAERHRkcEQRkRRRU623PjBHHhra6HW6ZRBOGJGDkf6pRcd1uaHRERERD+GIYyIokbI60PH2nWwrV0PtdGo1FpY+vdH+mWXigDWI1KKiIiI6MhiCCOi6BAKwVVaiqZPP4PKZFSaJepSU5B85hkwZGVGChHRby3IruZERP8TQxgRRQV/eztaFi6Ct6ZWmQtMjoYYO2oUYkaOiJQgosOhvLEaG/buwJ6GSjTZWuEL+CNbiIhoH4YwIurylME4CovQOn8B1Gaz/FM8TL16IenUkyMliOhwWbB9Jf70zsO4e85TeHHJB/hy63Jsq9qFypY6dLjskVJERN0bQxgRdXkBOQre+o0IycmpxKKNj0Pc0eOgz0iPlCCiw2V7VSl0Gi1q2hrw1bYVeGjui/jT2//Cvz9/Ge+u+hwrSjZib2MVHB5XZA8iou6HIYyIujzZFNG+YwdUOp0SxHTp6SKETYhsJaLDRU496g8GYDGalCkF1Co1TDojgqGgCGe78NY3n+P2dx/BPz99Dh+s+wrbqorR0NEc3pmIqBthCCOirk1c9PkaGuHeW670BVNpdTBkZUAbFxcpQESHiwxhs46fibNHT8H4PsPRL7Mn0uKSoNfqle16rVYJaHsbqvHSkg9EIPsPnlv0HpbtXIeyxmq4vG6lHBFRtGMII6IuLeB0wrFzpwhfmnBTxIR4WIcMjmwlosNJrVZjWG4/XDD+NNxz1k34+5nX46rjzsbJQyZieG5/ZMSnKrVjklFngC8QwKLCNbjz/cfw4GcvYM66BSiq2QOP36uUISKKVgxhRNSl+Ts64NxZDJVGq/wVXoYwy8ABka1EdCTJWrDj+o/BDSddgAfP/QNmTZqJEwYehX4Z+Yg3xSjNFDVqDcx6I0rry/Hsovfw9w8exycbFin9xuR2IqJoxBBGRF1ayO2Br7FRvJuplOaI+pRk6FJSIluJqLPQarQ4us8I/PGUK3DnmdfgvHGnYFzBUOQmZUKv1SllZBhrd9rw+Pw38fDcl7BwxyrUtjUp24iIookqJP90TETURblKd2Pv3fciYLMrc4MlTj4RGVddEdnaedTU1ODBBx6A2+3CnXfcDrvdEdlCdGRptVosXrwEL734Ej7/8kukpqZGthweWyuK8c2uTdheXar0C3P7PNCo1QgEAsogH8f0HYXThh+HPrL2zBwT2YuIqGtjCCOiLk02Rdx9+52AeCdTm01IPnkK0i65KLK185Ah7KEHH0RzczNuvOFaOBwcnvuXkqPuBZWPrvDHl0ol18iFfgmNRo3t23fgtVdfOyIhbJ/atkZ8vP5rbKooQkVTDQIigKnVGvj8PqWm7NRhx2LykAnom54f2YOIqOtiCCOiLs2+bTv2/PHPUJtMUFutSJl2OlLOmRHZ2nlUV1fj3w8/jNVr1mDwoIHw+/2RLfRzyY+t2NhYmIxGeL1epVbRH+DX89cwGoxYsXIlFn799RELYfsU1ezGZxsXY0f1btS0Nijr1CJoyxqy3OQs3HjS+RiZP0jpS0ZE1FUxhBFRl9axdh32/vUuaMxmaOLikHr2DCSdfkpka+cha8C++OILbNq8WamzCdfe0C/hDwSh06igFh9faq0WfvEpFgwE+DX9FeSFgPwa3nPPPUrA7QxWlW7Gl1uXo6S2DI22VmhF6JK1Yya9EdefcD6O6T9a6UNGRNQVMYQRUdcl3r7aV6xE2T8eUGrCdAnxSJ15DhJPnhIpQNHqk48+worlyzBqzBicOf0sGAyGyBaKNvO2LFfCmKwhk0FbXrXIMHbZxOk4eehEJMckREoSEXUdHB2RiLoucUGmNhqVP+PLOpCgz48AB7zoFnw+3/5bu92m3KfoJIPW7adfjVH5g8XvufxPjrSowQtLPsAry+aguqU+XJCIqAthCCOiLk0bG6vUgklBjwfeJg5nTRRtMuJTcMcZszCx70jolDkB5XD2Bny+aSmeWvi20lyRiKgrYQgjoi5NpdNBl5ykDNYQ8nrhb2mJbCGiaGI1mnG7CGJTh0xU+oLJ33mjCGKrdm3G68s/hs3FWnAi6joYwoioS1MZDNAlJSr9wxAMIuB0IhQIRLYSUTTRqNS4cfKFOHPkCTDqDEoQM+j0+GzTYnyw7iu4/Z5ISSKizo0hjIi6NLVeHw5hIoDJPmJBtwv+pubIViKKRpcdMx2nDDtGGTFRji4mA9kbKz7FvM3LEAyJ9wIiok6OIYyIujS1yQhdWpoyvDbUagTaO+AoLo5sJaJodc2kc3HsgLFQRSbtlhM6P/v1bKzZvVV5TETUmTGEEVGXJucHMxUUQCUCmBy+2t/aBscWXoQRdQe/m3IRxvQagqBsjqwI4dmF76HDZY88JiLqnBjCiKhrE+HL1CMHxpxshIJBBL1euMvKEbBx2HKiaGfQ6vH7qZchP0X8/ovH8g8x1a11+GzTknABIqJOiiGMiLo8bUI8YseMUQIYNBr42trQsXZdZCsRRbMESyyuOv5sZeh6SStuP1w3Hw3t7BtKRJ0XQxgRdXmamBhYBg+CWquNNElsh2P7jshWimby+y3+DT+gbmt0/iCMzB+ojJYo2dwOvP3N3AOaKRIRdS4MYUQUFfQZ6TAV9ETIH0DIF26S6G2oj2ylaBW+6OaFNgGXTZyuzCUmyaHsv9q2EtUtdcpjIqLOhiGMiKKCLjEBsWPHIhjwA1otvLV1aPl8HkJBzhlG1B3kp2RhfO8RkUdAIBTE8uINkUdERJ0LQxgRRQW12SxC2ChlgA4EAgg4nGhftQaO7YWREkQU7aaNnCT+DTdPVatU2FjG338i6pwYwogoaugzs5A87XTlvkqrga+hEU0ff8aREom6iYK0HMSbYyKPgJ21e+DyuiOPiIg6D4YwIooaaoMBsaNHwzpsKIIer9JTyFVSgtaFXyMUCoYLEVEUUykDdOzj9ftRVL0n8oiIqPNgCCOiqKJLSVJqw9QWi9Ioyd/ejuZ5X8G+cXO4ABFFtWE9+kZGzQw3SdxRvUu5T0TUmTCEEVGUUcHcuwBJU05EKBCASqeDt64Oda+8DufO4kgZIopWyTGJkXth7S42RyaizochjIiijiY2FkmnngLrkMHKBM4qjRbuykrUvvwaPJVVkVJEFI302vCkzfuoVLzUIaLOh+9MRBSV5LxhaZddAlN+PkI+nwhiajhLSlD7yuvwNjREShFRtNHrdJF7RESdF0MYEUUtc0EvpF96EbRJSSKIhecLs2/bhoa334W3nkGMKBoZtYbIvbCg+I+IqLNhCCOi6KVSKU0SU2fOgNpkBEIhpVasbcU3qHvjLbjLKyIFiSha+AK+yExhYRqVJnKPiKjzYAgjoqim0usRf9wxSDplClTqyFteIID25StQ+/xLcJZw5LSuyO/3w+v1KrchEa6J9tlZs1eZnmKf9LikyD0ios6DIYyIop7GYkXy9GkijB0LtUEfHjVRBDL71q2ofuoZ2DZsUtZR15GXl4dRo0ejZ89eMBi+2/yMurcNZYXYl8KC4s7w3AHhB0REnYgqxD8hElE3EbDZ0PDBHLQtXgpfSwvUer0yeqIhPR2p55+LuHFjoTabI6WJqKuRlzTnP/1HtDk6lMexJgveu/HR/fOGERF1FqwJI6JuQxMTg7SLLkDKOTOgz8xAyONVgpinvh61L7+Cpk/mwlPFIeyJuqqSurL9AUwanNNH6RtKRNTZMIQRUbei1umQfPqpyLj8Uhjz85SBOtRaLYJ2Bxrem43aF19Gx+o18Le1RfYgoq5A1oK9883n+2u9guLxsB79lftERJ0NQxgRdUtx445C5vWzYB4oLtICgXAXEnHx1rFuA6r++4QIZO/DUbgTIa9XKU9Endum8p1YVbp5/0AtctLmYbn9vjNSIhFRZ8EQRkTdlmXAAGRdfy1ijx4PTVwcgl5fuJ+Y243mT+cqYax57hdwV3Aoe6LOzOv34dVlc/bXggWCARzbbzRykjKUx0REnQ0H5iCibi/gdKFt0WK0LV8B9569SghTaXUIiQs7WTtmGTIYiSedAGNeLgyZWVDptJE9iagz+GzjIjw2/01o1RqlVjvREovHL/krUmISwgWIiDoZhjAioghPdQ1avvwKtvWb4KmRA3SooBIXdUGvR+lLZh44ADEjhsPUuwDGHj2gjY8L7/gbsNls2LRxI/bs3RtZQ/TzWMxmnHraaTBH+YifK0s24t9fvAyX+D2V/MEAbjjxAkwfdaLymIioM2IIIyL6HvuGTWj5+ms4txfC29Ss1HzJecXkIB6hYBD69HTEjh4J8+BBIozlwJCVCZXm0NaOVVRU4K933okFC+ajT+/eCHAeMzpYKhVcLhca6hvwzerVyMnJiWyIPhvLivDgZ8+jzdkBtUoNX8CPUfkDcd/Ztyh9woiIOiuGMCKiHxB0udG6eDE61q6Hp6ISvsZG5eJWpdEoQUwZ3t5sgmVgf1hHDIcxNxf65GToUpKhNpkiR/nlKisr8c/77xfPFcA1s66Gw+mMbCH6aRrxM1pcXIxnnnkOH370EbKzsyNbosv2yl341xcvoa61EWp1OIANyOyF206/CjmJ6ZFSRESdE0MYEdFPkBM8d6xZC/uWbXCXlcNTW6MENNk8UYYyWTsWFEFJl5AAc0FvGAt6ikDWQ4SxFOhFINMlJSnlfi4Zwu7/xz+g12nxhz/8Hg6HI7KF6KdptVosXboML7zwIj765JOoDGFbK0rw+Pw3UN5UA40IYHIgjh5JmbjttCvRNyM/UoqIqPNiCCMiOhjirVIGMdvGTXCVlMBdUQl/aytUssmTuAhUyKHu/X6o9HoYcnJgKuilDOZh6dcXZrH8nDC2L4TptBrccsvvGMLooMkQtmLFyqgMYR6/FyuKN+C15Z+gpq1BGYgjEAwiOSYet0y9FGN7DYmUJCLq3DhEPRHRwRAByjpsCDKuuBRZN92AlBnTETdxAsz9+0GXmCg2q5T5iWQAk2U9IkS1Lvwa1Y8/habPPo8chIh+qerWery/5is88sUr+wOYP+BHrMmCS46exgBGRF0KQxgR0c8kB+KQISz3L39G5jVXI/X8mUg65WTEjh0DY14eNBaL0m9M0sRYoUtN+UVNEolIVkKHsLWyGC8u+UBZZM2XRqWGx+dFj+RMXDj+dJw89JhIaSKiroEhjIjolxLBytSrJxInn4SMWVeixx9uUWrKUs4+C4knngDL4EFKTZkpn31UiH6uYCiInTV7MGf9Avzni1extGgdjDo9AmK9HIhjfO/hmHX8TJw1+qTIHkREXQdDGBHRIaK2WmAdNhQpZ52J7FtuQvaN1yHt/PNEEOsbKUFE/8u+8PXhugV4fP6beOyrN1DVWg+dRguvz4eshDScOfJEZRCOowqGRvYiIupaGMKIiH4jhuxspR+ZPjU1soaIfkwoEr4+WDtfCV5PigBWXLsXRp0BwWAQWo0GY3oNwRXHnoVrJs1EnDkmsicRUdfDEEZERERHhOzvVdPagPV7tyvh6wkRvJ6c/xZK6spgEOFLbtdrdRiW1w9nj5mKW0+9HMf2Gx3Zm4io62IIIyIiosPG6/cp83utLt2C99d+hRcWv4+HP39ZBLC3sFPWfOkPCF+5/XDu2JPxuymX4vJjpiMlJiFyFCKiro0hjIiIiH4zHS47ykTo2ly+E0uK1uLd1Z/juUWz8a+5Lyg1X3Jds61NCV2y2aG8HZ7bH+ceNRW3TLkEFx99BnKTMiJHIyKKDpysmYioEzpikzWrtdDpdNCpge9+OISUYfcDfj/8geD3tlFnciQna7a5HWhzdKDVaRO37Wi0taK2tRHVrQ3K3F6y6aHH54FGo1Hm+ZJXIP5gQBn1MDM+FZkJqeiXmY9j+o1GDwYvIopiDGFERJ3QkQhhKhHAgm17UFRUjD3NciCEyAbxMRFS6WFOSENeQW/kplqhC/rgC/LjozP6LUKY+AmA2+uB2+cViwcu5f63i3xsd9tF2GpUgpYMXLXi1u5xQa1SQaNWQy1Cl7wfFD83/qAfJp0BGSJ0ydEO85Kz0D+rFwaKhQNuEFF3wBBGRNQJHYkQptZZ4N/2Bh557Em8ud4Ds1ZcLPv9CMoQprEiqUdfjBgzGmPGTcTE4b2RFaeBzx+elJp+DTV0Rj206hB8bq8IKL/uY/lQh7BVuzahoqUONpdDqemyuZzKrV3ed4fv21x2pa9XOGyplcmUVWKR8U3+/ChLMAizwajUeGWJ8JWXIoJXZi8MyC5AnMkafjIiom6CIYyIqBM6MiHMDH/he3jq2Rfx3gYnEtJykJWRjnhjED5bIyr2lqOm2QZN9giceun1uPLkYcg0BOBlDvsVVNDqOrBzyQaUNhnRd9Iw9IgzQfMrgtihDmG/e+Of2FReJPJUSAlWsjZLtW+JlJETl8vtSmCXi1hlNZiUWq04sxWxJnFrtCI9IVkJXgOzChBjsoT3JSLqhjR3C5H7RETUSXR0dGD5smVKzcJRRx0Fn88X2fLbUWl0CDbuwLr1G7Gtwo7M0adh5sVX4ZwTRmL4oD7ITdLA2e5Cc2UJSqudsGb3Q7/8RBEYDkhhKg20ej0MYtHLvmVi0Wj2XaBHyhxIrRFlvlteK4Knav/FvBp6gwEGg9iugdKUTawWxD9qsZ/cJvbVIBgOAPvXG2HQhpu+ydeljxxfr9OKECFrZWQ5bXi9Xm4Xz6tRyyf4gfNUiaKyjCF8DLGPLKuSz3Zg4ZAaWmP4XDWhgDgjNXRiH4Ny/PA+YofvHF+tt8LUsgCP/v3fePqDKhRMPw6Ds5NgVotzDCiv5meTNVEVFZXYuHEjzjv/fMTGxka2/DLr9mxDbXvT/uAlk5f83gTE10onvi4WgxnxImylxiUjNzkD/TLyMSJ/AMb0HIIJfUfguP5jcOLAcZg6ZCKG5/VHdmI6DOJ7TkTUnbEmjIjoF/KLoBTosCHodiPk8yLo9Ylbn7j1hm/Foly4igtwlUaEjYQEGPPzoDYaI0f4cUe6JuztVc0YcOYtuPGaK3F0qgNeGGDVNGHJa4/j8Tfmo7hBhwHnXo+brp6BkXE+eANyfwPUrgbsLS5CSXUb3LKpoghE5uR8DBzYE5mxOgR8/v3BQinvrMPu4p3YVdMOr19uEaHLmoKcggLkZSTAGmrE9k2F2FvdAndSb4wZVICcBL0IOBoERGDcWFiGmhYPEvuMweCCLCSaVPDVb8eG7btRGeqJo0fnw9xRhu07K9HiEt8TlREpIhgM752FONdubNpShPJGF+RT6xLyMGRoX6TH6JQwFibOx6hCR/lOFJWUo8HuU8KHypKCXgOGok+aWZQQgUsGMF0HipdvQmldG5LHTMaIFA/Ktm9Gab0DvoDcJwODRg5BjzgRQOTxRQD1tezBuvcex3+/2oHa5mxMuXIKBqdaoNLl4ahxvZFiEWV/5sf0oa4Je3rhO1i3e5sSnEx6owhdpv23MUZLuLbLZEW8JRbJ1jgRxpKUYEZERD+OIYyI6CAERAjyNTcj0N4Of1uHuHhuhbe2Bt7GJgTtdiWIBd0e5TbgcoUfezwihKmhNovQJW5jRg5H+pWXw5CWFjnqj+sMIaz/GTfj+qsvxwQRwjwiZKkMMVAVvYtHn3oR769phH7URbj12stwzhAzXEEN/A3F2LB0Lj6atwyrC6vQ5vSJZBOD5J4jcMxxk3HWGUejf048NH6/WK+Dv3YH1i75HB99tQJrC6vR4QogpNbCEtsLk6//A648cyIGYiUevPNRvD1/O9qHXoaH/3wZpg2Jg0dlhnfVw7j9P+9hQaENwy7/N/5y2SkYmq6BY9mD+NPDb2NRy0Rcc8VAaPd+g8++2ooapwhCujjkjTsdV86YAGPlArzz7hfYVOEENFqYswbjmHOuxjVnDEePWK2Sk3Q6L8rWrcCiLz7F/BUbUCwClUeuT+6FsROnYvq503FM70QYRcg2xuzCcxf8Da+sKUL+5Xfi1MRarJz7MVbuFj8zKg30SQU45qSZuPjik9AvLQZmfxk+eeLfeP7zQnSENCLE+WBr6oBLBNVA0kw89cq1mJCXAJUIcD/HoQ5h2ypL0GJvR6xsVmiUYSsGsSJ06cTXjIiIfhnOE0ZE9KNCcJeXo3XRYtS//S7qXn4N1c88j8pHH0fVk0+h6ZO56FizFo7CIrj2lsFTWwdfW5tSEwY5QIHJBJXRoDRZCzidIpR5oRYX611VyO+FJSUTScnp0IuPD1dDCzra2uHT6GAKNGDDl2/isRc+wKJCJ5J6j8MpZ56FU4/KQ0zHRnz6ytN47N2lKGn2Kk0ODe5qrP70JTz24hws2elGSp+xovzpOP2EYchMtMJq1MCgkw3+xK3JghiLCSaLQVz4y3XK2YjgZBDrYmA1yVoZLTQqsU7+XVGuj01Egn8XvnzjDXy5S4UBJ56OyWMKkJMYQuO6T/Hmk//Afe/uQKDX8Zh28jj0zUqBoa0I896YjWU76+ESoVmjNcFbsQjvPPMEXp27BjVJozB15mUi2J2HY7N8KPnqRTzx9FxsqHUgoBbnFVJDb7YgPiER9ctex6NvrEBH1tGYNn0yRvZMQ3ygBkvffh7vry5Hm08Ftd8Gl7kHclOsMGoD8HlSMHzq6Tjn/HNw9vRRyIwxhF/PETY4pw+O7T9amburV1oOkqzxDGBERL8SQxgR0fcEXS44tm9H40efoPblV1H99HNo/GAOOtZvgKeqWoSqADQW2WRMCzk0gZw/K+QPiCXcHFFeOKv1OqWMxmxWmiLKahWVuFA/mKaInVYoiIAlFhaTCEmya5DdDqcIl16dEe7S5ViydjP2dKiR2f8onHbJ73DrH2/Fn265CJOHFiDT1IqNi5Zg5eYyuA1WuEq+xsJ1hah0aJA9cALOuORmUf4P+MPN1+Kam2Zh2qheSNX5lWaCv4w8wTZ0mIdh8owbcPsdf8FtV09B//QY6A0qVFX4kD/uVFzzpz/jjj/9DmeNzkK8WQ9zWynKm9ph82mhM9mx9ZN52FLdAo+xF44991rccc99eOD+e/G3C49Grx7xqF/xMZYW1qDVL4dfjzyzuHU0eJF//NmYdettuP32P+Cm04ciJcYMo6UFJeWtcDi88BoG4YLfX4ezBqfAqvbB487BCZdfh1vvvBN33XQSCuKNUP3/DmpERBQFGMKIiCJCgQBsGzeh/q23Uf3sC6h94RXY128C/H6lVkspI+7La21tbCyMPXrAMnQQ4iaMR8IJxyHplJORcuY0pJw1HannnI2082Yi9dxzkHr2DPF4BmLHj+vaIUykC7XLCbfbDZfIBkGLCQbxekwaP/aW7EVjTSNUISv6TjgeJ00aiqw4KzJGnIqpYweiZ5wa+oZyVNc1oCUUQOXuKrSJsBMKWDHg2BNF+eHIiI1DUu5onDZlHPplxSL4K4e/lzWSqeOmYtLE4cgyG5F31HgMzEiH2eeB3zgIk6cchxF5cbBkj8a4oakiJAUQUKmhlflNpYHOU4xNxU7Y7OJ161ORaC/BN1/NxqvvfYldHaKsxgi9qRr1DS64XXLQisgTi9fnMwzA6dOOx3BxfK2pB46bOAQJ8SaltswjJ7sWQV2lkoN0iGOLXcK7ysAVCV1i+6979URE1JkxhBERCZ7qGjR9/Alqn30e9e99AE9FJdQGvXiXVIkwEIAuPh6xo0eJoDUVKTPOQtoF5yH9skuQOesqZN14HbJvvlG5zZh1JdIvvQgpInQlnX4qkqedjtTzZyLjqiuQeNKJUGm7bjMuldYIT30Vmhqr4RRhwZqWjKTEJBhDHXDY/XA7ZZRIQqzJCJ3GDZ8IrF6XCdYkIyzxIYTUYp3Xj4DfAUf7vvIpiJVzZGlEMBIhOOD3wuX2KANZ/DQlKYWXHyFHQExPsCr96nw+cS4GM+K0OnG+IvwkJCJep4E24BcZ2ysWGYwiO0riuKq2djSFfPBo9DCFtmDOsw/jrr/ehbv+fgd+/9in2FnRDK/bB7dPvLYD95UjIyb0QJpJDU3Qj6B4Do8cqCVS6MBTlmHsO7vKx5GFiIiiF0MYEXVrQZcb7Su+Qe3Lr6DutTeVfl3amBilJkIy5ucjcfIJSLvwfGRdN0sEreuRdvEFSJw6GTGjRsCYm6vUiql0OqV8NFEGFdFooJEjO4oAY/XXYu3GDdhW3gJVIAa983LQI8cqwpYBRosGepP4molA5vSKUBOQwUoOV++Bq8MLt10cMKSHRgQitdYULm+QX+M2UV4Es2B4CPfwcxmgF7f/7wNK1lJpRRm1uNWrYGt1wuUIj0D5Y+RIhvsDjTI8fCT0iPX77/8Quc1qQZxKC50MUcY+mHDyWTjvvPNw7tkzce7MC8T9C3DJ5Zdi8qAUWHXfC3GC7KL288jXrxYvU9zKr9NPvC4iIuraGMKIqNvy1tWh/p3ZqH3xJXSsXBXuuyUugGWzRNnUMGna6ci44lJkXX8tEk46AbrU1Mie0U8GG7/bgbamRjQ31mFv4RrMm/0cXv9iI3bW+qBNH4qRw4ehICkEj9eA7PwsJKfGiR1bULppvQhrZWhxedBWtgIrN5ZC5DYE4rORlpKEOI0eWTmpiEu0AJpWlKxdjbXrd6G23Ya2ljoUrlyJzbtq0BGUQUSEm6AIRHL+sabd2FVWi0ZPEO6qdVi4ohAVTb7wPGSHWigAv7UAQ3qYEGPwwxs0IWvUGbjq97fhr3+7A3/72234/XUX44zTL8CUoSmIM8ph6iP7/iyR+cBks0R1E6rrXfB7PWivbkSrVw6pHylGRERRhSGMiLolb3UN6l59HY2z34evtU3p8yX7e2ksVsQfOxHpl1+KjMsugXXY0C7dhPCXUmsNaN+zAfPffR4vvPQynn3iETz47Cf4prAJhvR+mHjemThpZC5ifT74fR4k9B2P8aOGIStGhT1rF2L2S0/jxdfewItPvISP14mw5NYjZ8wYjOyfh1iPA/H9xmJQz1zEawMoW/0V3n3pKTz/yut47dWX8PhDj+HDVSVoDohQbExBZrweZr3IazWb8eWct/HCa2/ipcf+i/c2V6EZJuh+fpXTQQjC507BsNPGo3+POJhavsG7Lz6L/z72DJ57/gWxPI+nH3sYf3/ofayvaENQhPdfIhgyITlZh5Cs/dJVYOWcOXjn9dfw/FNzsaXZAZ9aDv1CRETRhiGMiLodT3U16t98C23LlkNtDg+4IVkGDlD6emVceYXS1LD7EZf7QT+8bidcHh+aSjdi8adv4rV35mDBukoEEnph7KSpmHnVzbj2jPHomxCEOyB2C/nhNOZjwtQZuPycEzGmwIDGrV/g1aefwsvzitCk6YExJ87AtWdPwuAcK7xeDzyJA3DCaWfhvBOGoyA9gMpNC/H+q6/g5Tc+w2a7FSlpKSKgeeHW5OKoKSfj1PG9kGT2omr9XLz638fx1mYVhp56Go7NS4KmwwWnd19NlHgNATnSoBMOlxtu3wE1VCKs+T1uuJxOOF1e+L/dIF62B26X3McFr+wfJtaGfE7EDpqGmTPPw2nHDke6bT3mvPgYHnrwX3jwn4/i+TnL0KyNgdVohFruoJLBLXx8hzh+4ICqMVXQJ44vzlNsc+0/1xACXiP6nngKjh6QAbPah72L38RTjz2NdxaXoN0T+MmmlkRE1HVxsmYi6lY8lVUigL2NtuUigBlN4kLbD43Vgvjjj0PCpONgKugVKXlkHYnJmlUaPYJ1G7FsxTfYWOmHXg4TKMiPCY3OjITcvhgxegQGZsRB5XdDZInv0OiNUDnrUbx+BVZtr0CrOyhWmhCf0x8TJoxCnzSL+HqLcKIkHBV0Zj1c1YVY+80abK9sg1cUD4X0iM8bhmMmDEZeslHmO1FOi46iVVi8chP2tHpFgNEjbcAxOPmkfLQtXoBF64tgGDsdJ47qh4wYFbx7l+DzZdtQWudA1lHTMWlkb6QZg1AbWrBxzkKs21WFVssgnHzqUeifHQutWo+mDR9i/vrdqG6zYMjJp2JcvyzEqAPiXDUwmYGW3ZuxatVmlNbb4JNjhojz18enou/QozCybyZiDFpoDY1Y8/Z8bKyqR4d1KKZNG4ueKWaooYWhYTXe/Gozqhs7YB02DdPH5iPZrBavJQStUYfm9fPx1bpdaHT6RTTTICZlOI49eRh6xBmgEYnt53xQH+rJmomI6NBjCCOibsPb2Ijal15F+1IRwEzyAl8GMKsygmHKWWd2qsE1jkQIE8lCJikYDeFJkb9DfFQEAz54vT745RDrkdX/j1oDnU4PvU4bmTdL7OcP7/dDIx6qNTroDeFBOSKRT3kej/vAmipRTmeAQa8TgUmWEmVEmHN7/FCJczWK9SGPE27xHMpTaI0wiWCjE8f0K+v9Ss1TeDJlIwxy0IuQDy6XHIVR2QC13ixetwhS6hC8Lhc8vsABr1EFtVanPL8ycEZkrZwvzi/OwyuC/L7jGywm6EUZeXyn0xN5DSJEqQ2wmPTQiPMP+VxwinM/4OUpAdaol1+z8OsLKTVn3/0aHCyGMCKizo8hjIi6BTkKYuMnn6L+tTf29/+SoxomnzlNLKd3un5fRyaEUTRgCCMi6vzYJ4yIol8oBEfRTrTM+xIqvV4Z/VAbF4eUGdOVWrDuOPAGERERHTkMYUQU9XxNTWie+zl8DY3KQAcaixmJUyYj6YzToNIxgBEREdHhxRBGRFEt6HKhbflK2NasDTdDDIVg7t0bSadODc8LRkQ/qdnehtL6CnS45IzbRER0KDCEEVFUk6Mhtsz9XHaUUfqB6ZISkXDiJGgTEiIliOinrNm9FS8sfh8vL/0Qn278GmvF48rmOuUPGkRE9MswhBFR1Ap6vXCWlMAtgpis9VIb9IgZMRyx48dFShDR/7K1Yic2lRVhzvqFeHTea3hi/lt4fvFsvLb8Y8zfthLbK3ehxd4WKU1ERAeDIYyIopa/tQ22LVuVYcxlLZg+PR0JJ53AZohEBy2E7VWl8Af9MGj10Iultr0RK4o34KUlH+Cxr17H0wvfxotLP8QHa7/C1spi+AL+yL5ERPRjGMKIKGr5W1rg3LYD6sjoh/qMdJj79lHuE9HBGdtrCIb16IfkmHglYPkDAajVapgMJvE4gOK6Mny+eSmeWPCWCGTv4JVlc7Bq12a0u2yRIxAR0fcxhBFRVAr6fHCVlcEngpgkJ2U29ewp7u2bapeI/jcVrpl0Lq4/8QJceewMXDj+dEwaMBa903Jh1Org9XuVUkatHiadAbvqyvHGik/x5MK38NKSD/H1jlWoaWtQyhAR0bcYwogoKvlbW2HftCU8L1gwqAzIYRk6OLKViA6WXoStgvQeOHHQeFx53AzcNPlCJZhddsxZmDZiEvqk5ymDdHh8XqhValgMJjS0N+PjDV/jiflv4vlFszF302JllEUiIgpjCCOiqOTv6FAG5ZBNEWUIk5Mzm/LzI1uJ6JdKsMRheF5/nDX6JBHILsasSTNx6cQzcXTfEUi0xsLt8yAoQpmsGXN63VhStBZPLngbLyyejW9KNiEQDESORETUfTGEEVFUCnm8Sm0YVCplUZvNUBuNka1EdChoNRoMz+2PCyecjhtOkk0Wz8YMEc76Z8qmv0AgEIBBp1dqyr7YshxPLXwbry7/CMW1e5XtRETdlUq8MXKiDyKKOo6t21F621+gMRkh3+Tijz0GObfcFN7YBVRWVuIf990Hszj/2277E+x2TpR7oAM/ulQyaNN+Wq0WS5cuw9NPP4M5H3+M7OzsyJbDQ35vdlTtwrbKXVi3dxu2VpbIlSKwaZVaMK/fhxF5AzBp4DhMHXI0dGI9EVF3wxBGRFHJtmEj9tz+V2isFqh0OiROmYyMKy+LbO38ZAj75/33Y8+e3Thh0iR4veEBEEgOmg4YDQZoddpwXyS3Rxmxj1EsTK3RoGxvGVasWIH5Cxce9hB2oJK6MizfuQGrSjdjd32lUnOmUauVAT3MepPSpPGMkZOQbOXk6UTUvTCEEVFUal+xEmX33Q+N2SIWM5KnnY6UmWdHtnZ+e/bswVtvvont23dEWlQyYnxLhaDsVxQKKrU+IeWx+JdfIoX8WJdfF9kU8PEnnkBKSkpky5Gzdvc2rCzZiJW7NqLV0Q6dRqf0GwsE/MqAH2eOOgH9M3tFShMRRT+GMCKKPsEgWhcvQcW/HoHaZIIuPh4p556DpJOnRAp0fs1NTaiqqoJOp1Nqfuhbco6q1au+we7SUvTo0QNDhw1HTEwMv07fI0NY/379oNPrI2uOLI/fi8WFa7Bw+zfYWL4TOrVG/nUBLo9bGehj+qgTcVz/MZHSRETRjSGMiKKPeFtrX/kNyu6VNWFmaOLikHr2WUg6/dRIAerq5nzwAVatXIHho0bhtNNPR2xsXGQLdXa76svx8fqvlTnEAsFgpHmiDymxCThnzFScNuw4GPWGSGkioujE0RGJKPqoVNDExkKlC9cABD2e/ZM2U3QIiot3+X2Wtz6fL7KWugI50fO1k87FRRNOR7wlBr6AX5mLrNnejpeWfog3V36m1OIREUUzhjAiikpqOXBDfJzSRC3odsPXzBBG1FnEmCwihJ2Bq487BwOyeik1YVq1RgnV762ZhznrF0RKEhFFJ4YwIopKMoTpkhJFAhMxLOBHoKNDaaZIRJ3H5METcM2kczFpwFilRkwOQKMWyxsrPsX8bSsjpYiIog9DGBFFpf0hLBQUj1RKk8Sg0xXeSESdxqDs3rjmhHNxTL9R8AcDShBz+zx4acmHWLN7S6QUEVF0YQgjoqikMuihTUgQGSzcdyjgdMJTWxvZSkSdSUpMImYdPxPDevRTBuuQI2A2O9rw7Nfvobq1PlKKiCh6MIQRUVTSWCwwZGUh5PNDJS7ofC2tcGzfEdlKRJ1NRnwKrj7+HOQmZyIo54BTa1DeVIO3v/mc0w8QUdRhCCOiqCSbI5p69YQ2xqo8ln3CHIWFCHIkvagSnsSaszRHi74Z+SKInY3kmETlsRw1cXHhamytKFYeExFFC4YwIopa+vR0WAYNRNDvVyZw9tTUwb1nT2QrEXVGY3sNxSVHnxEJ2FD6ib2ybI7ST4yIKFowhBFR1NImJiBm9CiEfD6oNBr4mpthW7chspWiQUgZ8ZKN1aLN1CETMSSnj1LHqVapsa2iGIsK14Q3EhFFAYYwIopaar0epoJe0CUnKY+DDgecRTvhb21VHlPXx+aI0UvOI6bRaJX7WnH7zjdz4fBwhFMiig4MYUQU1fQZGYg7egICbrcyQIe7vAJtS5ZFtlJXx5qw6DU4pw9G5Q1UgrZc5CiJJbVl/G4TUVRgCCOiqKaNi0XchPHQpyQrj30dHWhbvkIJY0TUuZ03/pT99ZyyNmz17i0ieMu5/4iIujaGMCKKerJJYuKUkxD0uKHWaOCprETzF/PCc4gRUafVL6MnEi1xyn21+G/dnm2R2k8ioq6NIYyIop7GbEbshAkw9uyJkN8vwpgX9g0bOUgHURcwMLsAKnm5ogKqm+tQ1dIg26FGthIRdU0MYUTULRgyM5B0ysnKfTlSorepGc2ffwFvTZ2yjog6p+F5A6CODFcvo1dhdSlYh01EXR1DGBF1C3Ly5phRI2AdPgxBt1tZ59xZjMaPPoa/tU15TESdT+/0PKjUkZ5h4qbNZRN3WBNGRF0bQxgRdRu65GQknXqyMn+YnLw56PGgfflyNM/9fH8wI6LOxWIwR+5JKviD/sh9IqKuiyGMiLoN2QzROngQks+cBpVOJ1aoEHC60PzlfDTP+wqhQCBSkog6i32jI+7j8zOEEVHXxxBGRN2K2mxG0tQpSJw6WencL4NZwGZD08efonXB15FSRNRZhCfk/hZDGBFFA4YwIup2NDFWpJ59FuKPnYiAxwOVVgt/aysa3ntfGbo+6PVGShLRkRY8YF4wGce8fl/4ARFRF8YQRkTdkjYhAannzkTs6FFKk0QZxHxNzah/+z00fvgRfC2tkZLUGQWDQfj9fs4Z1Q1UNteKf/d9n0OIMVki94mIui6GMCLqtgxZmUi76AJYhgxCUAYxnRaBjg40fvQJ6t95T5nUmTqnuPh4ZGVnQ6fTIRjggOXRbGNZoRK6pYAI3QOzekGl4uULEXVtfBcjom7NXNALmVdchthxYxHy+pQ+YiGPB21fL0Ld62/BUVgUKUmdybDhwzFt+nSMHjMGFgtrRqLZprIiBCM1nnqNFn0z8v/fYB1ERF0NQxgRdW8qFcz9+iLjqssRf8LxymAdimAQHWvXoe6V19C+bDmCbk94PXUKaWlp6N27D3r1KoCZISxqdbjsqGlrDD8Qv5q90nrAauD3m4i6PoYwIiLBkJWF9EsuQuJpp0JtNCnD1avUajiLS1D78muoe+0NOHYURkoT0eGwtGgdApF5weQAHcPzBiDEajAiigIMYUREEbqkRKSddw5SZ86ALiUZQZc7PGBHS4syamLtS6+g6dO5ygAeRPTbanfa8Nmmxfv7g8k2iOMLhkL9vSHriYi6IoYwIqIDaKxWJJ9xKjIuuwTWkcP2D1cv+4o5S3ah/q13lDDW8c1qpckiEf023lszD+VNNcq4iAHxuzauYBgK0nPZH4yIooIqxPF9iYh+kLusDG1LlqF95TfwVFZBbTIpfcZC/gD0GemIG3cULIMHwTxoADRyGxEdErvqyvHnd/8Np9etPNZqtPjvRbejIC1XeUxE1NUxhBER/QQ5YqJt40a0Ll4G2/r1ygAdaoNeBDG/MqiH7EsmB/Yw9+8H69DB0KemRvbsHOrq6lBfXw+/z6c056LOTw6/npiYiLy8vMia7kU2Q3zgsxexuTzcB9MXCGDaiEm4ecpFymMiomjAEEZEdBC8DY3oWPkN2pYth7N4lzKnmDKcvZwwOBCELjEB5r69RSDrF64dE/ePZOrZsGE95n42FyXFxfBHBhnZP98tdW7ix0aG5vz8fJxw4omYOnVqZEP0s7kdeG7Re1iw7RsRRlXK0PRWgwlPXXYXMuKTI6WIiLo+hjAiop/BWViE1uXL0bFilQhmDVAbjeEwFgwi5PUqzRKNvXrC3LsAxvw8seTDmNtDGeDjcHC73Xh/9my8+95sQG9EXq++SM/MhkajFRmMb/ddgvhYbmtrQfH2behorMFZZ03HtddfD71OFykQnZwetxLA5m1ZFv6jgfyJFT+y151wLqaPOilciIgoSjCEERH9TAGHA7b1G2HfshWO7dvhqapWmpCp9OGL5JBs+idoExNhyM6CIStTuTXm5cPUMw+amBhl+6Em387ffecdPP7EU+g/YgymzbwYOeI5dSKMhUIcRKQrUWvUqK0sx5L5X2DBJ+9j1tVX4qKLLoJRhP5o1NDRgre/mYsvZABTycpAFfzBAC6ecAYuGH8qdJroDqBE1P0whBER/UL+DhtcxSVw7dkDx7btcMqmfzY71AaD8pd85e1VNlcMBqGxWJT+Y/qsDBHIspXaMVPPntCnpSnNzw6FwsJC3HXXXTDGp+KaP9yOmNgEeD3u8HlQl6PViuAhfjY+evtVzH3vNTz91FMYe9RRUCu1RNFjc1kRPtm0CCuKNyivTQYwb8CHc8eegssmngmDTh8pSUQUPTR3C5H7RET0M8iwJWu5LIMGwpiXB1N+PrSJCQg6HPC3tgKyL5ZGA7VsRiaCmK+5Be7de+Es2qkssl+ZZeDAQxbCZr/3HjZtK8QFV1yPrNx8eNyuyBbqivbNj1XQbyCWL5qPoM+HkSNHwiB+7qLFvK3L8c43c7Fh7w5oxe+KbDHr8XuV5ocygJn00VnzR0TEecKIiA4BU898JEw+ERmXXozMWVch/fJLET/peKXGSwo4neICMwiVQa/UknnliIUyqB2iAGaz2bCzqAjJ6dno1W+ACGDhob2pa5NBzGy1YsJxJ2H9pk3o6OiIbOnaZP+v15Z/jJeXfIiSujLotTplLjDZFPGcsVNx6dFnwmLgtA9EFL0YwoiIDiFNbCxiRo1E6jkzkC4CWcbVVyLz2llImXkOrMOHQSu2B5wuZc4xfUZGZK9fr1UEOofTgZS0dJjMFjZBjCJypMTMnFw0NDTAG5k8vKuSP5crSzbhyYVv4d3VX6DNaVPmAHP7vEiNTcLVx8/E5ROnI85sjexBRBSdGMKIiH4j+pRkWIcMRuKUk5B+0QXIuOIyZF17NTKuvAxJp56sjKJ4qMgaEzmkt0aj2d+MjaKHTqdDIBDosuFa/kyuLNmIx+e/iReWvI8vtyxT1qnFz6zL68LonoNw40kXYMboyTCzBoyIugGGMCKiw0BO8CyHrI8dPw6pM89GytlnwXQIQ9g+rAGLTvL7KkN2VxMMHRi+PsDHGxaiqrkOeq0evqBfmQdsxpgpuHbSuRjfe3hkLyKi6McQRkR0BMhmiXJOMaJotLuhAp9vXor/fvm6UvP1ycavlfBlEOFLzlcnJ2Xum5GHaybNxBXHzECvtHDfSSKi7oIhjIiIiH61ssZqfLl1OZ6c/yaeXvgOXlk2B59uXCTCV/3+8OXyetAnPRezjp+J60+8EGePmQKr0Rw5AhFR98EQRkRERL9IeVMNvtq2Ak8ueBtPLXwbLy+dgw/WLcCmsiK0O+0w6gyR8OUW4SsPVx9/jghfF+DSiWdicHbvyFGIiLofhjAiIjpsQtBAb7LCGhePGIsJOo1KrOs8QiE1dGYrLLFxiImR58ePyX0aO1qxo7oUS4rWYPaaL/HUfBG8FrwVDl5rv1Lm+mp1dIjgpVcmXfYF/HB6Xd+Gr5MuwIUTTsfgnD6RIxIRdV+qEHtxExF1eWVlZbjv3ntgTc3F1bf8GU6HPbKlE1FpofeXYfWXC7Bx6x44s4/G5BOOERflFnHB3hlGdBQBzNSIjW99jE2lFWi3jsKUs45D76w4qMX5HakPS61Oh7XLF+Olxx/Cu2+/hV69ekW2HFqBUBAOtxN2twM2cWtzOVDf0YT69ha0iXDV6uxAm1yU+zbYxXYZtjRqjbhVKaM3+oMBZbCN3KRMFKT3QL/MnhiYVYCB2QVQHapJ8YiIogBDGBFRFOgSIUxtgNWzEs/eeQ/emrMGLcOvwd1//QPOGp0MlzcQKXQkaWGML8bb59+MtxatQ3Xaxbj36dtw0vBMqH2BqAlhcnLk+vYmJWjZI4scJt7p9SjNBpXF51YmVG5xtIvQZYM/4FdGZ5ShSw4rL78W8vJBDjMfCAXEOrUyuEZBWi56iyU3OQNZCWnITEgNPykREX0H21kQEdFvR1yca40G6HQaqMSVu2yOqDOYYDLpYTYZoFUfTO1ICCG1HkZLLGItRmh/yyaMIXm+4vwsJpjNkfMTYUOtN8Gg14mwESnXhX21dTleWvohXl32Ed5Y8Qne/mau0rxw7qYlWFS4Bqt3b8HWihLsaahEh9Ou1HLJCZVlRZYMY3JwDbPOKAJXDxzbfwwuGn8G/njKFbjppItw1bEzcPaYyRjdczADGBHRT2AIIyKiQ08JXzGw6hwo/3oJNm8vg10vglhk88+iNsDcsg7znv8b7nrqU+yscUJ/GPtqqfVG1K/7EN9sLoFLZYbZ0LXDWLO9HbWtjUr/LY/fq4QsvVYHnUYDTeSFyfm9wn263EotV3ZSGsYVDFNGM/z9yZfi1lMuw40nXaj09bpk4jScNvw4DMvth5TYRGV/IiL6aQxhRES/oZDfj4DdDl9TMzxV1XCV7oajsAjOncVw7y2Dp7oG/rZ2hDpFn6hDYH/4cqNm1bt47eE78O9/PIeV26vg0Wm/G8Jka3i1DnqzKC8HwhCL1WoWgUB9QDk19LEmNG6ch69eeQSz521Co9uA+MQEWE16ERpkPZkWBnGMmLgYGHUiSGj0MFi+PaZF1p6JcBGSfb6MFlhiwutjYqwwymD4PwKVWmtCx5b38eETd+Bf9/8Ln67eA6+m64YxkwiV+wbN8Pp9InxpkWiJR4/kTAzM6o2jRNg6adAEnDV6shK0ZC3XzZMvxqxJM3HZMdMxQ6yXNWBygI2shFRlBEQiIvp52CeMiOgQCLpc8NTXw1ffAG+duG1uRtDpQtDrRcjnQ0jcyvtBed/nF1lFBZVOJ96FVTD37YOkU0+GLikpcrSf74j3CZPhy2CBMdSCPavnY/nSpdiwainWb6mFtucMXHPP73HKMf2R0LECL937AN77aCXax9+Gu2ZNRFrzWqzY1gBPANCnD8X4KZMxICcOavG1Umt8aNgyDx888yQWbyhFa+JwjB0xANmx4in7nYYpx41H35hSfD3nC2zcFsDQi87H0IQGbF+4AIVV7eKYaljzj8dJU49Fv4wObJz3MVZt3IMO+WSmHAyZfAbG9E2HSSXCckgLY9wuzL7iT5i9dB1qUi/EX/9zC04YXQD7sofx1COPYu4WD9IGT8SI4WMwZvKZOHZ0H8SIc/R4fQj+Rp+mh7pP2IriDdjbVA2z3iQWozKaoVHcmkSYkoHKqDeE74vbOJM1shcRER1KDGFERL9QuFarUAldsjbL39YWvm1tRcBmQyggLvRlNYtS1SJv5d0Dqk7Eu2/A40bc2DHIuukG6NN+eR+aIxfCVNCI8GVCK/aK8LVs2RKsXyGWombEDZuKycdPwpDhw9Gnfx6SrBaY3avwsghh736yFqqRp2BUmg+1677G5gq70uzPlJSLXmMuwaXXnYOxg7OBwjfw/MP/xidrGxHSmaAP2NDeYYfDB1im3ocH/nITTs5Yigdv/Btmz6/E0AsvRGZwL7YuXIi9LSLEiX2saQMx+vxzMDpYhlWff4CVxSIkqw3QW1KQ3f8MXPLn6zFxcCYMQcDwAyHs+GFZ0NjrsXfHJuwt3ohVc2dj4ZZmJPQ/GiNHjMboKdNxnAxjai/cXv8h7692qEOYzx/+I4BWrYmsISKiw01ztxC5T0RE/0PI7YFt/Xq0zPsKLQsWouObVbBv2Qa3CEG+hiYlfEGEL5VaLd5hNcrt/uAl/+YVFFf6yiIv1UNKUDP37In4iROgNvzyZl1tIgAuW7pUBIt4jDzqaPh83siW35BKDY3Wjbr18/D5Wy/h4w/exbwVpUD+iTjjoisxfeZMnDT5OAzIT4ZRXO8H5RxhgSpsWroCO0qboPJWY09dCJljZ+KMU/pD39GMVhFoq3fvBHoMRd/+/RDjboZX60NzTTPam5rhzJyAqdMvFOUnYdz4YzC4ZwbiNBVYv3gNyuoa0V69A7va4tH/xPNw8sgUuNpa0dZUhZqKImxesQuaAVNx8vRjkOZrgq29BQ17itCWOhKD+/dEklEtvgfN2PHJAuwor4HNMgTHTDkK+WlW8VItSMobhH4DB6Nn3yEYMDgP5sb1WLpkJYqKd6K0uBSemFykJsVArzm0MUwtfo6qK8qwac1KnD1jBhITf12/K40ywiF7IxARHUl8FyYiOgjeujo0fz4PlY8/ibrX3kTT3C+Uvl0BpwsqrQ4qcaEcCgUR8voQcLnllTP0qSkw5uXCMqA/YkaPQvwxE5E4dQqSp09D0hmnIeGkE5R1ZhE2VAZj5Jm6EJV4jb5yrP/iFbzy7OtYsaUZ8QMm48zrbsMV112Nk0b3hlXtgcvtReD7bfVUAdibkjB08qW47Nbf44JZt+OymcehINsMTbAK9Y2taO3wQZszESdOOwOD85JEaPPAmzgYY0+7BBdefTOmHzcIaTEqJdMqhxQxz+bMw8QZV+OKm3+Hi26+BSeP6IlEgxbB+mqYRp2N6df+GZfMuhXXXTIVuenx0OhtqGlog8MhgvMBlZT/TygAv9sOZ9CC7NFnYIY438uvuwYnDIqDq/hrfP7yg3jly21otIeg+ckDERERMYQREf2koNuNpk/movrJZ9Dw7ntoW7IUnura/TVcsr+XJsaiBK34445F6nkzkXXjdci+5SZkXX8tMq+5GhlXX4mMyy9F+qUXIe2iC5B2wXlIu/A8pF98ITKuvBzxk46DWq+LPGMXIkfQQzL6HXMWTp46EslWNzqqtmH1uw/i2aeeweLtLQjp42A1ywE0vhdMAl74skZg/LHHY1iOBRpjHvoOyEdasghMIfF1DYryIreFRLCStzLDhWOc/DcU+U9OoBxeq5DHzB2HcWPHoE+yHtrUkRgyIA3JMT54fbHoN/EYDOuXAZMhGQUDeiMu3iwCnCpca/m/cpNKC50pBrFWoKPkC7z7r3/g1bcXoLSyAR1B8TUQYfLksT0RbxRnxVb+RET0PzCEERH9CE9tLWpffhUN770P28ZN8NtkvyU9Qn6f0ozQ1Ke3Eqiyb7pBBK0rkH7JRSKEnYPk009F/DFHwzp8GCwDB8BU0AvGHjnQp6dDl5gAjdUKbWwsdMnJMGRlhgfk6Iq1J6EAfOpU9J04Axfe+g/cds/fMX18IqqXvIW3Hv0nnv7nbXjw3vvx7ucbUWeTTTQPeI1BEaBSEmE2G6Hz+cVDPwJ+eRvZfoDvd12Wj8NLZMU+ckVCDAxaDdT+AAI+OfKiGlq9LGsVYVANtUasF9872S/qoMOSSgOVtwpF857GM/fdjv/84z48/9iDeH/hLhiOmoVr/voAbr71Npx9dC8RwlThlqZEREQ/gSGMiOgH2LdtR80zz6N1wdcIOET4MhqV4eZlvy3Zfyvr2lnInHUVUs6egdixY0TQKlAG1pDluhNVyA9vSIv4/KNw7BlX4sIb/oo/PvgU/nDF8YitWIDPnn9AhLFnsXTjXrj03x+i/sAaroOk0UIj57MSi1arhfr74VWGOxnQlAfhoBbOWiGx6QeC20HQ6M1oXvMaZj/3AF548gUs2WPB2Cvuxe33P4TrRQA/99xpGNU7GVp1kLVgRER0UBjCiIgOEBIX8e0rv0HNsy/AvnFTZKW4sA4EEDtqBLJuvgHpl12KxFOmKkPLqw36cJnuTHx9Aj43nO4AjKkDMGrquTjrqj/hhvuexN//di1GWl1obqiHUzbhjOzys4QCCIjvS1AtwldVKaobWtFub0F5eTna7K5vBz75jcj+fq2lxbCnTcR5f3kEd957D66YdS3OOPUY9E01IuhxweML/KKAR0RE3RNDGBHRPuJCv0MEsLpX31AmUpbzeMk+X9qEBKScew7Sr7gMcRPGQ5+RHtmBviuEYMALj8uNgCkbfY+ZhtMu/T2uu+cWTB7bGxaP7+fVekkigAVjcpAWY4JZfGJpWzbi61fvx8N3/h4Pv7IApfUe6DS/bQgLeh1IPeZ6XHLjHbj4iqsw5dhhSLUAXrcbPr/sl0ZERPTzMIQREQkhfwBty1ag7vW34KmpCQ+UoVLBOmwosm+4FinTp8HYo0ekNP0voaAfPpcTHlUceowaid556TAGZIevALwuO+wuL5x2F3yBUKR2TPwbcMPlaIfdLbbJERVDYp0IYV5VDibOOBfHjesJvb8KhUvm4NMP5mJHVQf8ap34IPPD47TB7vDA6XDDL44ZPqRKBCgnnDbxfO6OA+bwUkEV9Irn6oDN6VHORTk1uUUVhNcpyne44LA5xfkFEfT7ENdnAgb3LwjPBeb2wM+OX0RE9CtwsmYi6vZkbVf7N6tQ98bb8NbWQq0LB7CYMaORdv65yjDznd2Rm6z5Z1BpoA00oGTTFuwpr4c3qT+GDh6A3GSDiGZaBBu3YOv2YlQ3uZEgQs+Avj2RYJADaGig1zpRXbQJxaXVcPrEx5baCEvOQAzqm49UQyO2rd2MiuomeJMHYdTQfshI0CMkApp991JsK65As82EnJHj0Ds3HSaNCtqOYqzdWIS6JhsMeeMwon8eEs1qqHTt2LtsLfbUNcJpLMCwowYiM9Ec7rx2hBzqyZqJiOjIYwgjom7Pvnkzqp54Bt76eqi0WmXI8tijxioBzJCTHSnVuXWJECaEoIbOoIdOq4Eq4INHzqumBBwZrPTQ63XQiJAU9HngE+FYDlcfpoZGF9lPWRVCyO+F1+dHQIY0cUytRoSo4HePqdIaoddpoVaHEPCIY/oDck8loBn04aHzQ36PcpzwLmpojYbwseSgI54fmOPsMGMIIyKKPmyOSETdmqeuDg3vz1GaIMo+YDKExR41BmkXnt9lAlhXIidU9ntks0NHuMnh/oAjkpUIUF63U9nm8cpQtC+ASUFl8A+3ywGXUy5OpXmh3F2FAHwel7L++8eUAcsj93E44VUCWHi9KigClnwusc++44Q3yfNzwS2fw+U54gGMiIiiE0MYEXVbQXEh375sBexbt0Ejh5YPhWDp3y8cwLIyI6WIiIiIDi2GMCLqtlx79qLl83lK80M5B5g+PQ0p55wlAlhWpAQRERHRoccQRkTdkq+pCU2fzYW3sRGyk5HaYkbc+HGwDh4UKUEUnYpqduPDdfOxZvdWtNjbI2uJiOhwYggjou4nGIRjRyE6Vq+B2mBQHpsLCpA4dYoIZHxbpOgmw9d7q7/Ac4vfw8Ofv4TH57+BuZuWYGfNHnCsLiKiw4NXG0TU7fg7OuDYXoig14eQCGDapMTwJMypKZESRNFra0Ux2hw2lDfWYHXpFny6YRHeWPEJnlzwFu77+Fm8u+pzFNfujZQmIqLfAkMYEXU7vuZm2DdvgVqvBwIBEb5SlSHpiaJdMBSCXqtTbr1+nxwoUmmO2+JoR1HNHny9YxXeXf0FnhCB7N9fvKw8trk753QHRERdGUMYEXUz4uKzrh6e6mplQA7ZHNHYIwfahPjI9i5KNiMT/4fn0KJoIr+lh6qRoDzW5ceehb9Pvx7XHD8Tx/QdhdTYJCWQ+QN+ZX40u8eFwurd+GLzMryy7CM8+NkLeG35x9hWWRI+CBER/Wqau4XIfSKiqBew2dG2dDkchUVKCNMlJyHhxBNgzMuNlOiafH4/Fn39NTwBFcYdcwJ8Pm9kC3V1Gq0O2zdtQNXeXThr+pmIj//lfzBQiZSebE1AbnIm+mX2RH+xDMvth+F5/ZEVnwadRosOlx0urwcatQYOEcjKm2pQWl+B4toy7KguVcpkJ6ZFjkhERL8EQxgRdSu+hia0zF8Af1MTQsEQTPn5SD1nRniAji7MIM5/+/Zt2FG4E4NHjobVGotgMBjZSl1WKARrbBzee+VZZKUmYcqUKbBYLJGNv44MWbEmKzLiU1CQlou+mfkYlN0bI/MHokdiBpxeFxrbW6BWq5Xmi832VuxuqFACWVljtbJvSmxi5GhERPRzMIQRUbcih6ZvW7wUAZsNKnERahnYH/HHHRvZ2nXJC2VZ+7V08SIEocag4aPCIUw2U6QuKgSTxYrtG9cqIeyGG67DoEGDoNFoItsPLYNOj0RrHHIS09E3o6dSU9Y3I1+pPatpawg3V1Rr0ebsQGlDpQhj5ahuaUBGQipijIcmGBIRdReqEMejJaJuxFlcgvJ/PgR/W5syMEfClJOQedUVka1dm62jA88++yw+mTsP51w6CxNPPBlarRZ+v++Q9Smiw0OGapPJjG0igD181+0YPKAPHnroISQnJ0dKHD4VzbXY21iN9Xu2YVXpJjTb2qDT6hAIBERwMyhhbXTPQTh1+HGIZRgjIjooDGFE1K04tu/A3rvuRcgfgMZkRNLppyLtwvMjW7u++vp6vPDCC/h07hfoO2g4JkyajMzsHOh0ehHEouftXgYAWdOnEv/JmiGVOnpGJJHTJjQ11iv9wBbN+wx9e+Xizr/+Ff3791fC2ZHSbG9DWWMVVu7ahC+3rIDb54FWo4Uv4EO8OQb9MnrizFEnYmyvIZE9iIjoxzCEEVG3Ytu0GXv/8jeojAZorVYkTz8TKTPOjGyNDs3Nzfj000/w9deLUdvQBLvDEVWT8PpFgO7Xry/SUlPhcDqxe/dutLd3iIASHUFMfqcsJhNSkhIw/qixOP2MM1BQUBDe2Am0OjqwrbIYczcvxbrd20QQEyFYpVIGh8lPycbJw47BOWOmREoTEdEPYQgjom6lfeU3KLv7H1CbzdAlJiDl3HOQNHVyZGv0kDVFe/bsQdneMhFQWsXjYNQMXy9rwEpLdqG2phqZ2dnIzcuDTqdTgkB0UMFqtSJbvLb+AwYor60zKmuqFiFsOz5avwD17c3QaWWtmB/x5lgc028UrjpuBiwGc6Q0EREdiCGMiLqV1q8XoeJfj0BtMkGXkIC0885BwpToC2HR7pOPPsLKFcsxYtQonDFtGsxm9kU6EuRgHTuqSvH+uq+wqmRTuK+YCMlatQajew3G5cdMV2rHiIjouzhZMxF1K5rI8N6yziTo9cLX3qE8pq7F5/MpTSz9fj9cLldkLR1usk/Y0Nx+uGbSuZgxZrLSP0zWSAZDQaws2YhHvngFq3ZtjpQmIqJ9GMKIqFuRIUxjNiv9boJuN3zNzeENRPSLyWHtLxh/Gq6ddD70Wp0yr5ic1FlO7vzs1+9hw94dkZJERCQxhBFRt6IyGKBNSFDmz5I1YX7WhBEdErIv2JkjT8AfT7kcidZYpVmiQatHVUsdnln4Dopr90ZKEhERQxgRdStqowG6pEQlhKlkEHO5EBJhjIh+PTk4x3H9x+DPp12NrIRUpcmoXLe3sQqPfvkayptqIiWJiLo3hjAi6lbUkZowORcT1CoE7HZ4ausiW4noUBiRNwC3nHwpEixxkSCmU2rCHvvqDTTZWiOliIi6L4YwIupWNBYrDFmZCPn9UKk08De3wLGD/VWIDrVhPfrhlqmXwGwwKUFMNk3cUrETTy54S2mqSETUnTGEEVG3IucHM/cugEqjUWrCfK2tcBbujGwlokPpqIKhuOmkC2HU6ZXBcOTEzitLNmHBtpXKYyKi7oohjIi6FZUIXvrMTJgKChAKBJRmiZ7aWniqqiIlqCsJT9AcLZM0R6fjB4zFJRPPVL5LKvmf+J69seJTNNvZLJGIui+GMCLqdnTJyYgZPkwZHVGt0cDX1AjbJs5l1BXJZm7i3/AD6pRk6Dpl6LEYnNNHCWFq8biuowmvLf84UoKIqPthCCOibkdjMcPcvy/UOp28QoS/rR2u4pLIViI61Ex6A6467mwY9XrlsZxDbNGO1Vize6sysTMRUXfDEEZE3Y8IXvr0dJgKekWaJALusgo4dhRGChDRodY3Ix9njTpJqQmTvH4/3lzxKYIcpIOIuiGGMCLqlvTpaYg/egKCHg/UWg08NTVomb+Ac4YR/YamjTwBKbGJSjc+jVqNnbV7sbexOtKslIio+2AII6JuSc4XZh0+DNYBAxD0+ZUaMfvmLWhdvDRSgogOtViTFUf3HQmNShNZE8Ly4vUIsEkiEXUzDGFEB8lZtBq1bzyDiof/jYqH5PJfVD73NmrXboedlSddkiEnG4lTJ0MlLgTlkPX+1na0LVnGkRKJfkOnDT9OhLDw5YdarcbiwjWsCSOibochjOh/8Raj9on7Uf3sm2iZuwhtS5dFlqVo++oLtLzyMmrvfw2Nzkj5wynghW/TbJT981FUvrMZrshqOjgqnU6pDYsdNw5Bl0sEMTVcpaVonjtPqRkjokMvIy4F/TJ7KX3D5H+17U0orN7NIEZE3QpDGNFPCZWj9r/PoWXROrj31iDY4RAX51rAbAT0fgRtrQiU7YG7zQiDLrLPYRTyedD89YdoX74K7Vtr4Yusp4OnTU5CwomToI2PR0j8J4etb1+xEs2ffR4pQUSH2pQhE6BRh5skymE6NpUVcpREIupWGMKIfkL7py+jZVWZuDTXQxXUQHvGH9Djvr8h/293Iv+uu9DjzlmIOX4IzNNORswRCGGqUCls651Qi1CoNpqxr5cFHTyVWg3roIFKEAvaHUqzxIDNhubPv0Db8hWRUkR0KB1VMFRpiijrvlQqNapb6kUIY00YEXUfqhDr/4l+gPi1cG5A6fUPwt2uBtRBqMdch5xrTkBMfKSIwgdPfR1CMTkQGWg/v6MerZtWwLu5Gn6bO7xSo4MqJQemE85CSo9v//4RCvjgWP4ymle2AQYTTOffjNSsejS8+yFcZTZRQgNVek+YJov9MsP7SIGOHah76SW0La5ASKuFSpyDqV+KLA2VORuWq85HksmDwJZPUTm3VIQLA9RxwxB3wyTERo4R8tphW/IaWtbYoDJZoRtxJjInZYsX4IR/82eo/Hw3NIkpMJ97NZJT3Whf8Qk6VuxG0JgEw6SLkT7k2xftb96Kxnlr4K1pEScnhz4Tz9ejLyyTpiIxNVKoE3OXlaPm2Rdg27wZGrMZoWAQxvw8ZFx2MaxDh0ZKUWfxwezZWLN6FYYOH46TTzkFSUnJkS3UVZz/1K1odXQozRD7ZfbEw+f/CXrtEfhrFhHREaC5W4jcJ6J9RAbzbHwHjQuqZc9xsaInrH++Eqmp36881kBrjcO31w0hEWyqUPvIo2hbthGOLUVwleyCe085PFXV8FSUw1VcDLeqJyy9YsNV0UE/7EtfRMMXRfDU1sBjTEbgqzfQ/PU6OIvL4Kmsgqe8DO7du+FLGYWYNBWCjo2ovuMptG8R5ycCmDiICI118BSXinJ7RTAMQnvqZMQZvCKEfYLKd1fBW1UPb1syjNNHwCKfV1BC2OJX0PjlTngaWhAUx08eIRKTDGGbxH6zV8PXakcgezhUG59F3fsr4dxRAneTA6pBpyAhTytCpAeOdW+JAPM5bOu3wrVTvL5de0WoqRSvtwyuPdXwmXrBkm1Smh11VpqYGOjTUsU5V8LX0AC1+LoGWtvgb+uAqVcvaOP2RVfqDAp37EB1VRXSMzLQu3dvmEVwpq5FTtbc5rLJd00liE0bdQK0kSaKRETR7vtXlEQU0bFlK0KaSGxIGQxr9sFcHKigUouLeUs9PKXNQHpfGM84D7HnngR9svh18zoRLF6Ptg9mo6ktsoug0uqVIdPVahUCX7+NpiXbEIjrBX2/dKhCQah8DgS2r0HbG3PQElBDpYkRuXAwDAUWhIIiMaq0UKWKcHXxBYi94FzEnjUJJnlNKuu5NbrwsQ3iOfSinPKM+4jz3ffcer24v+8tQdZkif2MRqhEIPN+8gzqP1oLb0UzQh6/yHzinBIMopwHgbJFqH32C9gLyxH0qqEdcTpiL54By8ReCLXUizC3GK0fvYmmTj7goGyGaBk4AGni66fPykLIF+5h59i+HQ2zZ8PX1KQ8JqJDIykmQb4DKf+12NvD72VERN0EQxjRjwjYI8Mdijyi6pmHuPCj/00bj6QL/ozs++5D/p9uQI8Lz0bmuRch5/fnw6ANinCjgap5CxzFPzCuvWwdbHdDf9G9yL/tRuTefAtyrp8ItV+sFwEtWL4UrVs8UBl6Iu3icxDXVyQtJYSJY4oQlnj2WcicOQMZ045FvMxIh4Lfi+DeIvhcaTBcfAvS/yFe1x03ITVfnI/TjtbFH8NV64VKXFDpRp+LrOsvQNY55yLnssuRNa0vQnL/ih3o+GYvRHzr1FRaLWJGjkDaeTOhjYtXmiQG/X50rF6L2pdegWv37khJIvq14kxW5f1V8gb8cHojTbeJiLoBhjCiH6M6oM7IYoZs9HewNGkDkTxhOKy9c2FKioEhLhWW4UdDnxT5S6/aj0CjPXz/O0SYih2LuDNHiX3zYO45ELGTZsCU6w8P36xywLejSqYFGOLjoDEcUHOlM0NnFc8VGwtDjDjfA07/V5HPG5sO8yV/RI+zTkLyuDGIGToElhgRUOxVIqDUQKUX522Kge6oE2DJToDaGgttTh8Yjx8KbUDs7/LCv2U7HJFDdmZy2Pq4o8cj7cLzlJpABAII+nzoWLNOBLFXYVu/IVKSjiSf+J643S7lll2buyaby7H/e6fVqGBgfzAi6kYYwoh+hKwFCd8R/9c34edMAxZw7kXjvDdQ+cSTqHjwQZTfL5Z/PAO3TaPkJflPKPgD81Cp1FAl5X1nkA+VNgOmPlal25dsBhisqIby92J5fgdee4qLmV90KXpg2PwhQR1UMQNhmdIbJqv6gDcNvwgntfDXiP1ls01XG7yfP4aKe+9D+d1iuedB1L62HiGj2F+ca8jlQleZeUs2z4yfdBwyLr8U2sTEcNNE8fV1Fu1E3WtvoHXRkkhJOlJGjhqFc2aeh2HDhsNgEGGZupy6jiYlhMkl3hwHHUMYEXUjDGFEP8KQmvptyCmvOegQ5vjmZZTd9xQa3/sSbV99iZYvF6BlvlgWrIbPcRDVUyK0fOcXU1ygqGVfLblrSPwTCChh5hcFrh8Q9LlFDvux85LPooFanQDd/7vOFdtCHhFQxL5yf68T/i1L0f71UtgWi9tFy2FfXQy/y4mAzY6Ay3fIzvlwkLVg8ZOOR+asq2Aq6CXO36W8TndFJerfehtNH30svnhd6RVFl14FBRh/9NEYOGgQLJZ9Q81QV9Jib9v/npAam/g//x5ERBRNGMKIfoi4GIgd1D9ykS0WxxrYSsKbflwIofa1aHhlPhzb9iDY7oVm1IXIeOjfKPjPwyh4+A8wp4r49FPX7fKvwg3N+E5vMbUK/lZHOITJq5R4K/blodCBk5se1BWMHMD+AOJcvI3tB7nv94ljqWOhsohzkLVy8emw/uFR9BavtZd8vfL2kQfR88F/oue/70L+774dGr+rkIOZxB41FplXX4XYsWMQiMwj5mtqRsOHH6P66Wfh3lseKU2Hk0Z8H7RaLfR6vTLfFHUtNrdT6Qcm33lkHX6yNTxIBxFRd8FPLqIfpIK237EwxodHyEOoEa7nnkF9ZfjhgfwdDWja0xh+0F4GV60Par0O0GfBfOlMpI0drgz2EDMmVySen0pgUgAh2zY4qiMPhVDrSti2hcI5SROCNreniD8yN6lgsMYpTXlkeIPH88P5LiTrzcTOKr+4WwHPAR2zgk2RY/+idwIRwgw9YOgl7sqWkd4gAo44GEbK13vAMkLeDoG+Xwa6YmMjlUYNy6AByLjiMiROPhFBt1uZ4Dlgt6NtyVJUP/UUmuZ8jOC+gVyI6H8qrt0Tfu8S5G1Beq7ynkZE1F1wnjCiH6NLhEG7Cy2raqDSaRFqqYC7pBD2LVvRsXEt2teK5euFaFu0AjZHDyQPSwNadqBpXmFkaPsQQvpkIM4H9841aHrrPThK2uSf8AG1FpohU5Dc1yICTADu7V/BVugIhyF/O3wle+Gqq4Nz5zI0f/Q13LUesUFs1PaC9bpTEGcWxxfhSt20HU0rq+XgiIC7EZ5WNzx1hehYthSuxFGwJohQ59qD5nklgBzEQx67tAEeewvs679E88dL4Kl2idcnDqA1Qtt7PJKGpYgs6EFgjzjndbVQq/VQx/aG5dTB+O5MTHJ4e40IVtVoXVYhXpIIYRUlcDQ64NXpRDhthL1wLVq/mouW5ZvhyxoNkRm7LG18HMx9eisBzFlUpAynLS8afc0tcO3eA1dpKVQifBtzsiN7ENGPeWHJbFQ21ym1YP5AADdOvggJllgGMSLqNhjCiH6UBvqc3iL6lMK2WVZNqUQQq4FXTp5cUQ5PWbnSFM1b24Bg6nikTRAX3yJ82Jd9Cq9NJy7WfQiWl8K1YzOca9bBucMLw9G58Fe2iND0IyFM9v1KTgCKtsBVUQlP6W4RkuziwiQoLvo10J52PXImpCk1YUrLHZ0NbZ+uQFAEJfg64Nu7B+7iIrj2VAEjpiMhQ42QIQGeos9EkFOLcwogUCsnfi4Vz1kojm2DduRQoLZeBEbTzwxhspZIB21SJkJOEU631gFecQ7le+HZuQOO9evEsgnOrTvgaXRDe9SpiBeH7so0ZrPSP8yQlg5fQyO89fVQi++5HD3RW1sLZ8kueGpqlUmftXFdOHES/YYaOlrwytI58Pi9Si1Yn4w8nDN2KrTyD1RERN0EQxjRT9HFiovufjD37gF/sAn+uhYEnW6EPOLiwROEKjYJ2sETEHvaJMRlmKDSx8PYO0OEm2JxMS7K2lrhb7IjlDgEsddfi4yJRrTPXg5/QASYoaciZYAc9fDAmjAtVJmTkHTpAPgKC+Gt7hDbQ0BKP1gunYXMKUNgMkb+UqxSQWVOhT5TA2fxLnhlvzGnHABDbMsaCOuUYxAbq4JanlNBFvz2KrgrGkVgEudvF0vqQMRceQ3Sj0mDY94C+HwibBVMRMrIVBHC3AjsXIL6pXsBv3g+cwGsZw7/fyFM1s6pTAkw9ekLY48U+GwV8IlQ6q+pg7++EQGbF0joCePkM5AwvhdMUTD4mRw50ZiXB3P/vtDExopAXoGgw6nUlsomivKxa2cxvCKMaWJioEsUoZqI9vt042JsLNuhBLBAKIhzRk/BwJwCqFkLRkTdiEq8Cf5gNxIiOpAPnvoq+BttCPn2/cqICwaDEeo4EcTSk6Df/0fcIDyVpfC1OMVdUUYGq5hk6HqmQY92ODftQVCuy+gLS6oeIb8Hre/8AdUfNEClFUGo70XI/sfR0JVWIuAQIUa2UTQnQJefA8MPhJhQ0AZ3aQX8Tp/4hRbPp9EC1njoe2RBv39ysxC8DXvhrbfJkeXDx7QmQpeXBYPGDue2EnExJJ47OR+WLFk750ewuRyOio5wMDQkQz/gp/t0hQJOET4r4W9zy65tYXLABGMMNOkZ0McZwjV4UUSGLkdRMVrnL0DH6jXKOjnhcygQhMZshC41VQS2XMSOHoUYsSjzjh1G69evx9KlS1FeXgafV/x88CK3S5DfpwzxOzN6zBhMmTolsjY6dLjsuOmN+9HQ1qT0YQ0EA3j92n8hIz45XICIqJtgCCM6wv5/CLsQ2f88pcuNJNideRsaYN+0Gc1zv1BqJdVGgwivamWuOaXfXKII6ZkZsAwcgPiJE8T9zMiev43Kykr855FHsGHDBqRkZCM2MVlkcxmh+XbfFcj+hg57BypKi1HQqydu/t3vMGrUqMjWru3Bz17A0qK1yk+iL+DH5MHjcespV0CrZlNEIupeGMKIjjCGsOgQ8vuVOcQc27ahbflKOIuK5VqodCL8yLdZ8b8mxqr0FzNkZcEkLq7lQB/Ggl5Q6/XhgxwCJcXFeOCBB1BRU4+TzjgbfQcNgclkhlr2t+G7fZcgP5bdbhca62sx/5MPUF6yA//+978xfsIEZWj+ruqj9QvxyrI58Pp9ymuMM1vxn4tuR1ZCmhzmJ1KKiKh7YAgjOsIYwqJL0OuFt64e7rJypYmifcMG+NralaaISu2YP6DUjsn+Ytq4WKVfmSE9TRnww9RbhDIRzn5ps8H6hgY8+I/7sLloFy6/8Y/oP2QYtBodgsEA81cXI38GNGoNmhrq8PS/74Pf0Y6XX34Zyclds9nesp3r8Oyi99Bib1ceyyD21zOvxaQBRymPiYi6G4YwoiPOi+YXZ6Hy7TpxcW6AesAV6PHfaeDYel1dCL7GZnhqamDfvAVty5YrwUwJY8o0BWpZ5SFSWxAqvR5aEco0sWKxWhE3biySTj0lXOZn+OTTT/DY409hylnnY8rpM+CTNQ5yIm3qsnTiZ6Oxvg5/vPoC3Pq7m3DueefBeJj7Fv5a87etxNvfzEVtW6MSLmUzxBMHjsPvT74URp0hUoqIqHthCCM6rEII+etQ//TzcLeIC2yNHpoTZiE9vx6ehvAgHCpzOgwFydg/pgZ1eQG7A966OrjLy5Vmio4dO5Smi0oA0+qUCaElGZiCLheSzzwDWddfK6tDlPUHw+Px4N6778a20jL88e8PwBITi0Bg3wgp1JWZLRY8es8dCDjb8NC/HkJaWlpkS+f3xealeHvVF2joaIJavL8FxM94nMWKxy68A1mJXed1EBEdagxhRL+YCFSBQtTc8yF86h+4WDbEQZ0zAKZjj0dKzr5+HGIf7x7sveF3cNSImKUzQnfZE+h3ZhefQIsOjni79be1i6UN3oZGOEtK4Ni+A65dpQg45DxxWqWmLO2Cc5Ey46zITgentrYWf//b36C2JuLGP98Fl9MZ2UJdnV5vwNdffIxP3noZr732CvLz8yNbOre5m5bgnVWfo9HWqgw/L0dCtBjN+NOpV2JC7+GRUkRE3dPPa+tCRN8VaoVj3XrY1m8IL+J+R2SxrV6B9s/fQ9Oj96FsXiV8kV0gu6Dr9EoTNJVeTuocWU3RT1yIahPiYczPQ+zY0Ug560xk33wD8u/5O7KuuxaxY0bDJLbpUn5+KJc1YbLvl1Fc5Mq+ZxQ9gqEgLNYYuDxu8T3u/M1L25wdeGL+m3jzm8/2BzDZBDHJEo87Tp+FcQXDIiWJiLovflIT/SrqSJgKLzAZAbNYTAYEvS7A1YrA7q2wzXkZDWWRXYgiNBaLMlKiZfAgJJ0yBZnXXC1C2Y2IGf4rL1LZvoGOkK+2rsA9c55WblvsbUoA8/q96JGUgb9Mm4UxvYZwUmYiIoEhjOhQUWthvPhe9PqHXO5B3h3nQqcTV8MaLVQtxehYuVtcG/Pig36YDPH69DQYeuQoIycSdSV7G6uVOcBeXf4xtlWVKDVfcth5h8eFgdm9cfvpszC0R79IaSIiYp8wol9MDrKxCqUz/gOPHFhBo4PpzrfQK1KJEQq0oe6/N6NphQsqEdBUAy5D3n1TYPbuQdktf4SjVgvoDdBf9hjyhhah4f3l8DV7xG+lOFZGAcxTz0Na3vdCm/ht9XVUoGXdcng2VSJgk+VFGa0O6vReME09B6k5/z/o2bcuROvyTfA3yH5Ccrse6tRs6MeOR+zQnrDIeXz3c6Jt+ZewrdsJf6tPhEtR3pIK/YhJiD+xDyyRUtS5lJWV4b5774E1NRdX3/JnOB32yBbq6rQ6HdYuX4yXHn8I774t3mN69YpsOfJ21uzBkqK12FxRjPKmavgDAWjUangDPmUC5nPHnowTB41HbvJvO0E5EVFXo7lbiNwnop8rWIWW2asQkEFFXHDoJsxA4r5rDbUR3r1zYdvhUfroqGIHIeakPjAEWtH25Xz47CJsif00qQbYPpwD++YieCrr4Kuvg7eyHO7iQniSxyA2c984iUEEHaWoefARtH+zHa6iUnjKysU+1fDWNcBbVQZ3URFcqgJYesUo1dwhjwMt79+P+vdXwVkoyu/dC095FTw1taJ8Bdzisc8yAvH5JlkaoY49qHniX2hZuBmunaL8njJ4qsTxa2vgLS2Bs8wB9cj+MHXd+WKjVltbG5YtXQq9JR4jjzoaPp83soW6OjnRdnVFGTatWYmzZ4j3mMTEyJYjQzYvXCyC1xsrPsWXW5djc/lONHQ0K3/f2Vf7NTxvAG6efBGOH3AUUmOP7PkSEXVGbI5IdAipDpy+p3kxWhfblXlxlIuT7Iz/X4sUCMC3fC4cJXVA3gjoesUhFBSXMX4XgqVb0fH2p2iJFFUub7TxMCS3w1veAVWPITDNuARx502GPkFsdjsR3LUZtk8+QHOHLO9HoOkbNM/ZBG9Nq3JyMiTGXXoeYo7vJ3752xCoDkLVJ3xWQVcHmt5/Cq0rdsHXaAeseTCddxnizj0F+lQfAg0i8K1cgMbXN4Dj7tEvI4I+tNCbrYiJS0Cs1QSdRiUreH974km0RgsssfGIjbfCoNVAxXYgB62urQmLC9fgiQVv4c/v/gcvL52Dlbs2oaypBh4RyuT7k9vrgVYExptOuhC3nnwZxhYMhdVoDh+AiIi+g80RiX6x7zVHFGFL3X8szDIQBUQgqq+Es1REKHmRGYiF6b4nUDDEiJB377fNEUU4gzodpt9dj4y8eBG+2mBf/BLqPykT68UxjdmI/fcj6JGlPKF4yhD8jbvQURmEMSUO6rhYUcwJX+kSVN33NrwhLVSmRFj+8BTyRwXh3/EWiv/wKUJmHVQxPWD920PI7hlAUFxQ+Zva4PNYoBuSCxO88JcvROmtz8LnM0IdnwvLDTcjo3+yCGseePesRc1/H4e7xQJ15nAk/uN2ZCRFzok6hS7RHFGlg9FXiHmvv4VFK3bAXnAGLjxvOib0iRUX8r/lqH8qaE0+7HzzUXy2bAMq2gfglD9egYnD82Dy+Q9PCPwVjkRzRLfPg8Lq3SisKkVx7V402dvQ4bKjXSxur1u83amVZof+gB9uEcKyE9JxbP/R4ns5An3SczkJMxHR/8CaMKJDRQSkYOEq2FaKZdVGOEoaEAp6EXSLC8Bp1yCrv2zy9z0qLdQDTkT6hH4w54gwlt8PCacfA50yya64KFW1IfBtVZh4LI6V2geJI0X5Hhkwxlmgj0mBZfho6BJEeeVq0o9As6yr0kCVkAGNxqusDrka4XrlUdTM2QCHJROmvgMQqwQwQVxweYs2wusQ+6j1UMUPgnmMHCBCbI2Jh7b3MFgGxItw6UPIWQ13sUPuRfTzyAv3kA21u7Zg88qlWLttN5rtfqh/aJ69Q0oFtSYEW/l27Fi7FOtWbkFNmxNB8by/9TN3VnLgjCZ7K/Y0VGJzeSGW7lyHzzYuxlsrP8M/P30Of373ETw+/w3MWb8Aq3dvwa66MjR0tMDn94nwpVHm/Opw2dA/qxf+MPUy3Hf2Tbhw/GkYktOHAYyI6CAwhBEdQiGXHUGbWOxuBPUJ0I6Ygvg77kHe2SNh+s7gFxEaDdT9R8C8/zcxAHVM3AHNpPYFq2/523eibs4LKPvXwyi7+y7s/dvd2HPH0/DYdTKjKUIhGeJEoEoageSzeiNgdyj9w/w7VqP941dR9/e7sff5z9HcHinvD8BdUw1oNeJ61Y9Qwxq03vk3lN1+J8r/8ldU3v0IbEUBkRnFE4SC4nXK4xMdBJUGOqMRep028nOtgkarg06OBinW/eb56wAqjXxeA/R6nQgSP/eJQwhp9DAa9UoTyq7smYXv4E/vPIy/f/AEHvjsBfz3qzfwwuL38ebKT/HhugVYtnM9dlTtQnVLPewelxK6ZM2XDF5Or1t+JTCx3yg8cO6tuO20K3Ha8OPQOz0PsSZr5BmIiOh/YQgjOlTkEPWz/oOCx+TyCAoe+Bvyrr8AGRP6wRT7479qKovxu3+N/5HJWEOBIDoWPYG9dz2Flo8WwbZ0KdqXrUTb8pXoWLUNfs//Hy1DrU9Bwjm/R94dF8HQQwe/y4VQWwN8O7fCvvBDNP7nSdTXinNQBxHYP5BDACFHJdwrV8O+Zi3sq9fAvm4TXBVtSpiTS9D/vWRI9H3iol1rikWMthU7Zn+ApasL0W4QoSuyucvRGGAsm4e3P1yMHc0qGC0m6A5ngjyEqlvrUVhdipLavdjbWKWErfr2ZrQ6O0Tocip/91GrZegKwuPzKANtpMUlYdLAo3DLlEvwyAW34YYTz8ex/UYjJzEDehGqiYjo52EIIzpUZJ+wnv1hGRBZ+uTDlBYP3f+8TjuYQBNAsHk5Gl5ZBvfuagRdKmiPuRqZjz+BPk8/jl6P/B6mRK9sEfld4pw0cbmIP3Yaevz5XvS6/0+IGZeCoC8ElbcD/u0b0DZ3G9x6PQwxceJUxAHUJqgHno/s5x5H76f2LY+h9+MiXD7+KHo/+Ddkj+VfvOlH7A9fNuye+wjuv/ky3Pvg69i0twUBWdP6fWrxs2eOgTU2HjFxcbCYDdD+ULhRa6FTBtaIQ0xksYogpNeqf7BJoVpnhMkqziNOHDc2BiaDHIgj9J3fkVBIDZ3ZCqsoExsXA6NOlIlskwVVOjPM4vdCHsNiNsHk3o21Hz6If866CPf99xOUdGi6ZBiLMVmhFt+noHiNsnZLNk2UIx7KgTWcXhdsLjtiDBaMKxiGq46fiUcv/AvuO/tmXDvpXKXWa3BOX6TGslMoEdGvwRBGdCj5I7eHXBBor4SnyQ+VVgeVMRfWi6chZVA48MUMTEbIHdzfHHGfkM8Bp6xYU5thzOmNmNHHIfvaPyP/wn4IyoEQgn4Ed5bCpTLA2KcXVJ6AyHteoKMK3rQDAuUBi6F3LnTxHKP+f/E1N8O9Zw8c27ejY81atC1egubPv0DD7A9Q9/qbqHvldWWpffEVNM/7Er62tsieXdS+8KWzK+HrnzddgX/863F8+oUI+XkD0btfPuL84uctUlwKaY3Qta7CV49di1svPAXXnDcT/3zqc+xtD0Kn3/fxJMKQ3gqTqwLr3roHd195Fm64YBquv/Ac3HHvC1hd7lLm29Psa8MbUkFnMaBl44d47o8X4qbzTsGsy67B8180A8mxsMbsC2IaEf5qsPyh3+Mv50zBldNvwAdr9sIh5/QTv0cqQyzcax/FIzefiVkzjsdfnl6E0pjxOGFgLOylS/HVq/fgn9dchHsf+xQlNg1MXSiM5SSmY0BWgQhZQzF18ETMPOpkXHvC+fjTaVeKsPU7PHvF3Xjo/Ftx85SLMGP0SRjVcyDyU7KRHJMAg04fOQoREf0anCeM6Nf4/jxhRx8wT9iPCbR9O0+YRgvNkClI7rtv8HpxgeirQMv7axCQIy6KCx790WciIS2IUON2NH21U6wT60MBcSEZh2CMB65tS9Hw2vtwlTvF8eQ+BmiHTkZSgRaBsvkov/9NtJfWwOnwwhdwwFNfCfuKpfA0BpQ+MursMUg6vkBcx1rh2v4VPM0iYHma4N2+G267Dl6DA+6aYrQvXoiWj75E2x4zDMOzwEuxb3nrG+DcuVMJW60LFqL507loXbgI7StXK+tsGzbCvnkrnNt3wLGzGK6SXXCV7oZr9244i0uUGhrr0CHQWH95DeORmydMBY0xBlZ1K0rmPY8X/vsI3p8zF6u21cI68lxc+Ye/4OLzp6BfbhIM8nfEX4VNS1dge0k9rElaNGxfgSVfLsTWkjI01NegtngtNrbEIy+/N3qIsB/QxAC7P8QrTz2Mtz9egp1FO7BndymqKitRX1GIbUvXw53eDz3yMmEO+aEyGdG+9Am8/NxzmL9qB8r3lqJyTzFKNm1DfVMp6jscsHdkYtgZx2NAn97Q73gP85Ysw+aiQrhzJmJY355IMorXZHZj6xtP4OMvlmDHDj96TT0Do0YORd8BYzB+ynHoo63GthXLsGXTWmxdvhQ76o1I79sXGfF6pY/l9yulf41DPU9YtghhY3oOxrjew0TAGoThuf0xUISyPhm56JmSg/S4ZCRa45Xh5XXiPYqIiA49ccVGRJ2fFqr04TCm2RD0BgF/B7wL30LTf59E4ysfw7YlAMMx/ZV+Y98S9x318GzcAMdiEZ7eeBkNjz6BhufeQUeRA6qAHyGduHA9byxM4kJanVCA9FmzYLB0KP2+/DvXon3OK2j6z5NoePJ1tHwyHx3rtsC1t+07tRndlQxeDe/Nxt4770L5Px9EzQsvoWnOJ2hftgL2bdvh2rMXbhEUlImxRVlfSwt87e0I2u0Iut0IejzhRfbTE8dTGbrgiHKy9kvrQPn8J/HQjVfg/v88iy/Xi3A19jrc8ex7+Mfffof/Y+8uAKQq/jiAf7f7uhs4Do7ukBIURUJAxcBETOzCwgDbv6KoqNiKohICIiWlCEh3w8F19+7e9u5/ZvYdHIgKeMDF7wPvdvfNe3t7m/PdmTdz+SU9kJwUAYNafkJXQP4FgCt9I9Kt0eh533t44Zkx6JAYDHtFLg7P+xart+xFIfTs316smjMbyxZvQlZOFaK734T7X5mC8fcPRpLJjvzDq/Dje99iy55seHRse+tGLF2wFOu258BskaPpxbdhzJMv4tquDhTkFKG4Ui4NBuKD26FG04EDkRSfhEC1E/s37kZeMXuMVBqoyzZh8+FiVNjY7W4zEH3axCNMq4Q2vAmS212MS+94GS999QOevqcv9EU78ef3L+O1u27ExGnLkVPpPA8jPp69YEMAYoIjEMnCVigLW3xADZ1awwIXH9ynfrTmEUJIfUchjJD/xA2P2eJfWOWa5ZrT4IXXaj6+Dw9VNflcrKy63AqvGIiQhaTAFMQ++RSMqQZ47CwoFWXCkZYHT1AnBL34HOKu6Qx5RTnbzwqPi9d21ZBFdoD+4iR2M81wpx+GY98BOI5kwi03Qt51OELGP4Tolib/cTByNXStL0fCxFcQNqoH5CYPPPlpcOxh+xxKh9uuhLxlX5iuau8f1r6Rsmzbjpz3P0LGy6+h+OeFInDZj6bDmV8gHjcfn16AhROeOPh5H5+HyuWCjwcuFr48LHR5rP4BTvyLhT0lfJDXyxCmhNp5FJt/+wWLl6xBWpYL0e0uw5BbbsWgQf3RKjEcGpkbLt4ydHLTkM+JKkVnXDLqdtwwegQG3PAsxlzXEy1jFJBZdmLv/nTkmbVwHVrNAtZeFFgdCO83Ftfd/ShGDh+JwSwE3TSkC5qFe1CxfzE27TqMYqeOPVfXYn9GNirsToT0uwvX3/kwrrvuelz75NsY3a8dolROeKpvi8cBX/wAdG0eiXCTAo6da3EwuxAWuQHWHb/haGEBKl02pPQegPjoKKh8bvZ6ZH8Pe32pw5qgRc/BGHrtnRg1pAMCZUU4unMpFny7DGmFZnjlpz5WjRBCCOFosmZC/gufGbb9OfCJg0hYUIpNgfbfepT57KLS7nXyfVhFLTwJupDq0cXYy9Fbya4zDz7RxVHOrrM5tNW9FeGBM4+FqEoH25SXKyEzBEMZGwIV3+8Auy3822x+ncFKFgIccJYWwlthh6/mZLgqFtBMYVBFmHCqzkZuczFcxWWsnsz24e8QvDapYPsYgqCMCIaqER4SVrVvP4rnzhctXG7eosVClUzhvyNEyPJ6RTc0uVrF7tcIqGOioQ4Ph8JkhMJg8C9G/6lcrz++L9tPGRgIDdv+Lwf1nYELM1kze87LbCg5sBmr5nyEnxb/iSJfDBISIhDdph8uHnYLBnROglFhg83uYs9eNQyO9fhi0mv4cf46lLW6E08/8yCGdwuHw8fum53v4fX/fYglG3IQNuxVjH/8QTTf8TBef38G1h9yod3dU/HA7degZQALsupAWFY8jdff/Q5r9pSj/b2f46F7RiNg+Ri8/uE8bE5ToPuj0zDuxsvRxMBeL9oAHP3yZrz95c/Ylt4TYz97CVf1bwUTu02uVZPw9DszsHlfJTo+8DmeuOdilL5/O6bM+Q2HitrgxqlvY1T/lghgIUwM+KHVwJK1AatnforVW44gK+sI0rMsCOlwDYbfdCsu65uCUB17/dXSx+uFmKyZEELIuUUtYYT8FzITdKktoW/ZAvoWpxHAOJkW2qbV+zSvEcA4HqwCoWsllafUDGCcAuroJmy/6vJm0PEAxovkAey2pLJ1ySKAcTKFBprweOiSm/u3r16aNYHubwIYp2QBTdeE7dNC2p6fJrN9ohtfAHOVlSHvi6+Q9fa7qNy8Bc6iIha23OzOlcFTVQUZqyAH9u6FqFtvRuJzz6DZW28g6YUJiHtgHKJuuQkRo65mgWIogi+7FIF9esPUtQsMrVsdeyzEYCexMeL66h8fvNAjrMVFGHzv//D6tK/x2C09oC7YhTUzp+HT527Fg2PvwDtf/Yb0Mjd7Ptb4G3k+0amhYGFU5mXX43VDozVApdayApmYFNjr9cDptMPDzvN1Gj7CIbsKL9/e44FGp4VCzZ/Fbrg9Xt6gCKfDCY9oklZCr1XyqfjY9qzMI4dCxULjSc9fn9MFY+/L0CUqDuEsLO7etA8lh5ZhQ1oBSioc8HS8BG0SIhGs8ELusyN99Rd4+4Hr8MR9D+LjL2di6YZMqNuOxfipP+DVV57AiEtSazWAEUIIaZgohBFCyCn4WI2+bMUqcbxX2a/L4SwsZCtZxZpX6B0OqCMjRPBq8tKLiL7zdoRdORSBvS4SwUqbmMDKI6EMDoLCZIJcr4NcrT7W+tWg+Lzw+BTQhSagSdt+uGT0U5gwbQ7emng7WimysGfFDPw4+WOs2nAAFrXq+IcOD185+bDy4w+1ahbA9Cgrzoa5goVceBASEAi9WoPAkDBojCa2zo2SUifcLhlUKiXUWi1K84tRVWFht0EPAws+SnblQaEh0PKWRpkF2QVW2O0+KBWsTONEVaUXLvtJedfngkPbBf0uboboWB2cu7dgy/J52MnCttlhRNdLOyM2KohtqIYuZwlmfv0Z5s6di3WHgZY3vok3v5qOZx6/HRf37YHmTSLAbgYFMEIIIf+KQhghhJzEmZOLrLcmI//rb2E7dFiELhHA2GJo3xbxjzyEpOeeQdiIK0ULqCo0FHKdDrJ6MkR57ePHv/Fjv7xQmiIR37ITugy+C+Pe+RFTp72BK1sFw11VAYfo1yqRa6Ap/x2L5s/Er+sOImv9l5j+wwrsynBB7olDQlw4ggLcCGzdA03D4hEgVyL3188wf9Y8HGThLXv9NPzwyyakFbnh1nVCyyYxCDO4EJKQzEJbMGQqBbIXfI4FS/5AptmK/D+/wPzV+5BtZkHwhIeJRT6nEom9uyGKBWed4yDWrtyC3IJyOAxd0bNVDMIDZCwWsp3M+ag0dcHQ56fjw68+xn23XoWendnzIdIEpY/djlMd+0YIIYScAg1RTwghNTgyMpHz4Uew7NgpRi6UyeWiy5o2MRExd92J0MGDRBdCZXAw5KqaXUkvrAs3RP1JWArh3f98Ch1MoZGITEhBStdOSElJQKCaBS9piPo9h/LBNkFx1kHsXb8KG1b/ht1snbmyHPbmV+Gqa4ajW6IaXl08ItTZOLRvDzJY+CrK3IVta37F78tXYe+hbBQXe9Hi6gdw1fB+iNOxqBSSCEXW7zhwMB3lZjOK0jZj84p5WDJvO4psBXCyf3ZrDDoMG4DUJuFQe9ht9XmgCI2DY+dqHM48jHyzB25rJYL6jcPVg3ogLkAuBuRwGxPQosNF6NqpLZqykChGfBTdIM9t8qrtIeoJIYRceNQSRkidwipzzoPIev5JHHnqeRyZtgk2qeQEvjzkf/gC0sY/gyPPTkLGz2lSAeeBt3Ad0sc/hrRnX0b63LRzN4d0A8MDWPaHH8O674AIE/4GEx8C+/VG/BOPIuCiHqIbokz5d0fTkWN4N0WXC26ZFsHx8QgPNkHp5fepB05bJcoq7Wh65Xg88cgNaOE7ir079yGnoAqBHW/Dg0/cjf7twwE3H4lQgaje9+Chl17G7UPbQF12GLs2rMP2XVmwh3XHyOem4bFxVyIlVAEv297hDULXW1/F3aOHoonRioJDW7FtZz4CBtyJxx8dg2ahGlTaK+CoOZcXu61OXwz6DuiOyGiTOB7NWZWIzr1bITJCz15SfIAaFrZ0kYiLi0KQVg4P+10efhAaIYQQchZodERC6hCf14mS755E3o/pgDIKhkmvI7FdIGoeSeQt34ist76B9UAePHZWOVTpobz8SaTe3U7awgevNQ8lX05Czi8FUCa0QtDDryCulVRMTsmenoGcj6b5J0+WycTw8sqAAISNHIGg/n2hquOtDxdmdMQzJYfcZ0ZRTi6Ki+0ISGyGcIMH5bnZKLU64fUpoA2ORnRUKHQqmRiAw7+bEgpvFcxFeSgsqYRDzIengFIfjLDoGATpWSj2Hg9VcqUCztJc5BcUwerwsNeSHkExiYg22JGblYPSCiUimsYjJFAH+bHfoYHJ+RveefBlLF6/F8WJN2DSqw+jX9toFgbFPBEXDI2OSAghDQ+1hBFSZ7ghy1mO4gXpkGlZsOp9E2LbnhjAbHt/wtHnP4V5dw68LgVkKqVolTlh1DnIINdHImjkKGhNLviK0mGeuQQVUin5Kz7sfPYHHx0PYG636G4YedONCB18eZ0PYPWHF16ZEeGJqWjTrRPiQo1QaQIRmdwOrTp0QduOHZGcEAEtz1Q1W5m8bniggTGqGZLbdkIbtm2bDh3RonkCgnVy+GoEMM7LQpMqKAaJqR3RpmNXtGmbipggDbzKIMSy39W+ayoiAqQAxqeBkCug0gew58FO5FcWw+a2oWmX3oiLiITKd2EDGCGEkIaJQhghdYTPDZSs+hkuGw9WIdAO7QaNlK187kqULpiMzMnzUXW0GD4nq6XqeYG//C9kCijDOiCsXzTb1wlP2lKU7vi7jRs3V0EhCr//AbaDNQJYCAtgo68XLWB8wA1Sm/jw8m64nC54+LFjvNui2wW3ywUX777IJ7g+5VPVv1/1dmJbFrb+7ngsHsz49fJj41wuqeug9LtcTrd/PxkLcGWFMFeUIGvNR3jvvZ+wM6MMVb6u6NszGVHhSvC5twkhhJDaRiGMkDqBVUbt21G2tFDMOyUL7gJT8+MTOPtsBShfvAKO3EpAFQnNfRMQ2JxPECxtcgoytREBl/eCglU4fY5SONbugEMqI358kmXztu2o3LBJDB/PuyCqwsPF/F5BF7MAptFIW5KGSK7SwZM2E5+9OBbPvTgFq7ZnoKTAi4633ot+nVNgAgtr0raEEEJIbaIQRkhd4PNAdnAjbLzPIJ8/qctFCD7WD5F3L4xG1NjRUEW1Q+DECUjs1xwKzb98RS9TQxHZDfoEN+BwwbN7PSqpRnkCe1Y2iubOZ/c/C7rsssJoRPCA/mJSZQpgjQBvCXOWIG3PVuzefQAlsiYYNH4KHrh9IJoE8W6Op25lI4QQQv4rCmGE1AG8BabywCH2imQvSYUMqtQmJxwLxtIB9J1Goumk+xHTNg5q1enMRySDTBkFTQs94HXCZ9kLW6ZUROCpNKN89R9wZGeL1kf+GOiTmyFs+FAxsTJp+LxOK5Tt7sL4qQvx9c8r8MmXH+GO0ZejaagGcp/3b3v71nfF5jKkF+dKlwghhFwIFMIIqQu8QFVutvhmXqaIhLrJKYZAl+mhiQsHL/n3AOYnV6hhTEiAz8t+gccOV9YpB7xvlBy5uShbthxypVIcB6aJikTI4EFQmEzSFqTBY0FLZohBYov2aNW+E1q2TEaoUSXWN+Q2sI1pO/HGgk/w0PRXMHX5DKw+sBll1kqplBBCyPlAIYyQusBnhrvIyYIWH4lDx3sS1g6FHNqAIHaGVyl98FVdoAl86xg++bLt0GG4S0pF66Ncw8Jqxw4wduoobUEaDZ9/AA8+4IebhfETRmVsoPZkH0Z6cQ725KRh6c41+Hj5Dxj//f8wYfYUzPhzIXZnH5K2JIQQcq5QCCPkgmPhyFcJt5m/HNkii4E62F9SG2TymsPXN/wK5ulwlZXBsmu3GN6fd0NUx8QguH9/6oZIGoW9uWlwssCpkMnhcDlRbCnDURbKNh/Zjdkbl+LNXz7HuK8m4fPVPyGzJE/aixBCSG2iEEZIXcBbwMSgGeyHrxTu2pxnV7SukZpcJSWw7NghQhjv26mKiIQuuaFMgEuPd0Mkpk+ohS9RfOz5PqBVd7SJaw6vzwubyyGmBZCxf/zaLfYq5JUX4WB+OhZsWYnn57yHV+Z/jHWHt/uvgBBCSK2gEEbIBceqP7JwqKI8UkOVjc9NWztYhcttt7MzUsWcRnuDz+GE/XCaGJiD3xuKgADoU5JZIDthKJR6R6Fgt5893rxrnZwP8EIaDB7AnHYHVAoV5P/xSxV+XSO7DMQzV96NabdPxLPsdHD7vogKCoPdaYfL42LbAEq5AjZ2Obu0AGsPbsP7v36LR759DXM2/cqCmlW6NkIIIWeLPqkJqQvkKmiiwlklmk9emw9PkbT+P+JDbFeVlvozGHu1KyIC/AWNmIvdH+btO8S8YPB6oQoNgbFNa6m0/goPD0dgQCByc7JQWVHGKtL09t5QKJVKpB85iLjYaGhqYeoEo1aPyMBQNI2Ix4DWPXBH/1F4/bpH8faNT+IqFtBMOoO/hczrgYIFeo/Pg+LKMuzJOYzv/1yIh799Hd+tXQAnC/yEEELODn1KE1IH8G+nTQmJIoTB44DjMAtOtcDrNqPqQA67fjULHfHQpNTv1p7a4DGbYU9P5zVb0XKkCgtrEF0RtVot2nXoiIrSIuzfvRNanVYqIfUZb9WsrCjH8kU/o2uXLggM4gPt1B6VQokgvQmxwZHo0qQNbu0zAu/c+DSeHnYnujdrB6/HK44b4+Qs2FfarGJQj9mbfsVjM97Ayr0bRBkhhJAzQyGMkLpAroC6XUso3D6WErzwbN+DKqno7LkAO7uePR5W01JBFtkWrK7V6HldLhbE/N2p+ITM6qhIMU9YQ9C//8WIDA7EzG8+Q0FeDjRanVRC6iM5C0h6gwE/fPkxTHothl05DHq9Xio9NwJ0RiSERuOS1j3x6BW34f3bnsOYvlchLjQSdpdDHFPGuypaHTYcyDuKaSt+xHOzp+BwAU1CSAghZ0LG3lDpIBFC6gCfPQ8ZT98B81ET5EGtETTlOcQGSoUn8doqkfPqCJSs00CmMUA5ZAJa39dBKpV47LCvfReHXt8AWWAQ1NdNRvKI4Eb/zYtlx04cnfACP4gKCq0WoUMHI/Km0VJp/eb1evHH6tV4ceJEKHQm3P3Ik2jVthO87G3ex1tZq48NbBBqfnQ1pL/LT6lSIfPIYcz8+hNs+XM1Xn35JQwaNMh/7N95VsUCV4XNjH25R/HNmvnIKMqFSqkQLWP8OadgoSzMFIwezdtjdM+hCDZQt2dCCPk3FMIIqSu8TtjWvo3Dr26GLCAQ6tGvIWV4pFR4ElahdhVmwFPFKp9yOWTGCGhCT+x+5rVnIOe5x1G+n1WWgtsh+KNnEGOQChsx89ZtOPLUBCj0OigMBoSOHI6Ia66SSus/l8uFTZs24eNp07Bh42bExCcgOSUVSrVatGI0FLwLb3X04n9XQ/og439PYW4Odu3YipRmTfDEE4+jV6/eUF/gKRT4MWJFlaX44+AWzFy/BKWWctGdkT8WHlamU2sRERCCBwbehPaJLaW9CCGEnAqFMELqDFaRtGQj86WHUblfBXlUN4RPeRQRZ3Foj8/jgm3zNBx9ZRl8ukBornsTTa6KglIqb8wq1qxF+qRXIWchTBUYiPBRV4vWsIaEt04UFhZi186dWPfnnyhg590uN6ssSxs0ADqtjoUSlQiddodD/M0NBY+XIaEh6NihA7p06YLEpKQ6NeIl75ZYWFmGJTtXY97mFeKySqni6VEMex9mCsHoi4ZgWMf+0h6EEEJORiGMkDrFA+fBOTj86GeschkI5aDH0eSR7jizo0Dc8OSvxZHH34S1UANl11sQP2EEAunwIJ5OULZ8JTLffgdyrVYMyhF54/UIHtAwK4v87b2yshJ2u71BtYJxy3/9Fbt37URKixbo1acPAgNrd8CKC4lnZZVajYCAADEyYl1lcVQht7QQc7cux/Jda1nIl4suih72OgvQG9A/tRvuu/RG0VJGCCHkRBTCCKlrvDY4sgtZpZlVXDQhUEcZz/A4Lh98LjOcOSXwyZSQGcKgDtM1wKNmzk756jXIeJm3hOmhDAxExLVXI3RIw2oJawzmzJqF9X+uQ4dOnTB4yBAEB4dIJeR8K68yY19OGiYv/oqdrxTHiPEWMY1SjU5JrfH4kDEwaakvNCGE1ESjIxJS18h10CQkQpuYAO0ZBzBOBpkqAJqkJuw64qGhAHYChckEmdo/GqLX4YCrpHamAyDnV/X3h/y0IXVFrI/4EPfdk9vhjeseRXJkItwej2gR4/OIbUzbiefnvAczTfBMCCEnoBBGCGlUFFoNVMHB/uNXqmxwl5RIJYSQs8VDV9PIBEy8+n5c2qYnXCyI8W6IvEVsb3YaXvv5E7aOJncmhJBqFMIIIY2KOBYsJESEMJ/XA4+FvqEnpLZEBITinkuux139R/lbKPkolmzZmr4Pbyz4jFotCSFEQiGMENKo8AmaFSHBYpAO8U293c6CmEUqJYT8V7x74pWdB+BeFsaq5w7wwYt1h7bhnSXf+FcQQkgjRyGMENKoyKTuiD4vqx3K5XCzAGbPzJZKCSG1QafSYHCHfril95V8qCB+pKoYNXHl3vX4dNUsaStCCGm8KIQRQhoVZUAAdElN4HO7IGMhzFVUDMvOnVIpIaS2aFRqXNV1IIZ0uFh0/+Utz26PG/O3rBStYl5pcBVCCGmMKIQRQhoVmVIJbZMEqEJDeL0QHrMZtsNponsiIaR26dRajOk7Ej1SOrJL/uPDHB6XaA1zuBz+jQghpBGiEEYIaXRUEZEwtG0rWsP4wAHO/HxY9+yVSkl9wiv1vHJP6i4+R9hDl9+MqKAw8XpTsCW7tADzNq8QUwwQQkhjRCGMENLoqMJCYerUCT6nEzKFAq6CQlRu2SqVkvrEX4mninxdF6wPwL2X3AC5lJflcjl+3LAYueUFFMQIIY0ShTBCSKPDg5c2KQGa2DgxQAeftNl28BBchUXSFoSQ2ta5SSv0TO4AmUwu2i4tjirM27ISHh91BSaEND4UwgghjZIqPBzG9m3hc/lbw/hxYSWLl0qlhJDappQrcFf/a2FS645dXr5rHRzsNUgIIY0NhTBCSKOkDA5CQLcukKk14jJvDbNs2w7r/v3iMiGk9kUGhuHi1t2hkPurHxaHFZuO7KJJnAkhjQ6FMEJIo8SHpze0boXQQZfBW2UTrWH2jAyULV0ubUEIORcGtesNucxf/ZDLFFi2ex0NV08IaXQohBFCGi1FQACC+vaGJikBPo8HPq8Xlt17UP7HWmkLQkhtSwqLRXxolBjZki9bju5FUWWpmNSZEEIaCwphhJDGi1UAdSnNETp0MHwOhzR5cxHKlv4KR16utBEhpDbxkRH7tux6rEui2+PC7pxD8HophBFCGg8KYYSQRo1P3mzq3BmmHj3EcWH8m3nr3n0omP493GaztBUhpDZ1SmoFhUwhzvPRErNL86kljBDSqFAII4Q0euqoSIQPHyJGTPR5vHzyKVRu3MSC2HeimyIhpHbFhUSKlmiOn+SVF9F8YYSQRoVCGCGk0RODdLRti6ibR0OmlPsrg243yn9fg4Jvv5e2IoTUFp1aC5VCaglj/yiEEUIaGwphhBDC8G6JQX16I/KGG+BzOsXX8z6HHWXLV6Dop3nSVoSQ2sCDV0xQuOj+y19r+SyEEUJIY0IhjBBCJDKNBsGXX4rwkcPhsVaxd0g5PBYLiufNR+GPs6StCCG1ITZYGiGRnS+vMsPmtPsLCCGkEaAQRgghNSgDAhA65AoE9evjD2Kskuip5EHsZ+R+/Cm8dqoo1gW86xqf4Je6sNVfLo+bPZD+83xkRKVc6b9ACCGNAIUwQgg5iTo6GhHXjYKxQ3t4qniLmEyEr9Jly5H9zhQ4CwukLcmFYjQaERYRAaVSCS8fTIXUO0XmUhGi+T+TzsAeS/8xYoQQ0hjI2BsgfY1ICCEn4RM3O7KzUTjjB5Sv/B1yo0GMmsiPZtG3aonIm0fD0LKlf2Ny3tlsNrhcTigUSmi1WnZKFfj65roPHkFFlUUEsfjQaHx42/NQK1VSKSGENGzUEkYIIafAR0zUxscjeuwYhF01okY3RB+s+/Yj98NPULF2nbSOnG86nQ4BAYEwGAwUwOohh9sJh8slzvOvNiICQvyDdBBCSCNBIYwQQv4OqxTyucMib7weUbfd4m8J83rFQAKOrGzkff4l8r/8Gu6KCv/2hJDTciD3KLw+qRspe12Fm1gIE68sQghpHCiEEULIv1CYTAgbPgwx994DuV4PH/8Gn9UX3WXlKF28FEefexElCxeJblWEkH+3fM+f8EgToXvhQ2pMM8jlFMIIIY0HhTBCCDkNcj58/YB+iHvofqijo/zdE2UyeFkgc2TniEmdM16YCMu27dIehJBTcbhd2HB4JzxSSxg/Dqxn8/aQy6hKQghpPOgdjxBCTpNMpYKpaxckPvMkQi4fCHi88FV/m89CmWXPPmS9+z7SX34N5s2bxXpCyInWHtiCKqdNnPd4vejTojMMGr24TAghjQWNjkgIIWeBzyFm3b8fxbPmwLx9JxRaDfjkzuK4MYUCcq0WmugoBPbpjeD+/USXxgvB6XTiyJEjcDgcNPBBPSFnz6PY2FgEBwdLaxoOXuW498sXkVGcKwbk4AN0vHfzs2gT15yen4SQRoVCGCGEnCU+jD0flKNy/UYUzZ4DZ24e5Dqdv5CV8VAmZ+FMGRQMY4d2CLniMmjjE/zl59jWrVvx/pQp2LBhA5wuFx1vU494PR4xSEWrNm0w5vbbMXz48AYTUKYun4FF21fD4/WIQBYVGIaPb38ROrVW2oIQQhoHCmGEEPIf8YE6nEVFYpCOkl8Wwed0QqZWi2PGRMsYwy8rDAbokpsidNDlMHbqKNbXNrvdjk8//QRfffU1mqa0Ru9LByOhWTJUKhUNHFJPyGRy5GdnYvP6P7B8wRxcfdVIvPDiROj19bvL3s7MA5g470NY7VXissPpwISR96J/qx6QUysYIaSRoRBGCCG1xGuzw56Tg4rVa1D+xx9w5uWLAT1kfB6r6jDGuyrqdFCFhkDXIgXGtm1haNMayqBAUf5fff7ZZ/j4k88w7LpbMGDwlWIyYx7ASD3CAonH7RaTUe/ashHvvfI8rr9+FB597FGYjBemW+t/5fV6Me6rl5BenC0uuz0eDGjVHY9ccSu1ghFCGiUKYYQQUsv4IB2eSjMsu3ajdOkyVO3dx95t2X+lUlSwRSBjpzKVEnI1C2lqFdQRETC0bgVDu7bQJzcTQ+GfqS2bN+PV115DUquOGH3HOPi8PlH5JfUTnzCctw/9/usifPS/Sfj0s0/Qr28/ccxYfcIH33hp3ofYeGSXeD7yakewPgDv3fIsIgJDpa0IIaRxUbzISOcJIYTUAh62eNdDbUI8Anr2QEC3LoBcAUd+vghn4vgevvAKqdMJb5UNrrIy2NOOoHz1GngsZhg7dGSVcF4FP30/zJiB7Xv2Y9QtdyIkLFy0ppB6TPqOtGmLVti1dRMs5aXo0qULdNXHHdYD/HjE52a/h+0Z+0QY4/gQ9S9e/QCSIxP8rwVCCGmEaIh6Qgg5R3gYUwaYYGiVipixY5Dy7tto8uLzCB02FNr4eMDjgdfhEAN8iPO8Bc1qFUPhyxRn9vZcVlqKgwcPIr5pcyS3bAUXC3ek/uOtRgq5HJ169sKOXbtgYQG9vqi0WfDUzLexM+sA3F7/VA58NMRHr7gN7RNaUAAjhDRqFMIIIeRcY5VNuV4HVUQETF07I+rmG9HklYloPnUK4h97BMEDBkAVHiZCGA9tmpgYacfTZzab4Xa7ERwcCrlcKa0lDQEfSTAyKhbFJaVwOl3S2rptS/oejP/hbezLPQKvNCmz0+3CE4PvwOXtekGloOcoIaRxoxBGCCHnkX9gDi0LWwHQxMcjqF8fRN91O5q99QaSP5iCmHvvhiE1Vdr69Hl9PvB//tYFOtS3oVGw5019OITb5nJg8uKv8MaCz5BelH3sNrs8bkwYfg8uadMDGqVarCOEkMaMQhghhFxA4vgxvR7KwEAxIEdgzx5Qx8VKpYTUHyv3rMcDX7+ElXs3oKLK322SfznAR0J8fsQ49G7RhQUwGqmTEEI4CmGEEFKH8FDGR8UjpL4oqCjFiz9NxYfLZyC7tEC0evEWWd79MMwUhJdHPYReKR2h5qODEkIIEeiTnhBCCCFnbHvGfry16Es8+t1r2HRkJ8zSJMw+n1cEsau7DsSUm55B16ZtoaRjwAgh5AQUwgghhBByWvLKi/H9ul9wzxcv4OX5H+G3fRtQbC4Tw8/z1i+Hy4GE0GhMvvFJjOl3NcIDQsTojoQQQk5E74yEEELqLR8UUGl00BmM0GvVrML/b8Oe+yBTaqHRGaA36KFWKsSEyOTUrA4bNqTtxOe/z8FD01/Dw9++ih/WL0Z6cS7MNqs43otzevyjNo69+Bq8ef0TaBvfAnq1VqwjhBDyVxTCCCGE1E9yNQyuTfj2mesxukcLDB73HjYcroRapZA2+CulNhD5Pz+Gp0e1w9BuA/D+wu0o9aqgoCQm8FatTUd246vffxKB647PJuDNXz7D/C0rcDDvKMqtlbC7HWJbPvQ8Hw0xxBiE2/qMwKdjX8Ko7oPY5UDIaQ4wQgj5RxTCCCGE1FMyyHwuWCtKUFKQj6IyCxxu3z+3bMnk8NjKUVHMti8ohMXmgreRtYWlF2dj9f7NmL1hKaYum4EX5ryPu794AaM/fBz3fTUJry/4BD9tWY4DeekotVTAYq8SkyzzKRA43vrFB93olNQak656AFNvex7X9RiM+NAoGn6e/JXHAafdLV0ghFSjEEYIIeTcYaFHoVZBqajZ7Y+v00Jn0EGllLMgJa0+SzL2O+RytshYKJPW/SO+Hd+eLWfVYCNTQMX+pn/v+lg3ffPHz5iy9BtMX/czluz8A5uO7kZGcS5KzOUorzIfD13SHF+8xcvtccPmdCBQZ8J13a/Al3e+gudH3oveLTohxBBA4asucVWhdNN7GPHeI7jhgydx1zczsU8q+ideexm2LZnA9nsU13/4HB6c/ycqpbK/54W5fBc+/eR+XP3+I7jxszcwZbt/gBZ4zMjZ9Q3GfPAYbvjkBTw6bwXy/SWEEIZCGCGEkHOABS2NEXpfLjZN+wKLf9uOUg3v9qeEVp+B1W+NxS1tr8Ini3bCrFfj7zsQ1jFyFTSVv+PHad9jzYFyQKOBqp71ZeRhlQcqu8sBJwtXXq9XBC7+j8/rxQfZcLl56LLDpDOgR7MOGNvvGrx3y7OYdsdE3NpnBBLDY2HQ6FkQrTeP3AXj87iQtmIiRr3PwsjUk5fHcdtnL+PZ2T9i+RH2fKoV7HF0WlDMQnWxpQJl1iqcVjsUH9XSVsH28e9XbnOwiPXvfF4XLJYysV+J1QyzS/pWxWFDccZe7LdYUWEtRE7RfhzwTx9HCGEohBFCyHnitdngKiqGIzMLztw8uCvKWWXJKZU2FDIpfBVh13dP4pEbRuK5d+fgYKENcoUcco0Jvr3rsX3vRuwrNsPlVUBjMEKn00DJyquvQ65QQa3RscCmh05atFo12+ZfAo9cKQbq0OoNYh+NWsVCh1R2OmQKKNVaaHX8d0rXwcPjsSuRs9tgR8aaL/HO2P6477G3sTLNCnZj600Y06t1LGh5RGsXH82wymGHRqVGYmgMOjdthSEd+uKBy27E53e+jM/ueBlPX3knrul2OdrGpyBYHyC2JWfCB7e9UoQU3r2zhIeVY0sZ8kozsO3ob/hgwasYO+uP02h9Oh3sNcTCtmgdPpPmXmmfM92Pb3tsP2kdWICPaNEJnX0s8PsMiI3qiFZGqYwQApmvur8BIYSQ/8RtNsOedgQ2ttgzM+Epq4DHaoHHYoXXwQcz8Pm7eIm3XVZVYRUWn9sFY9u2iLr1Jqijo8X1nI309HS8NGkijBGJuPPhJ1HFfu/5xcOXARpHBjbP/gjfzf4VB7ILUWnWIrbPbbjjkVvRp20ULNtnYsb7H2HplkzYfGroTUZo1R7YdP1x6+PjMKRfMygtJTi85Scsm7sAW/YXocrNv4/XILDlFbjqjjHo2yYSao8TXpkGBvtqfPD0a1iwbCvKeo7H66Mjkbd6NhZuyIbFY0LyZeNw+5jBSA5Xw+PyQqkLQuZ3N+GtLxZjR3o4hrzyIW4d1gMRCge8KhPUBeuxYPo0LPp9D0rtLnhgQnzPW3Db3VehVbSOPV7sOlQWbJv+Oj75dDYOVSqhM2kQ3eM2XH/37ejTPBhKdtvcntr7aFWqVNj4xyp8/t4b+GHGd2jWrJlUcnb+PLxdDDUfYghEREAwogLCoFAopC6dchY4+cLCqEJ5vEJNzpqPPR8OLn0G43aWQ8XCPO8+q5WrRCuTD05UOV0s+yshZ+8LClUQ+vWbhCc76/07nw2XFcUb38NVvx+CTsFeN4E98Nw9t6KtVPx3vLYSbF46EY/vs0KrNCI64SpMua4fgqTyU/OisnQ7vvh6MuY71NDpY9Gr51N4tquBlfng9bpQZbPDxf5mlVILg5qeU4RUo5YwQgg5S86iIhTNnY/M/72FQw88hEPjHkTmW5NRNGsOKteth2XvXtiOpsNZWAh3RQVbKuGpNMNjZsGMBTZPZSXc5RXw2u2QKevrZLYyyNUG6FGM3TOewiPXj8Bzk6djQ5oVkQMexss/LsHU/41D92aR0FZuxMLvvsWiP9JgA6/ku2AtK0BBZjpycopgZaFHpmZB58Bs/PT5R5izfDsyMjKRn52FgvwsZKz/ClPufxyzl++GVaFmgUG6CYyPXY6ysqAyZSqmL9iMzLwiVJZlYdfsp/HkmzNZ4HJAo/z7jzyZJgiuTf/D80/ch49n/YZDGRnIz8lGYV4a9i55FU/d8yp+21cAj0oOt8uA1KuewRtzV+HtiTejtcGFjGUfY/JtfXHf45Px2xEWgNWnM1z+hcEnTx7W8WL0adEJqTHNEGIKQqDeBJPWAANvRVTxVj2qLJ8LPiihDrkCb937Or5hy/R738R3t4xEO58bPnaHe7x2bMs5Im194f235wB7b5CrYTQEIFhvhJECGCEnULzISOcJIYScBuuu3cj/6hsUfPs9rDt2wpGdKwKWz+mEz+WCj8+dVN3iJS2iXaT6stfrP+Wr2Pa6Jk0QeFFPyDUase5slJeXY/Xvv0NtCELnHr3hcp2Hbo58gApVBQ7MfRtvPz8JM5dvQrotHO1HPoHHX3gO1w3ugYTIIGhY5UsOLzyyYDTp3AOx7mzkpO1HXnkyLr3/Wdz/4tO4YfjlaJ8SBS2rpamiA2DPVCK600iMfvw53HX3XbgoLA+ZaQeRw0JRZVA7pLZohegABRSuDGxcsQYHM0thL8sGmgzH6PHPY3TvYOQdPoqCUgush7JhaNsRTZrFwaRSoXznT1i37TAKyg1IuWQIOqQ2Rbh3Hb773+f4feNhlDpTMfL5yXjqlYm4toMXh/YcYLd3A/ajLTq2bIoIk5yFPhXUWhPCmnTGRSNuxYBOQSg7vB0Hdm7ExgVf47e9QFzrFIQHakULx38hVyiQw4Lqtg1rcc3VVyMkJEQqOTvVrV389Iy6qpGz4/OgJG0FFhbY2X3OXjPGNrimWyuEqtQs8Gqh18UC6QuxxsxbI5VQBrXHdanRYlRB89aPcf2s7zF30wos2l2M5E5tESFdrddlxb4Vk3DXLwvw09Y/sLIsFkObhfECVOVswI8ZpVCx69Np49C7SzwOzX4Lz66cix83LseSvYdRoUhC+0jeYuXnc9uQm/Y7fi12QcnCU2BQC/RPqsKcWZPx6uqFmM1uw/K0fCgD2qB5UPUXGj44bPnYtuNPHPDw94MAJMT3Rt9YNeAoxdH1H+Lmn37E3A2/Y02mDSmtW4A/e72WXKxb+grGLVqENenFiG7aDsH5v2LKnC/x0dqf8cPGZVjAXnel3kh0iAk6Mbx5HcjbvwQfL/hGbPsj23be5t+xZNdaLNr6G37ZtgrzN23EzhI5kpPjYZJ2I6SuoZYwQgg5DV6bHSW/LMThx55E+qtvwLx5i2jN4sd0+dxuEap8fIADFsB4sOKtW7yroVynhToqCvrmyTB17oigi/sidOhghFxxOQteF8HYsSM0iQmQa+vhxLa8Qmk/ih1bNmLbnixUWjRIbD8Al1x5Gdq0TECIQccq+1IXTN41SaZFYHQCosICoYEHHo8Gpoh4JDRPRbOmUTAZVOIgf6c3CX3ufBC3j7sBF3VogdhmbdFvYH/Ex0exB8KJMrMNVU437815HKuwVhkH45pbb8Hg/p3RdtizuPemrmC5DnDvxZ6DBSipYB96p/jUkynVMG9bgV05WShjj1vKTQ/iioGXonlkNJpeOQ4jujRDjN6JHFaxyy4phYuPqsgfb7bIVQYYw2KQ3HMErriyP2ID5LCbi7Fv7gocLCyD81S/kDRuLPzWbPeWew9iewEPxf5KWVRgnL+AvWZ8LGiVWvngGpUorzppgA32/HPbzcfKK041DDy7UqevFIu/ehFvHslAvqWSbV+OnMLtmLXqXTy1Mk3a8EQyuRdm6x58+fVUzMgpRDHbr8xShvSstfhs0Wt4b8dpdHf2eeFxWsCPgxO3j72H+qf2ZliZ085uS1UZ8kp2YO6yL/HUnNlYVpSHPPa7ytnfVFC0C3NWf4pnlm6AVdoN9iLsXPMu7mPBcxXftqIEeeWFyCnPQ0ZxNjJKspFenImDBUdxtKwYdmk3Quoi+nQghJB/woJV2YpVOPTIoyiY/h3s6enw8YDFW7sY0fLFtlGFh8PUrSvCR12N+McfQcr77yJ1+ldoMe1DNHvrDSRNfB4JTzyG2HvvRtStNyP69tsQ9+B9SHruaUSwfWTqejjYAQtMNlU7DL/vZTz24GAkhJtxdN23mHrnANx1x4OY8UcmqwQZoNMqRQXzdPgUGqidRUhb9TGmPHI9bh90Ea65KAVX3PIq1uwpFa1qp2xX4qP8xSchij8O7Jf55Gq0SG2DkFD+vbsHRSVlsNmcrHb51xvCW5oKjxyC1VwJhS4Q+Stex6t3X46x11yK26+6CZ+sSkOZVw05q+R6vf5WTRlvCTPoAfMOrHz7Ftx1zXC8/P4CHM4uhbH1aNz/+UsY2DIWWpf71LeXNEoy9lx0V27G9EXT8fkvX+PjH1/HrZ9+gTU+hQj2ULXADd3DpK05/wAZ1ctf1Cj7azFb53PBbtmPPwodUAU0Q7+YBIR4XCzM+eC0FeDQgTlYkCNtfgzbz+OApXgXVlu9iAxuid4RIVB5PWwvD8yVOdi07SdsO63G9pq376QbyC7zYw/ttnJsPfwn9rLrMwU1R+/IGAR4nSKwuRx5OJS+Br+IHppOFJZuxdw/96LU7YTa2BSjhk7Ggkcn48PBA5ECGxzsfdkY2Apjr3od744chES+GyF1FIUwQgj5G478fGS+9Q5yP5oGV2ExvE6X+PaZt4Dwroeq0FBE3nYrWnz8AZIn/w8Jjz6EiOtGIbBPb2ibNoEyMBAKkwkKowEKvR5ynU60ePFuh2LRaf3r/0M3xAuL3Q9eGVRhzdHrtrfxwY+/4n/PjkbzQA+y1s3FN8+MxM1XDsFzby/AgSI++MC/fOTINQgo+x1fT3wQz780DavWbUJ2UTk0ca3Qqk0ThJh4S9k/DJqtZGGPBTA+7xh/jJRKFbvsH0JdDMP+D3HIw1sz2TYytr276Cgy9m7H/p07sW/7TuQUlcBqt8FmZxVD9vfKlW4UbPga7958CcZcPQZTvluOPYddiOo9Ds/9+Ac+mvoChvdoikDVaSZP0ojw1qsMLNu7FvP2/4mFmUdQYLXDLVMjNvE6fHTPOPQ21OLzhgc7hQ4tOk/A17c9gsevewSTbxiGlizE8FeSuaoAC/Yf9W9bg8/nhVoTioGXv4WpNz+Ap65/Au9e1hFGJw9iTpRVHsLKPXw+sP9ejfR62WtPFY6L+0zEF7c+hCdHP4bXRg1HG6cDHnZXWOyV7P2jiG3pQEVBOvY4fZD7DAgPbYUBbcIRqA9HSnxnDIw1wslew5UuO/JtLpg09WjqC9IoUQgjhJCT8Fau8hWrkD7hBZg3bDzW6sUr6ZyxdSskPD0eye+8hfDhQ8WohjxoiZClVrOwwT76//q1dAPFo40MCrUO2uAktB38MF6Yvgyff/wsLm2ihe3on1j+6WdY9eduVGpYKJL28vNPmCwWdp+ptToc3fQr9u3dhKJyC+KHPoNJ3/+GqR9/hokPjkLLhAA4xUiJp6BUQHYkHeUWCxwqJTRqPXKzDsFcXspunxdRLDAbWAD2d408EQ9o4bFxUBtYJc5ahpQx0/D+4r2Y9/tmzFq5GbN/24qf1h7ErwsnoV9qNHTl6zDni2/x65/bcaQiCq3HTMbHCxfg9Ql3oFtKHIKNWjEKHiGn5HOKCbEr+eK0i9Ybr8+N/JyFmDDjK/xZJm33n/HXpgJ6TRIGd4uHib2+dJpAREX2w6imOri87LXAjx8ryRLD4h9/bfL9NDAZO2JwayOMfD99BOKaXoYrQlxws9341AZpxXnS9v8FH0FRi5DA1hjYLVq6jcGIDWqDDmFueNjL3eX1iPuL3Vh4PW64xH78uEYVNFLK4gOA6PjE7+w8376C3a+E1HUUwgghpAaPzYaimbOR/cFHcJWW+SvtLFDxboeaxEQkPjUeiROeRkCP7lCYjJCpVNKejRxvHWR3lVyphc4UhpjO1+OuDxdh+pwvMfaSVOjlTrhEAOKVLr6tEirVQezZvR/paTnI2rgF+zILUc6Pp+OtUoxKY0JQWDRClSVYs2wZDh3JhfLvRpGUs99rXorvv/kai1Ztx/7FL+PDb9Zgf54Xck9zNG0SisBA/rul7Wvgj21Q135oGhwBk1KDfbM+xm8b98Ei00Gv10PlLsfBJf/DovVZKLWrIXfZoQjoglGT5mPGwh/w7G2DkBwXDoNODT5VmGgpla6bkJr46IiasBH47LEPsYAvj0zG51cOQwoLZh5PFYqKt2Pq8rWovWF1WFhRBCHCdPxLAYVCjciAQNESxl5s8JjzwduZTsAHCNGHI7xGU5JSFYRYk4IFRnbB64SjMl/czv9UkeSvFYUGxoBYtDjhpc1DlnSW8/Fby94PIpqitZLdZpkVxWWHsDGdF7pRUrwVy9ItUMp9CNDokBwRywsIqdMohBFCiIRPplwydz4KfpjFLvmr0XzQDZlShbCRI9DklRdh7NJJtHiJ1i5yCjxg8TSmgkZnQnByf1z78rO49rLOCLY74PIEoWkKC1aRGniVXmQufhsv3TII9977On7bkYmE1u0RFBINH7vP0xe9gQlXd8CIgQPx8q+5kMkjESr3+CuPJ+G/UxtgQNmW2fjs6dvwzKRPselwKVwOKzzdR6B7qxREscqbqECezGuH03gZrhvdB/FxWjjLd2Hx5Hvw0DWX4NYrB2DsDdfjpTe+xMajZXDySY5NfXHL809j1JCOiAnj85zxobelv5uQfyHj3W51Rv+iD0OTFpfh6a7N2GuDPbNZuLHk78HWUz3JT8aebh6Xhx929S/kf6ns8dbnY9hz+tiAGTXxFmrpbLUTxpkRx4jVAj5KJ59yQrp4avw3yREe2hZDOqXAwH63ufIAvp33MK59/3Hcu3A5drP7zIdgJMb2xohm/3xthNQF9CwlhBDGU1WFojlzUTBzNqsT+Gs1PlYp0rdsgcTnnkbkTTdAaQpgZfS2ebpEixAfQVGvh0bFggq77LFXwdRnHEbfdAu6RslgLStEcX4JPEGRrFKqgbzlVbjpnjsxODUY3tI8FOTkwhbSD7c//TmefqAHogMdsFbVDFNeuJ1WmCtkaH/723ht0r3oFu5CWVEhyiu8iL7kabw84TZ0a2GCW3Rl5BNkO+Fkt8Nut4mKL78qj8uB4H7P4JX338P9V3ZBkKsCJfm5KMrLQX6ZG4Htr0efDgkI1vJBDVTQGvRQK0WzF/9PyBlgzxnpHCdTsFCmllrUZT6WbQpQUMrP+1cdJzuh0ubx2ZFZVgn5P3Z95qOQFiG/QrrIeH0ymK1m/9XLFZAbwlFzKBDB44bbkodC6SLn4SOTWj3+QXbkSiiM4eDDCZ1OXqwtckMcOna+GrcmBMDlsqPSUoKCilIUV3kREtEFdw1+DJMGdUcwvU2TeoCepoSQRs9jtaLop3konP3TsRG8eIAI7NUTSS88K44B48d6kbPEg4p0VoQmnx5NBz+K539Yizmrt2Pu6q2YMec1DO8WC2WVApFdbsL9nyzFd6t3Yt4fW/H1F69gSIcIxF82EZPmH8DMV0ejQ7QMTqcDVequuOWNnzB38waMv7YPWvW5GQ998RtmsX3n/7EO7066E92aBEHh84ctt70c0SPewZtz92Hx5tV4aGgHhMr5gBvsNrIKqSmhH4Y++RHeX7ges3/fijm/b8O85SvwwZSJuKJjFPQKjwhd1OpFzppMIcLLMa4M/LT7EPjcbbxaJpdHI5EP6smfYgo+wx7HwpQ3B/vyxQWGPV/zl2N+gRz8u4BT4yMSemFz5mPVnuMHmjktmzD3sNl/3KJCBVNoEoLZ+uNhiu9nh8W6F78fklbBCXveKiwqUrLf54NaqUaTiGZsy/P7OnCWHsWKZR/hkywvkhKH4p2nvsCypz7Hr09OxTdjHsDo9vEIUtXXie9JY0MhjBDSuHk8qFy7DoU/zj4WwLigXhch9oF7oTAY2TslvVXWKhZgZEot9KYgBAQFsyUIpgADq9ix+5mXKdTQGgNhqi4z6sGLZEo99AEhCDBoxWUe7fgxNlpDAAKCg6BTKSBn++rYvtXXa9Rr/N/cV9cV2fXL1UYYAoIRyPcRXQklrIy33Cl1RhgDq28bWwIDYTTooFKwyqm0KSFnQwY3nCWLMf7TF3CXWJ7HrZ++i9mVMhFu+BNMn9ATbflbDm+lik5EU95ay9Y77Dn4Yc7zmDT/a3z4w6u4ad5vyGFP7n9+TsrgdZZh6/qXcPtX72DyT2/goe9mYauMjxzog05pRI/kpn+5DplMDrstF/MXPYv7Z3yED75/A3csWotiJX+9qGDQxuCiFjxKnucvI7xu2GwW2OFAPguFL300Hjfx5cMncMPUR3Hd1Kfx8E+z8HvO+WyfI+TsUM2CENKoWdOOiGPAqrsgcoEigN0HhU4vrSG1jwUeHnpqLDWduuxftj35srT8VY1yac0JauxbcyGkNng9FmSV5SJTLHliiHone37x3rK6kCvw6pBU/9DqMhW04QMxOkGGKlbI5+iyWfOw/hAf2v4oKpxuNE3shKi/PTaLPW/5ABtBSWjpLkZ64T6sSEtDpt3NrskLj0yL0MQRuKHJyVVB/kWICsHBcQi2ZuNA9nYsyc6C2cX28XkgY8GtZZtr0MsobX4eqcOaoM/F16O3yg6724FKa4WYrFpMWF3FJ3kuxr5Dy/HZiq+wpEDaiZA6ikIYIaTRcpeWonzpr3AWFPiP9ZLJ/AHs/nsh19bXubsIIXWN1+OE3XXqxeFj7zvBqbhpwNOYfvMQJKqOV82U2iD0u3oSXm6bhDAWgKrY9lVOL7QBbTB2xGt4c2gPtPDZYOXXwwf2kPj4ROouB4taGvTq8jBevvkODAnwweq0w+b2QKVJwuW9HsK7gztAc+zX8ePRnLA5XZArYzDisicx+Zoh6KB0wurgoccLfXBbjL7sGTzTIxLVnf74nGIu9rvsbHG4XGBZTcJCoMcl1ou/k/3e40UsUor7xF/mrHHbBXadbhay/OUuOL3sRvoqsG/dNIz/aR62ezTQqUPRLr4DLklsh0viWqCjycB+H5+G2oXcoiP4Y+8+6coIqZtkPvp6jxDSSFWsWYvMN9+GTKkUky8b27VF/PjHoQwKlLaoP9LT0/HSpIkwRiTizoefRJXVIpWQ+k6pUmHjH6vw+Xtv4IcZ36FZs2ZSCakvPC4bqjx8Rr1T45OEqxVq0eX1r1hg4QGHBZXqqCLjx5WpNFDJPXDY7XCya5YrNDCoeBsaCz8swFhY6OHdClVKHQtabDunAy6pxsfXK5UaaGr+Pt4a57bBxgdcZOUatRYqHw9R/rnBOHE72X41ciLbjV03C2l8/i5xvQottNKgNV6PA1Z2O1gJ5HIltGppAmUeslwsEIoRdvgw+iro+OA9vIwRwc5pYwGVX+K3VQ5z0Rp8NP1rrHSb0DypPx66agiS5fJj3Y193hIc2D0PbyxahxxdLLq0HYWXBnUB9WcgdVWNlxEhhDQe9qPpKPyRD0XPPrw9HijDwxDQp3e9DGCEnInf9m/ExLlT8f2fC3E4P0NaS84lhUoHk1YP498sBjULNqcMYJyM7a+Fvub2muogpIBGaxDX7Q9gnEwcc2li640aFsD4ahbaNJqa+2tPDGCcTMYCv95/O1m5ihfLVdDW3I/fzpNqjjwQasVt8P8+EcD8BWLeQL5e3L7qAMbxsKbmv4uX6aCvEcA4HubUGv91igmcZVWoLDiEvXYWZNVGBIU2Q1u+nt0eDQujGnaqVbPLbics/NheGZ+HUA+ddH2E1EUUwgghjQ6fnNe6ew+qDqeJVjD+ja0+ORkhAy+RtiCk4TqQcxRbj+7Dd+sW4PHv38TNH43Hmws/x/I9f8Jss0pbEVKHKFgIDYlCgoyFMHcZ0o+swJfbMlBhd8JRxQPaHixb9DleWbMbVoUSoQER6Ni8xQnBjpC6hkIYIaTRcZWVwbpnrzgOzOf2QB0TjeBLB/gDGSEN3J7cw3C4HXB7POK4oSJzGX7ftxHvLZ3OAtlTeGbmO1i5dz083lNO4UvIBaBDRGAb9E0xwuVyotJ8EHNW/Q9jPn4coz95CrfN+BDv7TuAHIcDCn0T9O58Pa6KO9buRkidRCGMENLouItLYNm+A3KVih8xD01sLExdOkulhDRc/DBw3trlcDvh5qPqSYeFe7xeON18MAcbtmfswztLvhFDf3+w7DukF+WIbQi5kJQBTTFo6ES8d2l/dFQr4HZUosRajmJrBSocbhgNzTC414OYdtuTuL9DxF+6TRJS19DAHISQRoUf8F2+fBUy35oMhU4HuU6L0GFDETn6emmL+unYwByRibjzIRqYoyE5NjDHlDfw4/ffoel/HJjD5rSLYLU1fS+2pO/B3tzDcLk9kPNjeGRy8PnyeMWAd+VSyBViEuFmEQkY2LYnBqT2FIMrkLrGB7vtEGZ8MxnzbCpo1AFo0/lJvNA9QCpvOLweF1weNzx8MA5pHcefu3yAD5WCPYeldYTUZRTCCCGNiqu4BAXTv0Pp8hWQKRTQxsUheuwYGDt3lLaon4qLi/HU+CfgVpvw+MQ3UWUxSyWkvlNrNPhl9vf4bdFP+PzTT5CYmCiVnD3+0c+7G7q9XjhcduzKPowtR/dg85HdyCsvEkGMhy+xLfvHK7hKhRIGtRYjulyKq7oMhFqpEuWktnlgt6/D5A++x0aV8vhgFgILyiojmoa2xSVdhuCyZiZpPQthVQfw1WevYKZNzUJYINp3ewGv96KBhgipq6ixlhDSqHisVthzckQAg9cHZUgwdK1aSqX1V2hoKJKbpyD9aBoy0g5BSce3NRgqlRo7Nq1D69SWMBprZ4ZcHrJ4qNKy6w7UB+Ci5h0w7pLr8cnYSZhyyzMY1L4PVOw5xI8b480NPLS53C6UV5nx7ZqfcdfnL+DXXWulayO1zueG3VEFS/Vir16sqLQUYlfmKnywYBIeW35A2qGarMY/QkhdRiGMENKo+FxOeMwWXgsVlxUGg+iWWN/xSvVFvXpBr/Bh45pV0OhodpyGQK3RYsPqlfhz9SoMGjQIwcHBUknt4i1dKqVKDPndKqYZHhh4I765+3WMGzgacSGRotXM6/XPUsWPJcuvKML7v36LcV9Owo7M/WI9qV3HwxR7bFQGGNV6MZQ7P47V7fPC4SjDob3f4qtD0g6EkHqFQhghpFHxudzwWPzDcMvUKigCqrvz1H+9WAgbMmQIfpk9A8t+/glaFsTkCoUIaH78lJa6vvDHi4/cqdHpsHfHVrz+3OO45qqR6N69O+RSF8Fzif9+3tUw2BCIKzv1x9Tbnscb1z+OvqndRJmXBQCOH5dztCgbE2ZNwYTZU5BRkivWk9rkE3N3XXbpm/j2vv9hxn1vYcboEegIl5i42e6swIoD+9g5/twhhNQndEwYIaRRsezchaPPTxTn5RoNQgddhqgxt4rLDYHZbMaHH32Er7/+Bm06dMHlI0YhqXkqNBr1sZHw6j+ZGGCFd5MTl3jIFEGzYfx9Xq8PedkZWLPyV8z//hsMGTwIEydORERkpP9vvQC87LnjZqGryFyKj5b/iI1HdvojI7s9/F5XsFOlXIGbel2Ja3tcIfYhZ8sDu201Xpv8DdapFNCoTBh8+TsY18pf6nVUYPPPz+DJNAfUCg2CYq7CxzdeAn3Vfnz52auYJY4JC0Lnrk/hsbDf8eZva3HI5oSHPT6m4FQM73kzrmpu8F9ZNa8HlpwdWLB9FdZm5aHAYYebPaYKdv2RIS1wWY8bMbzZSa3rLjMOb5yFT/fuRloVu34fH9hFi+CAeHRpOQBXdWiDiBqdDNxVOVi3ehZmHs1Evp1tz65frY1C1xZDcVPf9oiiEeVJI0MhjBDSqJi3bsORJ5+FwqCH3GBA2PBhiLj2Gqm0YXC5XNi0aRM++OADrF+/AVVVVawy1XBqOB4WBpo2bSqOg+PS0o6grKzsvLQSnR8+OB1OdO7cBbfcerNo3QwMrDsDLPCh7Ldn7se0lT8isySPBTD//c4H8FDIFOiR3AGPDxkDvVor1pMz9c8hzOeyYdeCJ/DQQbs/hEWNwKc3D4RGCmEzbRoYVWq0jmmF9KwdKOVdSVlk5qNf8uCs1UWgR4/xeKpr9XPKA3P5Vkz76iMscykhk7o7+sQ+CijZTgpNBFq1uR1vXuIfmdNlzsKKBa9jco4LCrYt767KQ5iMj1Ao80Glj0WPbg9iQvcwtrUbFbnr8cncL7Giih+LW+P6+eib0CA2pgfuHHETetTOIY+E1AsUwgghjUr56j+Q8fLrkOt1UAUFsQB2NUIGN7xv7vnxO06nE+bKSuTn58PucFywVpTaplarsXbNHziSliZGCmzTrh0CAgKPHbNU3/EwGRsby/6mAPG31sUAzbsk8jC2YNtvmLH2F1Q5bceeX7yqHxcShReuGidOyZn6awgbesU7uEeMH+SFOe1HPD5nGY5CDrlCj5jU+/H54BQ4WAj7SrSEaaBiD4WcLR6okBjWAvHubKwuKRUjXnp9SoSEXoRnx96MttJbgs9Wgp2/vox7d9uQGtsO/ZJSESLLweYdq/G7zQsVC1hBwa1x5zUPY2CoDYVHFuCZGQuRrlJCpQpAStPLMDwSyM3bisWHj6IqoAseuOluDDDKYK9Iw6K5r+KDfN5iqmDP62a4ovVFiPHkYOv+ZVhWwV7TiiCkthiJV67sjYbTQZyQf0YhjBDSqJStXIXMN96CXMdCWHAwIm64FiGXDZRKG6aG+DY/Z9YsbFj/J9p37IhBV1yB0FD+jXvDUV8CM28BKTSX4pX5H+NQXkaNIAYYNAY8Nvg29GzeQawjp6tmCOND1MthMIQjSOGF11OFUoedBWCP6CKq0cTgxmtexHVxLOyIIer9IUzJHgG9MRm3XPUQBoezsOaqRNr6D/HQn0fhU8ih18di9IiJuDZe+pUs3LlZkC53KmHS8tYsBbsGB0qL/8A7n3+LDQoVdLpo9O83CY+1tyFvzw94aO4fKFWqEBjYEjcOfwxXxfBGLhecHg9cLh/0Bh0UPgtyDs3D8zOXIV2pRmhIK9w47H4MieR/lRclBZvx9cz3saBKi+iwNrh12CO4gnI7aSRoYA5CSKOiCgwUFUS+eB0OuEvLxPqGjFeMG9pS06nK6/tSX/DJnKMDwzF59FO4snN/tsZ/23nstzismDTvI3z/58Jjg3mQs+GF1VqAnMoi5PEpNtx8omIPu/OD0bn7Pbg69uSqnI8FLS30kX1wZZQGGhaUVLoAxHTsio4sIHl4uc+Jyippc0EOpdqAMKN/eyULagqFDgH6GETrfezxY7eCPYZ8uHxAA3V4PJL4NbFfXWU5yILUM3h67hLsLvVBq9bCxAMYv1pbFSrTD+GgnAVBaKHTJqJZiAxuq50FTQ80vmCkhBvZdXtgsZuxL++EG0VIg0YhjBDSqMg0WihYEOOVRK/dDlcjCGGEnGt8NMW7+1+Hp4fdKeYeq2595RX3r1fPw4Itq8SAI+TseL0u0f3TyQKYUhmOdikjMfGml/FM92hxzNbJlHIl4iOSoahZJoLQ32AhyJqxGl/NfBn3TH0KN7x7H4a/cz+u++xDLHFqoa6+HvEQKhES0Am3dG8OpdMppixwOIuw/fBcPDt9PO787gesKZAef68bRZWl7I1XwQK7HYUFv+KZDx/G9Z8+gdGfPIqbf5iCT3O80LMbKt6T6SlCGhEKYYSQRkWu1UIVEsL76MHLKxAVFVIJIeS/4JM/92nZGe/e9Iw4FozXp0Xdnf34eOUPWH1gI3/ZkTPCh6g3YNiQaVj0BF8+xpwHJuLVKwejW6QGKn7g16nwFlWFWrrwz3z2SmxfNAEjZ36HWRkZOGopRGGVFWabBZX8iyppu5pk2lC07v8Yvr3xZgwJNsDpcYkw5nRbkZW9Eu/PfxezMtn7LQtXXvavmtfrhFVcrxWVNvY77FWwulxiInA+5YGHnh+kEaEQRghpVORaVnEJZSHMy8cLYxUEm010SySE/Hd80ufE8Bh8cOsEtI1NFq8xjtetX1/wGTYf3cXOU037zPiHiteqqhc11AqFGHjjPxH721FWsAwf78hjb4keeBRGtGr3EH583B/4Zt15Hwar7XD+5SFjj6zSgPCkAbj/9jcwb+xjuK9JKBQeD3wyD0oqsrFq20a4NVpEGoLEdbthRGLyLZg1vjpQ1ljGf44F9z+HRzvSJPOk8aAQRghpVOQaNZRBQfDxkfRYJUR0SSwrl0oJIf8VD146tRYTRz2ApPBYaa3fK/On4VBeeoMcLKZ+8sJrs6BCvB3KYdTF44oe7RGm5mFPCZW7ADk2PlCHtLk49cJlLUehhV+WQ6nUIiCiLYYPexxTuiXB4vJC5nHCZilCoVyPoMSmSPKwX+C1oLRoG1bl1gyU0qLUQGVz8qsjpNGgpzshpFFRmAKgaZIEn8fD3gHlcFdUwnH0qFRKCKktBrUer4x6GJGBfORKf+iyueyYOPcjVDnt4jKpAxReURmUybywVGVg9pJ5WLZjLRYt+RDP/PATtslV/kE2BJ7C7CjOmIfHpo7DTV+8hw+XL8faneuxYuMyfLnnKHRKObwKNZSGSERBg5DoXhgWI4eDPQcslfvw7dwJeH7+IqzYvQG/b5yPT75/Dbe/9wwe/m03u2ZCGg8KYYSQRoV3R9QnN4NCqxWj0LmKimDesk0qJfWNfyTB6q/pSV0TYgzEqyyIhRqDxWXeSlZYWYJv1/wsjiEiF5DIxTroI7vh4gAn7F72OvJUISt7MaYsm44Pdu1BviwGw1Obi2HnT+B1w+60oqB4N37ZPhuv/foV3t30O7bZWbWSXU9wQBOM6t1JVDI1Qcm4fMjtGKF2wMqup8pRgE0Hf8Y7S7/C/1Yvwrzsw8hw2OFw0wiapHGhEEYIaXTUEREwtG8Hn9sNn8sFe1YWnPkFUimpT/zd2qhrW10WExKJ8UPHQqVUist8wuC5W5YjvTiHuiX+LS88HrcYrOL0B6zwnbDPXzPNqa5TBn1AKm68eQIejDJA4WNhjI/C6NOjedzlmDBmAm7q2QodXHbY+PD24vHSwhTZGcOSExApl8HttKPK5YCN7adUR6FLqxsw4Zp7cGmoVMWUKREc1QsP3PUm3unRHSka9jzwsH3Yfny4fYUyAu2TLsbYizrC6N+DkEaBJmsmhDQ6PocDxQsXI/eTz8RoifwYscjrRiHkisulLUhdN3vmTDFZc4dOnTDoisEIDQ2VSkhdxKsak5d8jRV7/oTX6xWXm0clYvJNT0GtUElbkeO8cLGAwnMUbz2Uy1VQ/uvX5j64WRDibVZ8H5lcecLoiT6fF24Wvo5dJ7vfjw9v7w9wPGT5RCnbhh/vpVCwiqKHhTYP289/O1T8drDr8rDH0R/Kqodaqd5PIeYZO/6bj/PxATr44/+XfeRizrn/PNgIIfUItYQRQhodmcbfJVFpMIgKgLu0FNadO/2FpF7xf49I3yXWdbzb6N0DrkWIIeDY5YP56Vi49TdWmaduiX8lh0qphoYtfA62fw9gnAzKGvucPHw9DzonXOcJxXwERhVbz8v5KdufBzBRpJD2kwKYWMcnc1aK7fz71Nzv1AGMk7GgpTrlPhTASONDIYwQ0iipwsNgaNcWXreb105gy8iEedMmqZQQUtuMGj0LYtexCre/WyIPBd+vXyS6xhFCSGNDIYwQ0iipo6IQ1Lc375MNmVwOR3YOSn9d4R81kRByTvRK6YyEsBjREsYbPkotFdiZeQBeHw3KQAhpXCiEEUIaJ1YJNKSmIrB3L3idLhHErPv2o+TnX6QNCCG1Tc5ed5e36wWl3D/ouVwuw2/7NonjiwghpDGhEEYIabRUkREIHngJFFqNCGWeykpUrPsTjswsaQtCSG27rG2vY4NxyGVyrDmwhboknnNuWIpX44W3xuLyyY/htjnr4RLrfXAV7cbcea/j7vcfxoi37sHQt+/FlZMfwZivPsCMbZlsz2oOlGYvwlNvjsFl7z6JcYt3SesJIWeDQhghpPFiwUvfogVChgyG126HTKGALe0oihcslDYghNQ2rVKD7sntxVD1XJXLjg1pO6lL4jnkshVj/a8z8LtLBoM6HNdc3A0qVyWOrHoZQ794D58dOoIMmxU2FoZdfIh6twV5hTvwzfK3MPbbn3BAPDQaBId2w01tY2GxFiDr8GxM2eUU108IOXMUwgghjZrCZERgr57QJCTAx4dO9npQuWkTSn6hIEbIuXJ5u95iSHKOj6W3N/swvF4a5fKc8FTBfPQXfJpuh1ptQkTyNRjM5/BSaRGS0gntfHbY2fueT65GRGA8uoaHQgu3GOoeXisKizfiuw1F4qpkuiDEdx2E4Wo3zNYSbNk2H4dECSHkTFEII4Q0eny4+rArh4r5w/ixYe6ycpQsWoLKDRulLQghtaldfIpoCROxSyZDYWXJsZmjSO1yO53YuWMd8mUqGDVhuLx9M6nyp0ZQWG+M63MxLu32BGY/PAVf3jkBE297FdPZ6Y0mGxzsIeFzi+VVlIg9ACUCDS1weYsouDwWlJXvxMId1BpGyNmgEEYIIQoFArt3Rcigy+G1+bsl8tESi2b/BNuRo9JGhJDawkdHNGr1YoREvhSaS6U530jtcsJqWY+f0z1QKjTQBLRDz6gaE3JpApF00W0Yf3ELmJRKMTkzb6E0aAORGhUMD2+dZI+VT5pWQNAZEdOxG9p5vLA4LNibvl1MAE0IOTMUwgghhFGGhSHs6pEwdu4En9MJGauQVB04iIKvp8NdViZtRQipLSGGIBHGeAorqiijlrBzwe2C68hubPbyiZo1CE/ojJoZjOPztSn441CD3ZmD9ZnlLJDJoFcHoGezZlIJp4PB1BYdgz3wum0wF+/EZmoMI+SMUQgjhBCJNi4OUTffCE1iAnxutwhi5p27kDvtU3gsFmkrQkhtCDUFs/zl/1deVQmPh9pTahufjD4rPxsyFqbUShVaRMZIJTWwIFW+fwHemvUxPvjpY7w940Xc8+kHWGTXQK+NRd+e92BMkxNDmlYZgpRwI7w+B+yOHBzMkwoIIaeNQhghhFRj9Qx9SjKibr8NSpNJDNTBv6mvWL8RmW+8BWdOjrQhIeS/0qv41BD+87wVrMpp818gtcbj9SCnrJjdzbyrYQiaREoFNXldsBXuws+HN2Fh2lYsz85GgVeNiKiBeOHWSXisczhYhjuBQqlETEgkC2E+OF0u5BTRl1SEnCkKYYQQUhMLXQGdOiL6zrGQKxSsdugTg3VYdu5G5lvvwLqL5sapC/jxQ9ULqZ+KKsuOPX5qVqk3aQ3iPKk9Hl8lSqtk/G2NBTEVNDUO7TqBzwO3R1q8/HXlQFHBcrz4xcO4a+YiZJ7cSMmuUK1WifdH/gi66GVIyBmjEEYIISdjFYygvr0R++B9kOt0/hYxhVwM0pH97gcoW7ZC2pBcKJ27dsW119+AlJQWkEtDnZP6pdBccixIh5lCRKszqU38vrXBKmZbVkChCEVEgCg4kToA0X2fxepnPseS8Z9g0f2vYnK/i5AEF1xuC45mLsekBVto8A1CahmFMEIIORW5nAWxPoh/4lGow8Pg83jEqImukhLkfTMdhTNnSxuSC6FJkybo2q0bunXvjuDgYGktqU/KrZXHhuII58eHUQardfwuVYtzHng8JSisFBf+SiaHUu4fGVFljETrjiPxTLdmsHm8kLmtMOevxxrqcUhIraIQRgghf4fVCk0d2iP+qfHQtUwRoybycOa1WFE4aw4yXnsDjqwsaWNyPvFWk+qF1D+FlaXwsgjGHz3eoS3CFMrO02NZu2QsVEUiPIC3iPH72QWnaBX7d/x1pVBUPx58fxccNfdlV+hiV0avP0LOHoUwQgj5J6ySoW/WFImPPozAfn3hdTjEOng8MG/cjKMTXkThDzPhdbqkHQgh/2ZH5j54vf4Obrw7Yuv4ZPayoipJbeMtW7FBISxGueH2lCKnWCpg3A4bDu1YiyOnaB2z2QqwaNcBqBX8MVFAqQpGeKC/jPOy979iFqT5e6FGqURCkFEqIYScLnrHI4SQ06CKjETsPXcifNTV8LlY4OJfLbMKiNtsRsGPs3D06Wdh3rpN2poQ8k/mbVkhBoHgeGtKr+adWWCgKklt44MLJYRG+UcxdLuwO79AKuHD11uxb9vHuOPje3Dle+Px8Dcf4f3ZU/H85+Mx+tO3MceihZrFN5nagLCkfmhfo9HL5irD3vxSKGQaaDUxaJ4gFRBCThu94xFCyGlSmEyIumm06J6ojoxgYczfP4dXIvmgHZmv/w/Z774HV0mpWE8I+atD+RnILingndxYOPCiR7MOMOn0UimpVSo11Cmt0NHrhcvjRFHOXpRLRRxvjeTD2DvtZdifvw2LjuzAppIy2Lz8aD1WJjMgLm4oXhyQVKOzqA1V1t3YVqqAXKmDLrAlWmmkIkLIaaMQRgghZ4BP4Bx0UQ80ff0VRIwaCZlKeaxVjE/wXP77Hzj86BPI+fgT2NMzpL0IIdUW7vgdbq//CwzeQtM/tRu1gp0zauhMXdA3kgUqtx22kvX4o1Aq0QWiX/9xuDU5EdEsrMn44B0sFHv425kqACmx/fHIiBfx6ah+CKl56Jfdhsr9u7BNIYdBY0CrZt1Qo6ciIeQ0yXzVk3QQQgg5M+zt05Z2BAXfzoB5y1ZWcVFJBX48sOlapCBs2BCYOncSoyueT/v27cOiRYtw5MgROOwOyE6ecZXUSSzPIzY2Dv369UPPnj2h0TScZoaMklw8PP012Jx2cVnFXiMz7psMk0YnLpNzwFOF4t3f4O5f1sOsDUHzdg9i6sAkqbB60A7/+eOkYVLYk/HEdw0vzGW78OU3/8OcqgDERvbEk7ffjPZSKSHk9FEII4SQ/8jndKF8zVoUfDcDrqJiEb5OwN5mVVGRCLnsUgSxirUq5NwOqX748GG8/tpr+PXXZUhsloymzVOhZhV5eruvH3jrUEFOFrZvXo8O7TvglVdfRbt2bSGv561FvOvbPV9NRFZxrqju825wY/pehet6XCEGkCDnjqsqB8tnv4jXc4CwgBa468bHcXmQVHgmHOU4+OcHeHDNISgC4tC/7wQ83oECNCFng0IYIYTUEo/ZjIo161C6ZClsR9P/GsYYOQtDuqZNYOzUAcYOHaBtkgRZLVaud+zYgSfHj4fZ5sC48c8jtV0nuPjQ+qRe4QMq5GdnYMZnH2L3to2Y+sEH6N27d70OYm8t+hKr9q5n4csrvhBICo/Fu7c8DZ1SK21Bzh0XKvJW4vWvv8V6eTDimo7GF9f0wIlt9//GgdLs5Xj92++xUR6OZs1HY9rIrvjruxwh5HRQCCOEkFrGB+yw7t2H4vk/w7pjJ3x8KG7ex6wmfpm9/SoCAmBo3QrGjiyUtWsLdUS4tMGZy8vLw7NPP4XM/BI89OxLiE1Igtt9mhMDkTpJo9VhyivPIuvwPnz5xReIi4uTSuqXHzcswvQ1C+D2HB/MZuqtz6FJRFx1xzdyHhyv8vE59qSzZ8TffdHvbK+DEMJRCCOEkHOFvb3as7NR8vNCVP75J9wW69+3evHaDFtUYaEIGzoEoYMv580hUuHpmTnzR3zy+de46uY70OvigXA4/MfdkPqLP1+qLBbcc91QjLv3LowdOxZ6ff0aSXDeluX44rc5cEoBjHdDvK3PSFzXczCU1A2RENJI0XBEhBByrrBQpY2PR+y4e9B86nuIHjsGmtgY+KT5kU7Avw/zeuHIzGLBLeeMA5jT6cSmjRthDApB+87d4XJRF8SGgLeiBoWEYsCQK7F+/QZUVlRIJfXD0p1r8MXvPx0LYPx73yaR8bi622UUwAghjRqFMEIIOddkgDIwUIySmPzOW2j+3mRE3jwahjatxDFix/r3sAq3wmSE5iy6JBYVFaGsrBwxcQmi0s4HQSANg9frQXKL1kjPyIDNXn9aN1fsWY+py2eISYI5HsBiQyIx8aoHoVXRxFKEkMaNQhghhJxHfLAObWIiwkeOQJNJL6LlF58g6YUJIqBp4mKhCgkRIymeKZfLxSq5XqhUalHZJQ0Hfzx1Oh2c7DGuD+Ha4XLig2Uz8M7ir44FMD7iY/PIREwe/SSiA0PFOkIIacwohBFCyAUkZ5VrY4f2iBpzK5p/MEW0lBnbtZNKCalf1hzcijs+fw6/bFsFt9ff7dbr86JjYipev+ExBBkCxDpCCGnsKIQRQkgdItdqoTAapEuE1A+llgpMmjsVr/08DUWVpdJaPgiHF/1Tu+Olax6EUVO/BhQhhJBziUIYIYQQQs7K0cJsTFk6Hbd/NgHrDm0XoYvzsX8mrR4Tht+D8UPvgFp5ZjNSEUJIQ0chjBBCCCGnjR/ftebQVoz/4X+475uXsHjHatidxwcM4cetXdKqJz6742X0S+0KRT2eYJoQQs4VemckhBByAfHJX6VFWnO+HPu9NI7Jv+KPjtlmwcwNi3HbtKfwytyPsTPz4IkDhbA7MtwUjDevfwyPDxmDQL1JKiCEEHIyCmGEEEIuCKUuEIVLX8TzI5MwoHVXvPrNSuR6dVDKpA3OFaUepowZeHlMX1zWLh7XT/oJ+wp9UCnO9S+uH3jg4uHUbLfiz0Pb8emqWXh4+qu4/sPHxZxfhZWlYptq/HzzqEQ8OngMPr/zFXRIagW5jKoXhBDyT+hdkhBCyIUlk7H/FyAASb+3sUWv6pDFFwsLWpkludiRuR+r9q7HT5uWYcqS6bjzs+dw7fuP4MW5UzFn0684kJcOT41Jxvl9xkc97NuyC96/eQLeu/lZXNa2Fx37RQghp4lCGCGEkNojVe5PwNd5+XrpckNxqr+1Hnj/1+9w2yfPYPD/7sbVUx5iget5jP/hLbz+y2eYtmomluz8A9llBeJvqxlQRVxl/w1aPa7ufjm+G/cWnrnybqREJ12YEE0IIfUYhTBCCCG1QAaFzIKMJa9ixg8LsKdIB5VSBa02DStevwnXpVyB9+dvQaVeA4W0R32m1BqRNvtZfDNnETJKnNLa+qHUUo5is79LoWgJFK2B1f+OE5dZmUKuQGpsM9xw0RD87/on8OP9b+OOfteI478IIYScHQphhBByvvHWk1Mt9RKrpMOCnN/fx2vXX4pxT3yEtUct8CrlkKtUsG9dh51p+5CvUEHh84qBHLz/1CrGCnxiG/9yutv5t/37+9B37HfzhcePU6l5nX/dpuZ1+NhfrfbkY9OnD+COkUPw8hfLkVNeP8KYQaNn4Uou/r7qoHXCwtYnhkbjyk798fzI+zD7wSl458ancEvv4WgbnwKlXCmuhxBCyNmjEEYIIecKDwXS4nM64cjMgnnTZlT+uR7lv/2O0qXLUPzzLyj4/kdUbt4i7VRfSOFr9Qd4dfSluO/xD/HHkUqEdLoWA/r3QXKEE0UbPsU7b32K33bYERSWjqX/G4Nb2ieg/6X3Yebv6fBqVaLCL8iUUHuLsfvHZ/DosA4Y1jUFwwdfh0+X7kKZlwW4YxvKoVBU4eiv7+GNWy7CqN6tcWWPVFw1aBAmTvsVaSVuyGoMsCFj4c9XsBHzX74Gtw5ohSFdWuLWsS9gZZkeIaYgGFiwEmFLqYMpby5eGTsAQzol4dJRL+OPA6WQqRTiL9WYSrD6uesw9qJkDGw/EFOXboep/zgM6NkWUcp8bPz0fowdMRQvf7kCuXU8jAUZTIgKCEO7uBQMaNUd1/cYjAcvuxGvjHoIn9z+IhY+8QmmjZ2Eey+9AT2T20On1kh7EkIIqS0yX33s0E4IIXUZe1v1mM2w7j8A26HDbDkEe9pRuCorITtpziSfywV9aktE33E79C1SpLVnLj09HS9NmghjRCLufPhJVFktUklt45HEjKw/vsG3H03HukPlcMt1COtwNa4bdxcu7RQDLQtKGsdGfP3K6/jx521wSmGLt77IfHZYDZfhzgmP4brhXVDww3147+OvsSE7GYlNbHBUVaC8TAG5jAVXnwu2yhhc/uyruOWGvoiSeaCSHcGil57F9AXrUSjTQSXnrTf8LvfC67DA3Xocxj99Fy5pEwKPRwmDZSU+eOJV/LI+DS6tml0v29jrgTc0HKYqK2xl+VANfxcv3ns1uqZUYemTd+OLhWuRUZGCayZPxg2XtUOwXAFd2U946dHJWL31MCzN78VLr96Ni1qEsL9HBXn5diz55A18t2Q7Ssx29vcmoPdtT+H2Eb0RE8QDzH/7mFWqVNj4xyp8/t4b+GHGd2jWrJlUQgghpL6iljBCCKktLHzZ0jORM+1THH7wUWSwEFI0+ydYdu6G22qFTKHgSeQvi0zJKvJqtXQldZdCrUHlju/w7phLcM8jU7DqEBB/yTg89+MqfPX5CxjSPhwqj4uFHwdsinYY9fyHeOruQUhSmWGpTMTF46bg/RWbMXvm6xjeMwFyh0uKJ3Io5NnIyg5Hq5FT8N7MWXjk+i6I0nuhUh/FkpV/YN+BYmiNJmQtnoblm9YjzymDMrEfrn7hK0z5chruvDQVEQYNvNvfw+yf12J/gRJ6gxI7fv4e29MOwib3Qt7kUlz95Dt45d2JGJaoA+xmOPj9L26DFy5nJLr3T0FkjAly+R5s3X4UJaVuKDVqFG78A7klhajyeNHu4r5IiAiHgndNZH+r25SKgU/MwDeL5mPiuMuQoCvC+o/G4bYrB+OdeXtR7uChUvwSQgghRKAQRggh/5HP40HVwYPIfm8q0ic8h9LFS/2tXtWhqxo/z1vCaiw+HgLUKshYRb9u48d42VDA/87MErhYqDE2a4f2fS5BckQgZG4XizHH+WQKqI0BMOq0ULESr1cJtd6EgJAwBAcZoFaxv79GA5HLVoUWV4/ByGuuREpiGwx+4FFc1r0DjDzo7DqA3Lwy2HT7sGdtFvIyXHB6e+KaOx/ENcO6I6lFf1z/2H3o3K4Z1Ox27t2yGfn5RSw87cfB7aUoK3LD4emN6+99AKOuGYS2vW7GY8/fjbatouFxHR923etyIKD7ILSIiEcgS02HN2xFdlE55Jp8bFmXjtIiCzzefujZLQYhIT72N0k7Mj6PHR5VIpJ6XImeLcNg0sihrjqCzQdyUF7l9rfAEUIIIRIKYYQQ8h+4ioqQ++nnSH/2BZSv+g2eKps/fHG84s0WuUYDfXIywodficQnH0fTlyei6aQXxJL8+isIH3W1f/s6zQtXlRItr3sS4998GVd0aAZPxhr8/NII3DBsGJ5/fz7SCvxdIM+8kztvUYpERLgJJhM/74HbmIjE8FCE6tj1mUthcdrhLi5AdpUZFTz9JMUhLCQQej5IhscFV2wTNAkIRjBLdr7SSpgdLrZ9PvJsZljY9XlTk5EQGggT74rILnsCWRhU66Dlx+v5bwS7GU64DBejV89oREUpIdu/Fnuz2e/OXINtmYUotbihGNgfrWMiEMC7P/LfxfaXu4uQtvIDvDiyJ26/5UHM3ZCLSm1L9H1kOt4d1x9NQuRwe/9bl0RCCCENC4UwQgg5G6zybc/MRs6H01CyYKGo2IvWLalMaTIhuF8fJDz2MJq//y6avvkqIm+5EaauXaBv2QL6VqnHFmOb1tDExPj3rctY8PB4dQjtMhqPfLkU3874GLcMbI9YXxq2fv8sHhx6EW694yks2ZwJB1iI+Y+NP3+JLezuVfLGRH7+L4U1wtSpnGYIcjk96HTJFYiMToRKthPb9+Rg35JVyCsrgtWjQq9u7RHKwh97hOEt3YAlb1yPG1kwe3DCJ9iWXw5t8ytw3ZsLMXPxPDxzc2+EmxQiqBFCCCE1UQgjhJAzxSr0lZs24+jzL8K8Zato6eJ4ZVsVHIjQIVcgaeJziH3wfgRc1BOqsFBR3mDwMObyQd+kL659fS6+WDAPT9zSF0khXhRunoFffv0DB8o0UJ0wIZi/1ej4Iq0W+IiHBcjOKEJJsUe0JMorDuNoAbtcxTaMikaIwQBNcBSiDYEIVLCProxMFBSVwix2V0CRcRhHyktQBhnkYUEI0KqgDItBrMEEI7++fQdxtLAUFbycp8OSApTYq2Bn50/Iim4nHM0vQ//kWMQZVTiyaylWLduBshIL3GEj0LtdHMKN7DaqdMhZ8jEWrt6OUqsM0T3H4smv1uLb6e/i5r5JMCi81PpFCCHkb1EII4SQM+C121Hw/Q9In/ACPPy4L6VSzC2lDAhA2NDBSJo0UYx0qE1KkvZoyHzwutyQGVqg332fY9qS3/DO87eiU0IA5B4+bxfvjcm7ZCqhUh/E7m1bsW/7QRxctQY703JhVrJwJF2TUmdA+uLPMfurL/D75iWY8cpr+HXtDljYNqqUloiICIXa1hId+jZDXFM9NPI/MeeTdzFz7loc3r0M3701FVt2HoGT/b42XboiOjqC5al4NG0RhOBQFTTKtfjh049ZQNyL7P3LMf2Dr3DgcB7k7PpP5IHLGY3OFzVBaFQAFOkrsfFgPgrNXoT16YOE8DBoeBdInwduVQzajJqItxduxudTnkCvliFQsP1rHitGCCGEnAqFMEIIOV0sVVSu34j8L7+B3Gj0r/J4oGvSBPGPP4LosWOgia0H3QprnY/dD064ZWFIvfoV3HnLlWgbZoXNEYSmrZogJpGFMrUCOcun4JVbB+KeB97Cur358LF1x/Zn+4aZzDiw5DW8ds8D+GLxXhS5lfB6UjDkkh5ITQmE3WpG5MC7MbBPLyQEKIGcNZj38hg8fPs9+HzVIZS4AE3L2zFsUGc0jXDBZlWj08hr0b5Fc+jlasjSlmD6MyNw14134cdsDbTGCOj575ZuRTWvy46QfsPQKjYBprJSVLLLVe4UXHIxC4PhWni8PrjtFjS99nWMG3sDUsM17O93n9S6RwghhPw9CmGEEHI6WA3bsms3cr/8GnKDXqzyulwI6NoFTV9+EYY2rcW6xk7M18XuK55H+Lxdup5348Yx43BxcgCUciUUqgBEpbZBTFQE1B6vvyuhzw17SxaOpnyBZ8cOQlIgC0zsGhShHXHt2+/itqt7IcLnYOGHbeeOQv9HP8DEt57H5e1jYFKroFQqoQ1NQvdb3sc7U5/BwHbhkDk9YsRCa/Ag3DHpedw0tDVCtArIZBpE9Lgfz07+Eg9d1RbRRh9bJz+xS6IYoKO/GKAjItQDj9MJT8sBaJcYhSCVv4WPE38rC2SUvQghhJwpmqyZEEJOgyMzC7mffgbLth2QqdUsYDgQ1Lc3Ep58Qtriwjp/kzWfBRZy5HxS5WNRh4cXKcyIMh6C/IFGjCbJ1vmxgMO246HuL/5ynWxbFop8pwxFbCv2O44PE8+uUwqAYp2PdyE8cT+Z2gjPmhfx7Fs/YMv+ArS590c8elM/FhBdcJ/n7obnarJm/vFf8749dvcIx+/ZY9gGf1lHCCHkrFBLGCGE/AuP2YLSFSth3rRFBDDRBTEpEcH9L5a2IP+ItxjxYeE9bmk53prkL6te5w9dx7dj4ehUAYz7y3X+NUgdx6/3pN/P11avq7kf/30+ORSybKxfsQVF+aUssvVC+w5RCApm8a0BHe91IO8IJs2diolseWvRF/hg2Qx88ftP+P7PRZi3eTl+3bUWfxzYgs1HdmN31iEcKchETmkBSi3lsDlscLP7zr94WDBl9+UJCx9Jkz1GIkRXL+x+PnmRbgshhDQ21BJGCCH/wp6ejtyPPoF17z5AoYAyMBCR141CyOBB0hYXXp1uCasn5AovCg5lwOHMx+6F72Pm4h3IL7NBOeAlvPHIKLRL0MDlPv8fmeeqJWxn1gG8NPdDVFRZIAZQYfx/XY2/kZ098S8+8ZJWpYFOrYVeo/WfsoWf6th6LT9V+st1an7K17FTvg9bDBod208Ho1bPTvVQK5T+K5Vuy/FWN6kF7tiKGi1y7Ay1zxFC6iMKYYQQ8i8qVq9B1jvv+iukcjmC+/ZB7H33QMYqx3UFhbD/Sg610Y51L9yOj+evR65bC5XcA4dpKB6d/Dgu6RALpct9UgQ5P85VCFt/eIdoATPbrMdC2Nny3y/8BSLOHHP8Yo2CEzY7fk6pVLFApoNBLQUzdsqDmlFjkAKbFia2npcbRHDzlxtYgPOf6mqEM/+5439VzSBXfZ7iGyHkwqEQRggh/8BdWiaGpC9ZuFiELnVUFKJuvhGBvS+StqgbKIT9V3KoDHZsfetefDJ3AzKsWkR0vwv3PnwjOjcxQSZ1YbwQzlUIW7l3PaatnAmLvUoKYf50dOLfKXUZPLbypC6EUuGJ+/w3/qs88Rr9l6R17OR4aY3t2N/AA5poXZOCGQ9yItjxdSy4BeqMCDQEIMQQiCA9OzUGiBDnD2MslJ0Q0mqep8BGCKldFMIIIeQfVB08hKwpH8CZlQV4fTB26oC4hx6AKjRE2qJuoBBWO2R8sA4xUAg/Zsl/TNOF/pQ8VyGMH6fldLtgczlgd9rFqc3phN3FzjvZebHeX2Z3s/Vinb/MLrY96by0fTX/3cZ+Svff8btRKjm2okaIYyuPb3f2xLXUuCL/WennsfX+36WSKxHMgtnxJRCBepM4z8Oaf10QW0yiayUnIpn/v/+SP6mJy/+1VZEQ0jhQCCOEkH9QtnwlMt/4HxQGg5gbLOLqkQgbOVwqrTsohDVc5yqEnSt2d3WYc6DKYZPC2/FAx89XsVNeZnXaREucOM8Wft7qsLP1VjHgRzVRUZGqK9U//evEhepL4vLZxDj/dfn3O/bT/99/XvqpUaj8rWhGf1gL4gGNBzYjC2t6/zoe1oJ0AeL4N+54YPOHtGOtatI6QkjjRCGMEEL+htduR/Hc+cj7ejrkajW0TZLEhMzGdm2lLeoOCmENV30LYbWFj7LIg5mVhzQprFnYZR7g/GGNnefBzeE/b7HbWPg7Hux465y/hlMjSrEV1Zeqy6o3Od3wJraTNvWf+C9Xnxen7Ac/hi2EhzMWzPhpqDEIoYYgcT6Et7Kxy7yMD2bCW89qBjTxszqkVZ8SQhoUCmGEEPI3XCUlKPjuB5QuWQqZQiEmZI578D6oo6OlLeoOCmENV2MNYbWBd5fkAa46zFXYzGI0yDJrpXTeiko7PzWjnC38lONVo2OhSkpV1bWl6hBWvcU/qa5iHfvp/y/Oi1P2Q6tWs1DGAhoLZf6AxkMbvywFOGkxaHXHujoeC208nlUHN6mMEFI/UAgjhJC/ISZo/uQzWHbsFJWpgO7dkPDk46JVrK6hENZwUQg7v3jrWoXNgnIpqJWL0GY+Ftb84Y2t5+vYdtzxsMVOxX/2T6zyn0qR628d389/qeZ5ccquRKPyhzUR1NgSZvK3rEUEhiGKLZGBoTBpDSeEMnGOQhohdRKFMEII+RtVe/ch6+134SwuBjweBF16CeIffkAqrVtycnLwwvPPQxMUhXHjn4PV4v9Gn9R/Klb5/n35Ysz8Yiq+++ZrNGnaVCohdYG/he14aOOta+VVlSixlKPYXIYitvBT3iJ3PJj5w5U/fEnnT6M65t9e/PdfEmf8+8vYD51GKwKZfwlFRAA7DfIHNL5oVce7Pp4Q0viJWEsIOV8ohBFCyN8wb9qMoy9MEi1fMraEXTkUkTeNlkrrFrvdjgnPPoO03CI8/sIb0Gg0YmQ/Uv9ptDp89u7rKMk+grcnv43oOtgdlvw7t8d9LJAVs4BWYpHOs4WvL6ksF61tPA75Q1qNkMVO/Zf/vcrm31ecO2F/nrFMWiOiRSgLYUs4IqWQFs1CW1hAENQK9l4nhTMRzI6dp4BGSG2jEEYIIX/DvHkL0ie9AsjlkLNQI0LYjTdIpXXPD99/j0+//Aajbr0b3fv2h8vplEpIfcWHy+cB+74brsTtt92MO++6C3q9XiolDQ2vkhWZS1kw84c03ppWVOkPaiVsHQ9vpWzhgao6bPlP2Tl+Kq37J8e34duLn2JfmUwOPm8ab0WrbkFLCI1GfEgUYkMioVFKAY0tcgpnhPxnFMIIIeRvWHbuQubr/4PHaoVMLkPIZQMRc+/dUmndk52djWeffgp5ZRY8+NQkRMXGibmgRE2L1EtKpRKfTH4VB3ZuwfTp3yAuLk4qIY0ZD2d8KawoQX5FEQrYKV/y2VJoLpHmt/OHLXEqzvtP/4kolbb1/+f78C8DZKI7Y0JojAhlCWExIqDFBkfBoJG6OErBTAQ0CmeE/CsKYYQQ8jeq9u1H1jtT4CwohM/tRnC/vogf/5hUWjdt2bIFTz/5JFxyNe56+Ck0TWkJj8fDvzgn9YiPVWIry0ox65tPsGbZEkx5710MHDgQCoVC2oKQv1dqqUB+ZTHyy4tRwE4LyqtDWrFoYeP8wUw6lYLXP1UJ/eX8TPW2/u6KYaZAFshikRASjfgwHtCiERccDZNOL7WYyY+FNH6ZEOJHIYwQQv6GLS0N2R98BHvaEfg8XgT27I7Ep8eD1YSlLeqmA/v347kJE7Bx8xa069gFCU2bQ6VR/2MFqz7h1Tjedcr/bbsPXq+/UthQ8L+kMDcHf/62HElNkvDSSy/hoosuogBGag0PZIWVLJSVV7eiscDGwlphRSnKqirFNiKYscUrApd/ORXx6uNFfJvq8+ylGagzISk8BvGh0aLVjIc0fhqoN4luttWhTLyWxTUR0rhQCCOEkL9hl4aot+7YKSoYxg7tEf/oQ1CGhEhb1F289Wvjxo1YtHARDh8+DIfTIYWW+o1/YMnZz9jYWAQEmOBxuZGdlwez2SIqdg0Br5jGxcejX79+GDJkCFQqlVRCyLnHuzDnsXCWW1aIzOI8ZJXmI6MkV1wWE2CzbXxsGxHQePD6m2qkWCuVHwtnTIDOgJToJmgaEYfkyEQ0i0gQIzn6Q5ncH8zkvAWNohlp2CiEEULI33DkFyD/q69RsWYdqxTIoU1klYWxt8HUoYO0BbkQzJWVmDVzJg4dOojAwECMvvEmJCQmSqWEkHOl2FKGrJJ8ZLFwllHKAhoLZ9mlhbDYraLcH8q8/xrORDDjiwhnPujVWqREJaFZZDwLZYloHpWAmOCI46Hs2CkFM9JwUAgjhJC/4fN4ULpoieiSqNBpIdfrETbiSkRce420BbkQjqQdxqKFC5GXlydav2648Ua0atVaKiWEnG988mreWsYDWmYJC2cspGWXFbD1lcdCV82AdirVwY3/4wOL8Mmpm0cmoikLZsksmCVHJohjzpRyhQhnCh7MGkjrN2mcKIQRQsg/ECMkvt6H/MEAAP/0SURBVPYmvDYbvC4XAnr2QNIzT4ph68mFsXnTRqxcvgJmixlOpxODhwzFRb17Q6VUSlsQQuoCq8MmujRmlvoDWnpRLjKKc1BpM4twxsMWD1+8CyS/fHI717HwJgUztVKFJuFxaBndFK3imiGVnYYFhLBAJhOBjIczai0j9QWFMEII+QeOnFzkf/EVKjdsZO+YMuiaN0fM3XdC36K5tAU5n/hH1tLFS7B+/Tpxnh/7xo+fGjbsSsTExlIFjJB6gI/QeCg/E4cLMtiSiaNF2Siz8omq/YGMD7bjD2a+vxwbdiyY8eqrzIdQYzBaxyajVWwztiSLkKYQgex4MCOkLqIQRggh/8BTVYXiufNR8O0MyNRqqIKDEHHtKIRccbkIZeT84nOhLZg/H5mZGUhMSoTVYkVhYSHat2+PQYOHIKQeDJpCCPkr3qXxQP5RpBVk4XB+Bo4U56DE7B9OX7SWiVazvwYz0U4mBTO+jU6lQcvYpsdCWfPIJJi0+mOBjAc0QuoCCmGEEPIvzBs3IfPNt8Qw9T6nE4YO7RH36ENQh4ZKW5DzgVew5syehe3btkGv12P0TTchOysbq3//DaWlJbjx5lvQsWMnag0jpIEw26w4WB3MCjORVpiFospSUeZvMfN3Zzy5K6O/pcwLDytXKZSIC41C69jmaB3HgllMM4TzLoxyBR1XRi4oCmGEEPIvHKyin/vp57Bs2y6OBVMGBSFi1NUIHXIFtYadJ/yjatPGjVi1aiXKSkvRrVs3XHrZZQgICMScWbOwZctm6A0GXDNqFJo3T6E5tQhpoHgw25eXhgO5R7Ev9wiOFGXD5rCL+cxEKBPBzHvClzH8/UO0lPH17F9McDg6N2mN9vEt0TKmCYINgSKM+bsxUigj5weFMEII+Rd8lMSy5SuR+9E0Ebp8Lhf0rVIR9+B90MTFSVuRc4V/TOXwbog/z0dGRobocnjNqGvRtFkzUW632/HTnNnYv3cv7A4HLr98EHr26gWdTketYoQ0AlmleSKQHWDLfhbOsksLxHoeunhr2MndGKtDmcfrEYN9NA2PQ4fEVNGFsXlUIoL0ARTKyDlHIYwQQk6DM78AeV9+jYq16yBTKqE0GBA2cjjCrxpBIyWeQ3zgjbS0NCxZ+AsKCgqgVKnQu3cf9O7bV4SsmlauWI4NGzagvKwMrdu0weWDrkBYWBi1ihHSyLhZuNqXc1gEsv15vDtjJsr4cPlS8OLB7K+hzB/YxJxlMU3RJi4ZqTEslEUmwKQz+Lsvsvf6kwcKIeRsUQgjhJDTVLFmLXLe/xBepxM+txu65smIvfducUpqn5vdx3+uWyeO+bJVVUGj1eLii/uje8+eUKvV0lYn2rNnN5YvW4b8vDyEhoahS+fO6MAWk8lEYYyQRqzIXIadmQew+ehu7Mk+hPIqCwtfXhHYqrspVhMtZ6x6zMuMWj3axbdA56TW6NykFaKCwimQkVpBIYwQQk6Tq7gY+dNniK6JcpUSco0aocOGIOKG6yGjCn6t4R9L/LivlStXYM/u3SKM8YE4+l9yCbp06Qrlv8wHdvjwISxbuhT5+flwuVwICwtH+3bt0LFLFwQEBPzr/oSQBo7VfA/lp2NLxl5sStstBv2oHsiDt5TVbCXjeChze/yBrG18CrqwQNaRBbLoQBbI2Hs/BTJyNiiEEULIGeCDc2S/+z5c5RU8LUAdFYHIm0YjqHdvQE4fwv8FP6Cedz9MT08XXQuzMjNFBScoKBj9BwxA27btoFCeXti12WwiwK3/808UFxeJMBYUHIw2bdqgW7fuCAgMFNdNI6MRQiqqLNiRuQ87Mg5gR9ZBFFYUiyDGA9nJoy/6A5mbBTKDP5A1aYNOSa0QFejv+kyBjJwuCmGEEHIG3GVlKPxxFop/WQy5WiWGrNenNEcMdUs8azx4ORwOHD50CJs3b0ZmZjq8Hq8ISKmtWmPAJZcgPDxc2vrMHA9j61gYKxZhLJAFsKSkJDRp2gzN2WOn1xv8lScFD2RUeSKkMeNfBh3IT8fOzP3YnnkAafmZsLnsInz5jyXzv0vwU9GdkQUyAwtk7RJa+ANZYksWyMKhVChFICPk71AII4SQM2TPzELutE9h3blLDNLBBfS+CLF33wmF0Sguk3/GP3p4+LJaLDhw4AALX5uQl5sr1vNAFBsXhx49L0KrVq1qpfugCGO7dmHb9m0oLCiAy+2GiwVofmxZbGwckpOT0bJVKoKDQ461kFErGSGEz0u26ehubE3fKwb7MNuq4PGdOLgHP/V5+TFkPJDp0TGhFfq17IqOSaliUA+lXEEjtZK/oBBGCCFnoWrvfmS+9TZcJaXsnVQmwlf41SMQduUwOj7sb3hZ6OIVF94aVZCfjyNHjmDnju0oKiqCSqUS4YePeNiuXTv07tMXhnMUaHNycnDo4EEcPLD/WOsYP+7MyUJZVHQUmjdvgTgWAqNjYsQxZMdCGXucZeyUKlOENE6VNgs2HeGBbA/2sEBWYimXwpdHfIHE3xtECxnvWs0ux4VE4OLUbuiT0hnxodHUOkZOQCGMEELOBvvQLVm8FDkffQI5CxB8LjF1dDSibr0ZgT27i2DW2FVPnMpbvCorKsQcX/x4r7S0w6goLxfhhg85z+fhiY2LRcuWqUhNTUVwSIh0Decen3/s0CEeyA6gpKREtJB5+MIDI1sMBgMiIyNZOItBdFQUYmJjxbFlSnbbqwMZX3hIo3BGSONhczmw5egeEch2ZvLjyErA3vHY+wb/6R9tkVexXV5+/JheDObRL7U72ie0gEGjo9YxQiGMEELOlsdsRuHMOSieNx8yHsScTuhapCD2nruga9a0Ucwfxj9CeNCqecq/Ba5k9w2f1yszPYOFrkOitYuHGt61kC+88hEREYHmKSlowcIXDzcXujrCh7XPZqGMn+bk5qK8rBQulxTIWEXK4/aIv5G31vFj1PgQ+CGhoSyUBSE0JFSc12g0/lDGlpohrXohhDQ8DrcTOzIPYCsLZdvS9yGnvPDYMWT8Vc+7K1afTwyLQb+W3XBRSkfEBUdCxd4PaULoxolCGCGE/Aeu/ALkfvEVKv9cfyyIaZOTxfFh+hbN620QE2FKWkQVgp3UXMcXfpwVH0q+pKQYxcUlomtfaWkJSktK4HQ62J/OB7tQiNDFW4r48Vfh4RGIi49Ds2bNkJjURJTXVXb29+VJwSwvL1ccs1ZVVXWsda/mKb8/+KnRaERISAgLZiEspIUgOCQYgYFBMOgN0BsM0Gq1/lYz/gtOCmgnrhMX+A9xmRBSP1Q57Vh/aDtWH9iCPdkHYWPvhR4WyPj7A38t89EW3W4XAvQmdG3WFle07Y1WcclQK/29AkjjQSGMkAasurJ88nlSi9iHatXhw8id+hFcmdmi9UMEsWZNEX3HGGhbtDjPQYw/ztLZmvjjL509psY68dxgC/+2locrq9UqJkjmp1arBVXWKhFA+GWzuZKFrVJx/liAYMuxY6d4yGCXeeiKjIpCEgtb/BgrvvAJl+szi8UsBvbgLXslLHgWFRehqLBQHE/G70te0eLHvlUHtJNfg/y+4S1pep0eeqNBdHfkc6AZ2KITpwbo2Dq1SgkFq5Tx+5CHWH7MXPUpv2+56lPuhPPix6mDW83tavqnfUjDwR//6sdanKfH/JzKKM5lYWwzC2U7kFmSKwIYH/ae4+8H/FgynVqLjomtMKxTP7SNayHCGB031jhQCCOkgaiu/PFKNB9kgFekeSW6ylYlztttdlaJtsLpcEh7kNriYxVjTUEhAlauhpaFEx66ZHygh5AQVPbpCVtcrOiix95wpT3OHf6Wzp8Lbg9vnfF/+1rdWsOHfRfz3vB1Utc63mWGD0zBW314yOLPFb6+unJWXWGrDlbilC1iLhy28G53fB1v5QkO5q0+gQgJCUVsbCwSEhIgr8MtXbWJ32/FLJjxOcl4i2ARX9hzwm7335/ikWePDX98qh+j6vOnunwCvk46yyl4GGMLP56On/oDGlt4cKsRhI8vp1pXvfgfP/4NPD9PGi7+vOGvU/4FAP8igId+/gUAP88DPn/uVD9/SO3i3RW3HN3LAtkm7Mw4ALPdKgIYf//l+Pu1lr2O2yW0xLCOF6MDO9Wo1Ox9lgZ5asgohBFSj/HQxWfx55XozMxMHD2ShqNHjyIzI8P/TdpJFWly7njY/R3ucKFLXj5Cq+z+4MIq1uVqFbZHhSPHaPBveI7fcmt+s33y435C2UnnecWLn/oXfv74NmqNRlTWeFc7o8mE4KBgBAUFidDFTwPZQv4eD2hVVfxLEasIumKxWWGz+lsc+Rcl1ev5Fyc8NHPVH88imPnP/CXM+S+eeLnaiZd5uXRW8s/bk4arxnOBneFfpkSEhyM5JQVNmjRFTGyMmDuPvyfwcEZqV0FFMX7ftwlrDm5DWmGmCGL8Sxj+pstf+yqFEq3jm2NYh4vFJNB6jZbCWANFIYyQeoi/bO12O/bv2ycmouUBjHcR499i8ooz/2acvbzFN9vHK9bHF3JueNh9G2x3oEN2HgLLysUHK//orGBBbFdMJArDQsQQxcdrQLWPP77i22z+rTYPVuxUyU6rW0MUSv95Xsa34S0pWh6wDLxrnFFUvoy8mxxb+HneXY6eM+cfn8OMT2DtcDpEV0cHe16JU4eTndqlU1bOtnE6XezULlrAj7V6Vi98pLbq81Jlj79/8JbZY+trLKTh4m87vHVcPP41lurHXowKyk7550ez5GQkNWmCbt26i8FmqHWs9lkdVfiNhbFfd63F4YLjYYy/3/LXMX+fTo1tihFdLkH3pu2gVfkH/SENB4UwQuoZXhHjAwWsW7tGBDClkleu/YMf8Mo371rCPzyNBhNMASYEBAbAZGLnTQFiziP6MD33nDm5yJn2GSw7dkDGHhv2iQpddCQir78Oxov7im88CSHkfDObzTBXmsWUEWYLOzVXsPOVKCr0d6XlIYCHeb7wFnHerbhXr15okZp6wvGIpPbwMLZq30Ys27UOh3nLmBSK+X3NJ3/WKDXokdweo7oPQrOIeNFSRhoGCmGE1BP8G8wK9sH5x+o/sGXzJvFNWfVB+7xbWNPkZLRs0RIJiYnSHuRCsmdlIpcFMeuuvZApWMXF44Vcq0XgxRcjfOQwqCMiGsUQ9oSQ+qGsrAwHD+xjy0HRu4IHAd7Syr/cS01the49eyAhIVFcJrXP6rBh1V4WxnavYWEsyx/G2Oe+jP1zuJyICY7ANd0uR/9W3RCgM9JIig0AhTBC6gH+ZpyRkY45s2aJD0p+gDUfTa1Ll25omdoSsXFx0pakLrGnZyD3k09Qte+gtIaFaRaeDa1bIfLG0dCnthDdBQkhpC7hnzN79+zGmj9Ww2rl0zJ4oNXqcOnAy9C1WzcKYueQxW7D7/s2YOnutTiUnyG6jHKidUwuEyMp3njRULSIbiJGUiT1l+JFRjpPCKmD+NtvXk4OZs+aifLycvHhx0egGzZ8BLp17ya6GJK6SRkUBGO7dnCXlMKenS26l/CD4B15eajaswfK4GCoo6MpiBFC6hTerZ23ekWx96fC/HzYbHYxAFR2VpYYoCcqMlK8l5Hax4NVSnQSeiR3YJ8ZQH55EWwupyjjnyEZJXnYfHQ33B43ooMioFdrxXpS/1AII6SOKykuwuyZM8Ww1zyAhYSG4vaxd4g5l0jdpzAYYOrQTgyCYc/IhI9VZHjo8pgtsOzaDa/dDh17LOU6LR0rRgipU/h0E23btUdubi4qy8vFMcm8V0ZIaDDCwiOo8n8O6dQaMTpiclQSiipLUGguFeuVcgVsTjt2ZB1AHgtoCaHRCDKY6LGohyiEEVKHVVZWYtaPPyInJ0ccFM375Y+9805o6/mEt42NTK2GvnUraKKj4MzNg5tVZsQHJqvQ2PYfgD0rC+qYaNFyRt8uE0LqEn7ccZu2bQG5TEx/wo8T41OhRERFIiwsTNqKnCtRgWHo1rSdaCHjw9vzY8c4fkwYH1XxYEE6YkMiER4QQseJ1TMUwgipo/g3josXLcS+vXvFhyDvFnLbmNulUlLf8NCliY+HoXVruAoK4MwvqC4QLWTWfftFCFNHhPu7J9K3moSQOoKPqpuYmAiD0YgD+/eLgaH45OSpqaliHkFybmlVarRPaIEW0U1RVFmK/IoSPtubGCmxoLIEe3PSEG4MFmFMzBFK6gUKYYTUQfxA3LRDh7B48SIRwPgQ82NuHyvmayH1mzIgAMb2beG1O0T4Aj/Ymj3G3spKVG7e6m8VCwuFIjCQjhUjhNQZ/Iuk0NAwMcF4Tna2GMaet7wkJiX5W/bJOcdbu7olt4fL48KRgix4fB4o5UpUVJmxK+sgAvVGJIXHUhCrJyiEEVIH8YmYFy1aKIak1+v16D/gEjRt1kwqJfUdH6re2K6NGJjDmZMDj8Xqb/ligcx+NB3mrdvgczihDg+FnD3+1EWREFIX8C8F4+LisX//fvH5VFZWiqSmTWiAqPNIo1ShdWyyOEQhvTAHNpdDHCfGuykeyEtHqDEISWGxLCBTMK7rKIQRUsfwYWi3btmCdWvXipavTp274OL+/aVS0lDwVi5dcjO2JMNVVARXcTFbyf6zwMUDmHXHTlh374UiwERdFAkhdQYPYjx07d2zR3xeeT0eNE9JEV0WyfnBuyG2jUtBbGgk9uUegdVeBQULYpU2C4rM5Yhn6yMCQ6mFso6jEEZIHcNbwX6e9xMcDpfo+nHNNddAqaK5QBoqVVgoTN26srAVwIJYiRg1ET6f6KLoKStD5ZatcGRls+1CqIsiIeSC42ErMCgITocDaWlponsiHykxPDxc2oKcL/Eh0UiJSsKRomyUWsqhZOEsr6IQBeXFSAqPQ6iRfWZQEKuzKIQRUofwY8GOHEnD2jVroVKp0a5dO7Rs1UoqJQ2VnIVsfYsUmDp2gMdqgbOwSEzqXN1F0Sa6KG4HXE4R2uQ6HXVRJIRcMLxib3c4sWf3LjF1Cu8237x5c6mUnE8RAaFoGdMMmaW5yCkrhEapRlZJvhiwg0/oHGSgrqJ1FYUwQuoQ3rVj985dSE8/CrVahd59+iGUVbpJ46AwGmHq2gXahAS4SsvgLisVs3Xz1i+fwwHL9p2w7NkHuUYDZVAg5EoltYwRQs473hrGu8vv2b0bNpsNKpUSHTp2pFaXCySEBS0+afPOzANiDjGVUoX8iiIYtDoxqiINXV83UQgjpA7hw/6uWfMHykpLodPpMHjIEPEtI2k8eCVGExvDwlhnKP7P3lkASHFkffw/buvuLrgHl0CCBIhA3PWiF9eL6yWXXNwFQhQSQpDgEIK7s8iyrLvvzo7rV1XTS4DL3RdBZnbfj1Raqrt3dqe6Xv2rXr3SaH0uimbzcS6KrVu2wrw3j18NZWgI5Go1iTGCIE4rfC5YXX0dqquqoGB1U05OjhgRI84MKVHxsDns2F12SIhkF/t+uHdNenSiiKpI+B8kwgjCj+Brgy1etFA0xHNyuwh3RKJzwke7DN27IahnD7hbWuCoqxVCjMMFl4vPF9uyRYyOed0eKEOCIddqSIwRBHFa4A19h82B/fvzxFph0TGxiIuLk3KJ048MsWFRaDYbUVRXLuaHtViMiAuLQdeETIqW6IeQCCMIP4H3WJWVlWL7tm1Qq9UYMmQo4uPjpVyis6IMDUXIoLOgTkiEu7kJrrY2n4ti+8iY0Yi2rdvQtmMHvA6XiKbIQ+ALMUZGlyCIUwQXYWpW12zdsoUHdkVQkAE5Obm+TOKMEKTVQ6NS41BlEdpsZjjcTng9bmTFpSIiKFS6ivAXyEmUIPwEPh+srLRUjIJx45aUnCzlEJ0dmVKFsBHDkPr0U0i843YYuneVhBarwnl50WnhamhCzYwvUPLM86j7/gdYi0vhsdmOjp4RBEGcbFRKJZJTUsS8sKqqKukscSaJC41CYmQcXEx88YWci+srUFhXJuUS/gSJMILwE/hImLHVKPa5EDMYgsQ+QbTD3Q3DRo1A2pOPI+mBexHUtw/kBgMTaXzUi+XrdHC1tKBu5ncofe4F1H4zE5YjhWJOmdflkp5CEARxcuAdhkFBQcJ+2W12sSXOLEkRcUiPSoSHfRfcBZEv4mxhifA/SIQRhB9hs9uOjoTp9TrpLEEcj0ylQshZA5Dyj0eR8uhDCB0yGMrwcOGeyOHzyVxGI+p/nIeSp59F5dvvoWX1Wjiqa+CxWn3h7wmCIP4iPHBUuwjjic9rJs4sCtZ+yIxNRXRwODzwwuywo8XSJuUS/gSJMILwE7gBs5gtQoSFhJLvNvH/w8sKD9yRdP+9SH38UYSPGQ11TAxkarXPTZFtPTY7WjdvRdnrb6LwH0+g+vMZMO3cBWdzs8hjBU96GkEQxB+DN/iDg4PZnle41NusNOLiDySGx4gRMR5xuX00jEdLJPwLEmEE4SdwEWY2m3wNa3JFJP4guqxMJNz+N6Q99TgiJ50HTWIiZBoN9xeCTC6DQquDu9WIpiXLUfLCP1HyzAuonz0blsMFcLeZ4KUebIIg/iByhQJ6nV705XARxueGEWeeFqtRREbk64PJ2D+rww6r0yblEv4CiTCC8CNMJp8ICw7hPYsE8cdRJyUi7rprkP78U4i75irou3aBnIl6ucY3OsZdFnnkRFtZGWpnzUbxE0+j7JXX0Lh4KWwlpTR/jCCI3w13ndfpmQhjAsztccNqIxHmD5hsFhEdkbcnvOxfVFAYgrUGKZfwF0iEEYSfwEfCeE+iVqejkTDiL6MMj0Dk5IlIf+FZMToWcd54aNNSIGcNJiHEmHHm7op8fpgpLw+VH3+KoieeQuX7H6F1zTo4KqvgNpng4SNk5LJIEMRv0B6YQ6PVQqlUCJd64szCRZfR0gaT1SyOedj6qOBwsU/4F7ROGEH4CbxRrNFokJGRAR0TYomJSVIOQfx5eLlSRUUiqE9vhI0YLtwUvTKIAB1M9YsebL7mmFzFBJnTCVtpKVrWrWdpA2yFRXA3t0CmYqJNqWLW3cNbXZCxRBAEIeoXpRKhYaFISUkRdUNcHK1veSYxWk1Yvm8DDlYViTl7MSERGJHbHymRCdIVhL/AbC91cRIEQXQ2HNW1MG7dCuOWrbCVlQMuJzwOp2/UizWs+NbrZiLN7RKujLrUNOh7dIO+ezfo0tOgCAoSwk2mZuKMIAiCOOPwJv26wzvwyS/fo7alQYSp752Si9vGXIHc+DTpKsJfIBFGEATRieHuiJaDh9C2dRtMe/fBUd8g5oTxUTE+UiYEGb+Omwp2Lc9TxcbA0L07DF27MmHWFaqICOHayBMfKSMIgiBOPw1tzfhg5UyszNsErUYDpUyOq4ZOxpVDJkEhV0hXEf4CiTCCIAhC4DGbYdqzT8wR48LM2dAoRJfHYRejYtz16NdRMibInC7IgwzQZ2fB0K0rDD27Q5OUJNYp42uZiUSijCAI4pTj8rix6sBmTF89B42mFjEKNiS7D249+zKkRJGLqD9CIowgCIL4D7wOJyyHDjFBdgDmvXthr6oWwstjt4sRMUG7IOMjZi4mytixOiYa2qxM6DPSoWPijM9Bk+t1kHNBplaLyIwEQRDEycPldmFbcR6mMQFWWFcGpVyBiKAw3DHmCpzdbaB0FeFvkAgjCIIg/l9sxcUw7dsP09482MvK4LGYxRwy4bbYDhdlUrAPkZwuqCLCoc3MgI4lfU4OtGl8Ppn+V1GmVEo3EwRBEH8UJxNgmwp24TMmwMqbqqFWqMQo2IRew3HjqKmIMIRKVxL+BokwIuDgK8DbbTaxJQIH7pamZo1unojAxllfD1PefliYKLMUHIGrtUWMnIlw9sfMIztupEyIMifkQUHQpaVAl50NfZdc6DIyRJAPLsjkap8LI0F0RFwul892sXdBekOIAIAvSM0jFyv9rMOIN98tDhs2MgH2+Zo5qGlthEqhFOcHZ/fBTaMuRloURUT0Z0iEEQEDN2BNTU3YtWsX8vbtQ2trKztLpixQUGvUyMzMwKBBgxEXFwe9Xi/lEIGMx2LxCbL9B2A+mA9nY4MYAeOCS4iyY10XTxRlLreIrqhNTvIJstxsaNPSoQoLk8Li+0Lji31yYyQCFLvdjoaGBmzbuhWHDh2C2WxhrwLZrkBBb9Cje9eu6H/WWYiMjBSC7EzjcDlR0lCJhbtXY+3B7WJxZh6OntWuGJzZB7ecfQnNAwsASIQRAYHNZsPyZcvw0cef4OChfKRlZiE8MorlkCELFKxWM0oKCyBjje+bb74JN954IyIiIqRcoqPgqK2HragQ1sJiWAoL4aypgdtiFaJMJJdLCLGjo2UMYYaYWBMujCxfGRIMbVIS1ImJ0DCBpk1JZvsJUOgNPkGmUkHOBRofNaPGLOHHGI1GzJkzB9M/n4HKyipk5nZBSGi4r8wTAYGxpYnZriNMgEXg73fdiSlTpogFqs8EfBS1ydSKDQU78eO2FUKI6VQaIb74f4OzeuOW0ZciJZIEWCBAIozwe/gI2OfTpuG5F17AxKlXYsqV1yExNUPKJQIF7o5os5ixbN5szPvuS/Tp2R1vvP46a5CQv3pHhi8KbTlcwEQZE2ZFRbCVVcJjavO5LzodYsvN0NGRgWNHy9q3PLEWhjoyEurkFDFypklOZNtkKKOjIddqmCiTRsz4XDOaZ0b4AWazGW+yOu6jTz7FlbfciUlTrkBUbCwrzrw8U+dBoMDdEBvrazHn6+lYvXQBLrvkEtx3/32n1ZvD7nLA6rDhUFUJE1/Lsav0gDgvl8lFUrN6r396D9ww4kJalDmAIBFG+D2bN2/GxVOm4tYHH8f5l10Dj9stGTEi0OANbQUzaEfyD+CDl5/GoAF98dI/X/Y7X3vi1GIrKfUJs4IjsDFh5mpphcfFR8p8boxinTIuzPjFR0e6+PYYV0a+ZXWBTKOBJj6WibJkER7fJ85SoAwL/dWVkY+a8TVylAoKmU+cFriN+vHHH3H33ffgyZffwohxk2C323zllgg45KzeULD6Y83yxZg9/UNce81VuPW228T5UwWvA/mcr/q2Juwo3o/1+TtwoKpIBOLgc794JxV3QcyMScGkfmdjdJeB0KhoznUgQSKM8Gt48bz8ssuhDonAfU+8BI+XDFigw4UY/x43/LwcM955BZ/PmIH+AwZIuURnxNXcDPOhw7CXlcJeWQV7RSXcJpOYM3ZUlLVv2fXHizNfPXFUmPEtu08ZGsoEWQITZslQx0ZDFREJVVQEVJGRkBsMkLFGjIyLMj7XjCW+bU/HPpsg/gwmVn7PP/989Bw4Arfc+whsVquUQwQqXHA57Q58+/mHOLxzEz797DOkpKZKuScHHmre7nLC7nSgorkGaw5uxYbDu1DZVActD14k8837kssUCNLoMCirF64eej4SwmOkJxCBBIkwwq+pq6tDn1698PLHX6NL956sbUS92B0BBWvo1lZX4rO3Xkb/Hl3xxFNPSTkE4cNjtcFeXg4bE2T2igo4yitgr60V7o0+UeaCRwgzJ58oId3FxJNPobF0zKgZN3NCqPFzbrFumSo8nAmyKJ8wi4iCUgi0CCiZSFOFh4kQ+uBCjQszSawdFWk0mkb8D3h527FjByZPnozp81YgOibeVwaJgEej0WL39s2Y88XHuOKSKbjq6qulnD8HF102Jri4q2GrzYySunIcqCzE/sojKKmvFAE4VEqlEF+885KPgGlVGqRGJmJyv7MxIncAO0dBiwIVEmGEX7N69WrcfONN+GrJeih5o4joEPAexdaWZvzw5adoq6/A119/I+UQxP/G1dzChFk5E2WVbMuEGRNnrqYmEYlRiLJ2l0aemHk7OqZ14ugWyxPmj6fjhBoTbqxRw0fSlFFMkEkjaMqICDEn7ehomk7vE2dckLH0P7c0stap4MunzJo1C/969d/4avFaEZae6BgolSqUFR/Bd9M/RI+cNDzx5J/vQORBNg4wsbVs33psLcxDBV/jiz2fCy6FXMG2v9Yb/LxBo0NufDrO6T4EAzN6Qqs+81Eaib8GiTDCr1m8eDEeffQxfPjdIqg1WuksEejwhqnZ2Ip5M79AecE+zJnzo5RDEH8OR3UNbEyQOSor2LZSjKK5jW3wuF28uxleHn1RJCbSpON230bR1PkNoSRG0iRxJkylh+/73B4VBgMTZJFQBIdAGRwk1jrjbo78PE9KfhxkOOacDsIFUs5+zoki7b9tSbz5/vYnfg/Sd+Hl7untxzxPfD88HSOqTzjPA7dwEX0q4SJs+vTpmD7jK3wwcwGczmMWNCcCGj6nubq8DDM/ex8ZSdF44cWXpJw/x+ytS/H6os8Romf1BXc15OVVqpj4qBcXX+H6EPRO7YIx3QejR1L2rx1LRMBDIozwa5YsWYKHH34EH32/mERYB4I3MLkIm/vtDFQW7scPP8yRcgji5OFxOJk4q4KzoRGuxiY4mxrh5Ft27GxqgtduZ2KMNdiPEWciVD5PUnAQztFGzwmi6NiGvkj/cU6c8e2ze7kbZLtI4+JMiDdpv/08P8ePfeeCoOQR2LhwEz/6+K1M/K/9HD8t7bCtL08c/Net73LpuP3e9s/czm8c+xqJEr+R/5/HHGmHbXx70o4kpI7+3bi4Yn9/j93GkoMlu0hetu91sH0bS3zL86R9nnfsdeJeB7vexvYdxz9Hl5mJ7LdfF5/gVMFF2Oeff47Ppn+BD2f9RCKsA3GsCMtMjsHzL7wo5fw5eLCNfzMRZrSboFGooNPooGHCK0hrQFpkAromZuKsjB5IppDzHRISYYRfQyKsY0IijPAHuNAS4qyxgaVmnzhrZIKNiTUH23ebzT4x1j5yJgTar8fiHLegkn6RNj7aRc2JcMEhbY8mcXjMsTglCRMGf198ro9K1gpk4ql9rlp7Ynng0R8V7Dpxzpf/6/Ex1/Etu1am5KNt/Dr+THaeH4sfy0UQ/wzHjD6JkSjpmIukY0ahfh2lko75/DxxG9sec53IF/fyUSr2c/iW/225WOICySmJKi6k+DPYh/lVSDKOEZjHbn9d9Jhtj+6ecM0x+6rYWOR+9J7YP1WQCOu4nGwRtq/iMGas+RHVrY1ICo/BoKze6JmUg4yYZCj5e0l0aEiEEX4NibCOCYkwIlBwt7YKQeZgYo2LMz6S5hNuTKw1tzAhwRrYXFBIqX3/160kVPiImxAi0nlueo8KCEkocI459z+RTPd/GHBx4oSzv/fc74J9vt/1EX/HdSf+/r/ndz+hyfKbv4H0uwmB1u7WyRI/luv16PrFNHHZqYJEWMflZIuwI7VlaDA2YXB2H+kM0ZkgEUb4NSTCOiYkwoiOhNtkFqNmIkn7Hsuv++L42H2euOvjUaH2/2w57aKr3WQfuz1mX+y1H/8HXIxIuyeb437kf/v5JyAJo6Mi6QTB5HPD9J1rP/Zd/1vXHXMskty3iLdaDZmabTUqtq9h+yok3fN36QOcGkiEdVxOtggjOjckwgi/hkRYx4REGEGwxrrFKgSZEGe/Jd5MJrh5ZD3h+sgEGXeF5C6QR+exSUkIunZ3SZbnconnC0kmRJrv6MStz/pLx+1NAaZffEg7JxxzffPf8v6/Y9+9HOmYu0Zq1EIcyflWpxWBM+SsrhfnNVxEMeHEBRQ7xwWVXCuJKhXP5/u+Lc+DdE7s//rDTjskwjouJMKIkwmJMMKvIRHWMSERRhCnD2HlmUj7VbQxkSZEGxdzkrjjQk6MIPGNTLyjx404KY7ZPzpi5dsen8fSMfd1RkiEdVxIhBEnE1ZTEgRBEATRURF6SKEQI0QKnQ7K4GAoQ8PE2meq6Cio4+KgSUqEJjEBmoQEqOPjRQALVUy0yOeh+JXh4VCGsXtCQ6Fg9/OQ/AqDHgq9ThqxUosFrkWgj3aRRhAEQfxXSIQRxJmAz1fg8xiOgUcsU/CG0p9pu0jPo2YPQRAEcXLhI5yK43U1tzlKJbNZUlTNP8RvPI8gOiEkwgjidMINFzNaXnsrGuuNcLcbIa8XjqYilBQVosbo/oNGzQuPvRkNDSY4ZUzIkRgjCIIg/jIyyJlYknttsDRVwWhjgosbF5kXbkczag4fRnl5Ixx/qOdQBo/LDhN7nskhEx2PJMaIzgqJMII4HbSLL1sL6kv2YvfCj/DGawvQLAwQew3dLdj3+vm49qKJeGGZETqNihkn5a+jYuwa7ot+tNdRPI8fs+u8DlgLZuGtF6Zjw/4jqG0yw0VijCAIgvhTtIsvB0x1RSjY/CN+fOshzM/XQ61ktkhmQePu9/CPcefg/ru/QHlYMNTMlnGb034/d0v91bPDN/LFbZhSrYKt7ghWf3Anvly6C1XV9TA7SYwRnRMSYQRxKjlOfO3D7p/exSs3jMX9L32LUmcINDIvvE4j6gp/wk9LbAgODYK8pQhFBfkoKSpAo5ULKS88tgaUH85HaXEtrOyZMkcr6svyUVx0BDUmD6BUoGnTW3jx6nF47F9fMTFWQGKMIAiC+AMcK74KcWTbXMx88grcdcMjmHcA0BuYJfG4YGK2Z9/CZSgKiYBeaULNoQMoLixERU0bvHJm71w2GCsOoKioBHXMPsnB7qkvQcnhw6gob4JHo4SsMQ8/PDEVt9z+MH5YuROVVSTGiM4HiTCCOBUwK3JUfBXvZeLrPbxyIxNfr/yA6rCB6D36Clzzt7EIczjQsG063rjzSWzmYZedFhR+cBGuGD8cN14yCTP26qCUOWEt+BwPTDgbt131OLa0tqBwxbt46cazcf3F5+PF5VaEZV6EG267FH1yM+DY+g5evno8HuViLO94MUYQBEEQJ8JHquSQxNfWefj2qStx1/X/wPwiA7JGnIdxVz6E0ZlmJq62YeHbD+P1eXUI0dvRUDoDT406C1dccBEee+UX2IP1cDUewbLHh+OKK67Fq/OLYC5ahVnPXoGbxp2Hh+6bgfqUbAy84ilcdHYXxDryMPvJS/G3Ox7GbCHG6n4VY9JnI4iOCokwgjgFeB1Gye3wA7x6y3l45N9zUR85BH0n3oEH35mHTz5+HpN76OF0OVC8ZjZqtPFQ8cV6ZHLoEnqiW+9+6NK9F+INHrGEj0yhgT7YAK16NzZPfwvPPPQRDppjEJcQh6ggNeTaWAy54x28+91sPPHAtRjWNQuenR/gXzdMxBOvfSONjFngoS5GgiAI4hi8Hhes9T7xNeuZa3DPLU9iSVkoskdMwSWPTsNbM7/HvVeehWiPEcbKbVi324KQUAW7Tw4Vs10ZfQege8+eyEwNh8Lt4QYLKoMGBiVQv/YzzHjxDny5vhmGpBRExwRDpTAgYditePSTZXj3jacx9dy+iHEdwPznrsRtf38Mc1buECNjFhd5cRAdGxJhBHGy8brhKvge/7xhHB58YRr225LRc9LDePrLlfj8zfswMEUOa5sZDpcHcpUeZz2wFO/eM4gJMg9kKh0yrpuOj2bOx1uffY3Lutn4Uj4Crp8cNivWfjMbsj6D0H/MVEy5+gpM6hEBl8cNp80CG8LQfeqL+Ofc5Xjl6VvQN0WDiiUv48VrJuOpN35GE3cD8T2OIAiC6OTwNeFcbWVY86/LcMd1D+G77SaE97oQ1788E5989xlun5gJlbkFFpsDLnkwYgfehZem/RMjQ8ywOXWISL4Mj85dio++mIEn7h4BjdUBYbK4K76tHg17FmBJZS4GDBuLMVfchIlThiCSP8thYc/0wNDtEvz9/YX49NN/4coxWUDJKnzx2KW488EXsLpUCTUTcgTRUSERRhAnGz50ZaxFc3A2YkJUkOtSkZMTB2fFXhwur4fdI4cIsCGpIZlSBaWyXRrJ4FGroVKpRFKcqJhkSgSlTsbdn6/AO2++hGuvuxMDkx1MqEkTn9kb7WyrQuWRfLSoUpGVmwi1XIugqFSo66phlMvopScIgiB8yDxwu9pgbFYjMikCWo0aEbndEOU1ovhwERrNLhFQw7ekihde7mqv1EAl44aOw+wOs1VKlRJKBcuXzgrYgTI8F0PvmYZPv/0Cj91/IyaN7Qq9wwUPE2ncDsLZgvrSIlQ0aBGWmoPUUBnUQREI1XtQ12xmP7fzWCyv1wsPS24P+048brjcbjjdrj+c+H38GfxZ/JmE/yJjXxB9Q4TfsmTJEjz88CP46PvFUGu00tkAgBkXR9kqzPngPaw73Iim6grUtQYjd+otuG7KOUiOjUB4ZBSC1Mywue0w//IILn58BTSGEGTfswhvXxIFh9v3asq8DpgPfYK7r3kXdcHhCJ36IeY/MgBtNrfIF3hdsLU2oLG+BpV5C7Fw2tdYXQrEJKUgPiEZ3SbcgUsuH4Z4jx0u6ZYziYwZVrOxFXO/nYHKwv344Yc5Ug5BEJ0K1lj0ullijU6xLx2DHfP99nxfHjsnXAP+QrOF3apNTZEOTg1u1gj+/PPP8dn0L/DhrJ/gdDqlHP+Ej4bJbKXY8f10fLNoMxobq1BVb4Yy90Jcd+NlGNotCYawSISF6Jlw8qCtbCO+vf0q/FATh5Qu1+HxeQ8hu80KbpF4VERbdR6WvjAO726IQFL38bj9s48xUtcChxgi43jgshrR2liD+rLdWD/7CyxYsg+OGGavktKQ1GssLrruWoxIU8PMbjqxL/JMwgVpdXkZZn72PjKTY/D8Cy9KOb8PLpIa2prRajUJgcQFk4d7z7DyzcuNEF9eJqAkESYEGcvny9j8HuRM3CoVCqiUKqh5hEq5Eiq2FYlHpxSdtTzJxbVc5PJ9hUwhhLaSXa/m97JEnHpIhBF+TcCKMGY2ZAoVNBo13NUbsXzWDMxffQAtdRWoqG2FMmcSrrj9CdxwXipkDutxIizn3iV4++IIyWCx19Nzggi76AP88MhZsDnaRZgHzuZ9WPTWC5g5ZwPqtHGIS0lBQnx/jLz+Bkwe0wvBTjO73skqe+mWMwyJMILoBLDGpNfpgtflgkdsndKxE267Ax6zBR6LGS6zmW2t4tjNjt3SsVs69rBjN8+3WOAymZjKOdqa/+Mo5Oi95Cfp4NQQaCJMwOdxabVQOupwYMkXmDPnJ+RXN6GmrAoWTSqGXnU3brn5emSGW9FScqwIux5PzH8IWUyE8W+Fe2RYjxVh3c7FbR9/hFHBJp9NYz/Ha63B4WWv4uP35mBrlRxRiclISMlEzqjrMPXyCegZ6YXFYmOCxf+ap39VhJU3VuO9Fd9i1f5N0Kg0kkfMrzLz6J7kKvNnBKjvr8ZHwcSOQIxR8v/YSbVKhSCtHgYNTzqRgjUG6FkbKzwoFEnhsUiJjEdEUJhPkLG2DM/Tss9LnFxIhBF+TeCKsF+RyVVQMTGmtJdi1w/T8cXcDWhorUdT5O34+OubEGUzw7zqYUx9YiW0+mCk3fI93r4uDW6bCXavFnq1+3+IMCb2vFa07n0Pf795FhQ5mYjOOBcX3XEtxuVGwWm3wuF0S5Wy/0AijCA6BlxgeZnIaBdX7WLLY7fD1dgIZz1LjQ1wSFsX2zoa6pmosrCbWf3FW5n8f+2J12n/cc53LPbaj/8kyogIdJn2sXR0aghIEdYOdxNUa6CWW1Gzaz7mfDodW4qaYIcBI5/fiLsGtKK+aAO+ue1qzKmNQVLOZXhg1pPo7TDBYnNDERoMd9W+/yrCeOekpXwHFj1/Pr4s7YasjBz0m3I3Lp/YD2EKG2w2B/xQex3lr4qw+rYmTFs9B0v2rP1NUfPbv/of/YP43pH/9ab4nugTalygcSkgEvvn8XjEPPMgJtKSI+OQEBaLninZ6J3SBZFMmHHRRoLs5KB4liHtE4TfceTIEaxYsQKTL71aVH4BiZf73DvhRDDi+pyLSZddiYFZGti8ceg1MANa7nZQsx4LFh+AW6GApdmOiHgNM4Arsc+She4pGtjrd2DJj1th5pVfl0m4bFgiXMJScRHmgcfWArN6BG586TXcfPFZSNTLYWONILe/DH2dAHd/cbLPd2jfbrQ11+Oyyy6XcgiC8FeEq6DNBrfJDFdrCxy1dTDt2QvTzp0wbtqMll9Wo2npMjTMm4/6H+ah+Zc1aNu2Heb9B2AvLYWzzie+uJySq1QiyXji4chZgtjKeQXxa5LgHTcin9kBkaR7/mhSR0YiYsI46amnBt6Y3b17N3bu2oPJl1wlGrWBA2uG83lFLhn0cb0x+KJrMX5kDsLlXuiyRiE3ygW7sQYFK3/E7hZArjDCJk+Ari4Pe7fWwTCoC0JaqlGw9itsLdchJDoDA86fjDSNT1zxut9ts8BsU6DH9a/igXtuxICMECbi/bPD8ES4+57J2Iq8ndsQEWrA6DFjpJzfh93lwP7KIyiqq4SOiV3hNsjKM99qVGpo2FbLtiKxfB0TO38kcXGkUbLnsPeKj2JxN0SlcEfkLojcPZHPR/e9V+2iix/xc9w9kefz6/nn4LRYjChrrMbGgt1YfXArCmvLYLSa2HUK8Wz+s9qfR/xxaCSM8Gs6wkjYf8IbILyi9MBmdfB+JzjbVmP6NU9iRUMzLKyRw3sD5cEJ6P/ECrx1kQHN+z7EnVe+hdrgCIRN/RhzHxt4jDsie6KCVboaJmxsXHhJJ/0YGgkjCP/H43CIES0vSx5Wt9grq2ArLoG1pBi2wmLYyyt4dcZbpr6GGNuyHfYf3/qewbvaRSOjvanBtkJEcfHF72ONQ3E/F1+sYce33KWt/ZzIZ0mp10PGkjIoCDL1n5+vwoVk4h23SUenhoAeCfsN+OgVDxQFpxkOjxJeUxUOfHsXnv/qEExWO7M7ZtjcUcg46048P/8RJB7eggXPjsHb6yOR3H0s7vjsU5zd7o7In8e+X6VaC7nLykRJIAnUvz4S1sb+VhsP78LB6mImmtRiDhYPUMK3fL4Wn88l5miJ5Ju/xcXR74V3vDrdPFhXe1APtnU5fRGU2bHD6YDVYUObnQth/vfnbQYeCITPPWNtEXYtF4p2VmYdbMvPiU4T9l7zN5g/l+fHhkRiUGYvnNN9CDJjUxCiM/yhz0n4IBFG+DUdU4T9FjI4Sufjy3e+xt4Gj6jMtLHdMepvj+D8bBVMRT/glcdnoskQgqDRj+P1G7qzSjKwjNexkAgjCP/DY7PBY2XJboOzqYkJrlJYS0thLysT+y6jUQgsIZhYY1GMTvEmxAlCiwsyIbJUfNRKGu1i+2Lki/fKR4RDFRMDuV4HhcEApcEnsPi+gm3l0lbBzst1OvHMQKKjibATkSl4WPsKbJ32ImZvrYGbiwddEnKHX4fLbx0KQ8VBrP/kDszcHYLYjMG45Kkn0d9gQQCbrKP8VRHmj3BhZWKCzGSzoLa1AaWNVWLuWnljDZotRiG6rKxOMNutTMy5RPuEv/FcqAUz8TU8tx8uPWs8MmKThWAjfj8kwgi/pvOIMG7YNNDqNODtG96i8XrdcFotIkqiWKzZoOUvLLxOM6ss3QFd1ZEIIwj/gI9w8YAXXHSZ9uXBergA1uISIbyEshIjU9KIlIRoNrDEz8u1WpGOii62VeqZiIqKhDo6Cqoonnz7arYvDwqSntJx6egijCOTMeGl1UOjajdYHridNtisTnh5RD5dELRKLzxuF+w8+Iq3YzTOO6II+1+42PdXUFuKAxWF2F12EBWNtWI0z2S3iBD4HBv73if0GoEbRkxFfHg0ybA/AIkwwq/pTCKsM0EijCDOHNzFkEcgdDU1w5SXB0veAZj25rFzJt/oFhddfMvhHT9CdLHTGjVLGsh1PuGljIyAPj0d2rR0qGKi2HGk2Hb23vDOIMI6K51NhJ1IdUs9NhbsEnPECmpKYHfyKRU+Lh90Hq4YMlEE7iB+H1ItSxAEQRBER4ULLz7aZT1yBI1LlqHq/Y9R/PjTqP50OoxbtsLLGlNytVq4GQpkMp/QCguDJj4Ousx0hAwdgqipFyHxrjuR8cpLSH/2acRefy1CRw2HvmsXqGN4Lzj1gxNERyU+LBoXnzUOz0+9Cxf2HyPcEXkPjdPtRF5FAapa6nwXEr8LEmEEQRAE0QHxutxwNbf8Krw++BhFjz/DhNc0GLduhecY4cUDVsjYvioiAtqkRAT16Y3I8eMQd901SHnkQWS9+W8k338PopkIC+rTS8zfIgiic2LQGnDzyIsxuusgPlguAouUNFSitrVRuoL4PZAIIwiCIIgOhMfugLOhAa0bNqLq089Q9IQkvE4Y8eLCi7sXqiIjoU1NQfiYs5Fw841Ie+4ZpD39BGJvuBZh7Jw2I0N6MkEQhIRMhqiQcBEKnwfjaTK1oM1qkjKJ3wOJMIIgCILoAPA1uBzVNWhesRIVb72L8tffROva9fA6JOEll4v5XdzNkAfL0GVmIPzcMUj4281I/+cLSLjtbwgZNkTkEQRB/C/4fLCKxhqYHVYRYTE3Ph1JEbFSLvF7IBFGEARBEIEKE1U8dLy14Ajq585H6YuvoOrjT2Hau09ENORrcokRL51WRCjUZWchfNxYJDLBlf7S84i/5SaEDB4o1t8iCIL4PXi8HhGcY09ZvljfjEdRzIhJRnxYjHQF8XsgEUYQBEEQAYi7rQ1tO3ai9uuZKHn+JdTN/A62inIhvNoXTlaEhECbkoyICeORcNftyHjxOcTfeB2CzxoARQCuwUUQxJmnqrkeC3f9IuaBKWRyaFQa5CakIyo4XLqC+D2QCCMCBIq4RRAEweFre9lKSlE3azZKX3oFjYsWC0HGF0PmcBGmCg9HUI/uiLn8EqQ9+5QIsBHct6+YA0YQBPFnabWasHzfBrF+mEaphtvjwehugzAkq490BfF7IRFG+DVarRZ2mw1ut0s6Q3QEuKTmCz06XU5oaf03gvhdeN0eOBsa0bR8Bcr+9RoafloozvP5XiK6IQ+yERODkCGDEH/z9Uh9+glETpooAm8QpxedTger1cL2qAOxo8Fd7zweN9TqztehUWdswlfrF+DH7cthddiFAEuKiMN5vUYgLjRKuor4vZAII/yazMxMOOw2VJQWS2eIjoBMJoedNVBqK0qRm5srnSUI4r8hXA+3bkXl+x+iZtoM2CurfQsq80AbBgPU8QkIP3c0ku75O5IfuA+hw4f73BKJ0w6PFJeTk426mmo01NWIY6JjoFAo0NLUCJOxGelp6dLZjg+fA1ZYW4aPfp6FhbtWwe5yiu4FtVKBc7oPRm58mu9C4g9BIozwa1JSUtC7b18sm/s97HY7GbMOAP8OvaxCLysuRFVpIcaOGyflEARxInyRZe56WP/dbJS99gbatm1nlpvXg16xVpcuKxNRF05G6hOPIeGWmxHUs7vvRuKMIWfiuG/ffkhLTcHC2d/wSo9sVweAf69OhwOH9+8FHDYMHDxQyunYON0u7Ck7hPdXfoM1B7eKdcFY9QOVUoWJvUfhvN4joFOTR8ufQebl8WoJwo/5eeVK3HnnHbjl/icxeORo6A1BIswyldzAgrdBfALMi0N5e/DFB28iJy0J73/4oXQFQRDH4jab0bJuHRoXLIK9ohIyuYK1fbwi6qEyNASR48cifPx4KMNCpTsIf8HtcuH777/HCy/+Ew89/yq69e4HlUojOqDIdgUW3HbJ2bvHp0Vs+GUFfvzqM1w69ULcfc890hUdF7Pdiq2FezFj7VwUN1RCz8SWy+MWc8Em9RmFq4dORqg+WLqa+KOQCCMCgjfeeAOzZs3COedfioHDz0ZIWBgzaGopt+Pg8XjElosV7rInups6CB63B1aLGWXFRzDnq2nQyNx4jwmw1NRU6QqCINpxNbegYfFSNMybB6/N7gs173ZDERQEfbeuiJo0EUF9e0tXE/7Ko48+inXrN2DS5dehV7+BMAQFQ6nkAVQ6St3uG5XtyLbLxQS11WLB/j3bMf/bL9CrWw5eevkVRERESFd0PHhnT1NbK5bsXYe5O1ai2dQqFmXm64FpVVpc0G80rhg8EcE6g3QH8WcgEUYEDJ98/DFLHyE+OR2JGdnCmPkq+46BnBmv2LhYMVJks1rR0tLKLZqUG/g47TbUVJSiorgA3br3wBNPPI60NPIjJ4gTsZeVo37OXLSsW897ZkRz1jf6FYqI8eci6vzJkOv1vosJv+elF1/Ed999h8xuPZHI7JdOb+hAEsULtUqNqKgoIcTMZjOMbW1CjHUUbBYzypndaqypxLnnnot77r23QwswHngkv6YEc7Yux6Yju8WxnLW1ZHIZIgyhOL/vaFzYfwz0alri4q9CIowIKAqPHMHChQuxffs2NDY2daTONmG0evXsBq8HqG+oR1U1n9DdcUSmTqdFbpdcjJ8wAaNGnS2dJQiiHR563nzwICrf/wCOmlrIWeP26OhX966ImkijX4HK7t27sYjZrj179qCNi5QOEjWRNyH1ei265ubC7nCglpXb2vp6KBQdJyhMSGgIevbqiQsuuBA9e/aUznZM2mxm7Cg5gG/WL8DhmlJoWR3Eg3LwUbDuidm4aMA5GJzVW4gy4q9DIowg/ATu8vDMk09ArVEzsdIFV1x5tZRDEERHx9nYiNb1G1H7zbdCjPGRL77gshj9Gncuoi6YBLmeXH8I/6OysgLvvPUWgoIM6Nu3PyZfcIGUQwQKfLSrrLEGP+dtwtJ969BkMjLhpQR3S+QjXsNz++OaYedTGPqTDElZgvADeF9ITXW1cD/k3SI2q13KIQiio+NsakL1tM9RPX0GvA6nT4CxukDftQsS77oTMVdcRgKM8Eu4C2JDfb3w5HC53GhubpJyiEChxdKGdfk78O9F0zFry2IYrSaoWB2kkMuREhmP64ZfgLvOvYoE2CmARBhB+AlWq1Xa471SbmmPIIiOjKu1FTVffg3jlm2+db94R4xMDkPPnki89WYE9+8jXUkQ/gcXYVabTThXts8JIwIDp9uJA5WFmLHmR7y97Escqi6EUq4Qglqn1mFgRk/cM/5aTD1rHDvufAtTnw5IhBGEH8BHwkzHTGbmC1QTBNGxcZvMqJs9B8aNm9mBm1cEwgUxuG8fJN52MzQpKdKVBOGfuFm5NbNyzDsPOA6HAyaTSewT/glvbzSaWvDLgS14bdE0Ef3Q4rBDIVeypEByZDwuGzQeD5x3I3ol50p3EacCEmEE4QfwSrG6pvroflubEU6nUxwTBNHx4IswNy5aguaVP8PLGq5icrZCgZCzBiDhtlugTkgQ1xGEP8PtVG1NjVjImOswPhK2d89uKZfwN9oDb3z080y8s/xrlDZUQ6vSiJHMYK0ew3L64oEJN+DqYecjRB/ku4k4ZZAIIwg/gLtxFBUWCkPGcTpdKCstFfsEQXQseMTD1nUb0bDgJ3gsNiHA+DpgoUOGIOHWm6GOifZdSBB+jt1uR1lZGZSs/KrVWiHCdu3cCYvFIl1B+AN2pwP51cWYtXkx/vXTp1i2dwMcLhdrc8igVCiRFZeCa4dfgPsmXI/uSVnSXcSphkQYQfgBfCHI6upq4Y7IkxBlxUVSLkEQHQnz/oOo+/57eExmyBRyyJUqhI0YLgSYsgOvP0R0LLjXRmtLCxobG6DT6ZCWkS7sVws7t2XTJukq4kzCF1eubqkXiy5z8fXNhp/QYm2DVq0Ra5OGG0IxqstZePC8GzBlwFgYNLT21+mERBhBnGG4ISssPCLcAbg7R1hYuPCzLy4uFnkEQXQcXEYj6ufMgbOhkVlg9sKzVzx0xDAk/O1mKEKCpasIwv/h87/aPTi0Wi0GDhyIuLg4MSdsz57daGhokK4kTje87cDnfa3P34nXF3+OD1bORGljNTRKtWhr8LDzfdO64bYxl4vgGxkxNP/0TEAijCDOME6nAzt2bIdcoYBOp0f37t3FmmF1NTWorKyUriIIItDxsEZrw9z5sOYXcB9keNh7rsvOQsxVl0Oupx5oIrDgwaT25e2DSqVCcHAwcnJyMXzkCCHImpqasGD+PLZtlK4mThdi3lfxfnyy6nu8vuRztp/n6+Rl/1QKpRBclw4aj0cn34Jzuw8WCzITZwYSYQRxhikrK0VRYRHkcgV69eqNfv37Q61WCyG2+pdVNBpGEB0E0649aF61Gm5pvoyCCa+oC8+HilwQiQCD26eCggJUV1XBYDCgR89e4nzXLt0waPAQyBVyMUo278cf0dhIQux0YHXYcLCyEDM3LcKri6Zh8Z61sDkdUCpUYs2v6JAIjGai6+GJN+LqoecjTE8j72caEmEEcQbh7hy/rPpFTGrWswbZkGFDEREZie49eoioU8VFRTQaRhAdAFerEY2Ll8BtMvkWY4YMURdMRvCAftIxQQQOra2t2LRpo+gwjIiIQN9+/cV5tUaD0eecg/79B0ChVAi3+rlzfiDXxFOI0+1CSX0FFuxchVcWSvO+LEbo1FoxAhaiM2BgZi/cPe4a3Df+WmTGkuuhv0AijCDOIAUFh4XQ4j71Xbt1E/PBOMOHjxAuHnxu2OpffoGd1g0jiICFuyE2zlsAa/5hsR4YPzZ064LICRMg12qlqwgiMOAdhAf354lRMO5C37NXbybGVFIuoGHCbOy48ejTp6+wbVyI/Th7tgg+xaMpEicHt8cjgm6szNuE1xZPxye/zEZlU50IOc89aLibYbfELFw7/EI8NPFGDM3uI9YBI/wHxbMMaZ8giNOIr4dwjhBaoaGhOP+CC6HX60V0KR3bNjc3o7KiQkSfUjGjlpiYCAX1mBNEwNG2YzfqZv8At9Eo3m85e7/jrr8GWh5NTlqWgiACAR6598D+/Vi8eJGwR0lJiRg/fgKUql9FGId7d6SnpcNobBPrXtbV1eLQoUOQeQGtTgeNRkP27E/SHnRjR8l+fLV+PubvXIXa1kYx38vr9UDNvgu+4PLoboNx48gpOCujJ9RKmvflj5AII4gzAHcx/P67WTC2tgrhdfbZo5GdkyPlQvQeJjHRVcKEGg/3W1pSguCQEMTHJ4hGHEEQgYHH7kDttzNhY++weHdZirn0YoSdPQpyNTWMiMCBN/7zDx3E/PnzxIhWVFQUxpw7VkRE/C24MOvSpQt0Or5+mEV0KB48eADFRb6IihqtBlqNVuwTvw/uZrinLB/fb1mC2VuWoai+nP39mJhlVQsXYVEhERia1Qc3MPE1vudwBOsM0p2EPyJjLxXN+ieI0wR3H6hiAmz+vLnClUPDDNCQIUMwdvx46YrjqamuwrfffCMmNnPf+4umTEVWdraYCE0QhP9j2rsPFe++D2ddvYiIaOjVEykPPwBlWJh0BUH4P3z+Ml9KZcH8+UJMce+N0eecK8LS/x6MbW1Yu2Y1Dh86JOaH8RE17t0xePAQJCUnwxAUJOwajY79NkarGYV1ZVhzcBvW5e9AvbEJWtYm4E14pVyJUEMweiZlY3yvEeif1o06awMEEmEEcZpoaW5mRqwQv6xahaamBmZwgtCtew9MmTpVuuK3yc8/hEULF6KJGS6FUomzBg7CgAEDEBMbSz2IBOHPeD2o+nQ6mn9eDa/dBq/LjcR7/47ws0dCdoL7FkH4K/X19di/fz/Wr10Di8WCsLAwYYP4KNgfhdvAjes3oLGxXnh5mM1mREZGis5F7r4YGxeHIC7IWOLzojs7rVYTiusrsKlgN9Yc2oqKplro1b55pDzkPB/p6pqQiTHdBok5XxqVRuQRgQGJMII4hfAwvkajUQiwLZs3Yc/u3UJIRUdHo2evXjjndxqxoqJCrFyxAlUVFcINJDomBmPGnIP4xESEhIRAp6M1hgjC33DU1KDk+ZdgL6+ETC6DKi4eac8+AU18vO8CgvBTuJ1pY7artq4OmzasR35+vlj/K56V3X79B2DwkCHSlX8OHr7+0KGDKC8vF/aRR1vka2YGBQUjMysL6ekZSEhMEN4ifP4YD/bBIy9yj5DOQIulDcV1FdhYsAtr87ejkokvHu1QLpPBy/4ZNDpkx6ZieO4AjO42EMFa8o4JREiEEcRJhLtY2KxW2JgBM5tNqGAG5jAzXnw9FS7IuDHhrhcjRo4SvvJ/BJPJhGVLFuPw4cNC2PFXNzEpCbm5ucjIyERIaKgQY9xQUg8iQZx5Ghb8hPoffoTL2AYvn0Mz5ULEXnk5FMG0Pg/hX3D7ZLPZROLiq7S0lAmvgygtKRV2Ta83IDMzAyNHnY3klJMX4pzbygN5eSJScH1tLVrZz+b2jf9M7prIw99HRkUhMpKnCHFsYEJNy2ypUqWEUqkSQUCUSsXR/UCm2WxEUV051h/eiQ0sVTXXHRVfHi/7HtQ6pETFY3BWbzHnKyrYF1GZCExIhBF+DY8cyCtjf4K/MtxguVlysc8ntixZbVY0NTSilhmS+ro6lFeUichQ3GWQi6Pw8AgkJMRj3HnnISQ4RHraH2fj+nXYvWeP8MvnvYf883Dv75TUNMTFxwk3xdiYWGaoDD6jxAwZH33jxokbNX/zuee+6/wzkQ870ZHwWK0oe/XfaNuzjxtaXnEg9fHHEMTXBSM34g6PP9ou/nmOt1tuOF1OWC0W4XJYW1vjs13l5bBaLaxeVop5WnztSj4ydc4554jRqFNFbU0NDhw4wIRfMSy8M5Ml7v5oZVs+J43D7R3vZOTeINxtMcjAXRcN0LPPGcQTO6dn51Tc5jGRxkOy8/eN22EuZPj26LFcxuxO+z47/wdtEL/nZNnTJnMrimrLxXwvPvpV01LvW+dLEl98PzEiVsz3GttjGFKjEqQ7iUCGRBhxxuGVK69oeQ9cu7hxe9zsnFUYB39bV8TDDJiZGSiLmRkHi1l8dj5KVceMFze8vNLkibtNcIMQFh4uRqx69ezFhFKq9JS/Bo+quHf3HhzKP3g0BDA3ml6Pl1XYTJSxn8/97IOCg2HQcwOlF1EY9Tq9iEjlT289X9CTfy6tXge11JPJRaNGoxZr0HAB+0eNI0GcaYybtqDqs2lwNjQKAWbo3QvJ990NFXsviY4Bt1m8/uc2StguN08emJk94J1yTodTutI/EIKL2S2LldstJnDMZmY72o4GyuD1LBcW3GOD2y4+6pSamobeffoI0XM6aWSfibtC1jFh2FDfIJZs4etl8r+r3WaHg/3NneJv7vbdwN4xbtZEpyT7Pbjd4AKSh8Pnok0kZl9Uat8+76D07St951mS/wFBxU0Sj/6o0+rEz+LPbO/s5KN0fJkZ7pXy/8FDzRfWlmHt4e3YXLAXta2S+GL/3Fx8qTRIDI9FPya+zu0xBBkxydKdREeARBhx2vGyyp67HHADYDKbUFNVjcqqStRU1wgXvnajJprdrKbzv/a37wPxip7v8YqYV8BqLhpYhSz811nly0e7uOthjx49RHj5U8XBAweEK0dTYxNszEjxv51dcivhi2r6GgfMUElGiu2I//sL7TUQr4p4zyQPWMJ7NbmI5NGz4uLiRU8sF5HBTFTyvy9B+DvVIiDHKnjY+8hT/N9uRuR542lx5gCG16VGY6sQMNxlj0e6raysQF19vbBnvCPMwYRXe6eRP9ou8ZGEXZX5hAlLvE7lgqE98cAbKSmp6Nqju7Bp/gCPLFxbVYWaOibKGhphbmNtBfH3dsAl7JybJbblo3xOlxCc3P7xTlM3sy18y4UmT0ebvUdtYjt/zDa2P4Y/k/8duejjo3LR0TE+2xUbj9DwUOHKyedut7tK8p/vE1/lWHNoG7YU7kGdsYmJL434XriQ55EPE8Ji0CetK8b2GCrmfxEdDxJhxGnDYXegubkJVUxw5R86hLKyMjF6xA0V75XilRQfPeLD+7xHqt1FgLsQ+BXs87S7+PHP1z7SxHsOeW9hVGQUoqKjRWV6uuG+9A0N9Wisb0AT+1u3jzD6DJWvp5YbDH+C10AeDzeQzFAKI+mGgxlP3pvMPz//O3LjlswEbUZmJrKyc3zzAtg5gvBXyl5+FcZt24829DJefhGGLrm+TCKg4I395qZmYbMO5x9CRUUFmhsbhVsbt1m8k40vkMvtlkKyW8Llzc9sF3e9454H7faL16F8FCckJBQxsTGIjooWnhuBhhiRZCLYzD1T+Egfsxs86iL/3lzM9vERM27/ju2U5C5+QpAJm8MSN0R/sDnMm88+m+VL/Lnc1rYx28U7QrntCuWCNjlFzAHnHjFejQLlLbVYfXALthXlod7ULEa7fOLLzcSXFnEhkeid2gVjew5Dl/h06acRHRESYcRpgft6c+G1d+9elJeXicqLj2rwxEc9eM9bamqqMAYqZtTae+i4YfO3ibYyhVz0DgZalCbek2hjxokbIn+Ciy+Hwy4+V7uR5AaU9zDzcsPnA3CXGZ54T2dIaBh69+4twvsnMaNGI2OEv8EbdoWPPg5r/mHRaaOJj0PaU09AnUjzOAIJL2uoV1ZUIm9/Hvbv3YeammohtPgaWWLukZ7Pl4oQbubclgkXN564i5sf2i7ewcnd5Pztc50puHDi9qbd7vD39o/AbarPdvmewVObsRXlTKTzjlBuuyxmk0+UwQVFhB7OSA2KjTVoMrVAo1IL8cVH77RMiMWGRqJnci7GM/HVLTFT+ilER4ZEGHFK4b1CJSXFWL50GSoqykRPXHh4OMIjIpCekSFcHnjvkIEZBoL4LSqZQeORuvhkbR70hM8N4CKNC/ZRo0ejd69eAdl7S3RcXC0tKHn2BViLikXvenDfvki8+w6ooqOlKwh/h4+m8FGv5UuXoqGxUYgq7hbNR+GzsrKRlJyExMSkThMynfiDeLwoLC7C1j3bsfNIHsqcjWhRMMHGhL1SjJLK4YGXiS81Igxh6JGUjQm9host0XkgEUacMvjaH3l5eVj180ph0PjaWNxdr2vXbmKiLxkv4o/CQ/3v37dPjKbyaF68J5OPiJ3NxFhcXJxwAyKIMw0XX+Wvvwl7RSWfSISI8yYg9tqroAwNla4g/BkeIXDHju1Yu2aNOOYRZ3n90p3VNXx9R4L4X7g8btQZG3GktgyrDm7BvooCtJrboGDCize5eVKyfZVbjl6pubh0xCT0Sslpn7FHdCJIhBGnhPr6Ovy8YoVwP+QNY27ARo4ahV69+0hXEMSfh4+OrVu3Vri4cpePWFa+xk+YgC5dupIQI844bdu2o+qTaXCwxrzX4UT8TdchcvIkyHW0qLq/U1paghXLlokOH+7qnJKSIkbcs7NzpCsI4rdxul2oaWnA/soj+Hn/JuQx8WVz2IWLKuATX0FaA4JVOiiMDoRZVeiX2R1jzx2HOHJV7pSQCCNOOjxq1HffzUJJUZHwn8/IyMDEyZMRExMrXUEQfx0eieznlSuRt2+fcFGMiorCRVOmIjuHGkvEmaVp8VLUfjcbLr6On82GlMceQeiIYZCx+pDwX3hY9BkzPkdTY6OIcJvD6pILLrxIRGYliP+G3eVAdXM99lUcxqoDW7CfiS8uyFQKJr74yBe7JkirR3IkDzXfA1kh8ag+VILDh/LRamxFZnYWLmLlLDY+3vdAotOgeJYh7RPEX4bPAVu5YhkOHTwken26d++Oiy+5FGFhNGeHOLnwORqZWVlQKOSoqakRkSG5i2J6ejpFTiTOKMat22BhDSzuiuhxOhF90QVQx8VJuYQ/wl3mF8yfh4rycuEq37//ANGpQ27zxH/D4rChtKEK6/K3Y+amRVi4ezWqWxqg5AtEy3yLP4fogpCbkCbW+LpiyGSM6jIAKXFJSGN2ii8p09jYgAa+xIHFitS0NAo01ckgEUacNLjo2r51K9atWyeiBPHG8OVXXikWSySIUwF3PUxI4G4cMpQUF4tFs/moWHp6Bhkz4oxhztsPa8EReFk96HU4EDF+LNSxp3exW+L3w0ODr1uzBtuY/eIRBLv36IkpU6eKRjRBnEibzSzW+OKjXjM3L8bSPevQYGxi4kvJygyzRux/YYYQEeFwXM/huGrIJAzJ6oNQJsja4eI+Pj5RhNavrq5CU1MTa0N5kJSULDoYic4BiTDipMHXUJk/70chwPjI1xVMgIXQRHTiFCOXK4QrYktLiwhpz0PZ84U5MzKzqBFFnBFshUWw5B+G126H1+VCyJAh0CYl8taZdAXhT/AF7xf+tEAIsPj4eFx+xZXUECb+gxaLEYeqi7Fs73p8t3kJVu7fhFZLG1QKpXA55GvERQbxSIc5mNhnFK4cPAn907sLV8TfQqNRi8i+DfV1woujmdkwvtRBQiKrK4hOAc1gJ04KfBRs1aqVYr0M3vDlQRJ4JESCOB3wNXvGjBkjAsDwnsX8/HxUV1dLuQRxelEY9GL+l5hwzepDDyuTXrdb5BH+Be80XLF8mRBgfPR84uTzxQLGBNFOo6kF24vz8OW6+Xj1p8/wxbp5qGiqEYssc3ibJy40CoOzeuPGkRfjkck34/y+ZyMi6P/vhOY2a/iIkYhgYozPRdy/Pw/G1lYpl+jokAgjTgp8Ecuq8gqx4GFqSoqYC0YQp5PIyEgMGTYMMrlczA/bu2ePlEMQpxe5Ts+7xcU+b6C5SYT5LUVFRWhoaBD7uV26IDU1VewTRG1rIzYd2YNpa+bgXws/w+wtS1Hf1oQgjR4er5e94gokR8RjRG5/3DrmMjw86WaM6zlUzAP7I/C5YD169xbu9VWVlTicny/lEB0dEmHESWHTho1i1XfO8JGjREOYIE4nCqWSNaDShCsHX8y5pLhIiDGCON20j4TxyGh8JIyLMJAI8zu4B8fG9evEKJiS1R8jRoyUcojOisfrQWVzHdYe2o6PfvkOrzLx9dOuX9BiboNOoxWj2xqVGukxSTin+2D8fdzVYuRrZJcBMGj+3AiqVqsVUaT5QuB8TnNxSTFsNpuUS3RkqKVM/GUsFjMOHz4sRsF4kIR0VpnQWk3EmSA0NFRENeON39bWVhG+niBON3K9JMI43B3RYoHXRSLM3+DzcIqLi8V+RmaGWG+Q6JzwkPJljdX4ef9mvL/iGya+pmFV3maYbRbolNzt0CtEVpf4DEzqczYemHADHpx4Iwakd/eFov+LJCUloZvkQcRHw3igKaLjQy1l4i9zpOAI3KwC83g8wreZ9ygSxJmAR5zKzMxETEyMCNBRVlYq5RDE6UMRHPyrCJPL4Wxqgsfl8h0TfkP+oYPCXZSPhI0cNVo6S3QmrA4bCuvKsHj3Gryz9Eu8vmg6NhbsgsPtgJq3ZWRAqD4YvVNycenACXjwvBtw25jLROTDk4nBEMRsVxbCwsKEeyzNae4ckAgj/jLlZWViFCycVR58oVwaBSPOJNyI9e7XH3a7TbgjklsHcbpRRkRAEeSbF8LFmPlgPtxtbeKY8B/KSsvElgdHSE5OFvtE58BoMSGvogA/bFuGNxbPwLsrvsbO0oPwsDylQsm0lwxRwREYkNETVw09X8z3umroZOGGeKpITE4SC4Rzd/qW5ma4qeOmw0OtZeIvU15RLkRYVm4ujYIRZxyNVssaVImQy+SwWiyoqqqUcgji9KDQaqDlbtmsLPKRFkdFJRxVVYCHN/EIf4DPB6tgtovTpWtXsSU6Pg1tzdhRlIevNyzAa4un4ZNfZouw83IZX2BZxrYyxIdFY0h2X9w48iI8wsTXlAHnIDY0SnrCqSM0JBSxsT6XWO5Oz+eHER0bEmHEX4KPMvAeG+6KyHsTaRSM8Af0eoNYo473KFbzxi9BnGaCeveCMiRYNPZlGjVM+w/AbbZIucSZhi+Oy+sH3vCOi4uXzhIdER7JsKq5DhsKdmHa6h/wr0XT8O2mhahsqoNOpeUeh1ApFEiJjBcBNm4bzSMd3iQWWg7TB/secpoIDgkRSyQ0tzSLOYtEx4ZazMRfgk8e5QKMJ77IJYkwwh/QanSIkdYMq6mpkc4SxOlDn5MNBWtQ8SAxwiVx334mwkxSLnGmOVJQIAQYh9suouNhdzpQUl+JlXkb8cHKmWKNr0V71qDZ3Aq92hfJUK/WIjsuFeN6DMPdY68WbofDc/v/6UiHf5Wg4CBERkWhuan56NIJRMeFWszEX6KqqgJut1tMbI6MjDpq1AjiTKLRqBHFyqPD4UBLS4soowRxOlGGhUKTnAS5SiVEmK2oGM6aGnjJJdEvqKyoEFseHpyPPhAdB5PNgoPVRZi382e8xYNtLPkc6w/vEEE4NEo1u0Imgm30TM7FlAHn4r4J1+PeCdehn4h0eGanVBiCDGJeM4863draIkbSiY4LiTDiL9Ha2iZGwYKCgoQQIwh/QMkavkEGg9jn8xUtFnIDI04/QT26i0iJfDTMy8ph26698NrsUi5xJmk1tootX9aC6Bg0mVuxq/Qgvt20SATb+HDlTOwtzxdCRiln7ROZDNHBETgroyeuHDoJD028EdePuAi58enSE848Go1WuCNy+HQPbr+IjguJMOIvwUcaeAXXXmkQhD+gkMuh0WrEwpoet0eUU4I43ehzciDj5dDjgUytQtv27bBXVgpRRpxZ7FKdwEfCiMCmprUBmwv3YMbauXht4XR8sW4uiuvKoVaqhXcOD9KUFBGHYTl9ceOoqXho0k2YOmAsEsNjpCf4DyqlUiy1wusIN7NdTpdTyiE6IiTCiL+Ew24TIkzLRBi5IhL+Ah+V5VESmSUTI7VOEmHEGYC7I2pTUiBjDSvukmg5UojmVavgtlqlK4gzhUNaukKn14stEVg4mDgpbazCmoPb8Mmq75n4moa521eivq0RBg37Tll7RKNSISMmCWO6Dcbt51whIh2O7TEUEQb/dT9VKVVChPFuGr7+qstJI2EdGRJhxF/CyhoTfL6NXqcnEUb4DXIuwjQaIcC4IbPZyQWMOAOwOjFq0gSoYmJEeHq5TofW9RthLTgCr4fmKZ5JuO3iHYh6EmEBRZvNjENVRViwYxXeXf41/rXwM6zavxlGqxlalUZcE6TVi8WUz+87GveOv1ZEOhyc1Rs6tf+PeqqYcFSrNaJsOp0OlmgkrCNDIoz4S/DeGt7YDQkJociIhN/AOwQMBgO0Gi2UShUtekmcMQy9eiKoZw/I1D7XKGdjExoWLISridYAOtPw+TcUlCMwqDc2YUfxfny7cSHeWDID76/8FjuLD8DlcfnWJ5UBkUGh6J/WHZcPOg/3j78et46+DD2ScgKqg1jBfhedXidsl1yuINvVwVE8y5D2CeIPw0fB4uMTkJmZiYjISBJihN+gYAaMu3WkZWQgMSGBeryJM4QMqsgImA8ehKu1FXLWyHJU10CTkgxtaipkVGeeEVxuF1JTUpDObFdYaJh0lvAn3B63WN+LB9eYv2MVfty2Auvzt4vRMKVCCS/7p5DJERcWjZ7JOZjYZxQuGTgegzJ7IdyPXQ7/P2TsdwoODkZaejpi4+JERzfRMZF5+ZgnQRAEQRCnjNpvZ6Hxp0XwcDc4jwfajHQk3X0XdJkZ0hUEQXAsdisqmfg6WFWEzUd2I6+iAC2WNmiUKiFQPEyccddDLr4yY5IwPGcA+qR1QbDWFxGXIAIFEmEEQRAEcYpxVFWj4p33YMk/zLu64bZYEDl+LGKvu1aMlBFEZ6fJ1IqyxmrsKM7DjpKDOFxdBLfHIyIG8qYqb6yGaIOQFBEr5nwNzuqDHklZYlSMIAIREmEEQRAEcRpoWrwUtd98C5fJLKIlet0uxFx2GaIvvRhytUq6iiA6D1xaVTfXi0iHmwp2Y2fJARTVVUCn1oi1vbgIk8lliAoKQ2pUAvqmdsOAjB7IjEmWnkAQgQuJMIIgCII4DTibm1H9yWcwbtkmevbZ/4T4SrzzdoQOHyZC2fsjXCwSAYRM7vdzDW1Ou5jvVVBbig2Hd2FfeQEa2pqgVanFul4uj1uIsPiwaKTFJGFwZi/0T+8uFlsmiI4CiTCCIAiCOE3YyspR/dk0mPMOCBHmdbPGZlgYku+/B0G9ewF+0Hj2OB2w1pbB3lQDW1Mt3HaL+KxEYCBTqqAJDoc6Ig66mGSoQyOlnDMPn9tV3liN3aUHsaP4AA5UFYo1v9TcpVDGg3F4oFdrmfiKQWZsMobn9Efv1FwE8bW/CKKDQSLsNOFyuWA2m8W6RURgwCM9BgUFiYV/Ozomk4nWIwkweMQsivgYmJgPHED1tBmwFRUzKyyDx26HoWtXJN59h4iYeCbh4qth12o07l4L45E9cLJGs2gd0zKQgQNv1snkMCRmIKLHUMQMHI+QjO6Qn8F1smpaG1DWUIXNR/YyAXYABaycqZlY5KNdHq9HzPcK0wUjKTIOPRKzMSirF7qzrVz+vwtem9EIl5vW3AsU+HIBOp2OIj5KkAg7xZSVlWH//jwcPHAQTU1NrG4kERYoyNi/2LhYdO/REz169EAMX3C1A8E7Bvbs2YNDBw/iyJEC2B0OamcFCLzW5gIsPSMdPXr2RNcuXUU4fiJwaN28BbVffAVHTS1vmcBtNiN87LmImjwR+i650lWnF1PpIZQs+AT121eyQsY+lsq3thkRmHA3Up60kfFIGn8N4kdNhVIXJOWeepzsZ1c216KkvhLr8ndgX3k+qlrqRWRDhVwulrjh5Yu7GKZFJ4o1vgakd0NqdJL0hN/GbDJhN7ddBw6gtLQELj5vTMoj/Btuu0JDQ5CdnYOezHZlZmV16qWNSISdInjlsmHDBsyaORM79uyDRmdAWEQEraMVQLhdbjQ3NkDJvrKe3brg9ttvZ4Ksh5Qb2DTU1+PHuXOx4KeFqKqrR3RMHPSGIOokCBRYrc0bIiZTK6IjwnDh5EmYMvViRLA6hggcmlesRM1X38DVYmSCRwlPmwn67t0QNfVChJw1AHLt6Ru5sFQXI3/6c2g5sgdyMfp/TLNWNBOoqRA4sO/uGPHsdTshkyuQNuVOpEy8QeyfStpsFuFyuK/iMLYX5WF/xRGYHRaoFT5Rz9f/UimUSODzvZjgGpzVG/3SWLkPDpee8NvwElhcVITvZ83Cyl9Wo6XNghi+jpZWR7YrQOCSw9jSArvVgpTEeFxxxeUYP368GB3rjJAIO0UsXLgQr772GmKT0jH2/Kno1X8gQkJZBUO9igED/6bqa6uxc/N6zP5yGiKCdXj9zTeRk5PjuyBAMRqNeO3V1zB/0WJMuOhSDB8zHulZOVAqVdTMChDkrB6x2awoLsjH4rnfYdfmdbjisktwy823ICz8fzdkCP+i/sd5aJj3ExNizSIwh8fugCIkCFHnnYfwsaOhjk+Qrjx1uG1mHPz0KeGCKJDslNflFHWCQsMaSGS7AgY++uWx25iw962rJWDCR641oMfdryO860DfuZNMfVsTyhqqsY0Jr12lB3Coqkh0PHPBxZuaPAVp9UgIj0FWTCqG5vRBr5QuYg7Y74ELsBdfegl79h/CRZddg0EjxyAhJU3Uh2S7AgNeHkzGVhzK24u5M79EZdEh3HvvPbjooos6pRAjEXYKKCkpwd/+dgvSuvTGDXc+gODQMDhYhUjzwQIPuVwBlVqJqvJyvP7sowgL0mDGjC/EXLFAhM/7mj9vHp585jnc8/jzGDPhfFjMJrhc3KeeqoJAgvcoK9Vq1rZy4afvv8GyubNw2y034/obeE83jbgHEo2Ll6J5xc+wFfvmiPGRJ1dbG8LHnI2oCy6AvmuOCLZwqqjfthyHpj8Hj8PGfr6v7HgcdgSl5rDUHZqwKCpTAYSbtTfM5floKz0EFxPYQoixMsWXRQjrMgA97nkTcuXJcV/m87kqm+pQ0lCJjYd3YU/ZQZQ11ogohwpmP0WIeVakI4PCkBIZj96pXYTbYZeEP7ZIuYm9D++//z5m/TAPjzz/L/QZOBQWU5vwOiICC2671FotrCYTPn3nVRzesx0vPP8czh49Wrqi80Ai7BTwj8cew96Dh/H3x55HXFIKnMyYEYENd88pLTyMh265Cu+9+w4mTZ4s5QQWdXV1uOKKK9B9wDDc+fDTaGtt9jX6iIBFoVTCabPjk7degbmxEv/+9+tITkmRcolAwXzgIBrm/4S2bdtFxETeYPZYLNBl54gRsaBePaFNS5OuPrnse+seNB/YCq+Hh6KXsa0b+vg0ZF7+ACJ7DfddRAQUjpY6VKz8DuXLvmICjHcA8+/VA1VQKHre/y5C0rv7LvyTWJhg5y6HfLRra+E+7GWiz2gxQa1SHQ0xz0fA4kKjkBaViIGZPdEntRsSwqOlJ/wxtm3bhvseeBCTLr0WU668AUZmu2i+YmCjYmWltbUFLzz8dwzs0wOP/eMfCA0NlXI7B9S1dZKxMKO5bu1a9B08EmHhkXA5HVIOEch4WKMoNTMHw8aMw7x586SzgQUfiS0qKsKBg4cwceoVMJuMJMA6AG6XC4bgYAwacTZsTg+2bd8m5RCBhKFbVyTcdgvCR58NRVCQaDDL9XrYSopRM+0LVH86DS2r18JeUSndcXLgoyam0nxWx3FbJdUHrBGddfn9JMACGHVYDFIvvBUhmb1EWeJw0cIFfuuhHeL4z9BoasGukgOYuXEh3mYC7y2WNhbsgt3lEAKM9+vr1FrkxKVhXM9huHX0ZXhw4g2Y2GfUnxZg3INj3969MFmsGHHuBGG7SIAFPvx7jYmNx7Czx6KwuBhHjhyRcjoPJMJOMuXl5XA4HEjLzIbWYBAVEtEx4I3dnG49sH//fulMYMGjIeYfOoToaGacM7LIPbYDwY1ZZEwcoFSjorxCOksEGqqICCTcejOip1wIdXycaDCDB1GQy2DavRcVb7+L6mmfo2XdBjgbGqS7/hp8LTCvcEWWGrVeD7QRcQjJ7uc7JgIW/o1G9x8DL6v72+HzxWyNVdLR76eiqRYbDu/EjLVz8fqSGZi+5kfkVxeL9b14pEPe1okMDkPf1G64dNB4/H3s1bhvwvUYmtMXwX8xIiNfQqW8rAxJKWmIZo12sl0dB4fdjqS0dLSaLGhsPDl1WiBBIuwkw0fCtFotlEql8MEmOhY6Zkz4em+BCDeSNlbhBQUHw80MMdGx4CHq+dwPO/uOicBFptEg+pKpiLv6SgT17QNlSBBrOLNGp8o3J8y4ZRsq334PNTO+hOVQ/nEN7D+D22kTtqp9XIHXE3xxX59rIhHI8PpAzYSRT2S34xWLcf9eTDYLlu1dh49XfYdXF03DvB0/izW/DFrfGoV8RCo5Mh7DmNi6bviFuHfCdbh66PnonpQlAmacDPi8Lycr5zq9XnSGEh0HXjZ5dEsPq+Ocjs63VimJsJOMGO5nRoxGwDomPAxuIC8z0F4+iY6G7zvlTR5y0+kYhA4fhoRbb0H0ZZciqE8vKIO5i6IbcrVKRC1sWLgY1sJi7mcs3fHnEOXlhCLDfw7RMWh3RTyOP1BHtFiM+HLDAqw5tA1Wu02s8cWMiIhomBufjvE9h+Nvoy/FA+fdgIm9RyEpIla68+RDtqtj0v69dkbbRSKMIAiCIPwQTUI8os6fhIQ7bmVi7BIE9e7tmy/mdkMVGYmQQQMgo0W6iVNIhCEUQ7P6ioayhyXucsjX9Lps0ATcde5VuGf8NRia3RchumDpDoIgfi8kwgiCIAjCj9HEczE2GQm3MzF2+SUw9OyBkCGDT2nYeoLgaNUaIbJ4UI3hOf1w/fCLmPC6FlcNnSxcDnkYeoIg/hwkwgiCIAgiAPCNjE1G4h23iREyhb7zLW5KnF54uPmuiRm445wrcP/E63Fe7xFIioiTcgmC+CuQCCNOITIoNDpodXro9BooaKoK4Y+wRoZCrROTvrUaXk5p3gHh32iSk6DPzSFXROK0wOeBnd11EELJ5dC/kCuh0vD2lQEatYpsVwBCIow4ZcgUdpSv+RHL5n6Ln75fhyqH+7gYTQRxxpEpAEs9yrfOwbxZX2PlL+tQZqIOA4IgCMKPYQLM21qEg+u+x7yZX2D15r2otarJdgUYJMKIU4SM1REm7PrwYbzy6B149r6PsN9qh4citxF+hIwbspYC7Pz2ITz9wO14452Psb3eADVNcyCIzoe3CnWrvkf12p9Qu2k32qTTBOFvyBQaVlw3Y+XH9+HpB+/Ee18sQH6LHiqyXQEFiTDiP5EpoNTwHpVjBJNC7XMr1Cj/QHRbGVSGEASFhCE41ABl+41yFdQqJV9/lCD+NFxAKVVqKOXt46syVnTV0Oj10GhU+N2eGdylQxcCvT4IQQYDVOx5fNUkuUIFFbNoVEwJojPA3/tmGPM2oWLB89j33reolXII4mQiY7ZFqTrWfZB3WmugNehE2+j32S52Ebd3hlDotVoY9FphC72sWa9Qsucr5WS7AgASYcSvCPHFhJa3GcUbdqPa5oCHv8Uy1kht2ImV87/FvPVFsDs8f/7lZkJMXr8XW/ZXwyrXQqMmMUb8MWS8PGo0kNtrUHlgC0qauTHjoskJS90erPt6FtasPQQTL1vSPX8M9iyPCS2Vh3CooAkujQ4aEmME4WcY0bRhDZot0mE7DbtQu2Etms2/txemHRmrW7oj6543kT6iK1SsQXxs/dF2aAHqKqUDgvgTyHgHtFYNb+sRlB7KQ5XJZ7sUShuaCjdi1ZdzsGV3CazqP2lv+PxmdxOqiw6hqMIMr0YLNYkxv4ZEGMFeXEl8oRVl25Zi6az38METn2J3qwVuuQJqgwaNy9/Em/+4HU9/uQsumQZ6QxC0qmNfbtZwVWmgEUE4WNJpxbC498R1InkDuuB7vP3GW/jum9lYv6cSNhJjxO9BTELWQOGqR8nm+Vjw2Wv48uP3sLFKD7VaBZWnFRVr3sI/H3kIn05fD1NUOAw6JqC4b+HRDsf2cmrwBeLQaqFU8AWsjymozJAp3Y0o2fItPnrldcz9aSn2lbbCQ2KMIPwC0+GfUPPLW8h7/z0UFhqPvt6C0u+x/703Udb259/U4xcF9sJrzEPRl09g3xefonrDRrTSWtbEH6BdfMFUhvy1c/DjBy/gq2++x74GZruYXVE7y7Fv3j/x3KNP4PvFeXBERTDbxdpQTED9art4ACkttEdtF7OFPPvYssraV2pXGXYv+RyfvP4WFixbg8O1NoDEmN9CIqwzc5z4WoKlMz/AJ8/ehaee+QwHtZGIULGGrdeKmu0/4uuFeyFThyDCyEfEZmLBrC+wYl8jHMIYyVjloICxYCPWzJuJhd9/jQULluNgrQ5BEbx3Ufw0H6zC8MakI7FhEaY9eTf+9fIb+O7bH7COizEFiTHiN5BGvpTOepQy8fXT52/io2fvxatvzMIBRxoSogC3rRllm5Zg5aJtaA0JZcYuD2u//hzz5szHhp1V8PAOA1be5R4njIfXYfWPX2D+d99i6bLVKGnyICQ0/BhjxsooK+sGgw6mnZ/hvUf+jtffeFeIsb0kxgjizMHEUO3a75H/8ZPI32JCzMVXIU7nFA1Va+EKVP48C5V7q6A0OODYMNN3fDQtQ6NJes6xsEZr7S/HXLdyJhoLm6RMCXs9Qvrci8TIHTj8wUM4MHcOanZXwiFlE8RvcVR8mX3ia96nr+Dtf9yDt6evRaUsCTGsfeQ2V+HQ8p+wdvMROIJ0sFRsxaqvp2Puj8uw53ADvNx2KdRQutpQu3cFVs5htmvWt1i+aivqrUoYgoN/tV1eDzzaGITpHSjnHeePPYB3330fC5aSGPNXFM8ypH3iJFBTU4Mlixej75BRiEtMhsfjj11mcl/oeHcTSnauxdZVczHn/Zcxfd52uFKHYMTZF2LijZfhrMwEKI58iw+ffQHLiuzwsApFVb0ZKxbNx89LF2F3yGScPyAOep0S5v1zMfvD1zFj2hdYunAuVq7ajEpTJPSODcivsMPhyMCIG8Yihc8pC01CekwEgmMjoSj7BYuZCNte3AqX3QwLQhAVFwW9wsv+dsf08PgJpYWHkbdzC26//XbpTODgdruxZ88e7Nq9Bxdcfi1cTtZ48Wf4iJRGDbm9DmU7fsbaRd/jx4/ewKxFB+HOPBvnXnQJzj3/SgzNkaFx74/47OXXsCTPjuAgF4x1u7Bu9hwsX7kdNeiF8ed3h8baivr9izHr3X/hy88/x+KFi7B+4y40Wt3wOFqx/1AlghNy0WPURegaJYMmJAGJTOEZdHI07VmA5fOW4UCtBU4Xa3ppIhERFQqNzAO3H5RTuVwOY2sLdm/dhJTEOAwdNkzKIYj/jcPYiNpNi+GxW9k7x5pnrEGnCYtG7NBJoufdL/BUoG7DcrSsegv7N9QjsstFiP/bY8jo3RUhEXrxsa0FC1G3Lx+2+jJYWiy87wbe1mrYGtoTa4R2HcIaqNIzGfaKtWj4+SPkb6qH3CZd11gFW105HJY0hJ5/NsJZk1VmSEd4936IGjAWKlRAVrsRJfO2wRnqglfdhTWEpQf6Gx4PzJWFqN/+M+QK9gdhyBQKGJKyEdVnlDgOBCwWCzZv3oyGFiNGTzgfToefy1+5EmqNCh5jGQq3rcCa+V9h1vvvYP7GegT1GINzp16FcZPOR78UG4p+noaP35yGTaVuZrtsqCvYhDVzfsSKVUfgie+H4SOymO2qQ9HG2fj2ndfwzVdfsTbWImzcfgg29v0amxtRWFSD8Nxh6Dd4BFLCNQgJj0FsQiyCFCaUbZiNFcs2objRxGyXB4qgaESEG6AEs3t+0MRSsPJYW1WJfTu2YMigs5CdkyPldA5IhJ1k/F+EySCXmVHNxNfmX+Zh/mev48tFh6DMGIrB507GBTfeh+uvuQA9U0OhYI1gW8Eq7Kk3o6Wymb3ATrjiB2HM6OHo2bM7egwei/4Z4dB58zH/ufvw7aYqODxaJPUbhd5dYuDYMxtbyu2swmS2wJWB4UKEqVjbOggxXYZixJgRyEmIRHBUFFRNW/DzzLnYWWZkxs8IszICcRE69ln9q8+GRNhpgn3vHpsRNfuWY83COVjw+fuYu6IQyq6jcfbkyzDp+rtx5ZWT0S3RAAUTUE1V+di9twZuZqyMDh1CY3ti0KQx6NljAHoPGIye3Vl5LNuCZe89jWk/l0ERHo/EHsPQJ12D+iPbsGFPI9RyB3Sx2ehx9hR0CWMNNl00MgaMxpBh/ZEaH4MQtRKth5fh50UrkV9jht1hg0wbgYgwVk6PdQk5A5AII/4s/i7CWnbPR9OGL7B/7m4oYnIQef4ryJ00ECEq6QIJTdJgxJw1DjHhRSjb4kLYwx+ixyh2PLA9HS/AYCtG0bR7cSQ/GRn3vIHsMb9eqzL9jPqCMCbCRjMRdixKhHQbg+iBZ0Fevwf2Xd+haL8TWq8V7uRUaP1tiIFE2GlHxupid1s1Snctx+r532LOZ59g6fYWhPc9F2MuvBoX3fR3XDplNDKjtFDa61BRUoD8QzVw2pthsgUhNnsABp47HF17DkT/gf2Rmx0B094F+O7d1zF/ex2U0RnI7D0E3eOsKNi3G/sKWqGCHcGZQ9CPtTtTDDbIQ1PQdcg5GHhWDyTFxiNEaUPl9vlYtWoLShvaYHOwdzwoHKHBGvG+n0k6uwgjd8TOBp9XY9+H+a8+jJdefA9r8p1IGHYlbnj6fTz/0lOY1D+OGWMTrHYnE0526Ac9hEcevgJp7GWVuR1w5F6OO5/4Fx795zu4c2wKdExUOfJmYtF+B7PfXgR3nYIr7nkGf3/iJdz32C3oFqT5z0LmdcNpM6HNokbi6L/hnn99iH88ehfGnRUNS94sTH/6bvzz3dVocp44oYzoLMgVMljr92HZK3fh5X99hk3VWqSfewv+9tx7ePq5BzChdwQ8xhZYbA44ZeFIHnQt7nz4RvTUcnGkR3TGBbjp3+/jiWf+gSvP7waNtRFVhTuwbk05NKHRiOk+GVc99Dzuf/qfuP2my3FWjFNyrf0Vr8cJm9kElzoJ/S59DA++8R7uvfMa9I53omDhm3j3sSfw1Y87YdSpqSIliJON5TCqf/4M+R9/iLKWWKRc8xp63PkSsnuzhuP/gtkuwA2v9X/bD9uBr1GdJ0fwxf9Garx0kuP1wO38/zpPU5B6y7/Q/Y4nkJJYiZqlbyN/wfeoLmJClujUyFUytBb8gh+e+zv+/e532GeKQc8L78HdL72Hxx+9GcMy9XAaW1kbywG7PBG9J9+BW26ejAyVidmzMKQPvhq3v/4Bnnr6Hpw3PB1qWxUO7tyOPXuYAAtNQMaQy3D9Iy/igWdewd8uOxddQlm7zH28kPKytpulzQSEdsPIm57BY/9+E7fdNBVZ+nrsmvlPvMbuX7CuABatimzXGYb+/p0Nr5dpIA2iew5Hz9wIKLwy6NCMoo2zsHjlJpQ2wTdRVAq64ZExQ8au4cPW4jXn/xM9J+wc+yeTK1C1azsscMHtUqLb1fdj7Fk5SE5MQ5fJj+DivnqoRdjUY5FBodJAq9PCUZeHTfO+xIYdFXAqPXC4tIjpORR90kK5N9oJ9xGdAxlrB3kgVxsQkzMEvbrEQ+G2s/LVhCPrF2HRsk2oMnmh1eugUvK5Wax8yXgZk59QoYnCyh/HGnRNaC3LwxGHEorQVOSMvhGXnJ2LyOSeGDz6AkwcnQy73SXuaofPIVOKd8GB5vw1WLtwHrYfaYaHlXmFPh6p3QchM07P2nvUWUAQJx1HA4xHNsDeGgFN17MQlhgkZZwc6vduAFQ9ENLjLyysFJSGsC5nQR/RCPPGjTA2+bmLN3GKYcbG44ZcH83sw0DkprI2Fpxwmsqxd9VCLF+zG402uWj7KHlUDd6KEqOnrL11XGOn3XYpIG8pR211EcrtMshi+mHguCsxfnAmItIG4dyJEzCkfwwcJ/Qg8uVbVFrW9pKZULV7OX5eshyHqkysHSeDKjwD2d16IylcQ7bLDyAR1tnwumA3DMbVDz+FW/9+By678lxE1KzAV0/fg38++yxmTPsMP/64BPsKW+Dg7ycXbccNV/uOeTQ5SYuhuaGR+xuy42Akx6rgdLmEq5vDIocujDdmfXe2I/PaUXdoLX7+4Sv88NmreO+JW/HUy9Ox29ET51x8Pa6863k8+vB5iBYNbKLzwcoXs0yGuL6Y+I/X8fe77sTkcUMQWvYjpj99M5575kV8Mf1zLP5pOfaXNoKZvKPl9NeS2l5O+TlmvBx2OFtZo44VRh56Wh8XDljtrJw6RGeCQhsirm2Hl1mXtQFl25di2dcf4Zt3n8arj9yHd6b/graY4Zh807245fFHceVVwxHJnuOPMz8JIqAJG4rc2/6F9EndoFvxT+x6+1+oWDkbNWXHd5b8ObywtdSwFz0a6j+l7ZrQsHoWKr58ELumz4Y3YhzSbnwLuQNCpHyic+KF2yFDZPdzMfUfr+KOO+/EhKG5cO+aJto5L734Cr6eMQPLlq1FYbURXtHT7LNTR2m3Wzxx22UxwWZuhYXZJE14MHQsCdvlsMErZyJNbeA3+e5lyOQyOI3lKFi/AIu/fh9fvf4YXnr4IXw2Zz+UOWNx4c0P4c7nH8Lkc3simC9DJN1HnBlIhHVCZB4bLIpI9Jj4EO5/+hXc++g/cBOrLMYkN2PTJ4/gxUfvx5v/nosjJjs8vJI4FoUSCvaS8xEwX08OEBTKDI+MCSaZFfUtLijlcpbPw6m6YefRqI6pX/h1ypq1mPn2k/jnQ3fg7a+3Q9b3alxy60O47dGX8ciLL+LK87rC4HEedxvR2eCBWZjQ1yah19S78eBL/8a9Dz+Om268HENiK/HLew/h6Qfvx6dfzEZ+qxaq44opK5+snClY+eTlVGz54pV8UUuW62KGx9bMCiaPxMnyOW4HX2yoXfLLoIAJtXk/4fOn78EL/3ge3222InHcLfjbPU/irqf/jfseuRdj+yRAy8Sd6+h9BEGcXGKQfPWT6HLHU0jvJ0fNkueRN+N9VK76Bc3/bdBJLDfBKoT/57VUB0Wy/7fC+R8ehKz+kGzbf+JC89bZqFz6Ova//T7KtUOQfu2/0fWmfyCjq3QJ0bmRMSHm9EIe3gXDrnkYD730Ku5+iLWxrpmELvI9mP/a/Xj64Qfx1dxVKDP/p+3iNknYLAUTWDxUNI9oqDOAz850mqxwmJitUrE8PsfP7YbHaRP3CZjdU6EJhetn4uPH78TzT76BpUVB6H7+Hfjb/U/jnuffwD333oghWeFQOh1wk+064/y3mobo6PB5WVYjWu0aJA2+Ejc/8TIeePJJ3Hznfbh6Yi5MG9eh1GqFm7+j7FrhcixjxqmmBDVWL1zWJlTWNsHldCEptwsrSSr2/luQ99NP2FvRCpfHgZaCpdh4wI7j3Ov58HrpKqwrC0Ofi2/BlXc+xhq1r+Gxx+7E6D5R8FjaYLE5/SJqD3Hm8XpccFhMsHqCkDLqWtz01Jt44ImncMsdt2DiyCQ4j6zB7hoVM1rsWh6el5U1mcwGm60WdfWsHFl40I4GmILDEJSQiSRmtFytlSjbtBBbi83wutpQmb8be/aUQ8UXtuPI5JC7mlFbmIdCcyZG3vQobr7vadz33Iu4885L0TtR6/Ppd7ioF5EgTgex45B9/QvodsujSE0uRuG0R3Bg9teoXLMTbdIlR9EHA55meOz/q3kjQ2RSFqtfDsFWI51qR+aCtaaB7bCGsO+MwF72CypXvI8D77+AwjwF4i95Crm3PIns4THSFQTRjpc1mxywmdvgUMWg66Tbcdszb+D+xx7HzXfciNE9VGgs2I78RhWUCnath9kuZkzkMhOMbQ1obnYwO9WE5vpmWCITEBmRhBjWJnLVHMDBTb8gr9oOr70BR/buxpEjdVDy9cQ4vPPRXonC/YfRaBiAcbc8hlsefB4PvvAcbrn+PGSHy2Fra4OdNcqoieUfUHTEk0xghKg/Fi9ruDrhcHigDM9Br9HjMahfV0RFxCC5VzYi+CK48ibs+HERSs0uoLEOrXztsN0rsKxQh7O6JSEsUo/DaxejtNkD85E9KDOZ0Fq6E+u/m41NpVWwOWXHRUeUu12Qp0/AxTfdjPNH9kSkxgOnnVU6J0wu9UcoOuKZgpVTlxNOlwz62K7oNXIcBvXNQXx0PGJSuyAu2AtncwUKN/6EnY1eyLxMfNW1ombXFhw44kDc6D6IMreiYc967KppgqO5CIXlbWgtWY8NS+dh0/5W2LwuGER0xKnoGmqBE6FI7nchLr3lGozsnQgDXLCxcuoPIelPhKIjEn+WgAhRL6GK7oXIvhOg1jRC0bgVJV8thKn3ZFYPaH8VTFotGrdMg9XUDUE906Frn/LVsg2Vh+QIiWMijaFWmVG1fi6rU3qy69Kgk9qxtsKZOLxwI7yuWBgmjkMkP9+6F/kf3o2iA8GIH3opEm+5F6l9MqHz3eK/UHTEM48I9OKA06NCaHJf9Dv7XPTrnobYuHTEJaUhKkgGW+Ve7N+6DofbnMxOm9FaW4OiDdtYW0qH+EHdEdlYhpJ9O3Gkvhot9RWorG5C/YHlWL10BXYVmeBggi8syxcdMc1ghlMejy5nX4FLr7sYg3KjoOJBpniwtWPdHv0EClFPIuykEngi7Ff4qIPTbodHF4vsQT0QKRlkGGIQZi5GUXEx6loqcHj9CmzcvBd1CeMxdXgG1NG5yApuQkNZOaqaa1G+cw02bSuAO/kiTBlqZg3/CrS1pWDk385DqoYZgshu6N+NNWq9Dtgd/lkx/DdIhJ15vG4mxhxuyIOSkdKlNxL1FjhcKmjUaqhQh8KDxaiuKsORLaycbi2FLOYsjJg8APF8sfE4D6qLC1FbXo7SvWuxfXcldF2HoH+vGFRt3AV7XBZ6jb4U3aLkMMTnICcnBgoHj7joH2uq/Dc6owhzNR5AU94GtBTsh6n0EEsH/2tqK9oDizsS6uBgMWpK/EogibB2gnNGIKr/MCjdNVDo+yMi0bdWmECTALXBhNYV76G2jYmzqr0wFrK0ZjHK7JmI7J7A6glGWCYUHhtM695BrenX62rzq2DIyYRt7zrY3CrItRkIUheipToIURe8hOxzeyEoUMoQiTA/gnd4MzHm8EIdlYP0rCxEaaxwutQw6BVwWytRVFCBmtJ87N/4M7bsakF49yEYOKwnEkNDoA+2orKkFA3lhTi8Yw12HzYjcfBwZDFbVbnnMGRZgzFg2NlICdchMj0X6SmhkDksvlEvP7ZdJMJIhJ1UAlmEHcXrEW6G7a5WXpcWyf17IVynR1hSN3TtexZ6DT4XZ58zAt2Sw5gh87LKYgxyozTQRKQhu/cA9Bo+FZfceTMm9U2BxRuOjK4D0G94d0SoFJBxsefy70btf4NEmB/B3WRdTri9vPXlgUwfhsi03kgL1yIoqTu69x+MfsPOwZAxw5GdFMSESjAiU3qiZ3oo1CEpyOozDAPPvQQX3nALzu4VhyCXBvFnDUPPnj0Qq3PC5XbBxcppIBTTzijCLAe+weFv/o2yn5egYcfPoqHZvvWllajbtsK33TAXLfqRiMjOgPb/iXAeCNgqN6Jxzya0NGqhjwiFvN0d6U8QiCLMhwGhvUYhMukYASahTxkOXUg9wBp3tuZ6OFpYUo9C6sUDAB6ZV1ylQnCXEdAG17LrqnzXtTZC1f8fyDk7EzAZobRUwxk+FFFZXRDZbwTCo8WNgQOJML+Ed3i7XayNxW0Xs2Py0ETEp+QgPjwY4WnMRg1ggmrkOAwecRZSWbsK6hgkZ+QiMyEEhqgs5DDbNWTSdZhy/ZUYmBKGIFUIUgaNRI/cDISrme1iz3a7PQFhuzq7CJN5jwvLQvxVdu/ejbvvugs3PfAU+pw1BE6+UnFHQKaERsdDgvuMvYwPsTussNpd0osug0Kjh1at9BlEPpfHZoHDq4FBr4Fc5oS1zQpXABc3/qqsWbYQMz99hwmZ3dLZwMFut+OLL77A9Blf4tM5y2Blhq2j4QvNq4OalVNeDL3MwPEoUnYbK6f8hEwOpVoHjUYpJsTytcAcVhtcMhU0Bh0ULgfsVjMcHtlx80H8HaVSiYrSYnz+3usYdlYfPPTww1JOx8W8+yMc/O5rtFTbmSHn3yYT4uxL831vrJ7xyvkZse+1tUI96RP0OH8UwnzeaAGMA+VfXIuiFRtgTX0FIx66FAYebvpPYirPx943/g6nsUm8H16PG8Fp3dDrwfehMoRKVxGBiNflRN3WZdj/0T98gprZMLlKjZjB5yH3hqekq/yfhoYGvPXmmzhYXI7n3/wEZtN/zAQMeGQKNTRaHrreZ3u8Xu6ZZIPD7pZsF7NtGi00al/UaL6Oq93mgFepYW0zDWTcztlZG8sX8z5gUKnV2LN9C775+G3cf/edmDhpkpTTOfjz3WdE54KHtre0wWRsFamtrQ2WowKM44Xbboa5zZdvMrGGrIvlum3iXJvREtACjAgMfIE8fOW0jZfDNhNsvJy22yU+ysvLaXu+yQKH2yMMmrW1BSazBc4AE2CdFVVcf8SNvhGpk29B8qSbkTxyKPShWlEGvM5IaPpfhPjJ7PykW5By4V1I7JbKGjDSzYGM+wiMJUbWaAtmIikYyo4wtEcQnRxfIA/jMbbL5wb/q+1iosxmOppvttiY4PJ1hluY7TLzzsQAE2AEiTCCIAgiAFHHnYWkcTcj+5LbkDX1VmRNGo/gCAM8XITZ46AfdS0yprDzPO+ye5DeJw06Sa847c1oPbINNZt+QtXqH1D1y2xUrZmHqs1b0dRy4vIYHrQd+gXVv3yLinU70GbijtpWGAs2oHrtbFQuX4WmVtPRteKcxgo07l7OnsefyxJ7bvWGJajeuNSXNixE5d5i1qD61VXd3liIhp1Ljvss1bsOwXiCI4XbXofGtd/D1GiEV66GvHUL+1yz2D3fo3LFWjRb7EfdyAmCIAj/hkQYQRAEEfjYbPC2TzSVuZkQs+A3l/W1laL2ly9w+KuXcOizx3Hgg4ew/72HcOCjJ3Bw2j+R/91nKC+qh+uoRnKhfvXHyP/0Qez/4CvUVB1C7c7vUPj1izj4yWM48P5nqKhpEiLMWroBpQvewaEZT+Hg+w8g7+17kffuIzjw6TPs2c+y9DS7/j7s/W41rEY+J9MN44GlKJ7zOvI/fxoHP3yYfZYHceBD9llmvIaCOXNQ0+zwiUJHKaoWv4dDsxfBZrYBCg3kdXNxZMZj2M+emffGR6hobfvt35kgCILwO0iEEQRBEJ0HtwnmfcvQdugAvKpU6HpOQOhZo6GJCIHCVQjbqrdQ+P0iNDRajo4qyTUGKA2R0ChLYVz/KY58/TFaDhfyQTIgJAZatQEqewmqF72FypUL4WjSQTvoGqRcei9SxgyD1iAXkfjknnAYzpqC5GHdoDZoYSlehKKZz6N6/S9wtCqgzj4HIYMvhCEpAgrjZrTOfQlH5q1Fk9UJr6saxkoL5Go1ZHwRVy8TmoauCO5zHkIHXoDQIUNh0DBh5vvIBEEQhJ9D9TVBEATReTB0R+y51yLpotuQctG9SL/yMWRc9RDSzhkFXWgI5AY1vHmrUV9Th+O9ARWAphRtqxfBYQyDtv+liJlwM5Imj0NEeAicpUvRXFwDr1cOb+gIJEx5HF2ufgS5N96L8OQYyGQeJqR00Ix8GNkTBzFhVsdE2xcwVltYXhBUva9A0qWPIOuaJ5Bx8W0ISYqFMsQBx6ppqCxqgUvTCymXP4bo7jGQK5j68zjgiRyL5CkPIePqJ5F145WIDTHwT0kQBEEEACTCCIIgiE5FWN+rkHPlg8icMBYJWWmISumB5AumICQ2Gl63DDJPLeytFvzH+vH8WJWDoFE3I/Xqp5Bz3ePoevlERIWpYKmpgcvNZZsHnlgm9EJ9UUBkuu7QRzJxp1BA5j0IW1UD3E72qPr1aK1ohYf9EK8nHcHn3YD43jkIj49DzJBrENsnB0q1FnLvbhgP1sLl0CM4Ogp69lyZnH0QL7tPE4uIZPb5E5MQlRwJgxQVlCAIgvB/SIQRBEEQnQqXvRnNB9ejeuMCVP4yG5U/f8fSGliY8IKcCRkZd//j4ki6oR23Hd6EyUiacCES4rU4NtiiNjoWSgU/w0RcUxGaTNLsLEs+rM1t8HjY81wRUISomCAD7CUFcDlt7HJ2PRNPrt1fo2zRdBT+NA1HFn+N1uo2pvnYhQovnE0t4vNwjs5743jd8LhoFhhBEEQgQiLsJNO+7JrsxNUjiQ4B/14DeWk9/tmpbHZwaCmI/4mpYA1K573lC8zxKQ9q8SDy3mXp44/RWtMgBBEXUr85pORxQ5aQCoPSt/DtsWgzzkFoWopYh0nesBblK6ajhIm7kh8/QnNZNdxWMzzx5yMmMxoq9iNsVpMIp88XDZYp9qN17msonfYMij9/FsWfPYaKtdtga2Xijd3n5oLwVH2tv/FcmYyaBh2GDvRdUrnsmLS3SVgtJ7adCSrRJxmdTgenywmnk0e+osZQR8NqtUCn10lHgQWv6LRaDcwWMz/ynSQ6Buy75QvDe1ido9bQulH/DXfjLlQseA1lP82EpawGyqRzEHf+Pci8/H5kTZ2KoKgwdtH/E+SdZf+mINLkIGHSlQhLS4BCVQ7rstdw+L0HcHjeMthsUdD0uRiJl1+BhOgwMW9Lpdaz743vOeFV9kL4xNuRdtl9yLiUp/uRPuU2pE6+GakX3oG0vklQtX+tx/5w9r3/1TeZi8bjkcFhamYfjWaXBTq8pDjNrez/x5QSVmbkSpV0EBgoWFnkC9JbLRYofqMDhAhceLvEbrOKBfdVqsAqlycDEmEnmYSEBGjUGpSXFMFmtYoCRnQMeOVfcDAP3bp2k84EFtyI5eTkoqmhEVXlpZDL6fXvKCiZ8Wqoq4PXaUdCYqJ0ljgRe+lamGub2B9MC6i7I3TiA8i6/iFk8flhl1+CoIhgeP8/EfZfscDVZofM44QneBBizn8Q2dfzeWOPIvPKx5F92yvoMjiDiWTf1brkdNboYJ/D42Y/MwTakQ8g+4oHxWc5NmVe/TiyhqSz+3y2RK7h4k16d51uuNR/bQVqdVg05ArV0S5DGasXbPWVaCvaL50hAhWXxYSGXavFfMR2uLjWRsZLR4GBwWBAcnIyKkpLmP2qF2WU6BioWYXIv9dggx6RkVHS2c4DleSTTEhICIYMHYbtG1ejob5WNHyJwEehUKKCCevNa1fhwosuks4GFlx05ebmIiM9DYvmzIROxxpzRMDDOwesJjO2b1oHvUqJAQMGSDnEifD5U972wPNMiMksdbDW1aO5aBfKF/wAY209f9l9+X+YFlQumI6m/FJ45GFQRyVCF5sMXVQ8tNoGuHf/gKqNW9DUxscr2fuYMARB8WGsgayEzL4FDXPfQcmGnWisrkVrUyWaCnaiZv0PKF60AQ1M3LUvW6YLjWMNaSaa5ErIG9egctMa1B7Ygpq1K1Hf8BvBRP4flLog6BMyWP1wjK3yelH84wdoZs/1CK8OItCw1leIuY4tB7ex8uL7boU7OvueQ3P7i+NAQa1Wo1evXlAr5VizbBEMQcFSDhHIqFRqJqrrsG3jGmRnZiA9PV3K6TzI2Ev5B6ts4v/jwIEDeOD++5HdeyCmXnMzwiMi4GbG3+P5sz2sxJlCLlewRq4CFaXF+OBfzwFOK2b/8IPomQtEHA4H5s6di3++8iruffx59B8yQpRLt9stDDQROPBRdu6+YbfbsXTu91j8wze48YbrcNvtt0tXdDIqfsSBzz9GTWEVEzW9EfHwU8jul4tjuxocZbNx8JP30FjazN5rNRDVE7rkJKaf9sFcoYBKXwuvvQ3u1hgYbn0LXUd0R5DCgZLP70DFxu1wsb81Br2JvldOQGjEiV4ODjSseh1FCxbD2toEt80uIh8KpzCZQggnmSEb+qG3ImPqGESF6mA+MAtHvnkfLeVNkHEbEdEXuqwsqHVOuGpKYC/dCavnSmS//ABSmWATzotFM7Dr7U9gbrVBLmM/Q5sJVbgcrlIHDA9MQ6++8dD8we7Vui3LkD/jebjttqOjDG67FaFZvRDWbTC0ETG8wInzhP/Dv8e24jw07l7HyqCTfXXsO+X1O/sOQ7P7otdDHwjxH0i0trbiww8/xMKlK3H/ky8ip3svOJk9c3vcvt+NCBh4HcOFdZvRiG8+fQ97t67DC889h9FjxkhXdB5IhJ0i5s+bh/c//AjxaTkYPmYs0rO7ICQ0jBU+Zsg60F/cVwH69rnfdkfCy8RJU2MDCvMPYPHc72BpqsUbb72Nvn37SlcEJrzR/swzz2D9xs04Z/IU9B4wBLEJidBoNB3KlvGqrb3jgwuWjuZ+abfZUFNVjo2rV2LjqmUYN+Zs3HP//YiKjJSu6GSUfYc8JrCqCiqYCOuHyCdeRO5ZXXF8d0k9E0rfonjZPLRVM8HlsLFyooYsvDtCR/4dcaHLULVyIVoLgxF8zyfoProngpkIK/rkBpSv3QInF2FDP8SA6yYjLPJ4UWKt3IaWvKUoX7oIpiYllBGRkPEIHNzhxFIJl9kOGZzw2OIRfOu76DGsC3RMBzZv/RY1O9ajKX8/HI3VTLw5fHWqOhhyfRI0fW5F9rXnMdGm9bmueCtQ9cPHKFm/HLamNnhdTlbAWYNaPQjRj72OrrmRUP1BveS2WbD/w0fRlLeRfUZ2syS4POzZHqeD9FeAwW0XF/0K7vsqfXn8nDo0El1vfg7hPYaIc4FGaWkpnn32OZSxd/e8iy5Dlx59EBkTIzqjOmJL9lgbJmdtx44SmMRsahNTIlYsno8D2zfjbzffiCuvvjpgO7f/CiTCTiGLFi3Ct19/jSajCUHhUUyEhUOuZEKlg/zFvV4PkpKShPjiYZMrq6o61Gifx+1GQ10NXKyBEhFiwN333ouBAwdKuYFNS0sLPvvsUyxfthzakAiEhEdCzyrAjlIb8LLJg+TExcWJMmk2W1BfXydGNjsK3JC1NtZD7nZg1KgRuOHGmxAV1fl86o/Sshe1WzfB2GiEzJUA/eixiEqKOS6MvA8Tmnb9jJaiYiZg3PDKg6CIGYSIoX0Q6tyP6nXrYKr1QjN0CmIz4qCRu9G09Qe0lpQLjwakXIikfl2g1R+jTKwlKPr6KZSt3w5PUD9EDBmP8HRWN6pYeeMNp7YiWA4uR/3+Qjjb6iEbPg39rxiFoFDfMxxtZWjcvQm2+homeiTHQ1UQZLos6PsNQlSMAcpjhZCzBjVblsNS3SjqXii0kBl6InTYQISHaP7UPIO24gMo+PZVGAv2sAY8/9ykvDoKXrcLcq0eKeOvQ9pFt0lnA5PCwkJMnzYNW7dvhyEsGqFh4dCwur6jtWS53QoJCUYk78xh72JLawuampoDvjORSw5jSzPMrU1Qyb2YOmUKLrn0Uuj1nXN6BImwU0xZaSl++WUV8vLy0NLcIhqHHQVeMfDgIy6XU0yotDsc4gXrKPDKLjomBn369sOYMWPY79jxRhjWrV2LTZs2oqSkBA6bnX2pUkYHgItoKyuffIQvKDiYlVW+JpOU2QHgc/rS0tMxcuRI9B8woMON9AUSjoMfYt/0b2GsroXsrHfQ97YJCNVKmRLWXf/Cvq/nw1LLrhn9FfpfOgRBIf5VIPn8obIlX6Bx73rWWuKjKUrJPZEEWaAh2hqSm7k+LhUxQychefy1UDIxFuhwgbJ06VJs37YNVZUVcDldHbKIKuQKEfXWYbeLqLd8/m9HaGMFh4QgNycXo885R8xT78yQCDuNuHiFyFJHgUdcev+9d0S0vb79B2Ds2LEdKsQob3x0psAqvKLvKNE8uSAp4j2m06chNjZW+Jr36NlLCLOOguovRsUjTh72vW8h76sfYKxpgrzLPci49HJEZ4aDOz7I3HaYSreidvlHqNtzAM6WEBj+9hl6Ds8W7oj+hrniCGo2LoTxyF5YakrhaG0QbokdCV7LabS+MJUul4uljlMvcHg1rjSEQhsVj6CULojufw6i+o/pMPX7iXQk29WOsGFFRVi+bCkaGhowZsw5GDZihG80PpBh31NnDEX/3yARRvwl3nrjdVZB1GPw4KE4b9KkDjcvjAhcSoqL8f577yI+Ph7nTZyErt0Cc2kBIgAw7cHBdx9HzYEiZlVjoeo5GuFpcayxIYfMaYQx/2e0FRTDbddD1f9uZN54CeKigkSgDX+lreQgTGX5sDVWw+OwSmc7BrzVs3nTRrGfnJKKpKSOtayDTK6AOiQSurhUBKd3Z/sRUg4RSJSWlGDB/Hmor6vD+PPOw7DhI6QcoqNAIoz4S7SLsEGDhmDCxInUw0H4DXwk7MMP3hcibPyE89C9Rw8phyBOPi07ZqNq83I0HdwHe0MtEy5O0djn87XkhgRo0vqyBnFvRI69FAmJwX4twDoDTz7zrNiOG38eRg4dJPYJwp8oLirCwp8WCBE2bsIEDB8xUsohOgo0iYAgCILoPBjz0bBxNsqWzEDZT4tRX9+Ck+HgE9b/UmRe+QgyL70H6Zc9wPYfRtZVvpRx+QNIv+IfyL7hJiSTADvj8DlFCo9LJDht0lmCIIjTC4kwgiAIIiBx1u1G7bpvmaD6EuVLvzouVaycj6rdeWi1eI8PSNu0DZXz30T+9GeQ/8k0VFTWwyFl/VU0EdmIH3UVMqbejYxL7/WlqbchY+JFSOoad0K4fIIgCKIzQyKMIAiCCEjs5atR9uMryP/8BRz+8kUc/oJteZrxIvK/eBmHv3kNR76bgaqK5l9Hu+RqKHRBUBpCWDJAoZBT7D+CIAjitEMijCAIgghIZAoNE1TBPkGlD4FCHwa5PgIynQ5yuQWo3wnjsndQOGc5Ghst6DgLhBAEQRCBDokwgiAIIrDxuuCVZyFk+PVIufjvyLj4LsQN6AWVgYkxvQuubQtRe6QKdunyE6GRMIIgCOJ0QyKMIAiCCGyYCPMoMhE64mpkTLwGaZP/hqwrrkVoQjS8HiXknv0wV9eDr+n6q9UToQsh16hgrtyD6tXfoGzJ52J+WcXGHWg2nTCXTMJurEbD7p9R+fPXvuAei1laPgsVm/egxSJddBwuGIu2omr1LHb9F77rl81Exbo1qK1ogsN94k9pQ/OBdcc8/0uU/7wQ1SVt6FirWREEQXRuFM8ypH2C+MNs3rQJFosFSUnJyMrOpnXCCL+hubkZ27dtQ3BwMLKyshETEyPlEB0FZ812NO7fC3ubDVBlI6R/P4TE+KIPKgwatOVtRVt5NTtqhTx1EmJy0qG17kfdzp2wNLcBhlxoQ1pg3PINqpZ+h7rta9C4byOaCgpgapJDmZICnV59VLe56jajbCkTa8vZtRsWoGHbSjTsWoum/dvQXHAEpgYjEJ8BfbDGd4+HCbZ1s1G88EtUr52H+i3L0LDjFzTt24SmQ/vRWmoGsruwMqoV17ua96Jm9UyULp6F6nVz0LCVP38du3YvWqqr4UQK9InhUMlp7O6vwFfmWbP6F7GfkZGJ1LQ0sU8Q/kQLs2GHD+fDYjYjMysLKampUg7RUaCRMIIgCKIDoIRMrTsa/t1avhvmhhp4uZVzR0IRomP5vjwffBSsGqYVn6BpxxF4wnKhjoiCUsueYTnIzr+NknV7YbMeM5PM0wbTvl9gKamDLLI/ggZejLCzhkITpIWsbTdMy99E4bKtMLX5woBY8n9E8Y+foDX/IGv4x0DXczLCRl4IQ0oa5NaDsBZVwOuQxrc8lUwIfoQjP8yEqeQQENKPPf8ShA8aBqXKAs/+b1A+81UUH6iH62TE1CcIgiDOKCTCCIIgiMBGpoDMU4K2rXNRtupHlK/4GkXffYXWqlrIZA649QMRlpwAjZJd266p2D0wH4RD1h3h596HjCseQMaltyEsJQYyuQoKbR0sO/fC1GQ96paojBuJpIl3IO1ydv3lD4q1wDLZfUmD+fwzvZh/5ty6ES1NRnFP68FtcDjtkCll8AYNQ8yUR5B9/T+QfcX97Gfdh5Rrb0RCbDiTj/yj/IDqzbvgdrE7w4cgZvI9Yt2xrKseRNY5I6AOi4HCuBy1v+yAyeL8TVdJgiAIInAgEUYQBEEENjIV5O58tK76CEXfvIqCr19B3d6DcFttcDuioR0+GbFpcdBIl/tgMsalhLLX1UieejVSBo1C0ugbmaDqB7VeDi97JprrYbFbj5mLpUHUiGuQdcmNSBk8ANFJ8YhI7Y/00cOhD9UzfaeAvKUCZqdVhMTXGIIhl3OJxQSftwaOQxthqXZD33csUi64F7mjukGr42bYhvrNm+C02SCDE7LMqxA3cigikmIRnNgbiVOmwhAazH5NA7z7N6LJaqb5YQRBEAEOiTCCIAgiwOFzpJzw2tvgtTTB6/TCo4yAPPUcREy8H5mTRiA47DhfRIYbHlcy9L0zmBCSTjG00dFQ6Zlc40NNbic83uPHnByt5ajfvgjlP8/0BdlYNB1l63fCYXFBJmOfg0dqZP/4gFtIz4sQFB0Gr5vlGTegdt4bKPjqXzg86xOUbD4M01G3wjrY62zwONmunAlK4zrUzn0PR354FwWzP8DhJb/AbrZDJlew59TCyi6kkTCCIIjAhkQYQRAEEdh4mSiRZyN01I1Iu+w+ZFx6r3D3y7ziUWRfeRHiYoKEy9/xMBnjiYIqmImeYyyh1+0WgRsEXFQdxYrm7XNQOPM1FMx8FQUznsWhz57CwU+fxsF5S2FptTKRxK//9R5lwjlIOf8uJAwfIcLl88iHnopVaF7wFoq+eQUF8zeimYk3/myvnck2rwwypRbew9+ics6/UPrNqyib+TJKvpgOY201nDYTXDYHPLTgGUEQRMBDIowgCIIIbJgI8yhyETr6NmRMuRPpU25F+nlTkNgtCYb/aeW48Pn/x5S4rLIW/4TSOW+get0KOOrdUPe8HMlXPY7cG55E7uSx0Ifq4PX857NC+05FxuUPI/Pye5E6+XLoo8Mg02qhaNuMpvmvofxgI9wIgkzDPqiM3e+0QtHnDmRc+QRyrmfpOr79B7Iuvx+Zlz6I7KunIi7EQMabIAgiwKF6nCAIgghwuExywWM3i7lYJxv+9La8VbC2tUGuUsITOQbJFz2M3EvuQNpFtyN15ACo9YpfR9AkHA6H+Dyq0AzEjbwGmVc8huxr7kN4chTkSh0U3t0wHq6Eyx0FbayWeyIyIccEpW4woi65XTz7+HQnUi+9ANHB+qNRIAmCIIjAhEQYQRAEQfw/uLmbopiJxSWZE+7GcrTWVaBh30ocWbIc5mYzZMf4NfI9495ZKPnpI5StW4WaI+VorrdBHhkPhYbPT2PP8jDVxdSUx6NB1MBBUGs17EY13LvfR+F336HiQBGaaurQXHIANVsXoWzBGziyvwkOPneMIAiCCGhIhBEEQRDE/4BLr+CkDCgVani9CiiaV6N84dsomPU6jnz5LMoPsSuUBijkx0/WchbMR9WPr+HIt+y6WUxAzXwNh794jYmqWrjtJriDRyGyaxL4GveGbpcgcdggKFRM5Nl2o2XR+yia+ToTY2+ikP8cPg/ti5dRe7iRCULpBxAEQRABC4kwgiAIIiDxuu1w82AVlja4rDZ43L8jYoXH+es9FgsTNB4hstoRz7Qe80yPb/wrqPulSDz3Qugi9XC7muAqWIrW9atgRQ/EXPwwEgZ1gQwWOE3smR7fMzWpQ6CNSwHMR2DbOxcta7+GcV8+HA4t5JmTEH3J/UjJiYKKW2J5MuLPuw2Zl9yM0NyuUGja4Di8BK3rvkXzzvWwN9ihyJqKsIwwKP4zyghBEAQRYMi8JzqxE8Qf4K03XkdDQz0GDRqCCRMnQqVSSTkEcWYpKizEhx+8j/j4eIyfcB669+gh5RAdBUfNNjTu3wub0QaochEycBDCYoL/93yp1v2o27UT5pY2wBUP/YhRiIiNQHvNZa/ciMYDB+Ew2+FVdUXokIEIi/AFwvA4a9G0eyPMNfXw8hCFinAoUociqmcyFLWbUL9nHxytsTCcMxqRESHwmCrRkr8X1voqeBztw1dKyNThUGYMQ0RODI6Jji/hQVvhJrSWlMBltrBjbqJVkKlCoEgagLAuyTAw1cadIok/h4d9d88987TYP+fcsRg5apTYJwh/orioCAt/WoD6ujqMmzABw0eMlHKIjgKJMOIvQSKM8FdIhBEE8VuQCCMCARJhHR9yRyT+Ei6XC04nX7eGFq4h/AvevySi07EySn1NBEEci9PpFInqBsJf4WXT18ZyUhurg0IijPhLZGVno2ev3ggOCZbOEIR/YDAY0KdvH2RkZkKhpIDeBEH8Ch8Z50mt5pEqCcL/4GUzNS0N3Vg5jYiIlM4SHQlyRyT+Es3NzVJvjRNRUdGQHxOimSDOJLz30GhsZeUTUDIRFhYWLuUQBNGZ4TaL2y4Ot10xMbFinyD8CYvFArOZL30hg06rEx2LRMeCRBhBEARBSDjrtogAG/ZGM+Q9L0FcTiI00lRXS+1BtB7eA3tzK+BhplOuAHSZ0PcfiegI5dFgGcY989BcWgGPPQn6seMQFUaLKxMEQRDHQyKMIAiCIDjeGlR+9xyKli2F1TUICbe/jOxB6VB5y1C/eSVqt6+HsegAHE0t8AoRxoSXLh3aniMQd95NSMmMBvd8NeZ9gIMffYa2SjW0U15C90tGIkyvooiGBEEQxFHId4wgCIIgGKb9P6Jm5x64LBHQjb8VSX1SoFG2oHbFZyj89l007tgIZ2MzvEoDZHqW5ArI3eWwb5nxf+2dB3wc1bXGv9neJK16773LvWNs03sLvYUW4AGBB+l5CXlphBdCCISEFkICgdDBYGPj3nuR1azepVVf7Wr77rxzZ0e27BiwjW0k+/5/Hs9qZnZ2dvbM+c65FS2vv4lOyzB8dJ7QohsRP70MuuhhuFe/go7qHnjZDg6Hw+FwZHgSxuFwOBwOetCzcSMcff0ImOcidmoBjEbWiFCAWm+AUhAR0BbCMP87SL/h+8i+8fvIuuIS6M3hEHQ6YP9b6N7fCY+XncuM2AULYIyIhdK9E/1rt8Fmcx8yKTSHw+Fwzmx4EsbhcDicMx53y+cYbu+G3+2DMu9sREVGyhM4hyFqwR1IueIBJF77ENKvfwQZF1yH5EXXI+Xq+xCeFguFQKmapgee9kEEXNKboE2+ECHJ0VAalPDvW47evkFI+RmHw+FwOATvE8b5D/x+PzxuN9xs8XiCrz20uNxwulzB7WyRX/t9XqjVGmh0Omi1WmnRsUXHXge3adii0RzYz0dR5BwvbO4vZndBu5Ttk2zRRWuXm2yS7JS99tA2diwgQqvTB+2PbFTHFtk+NZqgbUo2KtsnH7L6TESE5aNH0Pj5Krj6wmG881kUzC+BaYwpkFuEqARU8t9BBtH45wfRsauSkjcrVBe8gbIrZsFkCu4dWPlD1C5eCacF0N36CkoXlsCgDe7jnHjYiKjsmR/1EZJGydrlOqBdbE376W8291JQm5gP0ECn15NvoDXplobWQd8ga5jsHwSB9+zjHDss1D6gWbQwe2R/e8g+XWPtU157vB4oKU5Sy/bHdEtaH7DPg9o1ap9qtTyCEGfCwJOwM5D+vj709vaiy9INi6UH/b09sA0OkENgToE5COYYgsGt1xeAl4TK4xfh9gfgor/Z2kOLm157aKHYBCqFAK2SHAYtWiW9Vimgk9ZK2iZATcKlUavIoZDDYIEvOQwmciw4Do2IQlR0NOLi4hAXG0OvY2A2m4MXyzmjcDqd6CPb7CGb7OqykJ32YIjs1WG3Bm1SssuDNuoLkLDJ9shsky2jtuqhqNnHAmc6r4bsUkM2qiG7ZLbJbFRHtqmhNdsn2aj6YBKmlpMzgykEEWSbbAjruLhYxNKa2SpP1E43+tD4l0fRsXUrfOI5iP3BD5FZkISvypfEwTWoePb3GGhsQ8Adi9CHnkfBtCzo5UzN3/Q69r74KqztrcCUpzD91otgjDg0jeMcHaxwsI9pVw/5hu5u9JB2DfT1wG4dkoNZSqzIL3ilANYLr+wDvMwfkF9wSr5B1i1pnwg2/a30/DPfwLRLRX5B1i3JZzC/wPZRcMu0S9Kt0YTNYIQ5MhpRMTGkW+QfaGGvTXwY8TMSu91O2tWDbrLL7m4L+shOhwb64BqxSwkVS6y8soZJE4VLNsgWBLWLFX7TmmmX1yfCS6E5S/gl3ZJsktmjgnwL+5vsk60pSWPTrzD7lBIysk012SgrbDSFhiEiKgaxZJexcTGShsWQffJChPEFT8JOU+w2m5RodXR1kWAFEy3rQC+G+vsw2N+PIacHXSMe9I54MejyYYQefpGN9KXSQFCqKatS02s1FGxNfwsqChzk18E1HTu6nd4n+n2kkl6IPlroNVtLf7PtbBstAXnb6Fokx6QI+BGiUSBcp0acSYMYowZhRh0iIyIQRgLHFiZs8ZSgJVIQzAJgvV4vf0vORIS5HGabPSRS7R1dsPRaMER/Dw/0Y6C/F4NWK/pdfnTZPBhwejHsIYGiaGnUFkl1gnbK/qZFMcYmD7VRZfA1BLJDD5sQSLbPMXYp2y2zSZGEUdrn8xywX61ChFmrQpRBg1ijGlFGLcJCTCRu0VLhQTitWfCVEB8nJWmRkVHBL8mZWPj2oObpX8Oytxy+uLtR8OBdiE01f0V7/S50vv0kmtZuhne4B2LqD5Hz4M1kD2OGo3dtRMXvnkB/Qz188fei+OFvIyo+lPcD+BKGBgfR20fa1cm0y4J+em2nYHaAErCBwQEMkV512dzod5B2uX1wUDIFes4V5BMg+wCFkvwDBabMZ7B9o9sl3Rpd0zGgIJY986O+gD37kNa0BJiP8AR9A/09+pqt2XtUYgBhWiUiKOOOIb8QQz7CHGJAeGQk6VYMJWhRiCbtYrrF9Iu9VjG95ExYWPLECgm7LBbJPnt7WEzVI2kXs9Mh2wj6XF5027wYoPUwZVheUQGFWtYryRZpzWyU7FOKoWgRmaZJ28k+aB3UNHpNWjmqRUHbC9ops9EDuiUtQc0afa2ghE5Hbw8n7YqmmCqatCvSoEW42UyaFSVpF9MwVvCdwAq/KUkLC+MF398EPAk7DRgYGEBTYwPq6urR1dFOSRYTLEq6RlySWFko2WLCZSOHENBSgBASDpUxDIIhDEojBQS0VhhC6KGXRYwtlFhJ6wOlJmQmkqXI5nKI2bDX8nHSavQ9tB77d4AiaSZszIHIa5aIBUasCDiGIY4MI+Achtc2gIBtCOqAByYNiZyUoKkpCCaRCw1BBImbmRxIUkoqsrIykZ6egZAQun7OuKSpsRGNDQ1ooHU/JVyDJFaDZLODlGB1DLvR6/Rg2M0SLQEC2aMqJILskuyTXisNoZKdKnSGgzZJydUBG5UYtU3G4fY5upZt8IA9j9omQ34xxi4PiJzbKdmnZJu09jusFHAPQnDZoKcELZSCMBZ8sQKEKJMe4eHmYPAVF480ssuszEykpKYGz88Zvwx8jsq/PIOe6jr4M/8bU++5GebEL6vRsKN/zbOof38xnIP98JtmI/a2x5EzJRUalvcfoAY1v/4xempr4Au5ERk//C8kJZH/lfee6XR1dUnaVV9fj57ubsk3DNBidXkk39DDtMvtx4g3AEEfQtplJu2iYJH8QlC72EK+X/ILdOPZvG2jvuErtetLfMOBlfxa0i4WDB/0D6LHJemW5B9o7Scf4bMN0t9D0MCPUEm7VIgPYYWLLAAOowQtCuHRMeQT0pCdlYWUtDTodbrgZ3DGFazGStItWppbmjHY20MLadewFX0OLzrJPvudwbjKDSUUJjPUFFsxuwzaJ4urSL+0elm7yDZHNYzZqcRhtsk4au2S/2bHj42rWIEB0y7XyIHYKkC26Se79A0PQEGaZlCJCKMEjcVUTLsiWeFBeARpVyRiE5KQQbqVmZGBuPj44GdwTho8CZuAdLa3Yz+JFnMQHc2N6GxrRfewE3WDDvQ4fPAIailwVYWGSwkWC2QV5BhYUMuEDDpa2PPLfnqRxEVay8vogy+t5NcnlMMcCHMs0qI4+NrP6uftECkhC4zYZJGzwuewwU8Jmp8SNCP5sURKzNLDDYg1m5Ccmo5ESdgoKcvIlKrgOacel9MpBVR19Q1oaWpAZ2sTOrt60Gn3ooHs0+oTENDoKdGiQNQkFwQwoZIFCzoKfLWUcAVYO0LZJkdtVEJeH/j7BHMkoTtgm3L9hdcNMNtk4iYLHFszu/SRfSq9Din4Sg3VIoXsMz4mGgkp6UgjYWP2mZmVzdvujzfa3sG+V15Cb10zUPZLTL71Kphjv+g3cmJg0ytoeOctjPRbEDDMQPil30P2OSUwaUftZ5QG7P/N92GpqYIv9BZKwu47Y5MwFmo0NTWhlvxDM9OuFtIu0jJWUFg3SPfUHYBXoYHSRPeHkq2gbwgh7ZJ9g6Rd5B8O8Qmjr6VPYP8d+vpEMtY3SCvmE2S/MPqaBcBOW1C7JN/AgmDSLTvpl30AAVqHalRICdMgI0yH6Egzkki3ktMykJOdhTTSLlZbwTn1DFutpFtMu+rR3tSIjtZmdPX2o9XmRbPVhRG/AFFnCiZah2sXs029CVBpyfRGtWtMbCUhrw/8fSJh9ie/PPB6jF1K2kWf63FSLEX2SfEUKzRghQfMTn2kXSy2UgU8iDFQXBWmRaLZiHhKwlhclZGZJRUosuSMc2LhSdgEgHXYrKquRkV5OeqqK9HR3oEWqwNNQ24SLh+EsDjoouKBsGgoQiNlh0CiJVdn/4dDYK/HNaOOQ3YeY197XSRydslxiMN9CFh74epph0ACF21QIjdCT05Ei6y8PGTk5KGkuBj5BQXyeTkng87OTlRUVKCqYh+aavejq28AjVY32oY9cCh10EYnQRMRA4REQUECJhUEaOVaBskWj2Cj45n/sE15zUrL3Q4KwEjk7IMQyTa9A93w9HdB73chlYKudAq+Eigpy8jNQ0FRMUpKShAVxZswfuM0v4V9r76C3oZWoORxTL7takrCjtTvj5KFLX9H49uvw95rgd84E5EXfxfp501FKCVgZAWHcWYnYVYKbCsrK8g/VKKhugKdll4KaJ1opqTL6lNAHZUAbUQcRNIuZUhE0DewhQ3cdLhPGH09rhn1DWP8grSmXRQAswQtYGfa1YvAUA9cfZ1QOoeQYNQgJ4KSslAjsnLzkZ1fIPmG9PT04Gk5J4XGxkZU7NuHmqpKNDfUo3PAisYhF7pGfHBrTdBFJ0NtjgZCSbso2QKrddXoyQ7pzQdsc6xujXP7PMQuR1/TwmrR3CNSghaw9Uv2yXTLN2BBiOBDhlmHlFAN+a5EiqvyUVRcQrFVEUy8BdLXhidh4xTWZ2bP3r2oIQFrIAFv6RlAVY8dFo8CKimojQsmXWFREELJSbAHiZXABMY4hfHuEI6Hw50HW3xuiKyGbMgCgRIzZ08HxIFOpIaokRdlQGpiPDLzilBcUoyioiKEhlKCyvlaVFRWYh+JF7PNhro6NA46UDvghEMTAl1cGlRMuFjSxdYGEi/m5A8XrdMRySZl+xwNJF12Crgo6LL2wD9ogbu3HSFeG7Ij9MiOMSM1PQO5hUUoKy1FVna2fCLOKaV/OSr+8if07q+DP+OLmiPKCdg7r8NmsSBgnoPoCx9E2jlTpATsyIxpjmi6Eek/uh/JSRGndRLW1tqK3azAsKoK9TWVaO0fRkXvCKyiFurYFKjDY0m7oqBkuhUaGXxGWAHGWP9wOnJAt8bol8eBwHC/lJCBFSiSb1AMW5AZrkduhAkpKUnILihCKWlXAfkINnAQ5/gRyc527tolaVfj/mo0NjWhYcCBBpsPXn049HEpFFNFQ2ALJV7Qmc5Q7VIGW6OwGjPJNvvgGeiCh+wzUuFBHmlXZmwEUrNzkC9rV1JysnwizrHAk7BxhMPhwPYdO7B7+zZUle9BbY8VdQMujGhDoYtPhyIygZZECCEkXKxoTXIItLCH5UxmbNDL1mTS4lA3xP5O+GhxdTTALHhQHGNESlQYiidPw/QZMzBlyhT5BJyjgbWL37J5Kyp270RNbR3qrR40231QRMRDn5ABmOPpdVxQuKTmhMw2ZRs9kxlrm2xx28k2u+Dv74Db0gJhsBupJhXyoo3IykhH6bQZmD1zJuITEuQTcE46/nLUPP0rWPbshS/uHuQ/eBfiUsPGDKARTMAa3v4n7H2DEOLOR8ylDyJjXia+tEePdzMqfvsb9NXXwxd7P0r++3ZExYecdgNzDPQPYMu2rdi3cweqK/dh/4AT9f1O+CiQ1SekA+EJUJJ2gdUmHAhmZf9wJnO4dlHAHxjohEgBr7enDR5LE2I0QHG0CWkJ0SieMgOzZs5AXn6+fALO0VBVVYWtW7agYs8u1Da3oXbIg243oI5JgTYuleyTtMscG6zlYv2qxhYKnMkc0C1KyshUwbqGkH1KcVVnIzQjA8gya5AdHYKc3DxMnTETMym2CuNNao8anoSNA/bsLce2rVtQuZOSr/YeVPTY4TYnQUfipYhIgEDJF1jnTvZTseD2TBeuo4GV5LCFOZCRIfjJcQgkbCOtNQj1DGNynBHZqckonsoC3hm8BuILGBgcxJYtW7FnxzapOWx1nx0NIyJ0yXnQxCRJwRUrNTxQciYlX9ylfCks8JLsU0VBlxfiUI8UeHm7m+DvaUGaPoCyxEjk5hdgMonanFmzYODDXp9kBtD410fQQbY+OkR9RgH5YGkfJWBb5SaI/SPS76dIuhCRUwpg1AQOljGIFEBrshExayrCQvVSouVrfgPlL/4N1tZWYNrTmH7LBafNEPVsyO2dO3dhx/ZtqNxFS/cQqnqdUCRkQRubAiEiXlqkfjJMs0YLZjhfzNiaCPZ6uA9+CnhZ4OtsrUW04MSU+FBkZ7LCmpmYNWsmEhMpueX8Bx0dHdi8eQv27dqOiqpqVPY50enXQZ+WBzUrzKbECyERwfs8traL88WM2iYbXMTjJN3qAoa64GpvgHKwE7lhShQlRSOvuAzTZpJ9UmwlsPdwvhCehH1DsDkl1qxdh01rVqKmoQl7uoYxqAql4DYXqrh0IDqFxEvNA9sTwajjYKU6rhEKdFsR6GmGs7kSiVoRZTEGFJWVYfa8s3H2/LPkN53ZsJE2V61aie2bN2B/1yCqBzwIRCbBmJYLRJFtmuPILuUSQ6lQgNvn8cESMtk+KQhg/cgClIi522qhHuxArlmF0vQklFEytuicc5GaQveec1Lo/vhRNC1fAVefCca7XkDh/CIY2dgc3kpUP/UjWKqbIahZczAFBJWSzD+AwFi/HHDBb7gamT/4L6SkREpNDvuWP4b6T9fA2QPobnkVpYuKJ/xkzayp/MpVq7B13Wrsb+vGXosdDmMUDCl5EGLSIESxZkl0X1hQy7Xr6yHVRDDtIj9hH4a/txn+7ia4W2uQGaJEcXwYyqZOx7yzF2DK5Mnym85sdu/ejVUrV2Ivq5W1WFE/QjlDbBr0KbJ2scTL5yW7ZLEVLxQ4bg4UJtLChsgf7JYKEZ3NVQhxDaIgQoPS3ExMmz0Xixadg4gIuu+c/4AnYaeYHosFn69YiS3rVmFnfTvq7OQgknKgjM+EggQsOPoTF6+ThuQ4KDxijsPWh0BvKzxdjQi0VmFKnBGl2RmYvfBcnLNwwRk57P327duxhgKsbVs2YW+vCxZFCExZJSReyVBEJNJ9o6BgtGCAc4KREzJWykiiBtbso7sFrrYaxLj7MC01BpOmTMbC8y7ApFL6TTgnFHfDq6j+2z8w2NwKYdrvUXLzJYiIoixsZDXKf/tL9OxvoSRMrsU6km8OOOHT34Ksxx9FahpLwgZR/+f70LW7HF7xbCT84OfIyInFkYb7mAiwobpXMN+wlrSrtQ8tPlarUCAlXoqY1OAUJ9w3nDxYYSIb5pzWLOAVKeB1ddRBQ4nZjIRQlBTlY96i83D2vLnShL1nGqvINtevWY3tO3Zi35APw4ZYGDMKpQJtqbUG86+jNV6cE8toDS6rOHBR1tvfTnFVsLAgQzWCKRkJmDpzDhaddx6yMjLkN3EYPAk7RTQ3N+OzpUuxY9MGbGrsQrcQAl1GCSVgeUBYjOQfpKHZuYM4dYzWQAhKErQmiF31sNXsQEGYEpPS4jBr/iJceOEFiI5mDvz0ZtVKErC1q7F1+w7s6vPCE5kMY/YkYLRggIkXr/E6dRwoZaSgn03XQLbprN8Lw1AryuJCMa20GAsvuAhzZ88KHsv5+vg60PjKo2jfthtexTlIfOSnyCiIh8bbgf5d2+EYtFGcQT7ji2DNEVW5CJtWhpBQHXztb6Pq+Zcw1FwHTP0TSr59AcLDNZKrn0jsLd+LVZ9/jh1bNmFj2xCG9VEwZJZBSMgGTOFBzeKFhqeW0RoIuveBrgb422vgaSxHabQBk7JTMZeSsQvOO/e0b8bMJk/+9JNPsHn9OmzdW4EKuwJCXAb0ZJ8iq5FlNdeSdvGCgVPGqHaxSaiH+yTtstfuRIynH5OTIjFt2nScd9FFKCkqkt9wZsOTsJOMxdKDTxZ/jLUrP8f6hm4MhyVDk1pAyVcuBDaM/KiAcb5Z5AkUxSELwJzG/p1IUTgwLTUa5152FS675CIYDAb54NOHrVu24rOlS7B2w0bsHVZASbapTs6HIjY16EilkkPuIr5RmKixWgaPC+hrhauhHKqeBhSaVZg3fTIuufIaTJlUJh/M+TqM1LyE/a++huGWESjPfxJF1yxAeIhc+3VMWNH++vfQsn4jXL4yxN33JLLLEqE5nlN9Q7D5kpYsXox1a1ZjY/sw/HE5UKfmQcmSL40uqFu8Odc3DPkGqXaM1v0dCLTXwtmwBzkGP6bnpuK8y6/BxeefS7snWur/1SxbvhzLl3yKDTv3Yr/XBF0mK9TOAetHL90X1lyea9c3Cyu0Iu1i07bA0gRH3W6EDnegJNogdf24/MqrkZlxZk/DwJOwkwSb+O/TpUuxcslirK5qhS06C+qMEggJOcF+BbxafHwyWsLosELoboC9fAPSlA7Mzk/D+eQwLr3wQvnAiU1VVSU+/uhjrFq5AjsHBWhyp0KZUgAhKulgySF3DeMLFkixwgK/H8JQN1x1u6DpqCJB02PB3Nm4/JprkZPFJ9P8evSi851foGHpEjhcJYj/zu+RPTsLetY37BgY2vUn7H/lFQx3qqC/6g+UzM1BmF41IWrBuru68PEnn2LVZ59gXWMfAmllUKYWQojLhMD6JvGCmfGJpF0U9A73A+01cNRsQb5JxJySfFx81bU4i3zE6cDmzZvxyccfY/XGzaj2GKEvmA5FQh6E8BjA6+GF2uMRqSktOVGvC8JAO0aqtsA80IzJSRE499xzccXV1yAm+sycL5MnYSeBZctX4NN338Kainp0aaKgyp4CVVqJXDXOOoTyWz7ukZwGBbwjQyRo1bBRMlYcKmImCdq1N92KaVMn5vD2bLTDN954AyuWfoqdvR644nOhy5kKITYt2FmZC9j4Z7S5RyBAgtYBBwmaqacW01KicMEF5+MqSsbCw/kQwceLt28PBmr2wzPkhCL3AkSnxx1zDZa9Zjms7RYEvJHQzViAyIjgaInjGT8l92+/+z6Wf/QO1jf0wGpOhYa0S5GcR3vl5Is3Rx7/MN/AfMQwJdAt++Cu2owpsQbMmzEN1918C7KzsuQDJxaNjU14k7Rr1ZrVqBihBzKtFGrWLJaNwOl1S/6QM86RChLlZKynGbZ9GxHn6MSMnFRcfsUVuOTSS6FWH2OJ1wSHJ2EnkNaODrz591fx6co1qHFrocyeBlVG6ZgJ//itnnBI/cZU0qh1aKuEvXwt5sTqccW11+Om66+bUG3uV69eg3+8+go21bSiNzwNpsJZEGPlTrJSgMWZWJCgqSgYYaW/vS1wVG5GRF8tLpo1Gdfdchtmz5opH8fhfDlsCO9/vvwCPt+2B63KSGjzZ1DyVRTsaM8KDjkTj9FkbKAT/qZyeGu2YFFWFK688TZcd81VdADtmwCwEPXd997DvykB294xBHtcHowFMyGyeedYP3pecDjxYHYpNVO0B1sc7duANFcnLjl3EW6+/Xbk5pw5UwbxJOwEsWTZcrz9j1fx+b4GBHJmQ5VPAZApgjwI6/PFS2gmPFJTD1r62uCpWEfBbj0WluXi5ru+g1nTp8kHjU/6+wfw2j//iY/eexe7HVqEz7oYgYQcQKnhAdbpgCxocDvgrd8NRd0WFBj9uPLSi3H9TbcgMiJcPpDDORSfz4t/v/s+3n/zdanpoXbyuVBkTILIBuPhTZJPD1iLDiLQUQtf+Rok+/pw/uypuOWue5CXQzowjmloaMQ//vEaFn+2HA2qGJhnXoRAdFrQ5/GCw4mPNKIiadfIEFyVm2Bo3Y3JcSG4/vrrceXVV0FzBozyyZOwr0lfXx9efekFfLhsFRr8RigKz4IypTAYsLOOoZzTC2mCXQ+E5n0Y3r4Us2K0+NYNN+OOb98mHzC+2LZ1K5770zPYXN+Bwehc6ErOCk5SyYZA54/+6QUTNIUCwnAPHLtXw9xZjgvnTMW3774Xk8tK5YM4nCBNTU144dln8NnW3egyJEJN2sVGlpMKDnl/5dMPloyxkVbrd8K9ZyUWZMXi+tvvxFWXXyYfML5Y8ukneOmll7Czyw532iRo8mYARjbHF2kXbxZ7esHiZULoa4Vt+zKkjLTi8gvPwz333Y+kBDbQyumL8nFCfs05Rir31+KPv/s1/v7JKvSnTIVm+iUQ2HwpoxNVck4/2O/KmihGJkGTkInO/mHsW/MZerraUVZaCp1eLx/4zfPu+x/gyd/+GitbbdDMvhKqgjkQ9CHBvl+c0xDZ7xhCoY7PhFsfjv379qB252ZEhIcha4L2BeGceDZs2Ybf/+rneGdLFTxFi6CadA4ENlWKVHDIA9zTEuYb1JrgvG7RyWhqbUPNxhXwutwoKS2Bko2yOA7weL144aWX8cc//Qk7HAbo51wFRdZkQCX3qeecfrACYbaEREOTlIMhvxKV2zaipWofUlKSEB8fLx94+sGTsONk/aYteOo3v8SSvY0ITL0EqsKzAC0F4KyNMuf0hwRNMJilIXE9GiN2rFyClvIdyC0sQmRkpHzQN8dzf3kBzz37J1Qq4xC68CaIcZlBEeZNY09/2G+sVEmBliI2A+0tTdi14lOoKIDJKyg84zo+cw7l/Y8/wR9+91ts6HZBM/daKDIowGUBOO9bc/ojB7ts8mI2TY7NI2L78o/Q09yAopJSmEwm+cBvhoHBITz11NP42xtvoT2qAKazroEYzvp+UfLFW26c/jAfpNZCFZ8BRCShtnwX9q1bgcjwMGRmZeN0nGqBJ2HHwUcfL8Yf//AHbOv1QphxOZRpxcE2yjzAPbOQa8XE6FQStSjs2bQeTTvXIyElHSnJyfJBpxa73Y5f//YJ/P3Nt2GJnwT97MuBEEoKpSYcnDMHFmyRfRrDoYxPR09fP/asXgqPbQjZeQUwGk+/Oe84X83Lr/wNzz//PGpUsVDPupKS9LSgbvEA98xCrhVDbAa8aj12rfkcXTV7kZ6T940NFd7c3Ixf/vpXeH/FetjyzoZ28nnyoGa89uuMQi4ogDkOqthUNDU2oHzNMmhVCuTk5Z12hYg8CTtGPqQE7Kk/PI39qngoZlwGITqFtspGwzkzYUFMeDzUFNDUV1WgZt1SZBcWIznx1LZldrlc+Pn//hJvfLwM7imXQlk0P1g7y/smnrmwkkWNAer4DFi9IsrXLoffNoCCklIYDeOn6Szn5PNnSr7+/OIrsKRMg2LyBRBCI3nB4ZkMi1kE+heVDITGoGrnFrTv3YLCsimIioyQDzo1tLW14X9+/r9YurMagdnXQpE1hdfOnulQ3CIazNAkZsHS24e9q5YgRK9BPmvNwUYFPk3gSdgx8Olny/D73/8eLSEZEKZdEqxh4E6Cw2DNE8keWLDbWVuJ/Rs+R35xGRLi4+QDTi5+nx+/+PVv8eZHS4F510PMmkpbWeEAD7LOeJgNqDRQx6XD4RdQvX454BxGYUkZ9DqdfBDndOYlVgP24ssYzlsIsWQhoKbfnfsGjowQHgchIgFNuzejo2IHSidPRUT4qRlVtbu7Gz/7xS+xfE8t1AtuRSAxDwKf0ofDYPG11kCJWDYGB4dQuWYpwk1G5BYUQDVO+jB+XXgSdpR8vmo1nvzd79CgSwKmXAjoQ3kCxjkUFtToTVCxfjjVe1G7aSXKJk9BTEy0fMDJQsSvf/ck/vH2hwjMvhpixiQ++AbnUFhAo1BCFZMMh9cvJWJqrxMFxSXQabXyQZzTkX++8Saeee55DGbNhchqx9nAQqd9AhaA3eWDwxeAi2Rap6Lv/A0SCATgpmsJCAoox2m3FiGEki5zHOp3boSlejemzpiJ0FCKc04ibHTpx3/5a3y6ZQ9UZ9+IQFw2BK9L3svhEMxXqbXQxGdgkOylYu1SxIaHITsnd9wMJvN14EnYUbB15y783++eQJU/HOKUiyEYyVmJPAHjHAEW7BpCKBFLQ0vFLjTsWI9zzjsfBsPJ6YPDygpffOU1PPfSK/BNuxzInsHb0HOODLNNpUpKxEbcXlSuXYYoowYlZZMoLv9mg1TOyWHJss/x+//7P/SkTINYvED6/Y+qhoECH7fPLyXsTpbIyIvbL1IiIUClEMb1VL+iGIV7z8/CzQVxuChZg9VtNnnPCcTng9XjP3BvDr9HarpHQQIwhpkxLy0EBqcNfT7F+Lx3dM1SE9WwWNRvW4v+xhosIu1SnaSmX3b7CJ565lm8vXwtFHOvRyAxH4LPLe/lcMYwmoglZKDPYsE+SsQKMtORnpkpHzBx4fOEfQWWnh58/5GHsap5EOKc6yBExPMaMM5Xo1BC7G2Ff8lzuOXyi/DkE7+Vd5w42KO7bsN63H33vXCUnAdMvpAeaHJW/JHmfBlkm4LPA8eG95DrbMGTv/kl5syZK+/knC7sr2/A/XfcjjpDKsSZVwX7hx6FbxBEP6yKECzIi8ZZsQZEag8mDR7nCLbXtuPDDh9USjIlefs3Bl2r3R2AT1DArD1YKi6KGfjwh3mYyjbZO5Dy7N4T6xZZIpqWhp/kGHDIdLL0ISMuJ/bub8WbHX6EqigZU0bhsauycE6kEt219fjWii5oDiRo4ww2wBj92oGmvdBt/BceeeA+PHDfvcF9JxC3x4t33n4bP/7f30A86waIuTMhePngUZyvQKmC4LLDvuQlnJUUgmf+8H9ITWXTQk1ceE3YV/DH3/8fPli7FZ7Jl0DJhs2U6h44nK+AxFgwmaEMj0P98reRkJiMgrxceeeJoauzEw8+9F20KCOhmvMtCFIzI26fnK+A2YhKA01MMvqa6zHcXI3CklJEnqI+IJyTj8ftxo++9yi2tA5QAnZ1sKnZUfkGEXZFGG6en4dHZiTjiuxITEowo1ReJqeEoyzGBNPIALYNBQsjv7l0QoRPE4+Hzs/AjalarGm1j1HnMFw+PRqpbCA1uxVP7+wJbj5RsCSssBCvzYo9cG9Gl2nJ4SiJ0sE/0Im9w0po1ZF45JJUFBm0SNX58Lvt3WNqycYhdGmKsCgEFGo0rv4IWXkFSE89caP9ssLDXTt34Ec/+zkG4oqgZIPE8JZFnKOBFTLrDNDFpKBlxzoITitKSLsM42h+1mOFJ2FfwsefLsELr/wdAznzoWaj9bBZvXmQyzlayFbEsBgEHDbs/uRNLFi44ITNIebz+fC/v/0dVu6shO6ieyEYQoMOisM5GiQxM0GhD0HjtjXQe2xS/0Ut7x92WvDXl17B2x99Ct+c66CIS5drOL4av9+LSVOK8du58cg3KCB47VhV0YZXdg+gX6NDZpgWkaEhmByrQHvdAOpHvBhiTfK8AXgFJTSKYFImBPywuf1w0na3KECrZM0XRbjo2BFv8PjRpnsiXdtoUsJqSOwe2h4QoIGfXgfP4QUlM4d0/xDh8figLirCPxcmYHq4D79c3wEHHe+TrsOMa2bJSZhrGL/Z2EGfS5/JFvpMP13NIbVR/uB1SU0vpWMCoMuQmukesQ8XXbMyMRH3pOuhEn2orarCU7uHYdEaUBymgTksFHkKK16ocdChTlR1WLGhvhvvV1rQNOyCg+6Ngz7HTZ/Bht4e/Qin2ytdJ7svoO2sIaCffP3ofZCaPNK1+eieqqR7ymTGB5uL7ilrBkn3yEv3RToHnVtN5ziu2ko29UpoNOxdLWjeshILFi2CyRQi7/x69Pf342e//DV29ThgOPc2CGryOVy7OEcL+RbRFC4VOlesXIy02Ejk5uVP2P5hPAn7AgYGBvDbx/8HVUIU1JPOATSsKQd3FJxjg4lkIDwBtpqdsPZ04aILLwju+BqwTt47d+zAT372M+jOuwNifDZTankvh3OUkD8TQiPgcTjQXbkDBTnZyEingJ0zoWltacHPf/g9DOYugCJ7mhRQH20tmNcdhYcvzca8MCUUogsrPqvE73a246P6fuyzWOGIicK0UDV0xhBEWRuwNioDP56agisKYlGIPlRYyRUFRDjDkvD9hem4oTAeF8SJ2NzlgNWhw/nT0nHnlBRcRdsvyYvHorQQhLhtqLSL9Hki5s0owMNTEnF+jB+bVTF4dFYqrqNjyzS92DnArlC+UlGNaaVZ+O7seEwzsuBLieTIMFycH4s8sQ+7hsy4Wk7CvEODaDDG4J7SRFyaH4+LM8OREhjCNqsItZTFULIXGY97Z6Th5uJEXFZAx+RGY3qkEgO9lFgFKBGTPnUMLAlLSsL9UhLmxe4d2/DYFiuqevVYVGpGJN1yDSVHT+/qoSQrAueXRCArRIsojYitXQY8fFE2biiIwzmxSmxsscNPCaGaPuSSuaW4vywOF2SFIaSuH9X0UeFpaXhkZjKuLU7AJXT9F2VFIV/jQXWnEx6VGiG6VPzkwjRcmh6KiA4vCufl4t7SeCyI16Cl2YohOveR8sivQlBRGmyKwFDFZikZnDN7VnDH18DtdmPZ0iX409/egOni70AMj+PaxTl2mHZFJMJhaUNfQxVmTZ92wgq4TzXHVUhyJrD4k09Q0d6LQOYUiLoQ3g+Mc9xIzRJnXYXlny5GVVWVvPX48fn9+NNfX4QvKh3+1BI+ETPn+GCBuaCErmgOGt1qrFyyGFYrRdGcCc0rr/4dXX4t/OmTIB5L641AAP60REwOU0lJh2/Agj9VUWJl88OgDaCrqwd/3TiIDi87nxIFmVHwBCJxASVhN09Ow3cnx9BmgZIwP5LyknHf9FTcMjkFi4w+CF4Fzpubj5+cnY37ptHxk9h7UnDX7Gz89Lw83BzNghERhbkpuI223zE9G784Nxf/PSN4jmsSBBysuBIREKPwbUo2bo6WJ27VGnEjO+ekNHwrMVj4NYrCFIWfL8jAtyn5Y+e6ZUYWJYjZuFyencGjTcAPzs/H9+cGj2HXdsuUDHx3fj4en5eEVJ94IPn7IgKUePooWdObVNBLHy7AKw0ywQYxicANszNw38xMPDQpCn7Bi+wCdi2p9P2Tcama7rvIav7icdvc4PZbs0LQQu9VpGXht+fl4uGZ6bhF+n4puHV6Jh5dWIAfTgmHlcISnSYWt9L3+vasLDxwTiF+elZa8NxFERj0i8eVgEmwRDM6Ge68eVj8zlvo7OyQdxw/rBbshdf+BSG9BIHYTFZtJ+/hcI4B5tNUWhimno/t+5uxfvUqaZ7UiQhPwo5AX18vPnnvHfRFZUPFmnIcrYidQASfHzaXF0NOL2wkeuTjTzjMObs8XljpM4ZcvpPyGRyC7EdMyMaIORFPP/usvPH4kGrBtm3Dis8/h27OVfQbHrfEnjEIdP997uCzZHX74QoEbZ/dS5fXT4Hk1whUJjp+H8SQSKgoKFq+dTe2bdsu7+BMRJqamrBs8YdwFy6g5MN8bNpFh4pxGoSogs+HbagDDQp6NqSaFAFqjRKD9Xa0uQNgbUJM4bFwNtRjVbcXbDxWU1IS5osK0i4DLs80Qs8+2juMf+20wh6bgvvnJaAwRIne1v146INduOuzLuz3qJCanIIHJkVITRK9pHtSjmeIwM10LfaefnxY2YkVfWM1kCVkI/hw3T5ssskJ0sgAfrikAt//dA9+u/9QvVSGmGBoacCPl1bgDQu7UgERiWm4NZ/tFTFjWiYezjAiXHBi3fLd+M77u/F4rQOCzoT5UzJxMyV1X3YbBUGForIpePGqUjx5bgySWFTld+CzHR10nZKngVOq7BGlJo9evxUv77SDhYwBTSguL1LBIyjgy05CCRu8MuBDdUMdtmv0uIUSt8tjNQjYh/Dy2ztx78fl+EevH8bIKErsUnGhhzVN9GOEnR4qZFOSl+CyYX11G96qG4JF+TVGYmRfWqlCILkIHR4F/v7PN+Qdx4ebguT1a1ZjV00DtNMvoXvER/E9FqRpDrysmexXFwqcEZD9iNEpEJLz8e/FS9DU3CLvmFjwJOwILP1sOer67FCmlUr9Jk5GM8QAa4MuB4YHFkqERljC5QvAkZuGn1w6CX+9ahJ+XqqXmjGc6CTJQ59z2Zwi/Ik+468XZyJCp6TP+JofQvfK7fVhWE4gg98ruNhYe335sDMOlQaYdhnWfL4cjQ0N8sZjx+3x4KXX/gkk5tKSwwxJ3jOBIBvzUvI/ah8sMQqWGZ8E6KHxmIwomF8qPUt/PC8Nl8b4YWel1uFmnJ0bi7JwJSiWOzmfPxEgX6TJmY4GtxbrVy7HyEgwpONMPF5/41/oUYZSYFIgBdDHDD2bozrj9tsprD9UD1Tk2x1sHl32h1oNjX8AL7aOwMkk0hCOa9PpRVQ8FkVroKIHarC7BYuHAtDmxqNEqnkS4fKqEBeiQwJlaX7SIFYEkpYaDcXBqi76IBFN1Xvx2LIq/HZ1Lf7edKj+CYIVn+xuRK1TDkjdI/jbjia8vL0NS7ulQw5CieDbn9fjr1sb8eSeYQxKG5VIoOSKvgQuKwyDdGl0LR4dXVeoDmbWJ4w2iRoTZmXK3/eLEJRIpETy5klxOCuSEqaRIby2bB/+VONg3boOQ5DCidqKTjRQDqJQaFBQkIAwStRYM8YQOsLvsGHZDhvMqihckcJ+QxYT+KGm60ow6aCl62SoQ0JxaYJ02TJ0zX09+NGH+/BzumfP7uqB/utOSkb2oAiNhDN3Hj778D309/XKO46d3r4+vPrv96DKLIMQmTQxtYtghXpj9evAQjHOMCvkY/0c5WNPFAGfAJPJjLNyozDVrIIw+gye0dAdoN9CN+kc7Khvw47NG+H1TrzEnidhR2Ddqs/RrYuBMlLy0icckQxFExmDuxcW4/mrJuMFefnzhXm4O9+EMCUlYfGxuGpqCm6alILr0jQIJV98wNeeIPyBAKbmJ+N2+oybJsfCpGENQo4fgYI5q8KEs0qz8auLWdArf7cryvDnS4rwo5nxKCJROFONThGfjYAhAh99ukTecuwMW61Y9vkKqEsW0F8T8E6S0xR1WuTPKJbtfhL+sCgVCxFMxE449Hl+vQ5JhWnSs3RHaSwmh3hhDDPhprOL8Itz8vHDyUmY7/GdnM+fCLBgKCQSmsQs7K1tQG1dvbyDM5Fgo86tWrYUzpRSacCV43LmFNyN6oxBZYaXfMzY03i1aoSoZc9DgahCocTe7f1ocLFkSoOSgnCkl8Qi18D8vBc1uy3ooIRmQbT2QDO9xMxM/PicAvzv/AQUsME/aKsi1HRYIYgHlevasbjZitYhO5qHD/86CujUKinRkxAEGDUqWpTQHd6Bi5Ka1yw+aX9vjRMD8ubgB8Ygh65VQmXEOWfl4+fkEx4mHWZD1AiUrMV+RVcTNjDG/uoKPNUSbFonUjJppYSj/IvmA6MsTBzuwKu9dLPpuiMoab1KF43rEujG0m84MNCDf3SpoFFEIEEa/16ANiwSt11QiJ8tzMF18cEmmGryo/HJ9HuN3hjS894+C16s6ENFvwstQ+4xTTi/BioNFIm5sLoDWLt+k7zx2GlrbcHWPRVQF86ha52gxbH0+7iNJkw+oF8Hl79cXopfzU8lW9fA6/KTop0gyD+7oiNw9vxC0qsC/HhmHGaZSa9OdEA4EWH9CaNToIxKxuYdu9DTc4JHQT0F8CTsMLq7u9BFzsIXnQYYQyXHdkKh8w3FJuHeBXn4/pwM3DIpGTfKy62zcvD9aRGI0ZPw+fxweoLe1eETT3gCNoqHjQglvfAz/3L8iH4MmWNw7zmF+PnCbDw4gwW98ndjbdynZ+K7ZSTqlIR9nY+Z0FDA4kspxmfLlskbjg0/Jbl79+yB001iz0q6J2BJIgsYQnVG3DAjQ7b7FNw1LQUXZwog3To5sETMGxR91hzITZ/DApicFDMKokJwVkIYivyi1KTqjIUCQ3V8Oiq7h1G7v0beyJlI1FRXwWodAthAPSoWqB+jp6VoQGh2YsgrNzeMSsIU9thIJfsUfLp9SCgORZo8b9iQtYOOE6G3tODzPg9IphATn4ibskIRzqJ/xyD+3OSTtlvpGQxejRcVa/bhJ59V4EdLK/DDpfvw6Md78fCS5uCIgAcIwDOohF6pgErBFnnzF8GCY+nt9KwfLpa0oUWuEVKONl88gJd9PQlxZBA/X7xPui62/ODTcnyXru3xvWP7ox0B0r7WpkY8t7JFqt1S6U24ZlY6ppOmfpFue0U3lu8axhDdSZXRjMsnJ6JIz8IDF2oq29GsZg1A2aiQBD2bvV1tuI9dm3Tf9uH7n+zFgx9W4uV2BdRj7o2HNCFAG9holGxC7ROFwhACW3gKPl+5Qt5ybDgdDkm7pBFZYzMmpHZJkJ15tTpkZB+M20aXm6ek4cF5ufjF+Xm4N9eMEBK0ExK3kWj6DDqkpYSjMCoUc5JNyDTStkMN+YxGk1qAzRW16OrskrdMHHgSdhgbN25Cr08FbXQi3Z1gU4ATCRtUYUpeIq7NDkOkSkR7Ywt+81ktntttQaXdhY52J/wUJUpNyWUUOKzpostHgnNQTEQSGQfttx7WBNDGxHTM5QuUALLjxp5nrO4xp39gv/QZ8g6C9R0bfZ+Dto/ZJeFzG3DtzFw8OiUaxazazmvHht31+PGScjy9oxPrBxyoaLCggy6IOSbP6PlY/wIfG2I3+LeNVEc6Nzlp6TuP+U5WCgJGrylAQfXodvvYQjV63/Do8WyMYQmRElrfIffHSt/PeYjonwLoR/UlF6KhupKS/cPbzHw1Ho8Hnyz7HPrUfICVdJ9g2zz50G8vaGAOicWCMPqpyBaGWQctrR452bFSM5ux3yhAwcfhTXZZcw/2sx54PFiCNcZ+pEW2/S8SKTbstLXfir98uBP3vLcT317dhOVaFfT06SzRtR/2mVIzYbo2Zk2sCIE9w8zGmD2ypM5+iI1Skjf2+iYKrGQ6KgW9XgF1lRWSrXEmFkvJNzjp2VKGRpIBHoe003uUAy1Y0+eVbF0RGo3H5iVhXrSa7F2J3Jx0/HRGOGKl6icvtm8bBmv9o1bb8WbdCAboTcqwSFwSFmyK2NfWhM3ksNm5tna54WCfQWpmUNjx+vpaPLl2P363uhmf9DhQ19lHz/uhD+zRfIUDNWFqDWao6PlzqhHJXONhHGiY+R/nHMC+EXaF5EpYAaGlGU+w66Ll97u6UTNox57Gr36eleRTXJ1t+Fk9q09XIiE9HQ9ONsI2VpvGIJDvc9TXo9xFR6s0yC4JQxRt99ls+KhiBDoF3TexD3TbpA9XCn50V1fjiVX78cS6ejxbY0Xb4AiWWyjZGnNxwd57BxEpQbTJvon5xK/6HkeEtZ/U6OGMykDV7h3H1Vx5YHAQKzduhS6NtEsakn6iaddBpD7GvmAS6bYN4JPNu/Hfy2rxRoMNA/Td8tOT8PDZ6bg4Qw8riZB0z+k9HopZDo3RfHBQ7Masjx3jp9eSlrDYhPVVlmMkK9mQqrsPiz/ZTnq1C7cua8eKAdIrshGmV0fs1kJ6xa7w8POyKRwOjwFPRvPJU4rfByExB010j5oa6uhWT6xvw4eoP4y3//02NrcPIZBSAkHP+oOd2B/UTQ/HtdMycXasHnrBgY8+qcATuyzY1mtFZecAVtYNotlBD1FaIu5KDkEMCcv+dj8SUxJxdWkiLi+IxyVpegy12ylZZKMqiQhJiME1ZWm4rSQJVxfH47J8OiY7CkUmL3b3e0C+l2TBh0ES1VtmZOKeycHzXJCiR1hkDPJClVD77Hh+mxdXz83EXZNof24onC02dNMD7Al4sWhWMR6aloQriqKQ0jaEWtbBmJIKycFQcmdLzsSzCxOQo6EtziE89VkNXtnTgU8b+rG324a9nYPY2DiIbhIVHx0/d0YRHqPzXRwbwCZlDP57VhpuKk7AFG0/dlIQMBAWj7tnpuPb9J2vKIzHpQUxWJhggLub7o9fQFRZHp6cmUzbY5Hr78FuKwkoc3QRqfjZeem4viAB58X6sLbDAYfLgEtnZeCeKSm4uih4fxalmmBw2rDPLg9TfCpg90trgKpqDWZMn46MDDb599HjdDrxm6f+CFtiIQQ2stQEczbM07OmiNmTcnB3iloS850tfqTH6Mj+fGgs70KtQin1Q/H5FdBrwnHTvCzcSfYo2UBeLKZHq+ActqHeKUAniHArlQhPScEjZD83kv1cWhAn2X6hAbDQM9XDBgowGpCVk4irQhXwuuzYUdeOPR4TFubHYVKkHpFCAP3tw2giAU1KiMOt01Jwq2R3CZKtXJhhRrzoQ7vFgWFBj9yEZDy6KB0XJRiRYtTjrKlZuJ2eO/bZZ8eq4XCOoNYOCqTk7z0RIFsSdCHwd9YjReXAjFmzYTKR/+NMGJ597jk0iGaIyQUQpJqwY4XV+Djp2TJiblY44lRKxCWEoSDWjJnpcfjWpGScG6OVgv6hllr8bMMQWllBFvm1ngEBZ+dHI9WgRgglM0qFG8uX1GCFlQWDAjwUSWblxKFYr0REvBn5MZE4Ly8BVxQn4+apSZjq78DSrgCKCzNwdoSKkg4vaja2YLlcaPdFZBVn4Sx6rqFUoyAmFDOzk3BWeBc+bzs4RD05jDGTNcfi9nlhiKBXA5Y6vFYbQJcvBBflhCCEnv9JiaEoSIrDFQWJuHZyCm4rCIN1Txf2jWrdKPT3wSHq/WhubMR7XX5KjPyYVxiDRI0ayTEKtNV2o94fietmRSKBLtNjt+KZXT1SLZUYcKIrIQXfilRBp2FNK0W0t1bjp7ud8CtJVinR7TXF4LIELYwmI6YnmDEpneKAokRcNykFVyYK+EfFAML0caTrJpgoWRro68VLVcPQsISSfJ9JF4vvXpSNm/JjMD3Mj9UdzuOrISM/y/RVX78ZC845F9HR0fKOo6OrsxO//+sr8GXPhIJ182CJ3USE7oFXb0AhPQ+XRJEWDVnw702V+GOFDZXdTrgDOpQkGRAeooWJ9LqiZgi9lCyxCYYnF6bj4RnJuJp0hWnFBelkhx4P2vqcsNFPkpQQhVvn5eLbZIsqnQahySn4CcU458crMaL1wxgbh4XResSoveix2tA0okE66dX109NwO4sNmUaSpl2cZUay6EHXkAsDlImlpcTijnnZuDXDiIhwE8py0nAvxYCXUgx4fooRwogLbfR8BshmTlUodEJhLshohrt6C937KGm+S41Gasc7IeBJ2GG8885bKB+kzDqlCIKGddc9sYEuK5VIz02VkjDWFF1BvkgMUDBKiUp1jwMWemiYs3NLSZiJkjD6kbRmLMiNRGlcGIrZkhyOPIUDy7odsLl98GZl44mz03BRShiKaD9bihPCMTXeBN2gBfvoAbM5QnDtOQX4wfQEnJUYPM+k1CjEa1UwkaoqvHb8dXsPJs3Kw4N5ESiOD4OuowVr6b3Djlh8/+pC3EjBaHGUgHd2dKLOE4AoP7EB+k5FM/NxHyV1rHSmpXIvfrCpD5XDwSYqdnJGzZZhNDjpYWETU1ISdv6CyXg4PwKlkQbEpCbgjlx6TdcUP9yAl9pj8OBFeXi4NBZz5GstjjNjcrIZheEKdFQOoi0yC08sjMd02l6ksuLP++nk5NhTppbgLzNj6FwhMHY04x+NPlwwvxQ/nZOERSl0rHx/JtG5SqI0sLf3oMZ1Cl2PoICmaSdK87JRVlYmbzw62BCsTz71NMSc2RAi4pmhyHsmBqxWNjzEhJvOSscMQwCtrX34/U4/zitm/SApgSZB+6AnAC0dZzaF4pZzi/DdqXGYxZoLMhug4G0GBUkpugAsHX2o9eqRFJ+Kn1+Qjdtk+5FsJSECU8j2Y/1e1NUPw2I2ImdsElbbhkpFFO47vxDXpYWjWOVD7c4ObFAYUJacjl+cn4zZZP+jtlKaFI5J4WoM26xY2aPA1PQ0/GhBAmbT9slJkTg36+CzOYXsNdbvQmOzFZ2sZkH+7hMClQZiTzMShRHMmDYNUccYaHG+Wf7y3J/QHZoKZVwmCcuBup9jgk2AOjRkx/4eP0IijcgI1SHObKLnwIQkowoKCu4q9jfiN+tasNrul9RRoIRE4bBDmZWCiymhYNOSwd6FH6zuRbucpCmdI9jf64c5Ogx5ZgOy2XNFz3VpfAjSKNdvqm3Gx5SETZuci4XmYOlF68YmfPolSRj73A6vEXPSQxFNSUxsFHtejTAP1eNvdRG4bQHpG3PtpK9Pbx1teZCAh+aRNtAr30AdXqwR0NdnQ52oQ3FsCBLNIcHrYj4nygCzZxiLd3Rj/5GSsLQ0PJqqpZcK9LTU4d9tAlSOETQY4nF9khoavRlTDU58UKvFjWdFIIrOoPHa8OQ2izQSZAD0PpsZd5aSTrPESHBh7YpK/HtIkAoGWUuAlv4ReEwhyKNrSYoIQxn5l1LyTQXhOngHLHh+3zDCDUl4YIaBkjgFfNZePLvPGkzCyPuEazPw+yuTMJPus36Q7ku979BJqo8W9qN6PTC1l5NvmIKMTLKxY6C7qwvPvvQqtJPOgWAKn3DadYDDkjCvYxjbm3qww6qAw2ZHj6hEVmYssrVKGL0OtHV0Yw1CMas0B7+Zl4qLmd7IWsF0pTSaYkybA3u7RhCfEYd7z87GhRTH5dJzMiMnQYrpyoxObKd4K7GoEN/LJi0yuVDR2o0NfTrMyk/H989JwVlkE6PnLUmkY6I16Bu0Y5vFgezsZNw/LwPnpIajjBK9RblRmCYfW0axZLbGhbo+qxSfqciuJyRaPcSmvcil52TqtKkwGidOASJPwg7jnX+9jhqnVmpjGmxXf2Jh/q/No8eMtAik6Ug44kNRRMFlWSw50ZFhtIwEpGZangNJmAIheh/W7azDn6tcCCVhjNepkUDZWXVlH5qcLElSI9PgwcadTXh1Vyv+1QCkJZmQGmJAgWoY7zTY0RGdjqcocCxmvaNdg3htdT0WD+owKUGHUHLY8I7g1d3N9LCbcWGGCRFKJSIxgNcaRtCdnI3/mURCR8ow0FCOn1fbMeILfheGj673nMlZOJ+SGrXgxfalNXh/2Icrzy7F/ZODNQpXFiXiynwz1M1DaPYFUFiQjnkRarrFOhSFqKShiJfQvj3tnbCnFuN304ITXna3NOJXG9tQrgnDtAgKCGLMSHT24M3qfuTkJyGPMlm9ToE9W7rR7Dfg9oWZ0kSjgnsIf/qkHjuiMvH0pako1JFgN1Xh0ZWt+KhVgZK0MKSTqKX7+/B60ykckkGkwKVxD3ITYzBv3lx549ExYrfjqT/+EZoyJmSsLHciCZkIP9QUKKXgsRkRiAi4sbeuBi/Wu3B2WTySdUr4fU4s3zcEm8GAzIJsPDkvGtF+Jzbsq8D31vaickSLyamhyDZr4R/qxed2LW44uxgPpmsgeBzYuK8OT1da4TFTsh2uR2aEFvZ+C5a7tcjPO7QmbJc3FPPzE5GvE2HtG8KGcgt2UsZkUgagVLiwaU89ntnejT39fiQnmpFCn6nzOLGucgTm+GicVxCCUIUSBsGNdXtq8UKDA8ZIM5L19B01PnRZOrHBqqSAR/76EwHWZ7G3FRGufsyePgWJiSdnYCLOyeGF55/FYEw+FDEpwaD5uKBEghKtpu5h1PQPY0dzH9Y20LNW10OLBUsrO/Duvk6spCRNyhtG36Xwo3PIgbr2fqykY5dUdmLVoCeYpEn7RUp2hlFFy67WfqxpYOcLnnNJRQeWtDhg8QBWCkj3tfZhRV03VlnsaKcTfJmXG+y3UXI3RNcpX2NtNz6uG0bTiBddQ8PYXE/b9veiom90DiE32oeHsI6OXdowjPphulXki/bT962zDGFTUy9WSdfF3teFdyst2DbsCfabPgzR5UJrVz9W0GeubLWhxckStQDaKKlr7BvEGjrHpp4RVNN3brYOYyP7rrV9qBlw0b0LJnXCMCWnw1ZsoH2fVXdhaf0I+mmPtI99CCWv+7psqOoYwMbGXrovwWtbWtWBj2v70U7fkwQdjUODWE3X8VnDABqsbDgVSuKUahhyUvFArh4B6xDeWVqHjR7lIc0Xjx5K6twOaNorMbUwF0XFJfL2o6OpoV4aGdEw9UKpNcjE0q4xHJaEeUas2NLQjc1DpAWKAKyhesSlxuFsk4Kk3oYd7V1o1yfhsQWZWBSuhHOwHx9ua8bbFh+iokORFWFEut6Nhs5uWIyRmJ8Ri3S1EtFGHZLJ6nY3D2BFgwWbXApER8dikUnA8FA/PZN92GsFJehKyo2d2LW3Bc9ta8FOu4iYaDPSSP+0lITtrRsAEqMwPy0KSXTeEJUflfua8HS5HS6TEbkm0qtQAfstZIPdbqkv4YREoYK/tQppRgGzZ81EWJhZ3jH+mUghwkmHzcPgoEBX1BlPSgLGUCgVGGxtxa9W1uMDqcG3CvExUbhiahZ+dmEx7s/QIpwCQVZrMIqtqxZ/3tqA59ZXYXm3S+qTxTL/IkEBPQX1enhhDyiREBeBuVkxODfdiFi6fHZYSHgY/cgCjFlhSNCyB8yPpop6vLi9Cc+sKscSizfYz4p2CWTIHdUt2DUQHEo+Mi0JpbTvsuJQxEvRpBubtw/Rky8eSMBGOdikLwBXvwIBn4j5pWm4qSwZ15fKy6R4TKaH/BCjU44ding/Xq5X4vy8UISyfZ5hvL6yAa+wa13WiUoXa7uswtSyWKj9g3i+1SHVtClM4bguIwB/VALOiQ6WAPd0NOMTGwXV+Qkokn5KSmx9GqSHG0E5JoJNuhXISjnVpf0C/IYwdHZ2yn8fHax2tLevV6p1xIRLwAi6XIESlOiCOKRQsuOw2bBrVxeaXQN4oYsCCYUaSTGRODfMD79egxiyY6mPBP1OKkGP7Ag94ilhkvpbaUmg4iMRScctymDNDgJ0P3vxwud1+MvGFvxj2wAFMoAmzIiS3Ah42T37SkQEyDDtdG1+QYfM+Cgsyo7GzEQTwpnBCkpEabXIpuMk05Hwo6XZglfpc5/Z0Yn3Wl3Sr6I1KBAWSVd18MCJAdmYQL5vwOEODvDAmTDYSLe8bjdENjcYJdNfC9IVg9aLhtZuvEvB3d/I/zIf/Mr2ZrxW3o0tAz5pMIixEsBqg4Zau/CPHcFj/1Fjg0gidvAYARoNPS9t3Xh7d/Mh5/zHPgt2WJlvF1Bd145Xpe3tWPsltWCjqP0j2FTVdvB8O1qxVHKtw/hsl7xtH/MGo/TjPfnY95vkTXTtOrcd6+k8/5SvX1p2tuHDBiss8mGHE+jqwmt03N92tEl9s0Z1TWntwVvyOf5On20TrVgsnZe+a9UAlAfEUySdHcJH0rHN+Pvubuz2H6aPlKw5BwfwWXmLfF+Cy2t7O7C83UG/gwiXpxdvsu303d9rGJFq2Zgf0mgElJB2s1EerQMWvNajBOstcNyQXbnVBnR1HVt/ZtZvqae3l+JktdRsbMJp11HCbq2d/u+Xa/lEkWKhgA5ZIWbMiKBf1e/Chto2/HxtHZ7d2I4P65heKJAYa0ZxopF0Sr4vdKKRQQv+uWY3Hlteg2d29mK3VQHtIYZBp6N41eXyQVRqkU6x3/zsWMyMNyFSCoEoHlSqKJFjKnUQm6UL7+3Yj6fXNeGzeitZH0GxpJbVJMnXPSGhaxcNoegdHIbTcaQik/HLYT/rmQ1r3iDZoVQl+3W81ZchUNLkwu6aJjy5dA/uWNGCFf2sI7QK6clJuH9mEuKM6kM6KfdbBsBGv9WJTnQ7vNLABAw6Cm4hBneenYHrKbi9fmoKbi1jVdhqydkGzyBIicp8c7CtPoW1aCofxrColEaDqhxys5wqCH1vo6MPz3SMwMaCXWMYLopIwC0JehhJ1wPDvXi1S8RI4D/bDo+W7LHP00UFoCGVfv3zPfjux3vwTrcnOAEn618mHTMWL2o2dGCJNBTxCFqGo5FpkIMI1wjesvik9vKuLgfopfSdVDoTxcQq7N3ah0ZWEChoUVoUgYyiGORQoinQp1Tt7pHE85wYDYKtgwWkZWfhx4vy8JO5cchmykSoQ1nDlFMNJWJjs+yjQLLNY3zPeIJdeoROi8ty9NLvwUYQWzR3Gv52SSGukpofCQgLC8HMbB30FETMjQgWgih1eswszcOvzs3Gd0rDEcMOVWoQRomsXhGBFPY7ij50Wkew3AqE0ucMWZwUghEUNGg0bLiNr7pvFOyRUsVFRuD2eTm4gbWtL0vHXaWxKIkxSKPgMph9H1I0Q59bSza71k427wAsbWTntJkdJ7mQiYZ80exuTWhBPgMRKSBjSCH8CTE+AWqVEgY1G/Z9zKJWUjB45PMr6PiDxx1peHYBKnbOseeTjj1YY8w+M7idPie46cuh76ql9x883+gQ9ZRYHTj/2DCH9TUNbtePbbFJidih52GLko75kibFyoPXesiw+KyGXD6HQboPBz/z0GthjNlH5zlSksQGEmLD8QePkRe6Vp3U5JDdAkqa5ffrVaPbaO31oWV7BR79ZC++t64LbXTywz/9mKBrY4nysc4lyq6FFXAzZRZPiG2OT9iwUrF0g7OUwbvM5nv1unX0W4Uggn1tnxtNQ040MT2x+dDeEdQLhUYLLSv4P6DvIobaBrF2uwVbe23oGPZg0EW/3Zhb5ydRikqIwj0zs3FPYQKumJSCu8viUWI2QP2FA46J6G+zo6PbTxpsh9Nuw5B86LH9ouMQgSyT2TyzsQmmXV/rmTzdYD+iXq8H3BRRSZHXiXcYghCAwxuA3+NCdXM33t1Wix+/X4VPOl3SPEXm+CjotOpDHgqvjwkBuTC6Ph/tGd3HRkX05CXjmhxKQChxGWirxo8W78Ctb3ainLKo0VJE9i0G6cEMPpv0MGvoBW1ko/wwex37WQpNALu39qNRGjFKh6nTklAWoaTgU0RnQxuqRD98h90Wpj+rrG555EI1MotMlBwK2FjZhle3NmL9oPeQ0phDoe8wxASFDbXLhiL2jBliWEBI8FKlJpoHni0SHYbW0ozllMCKooD4hETcnBkCEzvY1o9nmoIjQfWzLy29z4Odn+/Fo5/uw/doeYyE6bsf7sYDS1sP+f4nHfoSgtuO2Nhjr4GLjGSjntELJ0sxDvsRxjWU5AiUOBkTcF5I8Lo1OgMmlabiloI4XGQORjBq2pafHItojx8DsiA5rYNY/OkuPCj9buV4dPFePPjBbvxym4XEjQ1MQweRrbF4yij91MxORn9RJvtfGEKNQYQvYEB6eBJuzDYhRunB7v2N+NYb2/DrDY2oH2O8h9qKCDt9Vg8FQ0pWO+z86pL78Y7odlKCq0FIyBGGmOOMW0xGI+UEKoguGzlLZrATyT9wTgYBvx+1Na14dUcrPmlxwvAFyfNRQ3al9bsQFcXaKBw9LIlk7/H7POTQyT7JX59usFovu0eNJFUY5oax7yfCNuRDXzd9XQUbnIYR/N4siZX601MYI0UyFM8oD7sndJsBF8VFKhYTHZqAsXN7/QaUJCXi6nzWSsmLvZVNeOiNrfjZ9nZUjLa8/Q/ofU46t5POp/CRJvsP5n0THgX5PjvCQwzQ6aSp1ycMPAk7DGOYGSqfGyJzGIc+FycA1nTAjGvnFOAXZ6fiyvQQGNw27BvwUJJ08MMOz+THPp+HXBJFfGKCFia5RK+now3/2tOGrQoVzJqDJXjsAd9p88IlPXEqFE2JRqjow0BYAiZHaoOjuB2IWxUwdjVjWQ8lhQEFkrLNUlNEwe/AB3vt8HpZWcOhsNYvtTv60SxVqSmQnJ+Hx0ojUWQKwGcwfeWs/XJOJSFgELvsbDwtwhCKO7I10hC7YfnhyJJqucg32QfZXihUNrxeOyKNLKQ2R+HiMJW0v7OlAVulqjdgW5cbwXE36Hup7HhjfS2eouUP69uwYsCNFsvYpiqnAhEaSsISExLkv48eLTkXg9EE0WE91CjGO/RTCHoVIgtjpBHCWL+sDVt3478+LscjlFT9dHUd1tjpOKUaKbGRmGXwYWtPsM6UCZDN3o/nV9bg92sb8NddFmwfcqF/sBf2wDCqpXGvVUiKDsMlCWQ9dHxCVhikFNfvwwglrEGr+XJEqMlOTdKoaaBnv6atE+9WDKLKpUP8lxTJM9OVnjP2ERPoJzkizKY8DoTrNQgNlRoEcyYICiUFbGw0Syc9SKxWbKLbIueEwGoex9aQHTfMnsiudBTFx8bGBrcdAyHkT1Rko5C06/QJO1kNtMPlhlOhxoyyTNw/MxEFrKmHz4Hd3QNY4xiB2z+AXnbz1TpMjgvBdAq4FGYNCjJ1knb4XSOwj1jptox5aOnlF0s8K1DXI0JjAGvlCNGL3U3d+Gv5AFrdCkTovvjhZ+cMnveLj5mQsC/lsCEyjOJNVpEygTh9noYTRIjZDDVLwrwnY7AG1i/JiDl5qbh3bi7+54ISvPit6fjXtXk4P1YjNb9wdHcG5+j54ifwIPTrCR1uCkaDf8ZnFeOPV8zEm1cmYJLpYHMQgRywd98AmpzBJCkqKwu/uXIq/nVVMa6izz10ME8BarUN/2ocgcUvwkgBmZquxT3QiQ/7WRvnI4S05FQNlhb8sdoOFkurjZG4Z14Bfn/FVLx29STcTImi1MyC1RhIb/hilEIAH2zrDlbZqwy4fGEJXv7WVPzlvFiw7j90JVixs1tqzicISjTtbUfFCN1ZpR6JrL9vwIF1W61Qs69K1+3a14gl5PdZoJ4/uwR/v346Xr+Wlhun4cVLC3Bv5il+BBT0u1ASeayliQxWExoeHomAjSWhR2Ef4wSW+0tNEbP19CuIGBmyYunqJvxtZzP+vqMZf93dgVc7WdIlwBweilmJAhr3tWGPF9CEhOLCc6fgnRtn4J/XT6NlMv64KA2XxotoG3BgcYUVLnpfTGw0HrpsKt64phiPTg4FGxvJOWjFpup+aL5ypldm0x64/GzyVEKlw6zCHLx883T8al4yMr7KaE8X6DkOuBwwkr8wmnhN2EQjNCISCucwBYZf3O6Awzk+SG/8PoiO4WCLjGNEpVLDaDQgYCcPO3Gk6yvRm6Nx3YKZeP2aMjx5bjquytBDjwDqazvwFiVFA3o/KnsH8XEr6ZtCg0nZafgjxTOvXpqFb6Vq6Fb4Ud86iM2NbtKpo70xLI6yoc87jD4W+wlazJuUjb/fOgO/nZWIwqNqx3v64aW4KIQSMF4TNsEpKChEDCiqZyWKFOSfWASoFC7UDo7ArtYhIz4KlxUlSTVicZSlWFqa8fgmC1pH/FCoVQiRBtIgcVUHq6NZBZmatodJl8XatKugq2/Av+rs7IoRFhWPKyel4iKtFW91B0emYo3VWXMAfX87frW9G3tZn0W1EfMLEnF9mh8rpOCX0KsOVHmzUtX2fe3YMeiTmx4G0FzTje4Aq8KWDjkM+l4aB1Zu2of/2daD/S5AGxqKGdmJ+FZeNIpNdA10jj7WvpkuivkNrUaN4Ncj50zr0dOyIZI76+rx2Jp26VpDI6NxdUkSzo1UQ3CP4LMN+/B0rUtuWklB+lAnPuhlNWfkmJg1Wy14uVtxoNRPOdiNpz+pwccWiui1IbigLBk3TqaFDX8fpYKfNco+hYh9HZKzmDJlirzl6FHR7z2lrATK7jopmZsYsAEvtIiKSMF1UjMNQRrl8UO7ChFsegRalG5KqKpGpCYbKqMZczKiYaxrwq9XtGGbTYHwiAhcNTUFN09OwlW5UZhqoFScDNPrcmLtrlr8qnwI/UoNspITcF1+DMooGR+wdOOF9fvxflcAWkrC1PQ5DKOOnhkFJfBk7EbJVwsIY/0p6LmsGujCyw1uurcqpMXH4M5JcSiGA+ulCVjpuVMroCLDYs2+pHoigWyXtrHnktUPq2k7O6WCnjk9PaOjNjghYKXTFGC5LG1IiI1FTEyMvIMzUSgpLUOovUuqyWV2zeGcEFiBsM8Lf08L1ORLc3Jz5R1Hj9FkQlFOFgQLm/l6YpdqsX5taopfGCqdEWVZKfhWfizKwtTw24awZHMV/md1KzYPBRCiVmKobxBvbq7HvzsoMDKYMCUnAZelhyFB6UVNbTP+ur0T20dIO+jemmRNCiVdYQXJoxoikt5r5ZE5wphuajzY2dyDD+ucdIwSmYlRuGlSPPLcDtS0syBPAbOkVyLFc6PnVSCUaSE7Ly2s/yWbYo/p3Wj/wgkJa4o1ZIHXOoCcnBzJ1iYSgsh7YB9CfX09/uueu7AnYS40hWwIcdliTxCBgIqCnBDkRbDqZEqu5O1sBKHe3n5s7vXC4w/AHxeFi6L1YN1lbP092EBJhNUTkCbeKwvXQCf4UF/bh4oRN7Qx0ZgVa4BZbpboHBrCVr8B0+g4o9eOpU022D0+OHQhmJMUinRDsKliwDWCLcMqTIrSQh9wYUndoDTTOnsc7TYj/veeWbg7XQud14of/X0r3u71HWFgjYOI9B2EkDBpjqYkikIPjJhIt8/r82HQPoL9nSPSBNCZafEoDVXSdfgpALdgB2VVB8pvxQCcagNmppqRTucJFhCJcDudKG/tR4ObnMuBc4swJ8ViYYRaupduSnA+bHGwQRcP4PUqkJ4aiVKzRgqOJeh9Hrcb9Z39oPj/1BDww79zKTL6KrBh/Tp549Hjo3v4zrvv4MEf/Az6u5+mbIC+8QR4egMkumGhEViUoiFRoGR80IolrSMwyM1UxQCbhiEMc3MMMNEXGhm2Y0P9EIa1ehSmhCPHSDYw+qAEAhgmO6rutqKZNE2k5EEfEoLZiSGIlkfNYDUBfYM27O2yosdPNqbXIiEpCvMoefN5nNjf3ot6ej7YPHl0SXANj6CyYQBVJKyxEeGYH68NDgog+tE94ESvW42CBC0cg8PY0TSCQKQZs1L1MDDb7R3G+g47lIIOiRG0PZns0OvAfks/dvezfo7SJY1/lGoE2vdD3PwufnXfLbjjzjvlHZyJwoYNG/DA/fezNVoMAAAvdklEQVShZ9EDULJh6k9raffD5pT72lAQZj586LgTjceLIVmgVGq13AVAJF0LwEfKoyVBmiiP+jFDPlZ02qDY8j7mxarwxj//Ke84eoaHh/Hcc8/hqX99BMNtvyFRPhktjU4B9Ez5tDqkxYVjZrA0/ACsaaJthGKcLhsaWEE6iZZkE6R5bLqAxBgzSiN1MNJGpnw+rwetPVZU97tgFQVEmk0oTTQjjmxrpG8Y5e3DaGWth+gzvSYjChPDUULC5HHYUN45RHGLBqnRYZgaT+dkJyS9svQ6YAMbaVgHX88QdtE5nNFmTI4PBRs42mYZwp4uO9rIdlPY9cSHIIQsuILOt6/PJY2sOeFQaeCv3ghjxUq89swTmD17trxjYsCTsMNgge6dt96CJf0qaGdcBsFAWfUJ7b1IyQYlHF4652htDoMVNrEaKzZPA3sMBEpUHHQM+2hWksFKKqQHlxIdD4kBe6taHUx02AAdbvlYBivl19IRbDhvVmpjIGfAzs+cgdsX/FzpUNqoVVAywo6js7ORnLyUrNm9PmQUFOGVSzIxhRyNu2MfFrzVjnbXfw5NfzjMEXlYQjX6GTLS96P/WEkac10+H30P6XPZM3SEkbDILN0kcGPPw5rjsfcfHA4/iJ/O5WLVawSrSTP8R7U+OU46F+uyNtba2TWxduqnbC4nuv+aj5/CLRcvwuM/+6m88dhobWnBlDnzob7iESiTcqWkZCIQoMTI5Qv+lkr6jQ7vo8AmJnV7gwNbKJj9Mptl4kO2TT/dIcey/Wp6JkZ/Zjby1qjNSdB21g+SHSPleXQeNkk6s5FRG2LNIj0sgKL3sOeFNVlkg8/42LMkP18MNpy0QmDbg8dpWVbFjqE3smtVyc8mGxCEDRnsZt9R/mwWF4697nGN1gDfjqUosdfi5z/+PmbPmiXv4EwUHA4Hzjn7LDRkLYImfw7LFiTbn5DQs+Tw+qVRdQ98BXqWFZQQaMlhU5iJH14SiQR6Jt0DXfjxpl56/k/Sd6XnWVmWi6eSSFVFL2oqKvGXJtrm1yAtOxIFvkGsaHLBLReCnnZQkisO9yFi5V/w8H13447bb5N3HD3MR29YuxYX3XwXzDf/DEJ4HG2Us9qJBtmZpBNHkF6mTUwTDo9RpPfQPSCTlnSDweIPpoVqlmjR36yLhVQAT2asoG0apl/BQyUtZHrFYhhJr6TPOIJeSXEi0zs6jo5hTRxZLDmqjyyWZBN5M1Nl1+ORdYzpH5vE+yQ9QScXvQnuJS/gwmQ9Hv+fnyA9PV3eMTHgSdgReOaZZ/Di24thnXEthDj6QX2nuM3aNwRL8GZNK8CVcVqkJsVgFpt8WRzB39/eit+QyLABE09VvnL6Qc6uuwnKD57ABx9+dFzNERks0PrWjbdg3wilDOd/B/BMrDkxOOMQ1hTR64L1kxfx7amp+OUTv+MDc0xQHnzwISwrb4Tz7NsBnYnczhEixfGO34chQyTunJKAyWYNjHJy4/P60D80hI0VHVhjLcbGnyYjjbaLXbXIeK2BgsqTFMqwQpUrF6Axj7Xp8mHL58tw1XYFdFNK8O8pEYjxW/H+ip34v2YKpg8Pvic6LFOg38NTsw2J5R/gk8+WI+E4BpViNDU14brb7kJ3VD7EOdcER6HmcL4OlMTCbkXfm7/FHx6+A3fc8x1otROrUxyPqY/A1ddcgxQD4KrfDdFFjoI5ojOAgF9EZmYSbilLwllSAubA6nVVeKXJDaefG8vXQ4C2eg1KJk1FUVGRvO3YYQ7mvrvvwHDlJoiWpmAAzeF8HVQkWu01SFSMYNrsOTwBm8Dcdddd0PY1wttaLQXPE0+7AhiOTMLjFxfi+7PTcWtZIq4uCi7XTUrF/XNSMcfPSvsDpEnBpMvBqspPNsHZ/SmnlVtd0H1VREdgWpQeqbHRmBHB6sJPR8h+PE6ENm3FrLPOPu4EjBETG4ubrr4Mg3vWQLRauHZxvj5qPQL7N6EoIRyTpk2bcAkYgz8FRyApMRHzzzkXUT1VgLUHrL/EmQAbznb9pnLc/9FefPfjvXjgvXL8YnsvmgPyvBac40REoKsB3v3b8Nj3HvtajkKpVGLunDmYXFwE5e5lbMIteQ+HcxywQMgxCGv5epxVlIXzL7xQ3sGZiJSWlmA6JdKm+k1yv5uJ5LjJT3qMuPusXNyfZ0aCBhjq7MIzi/fifze3Y02/D3arFZ+4Dk14BEHEiMuLIacXg7QMuXxwBHMmmQBcHh+sdAzbP7pY3X55bssgLvfo9gACPjpePs7GRuo9HNa0bNMuXP/v7bj1rW14vHZMLZjfD/vY66Fl2BNsWjmhkGrBvPA2lcNk78Z3H35E3nF8GA0GLFq0CFmxEVBUbeDaxfl6sGayA50Y3rcJ119+MYqLS+QdEwveHPEL6Ojqwl233YodmnToZ1wMUU2BMzne0x02QIjU1plZBTnhI/XB4hwjCgU0y/6CYrMS7737jpRIfR1Y+/ply1fg+tvuQAhrXx+TFiz15nCOEVFrAGo2IbR8KX728P24/oYb5D2ciUpFVRWuv/oq9E+9Fqq8GZL/mRB9w8QARlIKsOW6DORQAuYZ7MA9H9VhU4sNTqMBWdGhSIIdKzsd5O+KsPJHKcinzKe7thYvDOlQbAjOE+nzOLB2ezXe6VfK06+EYtGUOJwdo0PYaAfgACVZQ1Z8uKUZ271KqQ/pwtmFuDxSBXtPGx7vCsWPisIQqQygobYcz2XPR3OxkS7RjbWfr8CNOxXQluXgV/FqBEQf6qqr8UqzXEMXnYj/LolCjik4qJRIiUy3pRfv7OpElU8VnK5lIsDsZsQK7ed/xcUzS/HMH/8o7zh+nC4XXn75ZfzgyWcRecvP6aeJ4trFOS6Ydokb30ZS/3489/snMG3aNHnPxEL5OCG/5owhNCQEbrcHu5d/BLvODGXE8VfDTyTY4CBsUIHgchq2cT/V0P0UqjZAW78Fz/7pT0hMiJd3HD9scIn42BjUVFagZuNKqHOmQzhDams5JxCVBsJAO9xbPsa186fhtttvh2GCTXTJ+U9ioqPR0dmBilWfwh+fA4UxTN4zvmHlwZPmFOCeRC3Ughf7tuzFL6tG4CUtgs+HnkEb6qw+aSAlUYzBbfPCEKUQoFDqMDszGqUxIcinpTDejNJwSkbLh9DFjkUYHrysCDdlhEr7pSU2DGWJZuRq3VjcaIeXfOrFCyfjrsxQlEYYkJiWgJszwujYUJh66/AvfRoeiaWUTvSjpbER73UroJlTipeLIqUR5jQWNgQ5+XpDIh6/Ig9350diUuzoZ5kxKSEUWVofttbZYCNRHfeyKteCCXtXIMXXhyee+B3CzWZ55/GjVqkQGRGOXZs3ob22CqrsKXQveJDBOUbUOijbquDZuRSP3XM7Fi5cBI08bcBEQy4W4hyJq6/5FhbNnQVDzVrA2hccbYrDOVpIyMTOOrjXvoX77r4Tk8tK5R1fHzYXxo9//CMkakUodn4qjW7H4Rw1CiUEJwWEGz/GlEgVbr7xRgqOIuSdnInOAw99F6WZSdCVL2MjWpAvGv9Sz8bVKA1VSyO3AV60VjigJR/Krjw4qqkSuv8Y+ZZ8oVmHrvIaPPRRNT7pZ+0QFUjMTMX1bNQOQsAQXtnfhn+vLsctb27Djf/ahpe76J6otJhUmoLL6RhWT+iV+33BFIFropXo6+zBG3tasXKQ0oQj5Qny8WzkVzZCHas4OmtWJu5K0iMkYMeyj7fixn/vwE9qnVDpTZhXloabE0VpRNZxDfuy9J18dTuhqVqDBx98EOlpqfLOr09qahq+/+gjCLN1QlG9DtBx7eIcA0ryEFYL+lf+CxdPL8GlF18sTQQ+UeFJ2JdgNofhkce+h6JoE8S9K6SghU1sx+F8JSwBc9khrv0Xzpk3E3fecYe848TAgpLioiL87+M/g7d6E5T1W3kbe87RwYIsNrT3vrVIdbTj27feiqLiYnkn53QgPi4Ov/jVrxFmbQOqKNBloyQeMZMYX4wt5vTajvJ6bb343rpmvLG7Cb9uGpH7eamREifthccTgMIHhMdE4tz8BFxVnIgpIXKTcI0WhxeNiUovKnfvwP1Lq/HUunq80UK3Tt73xbCpLDS4JNckfYcAfZ4qis3PFIZ0BZtLjNAaMTWDzj/uW4YK8Pe1Q7P9Q1xzxWW47NJL5O0nBrVajQULF+CBu78N+5YlULZXSTUbHM5Xwko6AgGMrH8PpZFq3H3nHYglXzeR4UnYV5CVkYYHHvgvRFgq4dq+BILXSXft6/Xp4ZzmsATM44aStVc2CHj8F/+LkJM04tzF55+Lb193NfoWvwihtYLEbOKNDsQ5hUgJmBJi/U5oazfh+qsux4UXX/y1+ylyxh+s5v2/7rsXws5P4a1cT1so+h/niRgrXApeoQBdzFdnK+xY9/Awtg6LMKhFNFo9cAV3QZSimwBmzSnG/5XF4ezCRNxK6/mJ4dD5D/bv/o8gKOBG5fourOywoWvYiU578HO+CoUQg0zy99JrjQmLZufisbOycVeWUardExQaxEaM8yRMUEC09kC1+T1MyknHQw8/Ao0m2LPuRKLTanHDtdfgsjlT0PfJy0AvZbpcuzhfBqvNp2cnsOszmPsa8MC938HkqVMlnzGR4UnYUbBw4UI89l1KxFq2UyK2FILPLQUyHM5/QglYwA/l5ncQZe+U5pzLzsyQ9514NCRmD9x/H266eCEGFr8AsWM/FzPOkWFipVRBbN4LYcenuPGSc3H7nXdI/V85pyc33HADHvj2LVBs/RD+6i3BjeM0aFHQZS0fcsMrNQ7UIKvQgBFKlqRaJMpcWHNBu+eQYQ8l2KSzbGJ0hopyq4PpFTtPDG6eGo/CUDU0TiuefnsnvvPhLrzee3AwiP/MiUR4rKzpowIquqij7hct0rVLH07vH+7DI+/sxoMf7ZGW//pgF+58Zwd+slsAm+99XEJ2IdoGoNz0bxRF6fDLX/8GCfEnr5YhLi4Ojz76CM4tSsXgpy8B/e1SE1EO5z9gPkuhgFi+EprajXj0ge/gkksuhfYkFBCcangSdhSw6vNrr78R/33/dxDWsBnOHcuD7ex5IsYZCytFJGeh2vIeQvsa8Icnn8DM6Sd/xJ6ExET86Ec/xjVnTcPQ4r9C7KrniRjnMCjAUmsgtFUB2xbj6rNn4qGHHkR8bKy8n3M6YjQacc9/PYB7brwG2PQufLXbaSsFNOMwEWMl2vXbBtDlZ9emRHphPr4/KQqxbOh4pR65WUn47+mJlKwdy7WHIW20u4jThtd2d+CTbj8STF8evB17FzqRkr8B7BthKZ0AQaVE6HA7ntvUgOe3NOKl6gH0ejxoavuC/mXfNKx23GmXCg+z9H785je/QXFhgbzz5MB+76KiYvzkxz/GWelRGPr0ZWCoi2sX51BYXKWk57VyPZSVa/DQnbfi1ltuRkiIST5gYsOTsKNEp9Phxltvw3/fdyfCatfBve0TSsQ8wU6CHA4TMY8Dqk3/hrG9Ar//za8w/6x58s6TT1paGn76Pz/FlTNLMPTRn4HWSkDDR7rjEKwdPRuls2EX/Jvew2Wzy/DYo48gYYK3peccHeawMDzw3Udw53WXQ1z/b/iqNrIIOLiMJ+h6dD1N+G3ViFQ7pQmNwb3zC/H89dPx5jVlePq8PDw8LQaqo45a2Pfrxn5H8C+YIvH7m2bgresm4ZZYCuzkzScE+ih/wI9/b+lGD/2pNprxyGUz8M6NM/HODTPxwQ2T8X8L0jBXCIypqRsnsMJkqwWK9f9CmsKGJ594AmUlp6aPKEvEJk+Zgv/5yY8xK9EkFSKit5V+fN5HjENIFR30xJSvAHZ/hv+69XrcefvtCDGdHgkYgydhx4DJaMTNt9+BH373PpibNsO37k0IbvLwqolfJcr5GrAmXgOd8H/2AuKtLXjqiV/j/PPOkXeeOrKysvCzx3+OGxdMQ/9Hz0O5n4ItLTmr8RZscU4drJDI74Vv9+dQbHwX1y+chR987zFpQnrOmUNUZAQeeuRRPHDLt+Df8DbEHZ/QVvIL46w1h0I1gmXr9uKxvf3o8gPGkBDMzo/HpVkRmBylh9432oxQiVC5naBxtC0iQ6VCmLRZBZNUPmrHC+s60cRaMWr0OKcoEVdl6lC93QIL2y2oMVpRptMGhwURFKoD2w4gD38tKNTyeQl5m0LexobYr6+uxcNru1DnFmCOjsE1pfR5JQm4OD0CCYIPw+J48sXB3z/QVgPfZy+ihG7cU0/+DlMmlcn7Tw2sZnPGjBn4xc9/hkWZUej/8Dko2yqlgUw4ZzAsrnY54Fr7NnT7VuKRO2/BPXfdhdDQ06v5PJ+s+ThwOJxYvvRT/O6Z59EmhEKYcRnEyCQIbDJnNgoV5wxBgMimLWguh2Pl65ibn4of/+jHmDnjm500sLW1BS+9+BJefPcT6EoXwF96LgQpGD/YD4JzBsBEzDEMx+YPEdFViTtvug633nrrSe3nwRnfDA4O4r2338KTz78MV0IBxGmXURYTNq58g+j3QzCHYUaMERFqxYE+WQF/AA67Heu6RuAPhGJ+vgGhFMD7ycY/ax2RBrwQIyJwfqwWGgTQb7Fg8wDgVegxMz0M8fIsyQGPG/WdbkSmhCJS4UNrdS/KaXtmaizyDZTQiV601vRhL20bTZkUCdG4KIxlWn70WnqwZVCAMjEKF4UGt/XQZ21lQ9mzvmtaA6YnhiJWp5CH2ycCfgzZRlDRMQI67MB5vzFY7Thdhb96E7ybP8BlZ03Hdx9+BCVFhcH93xDl5Xvx5+f+jHfX7YRp9mXw586he0oZNN0/zpmDqNFBGOjC8Kp/IUMcwkP33Y1rrr7mtGmCOBaehB0n7Lbt2LEDv/u/P2BzfTtECnQV2dMgsJJFNj4t5/RGaoZKQly5GoNr38cN58/Hg488gsL8vOD+b5ihoSG89/77+L8/v4ih0CSoZlwKISoZ8IyOHcY5bWE1n2otlP1tGF77jjTZ6kP33o0rr/4WwsNOziidnImDx+vFqhUr8JvfP40GByUOUy6CkJxPujV+ChFFuhZPQJTmDhsNUFjiIlDyoJOysgBcXtYPi5m7AvrR+cPofU6/KL2HjfgpVZKRVrt9AYyG8Wz8RRXJtJ+OY+9XqZWUtAE+nx8e+cNGtx2AEkOHfGsOnPdI2xjs8yhhHHvtDAVdu4auffSwbwxWcOh2AruWwrN3Ne698Wrcfvd3kJ6aIh/wzdLR3oZXX/snXvr3B/CmlkFZdi4QGkXZNNeu0x6Kn0WlGurOavQtfwPTE0x45KGHcO5550GrPT1bnPEk7GtSXVOLv//9b/jnB0sQSCuFhoJd0RRBDtorOWPO6QaJPYmYaGlCYOdS6Afbcc+1l+Gm2+9AUmKCfMz4wOfzYcXKVXjmT89iXW0bos66CoHcOcFSRV5QcHrCar/cDgRqNsFXuR7T0+Nw/13fxoJF50j9WjmcUXbs3IXnn38eH63ZAt2kBVCUnR8cFIFpF+f0g402QolgoKVS0q54pRv33XIdrrru+nE3Ubt1eBiffroEzzz/AqoGPYhYcK0UX0mJGCss4Jx+sLnibP3w7lkBRdMeXDC9CN+5+y5Mmz5DKsA4XeFJ2Amgu6cHq5YtxV//+Rb29zmgKl0k1YqN9sfgnCYo1VJirdi3CoObP8U5Uwrw4P33YtrUqTCN42G+9+zZi3fefgv/WPw5vDEZUE29GIhOgeB10/fhgnZaICghqtVQ9rbCvuF9RNg78e3rr8aVV1yJvLxcqQM8h3M4Tc0tWPrRB3j+X++iT2Ei33AhhKT8YAEibwJ2mhAsOIRrBOKupXDuW4+rFs3DHd++HVOmTD4p84CdCAKUbG3YsAFvvPEGPtiwE6rMyVBSbIWwmGAyxkPX0wMWJyuUULZVYXDtu8g0+nHv7bfiggsuQErK+KidPZnwJOwEESDB2lu+D2+9+SZe/3AJAilFUJWdA0QxI6JA188FbcLCnAQlYGLTHvjKV8Nks+Duay/FZVdfi/zcHPmg8Q3rC7Jh40Y8/8KLWFfVjOjZl8CfNR0wUPLIRvnkbmBiwpIrjR6ibRD+yrUI1G7HzMwE3HHLDTh70bkIO806MXNOPG6XCzt27cLf/vYqPly9CYbiuUDh2RTsRpNu+XhBzUSGDe0NEf7aLfDvW4tEtQ/33nQNzrvkcqSlJAePGed0dHRg5aqVeP6lv6Gy343IuZfDn1oSrPVn2sWZmLDaLY0BYl8bvLs+h7KjChfOLMPNN16POXPmjtvCgRMNT8JOMD29vVi57DO8+eFibKyogzprMtSjpTcsEWOdTDkTA9Y+mZUgdtZDpADXXrsbVy+Yidtuuw1TpkyBaQIOk7q3vBwfvvsu3l6+Bm12H8wzL4KYOTWYaHJBmziw5EulheiyA/U74NizFklaH759w9W48MKLpdovDudYaG5pxbLFH+L1j5ehoqUbhpJ5EIrmQ9BTIs+b108sWKsNVgPWWg7fvnUQe5pw00WL8K3rrpdGP1RPsACX1Ypt2rgR77z3Lj5auxVDyhCEzrwEYnIhi2JJu3iLowkDaxbLpiAY6oG4fxOG923CpIRwfPvm67HonHORnJwkH3hmwJOwkwBzGDX7a7F+9Qq8/tFSSdC0+bOgKlsEwcBGoiKHwZt6jF8oIRFZUtLXDqFqAwbLN+CcaSW46erLMXXmbKSnpcoHTkysVit27dqNTyjgenflFhI0A0wzLoYic1LQLqXSb+4WxiXSoBsaiB43FC3lsO38HJHeYVx/6QW4+KILUFJaJk3Qy+EcDx63G/sqq7Dqs0/xz09WoG3YDV3ZAqgKzwo2aWPBLq8ZG7+wFhvkI4TuBvjL18DVsAdXLJyLa6+5CmWTJiMubmJPzm6xWLB92za89/4HWLK1HN6IRBimXQghuQBgzetZX2euXeMTVvOl0gIOK4SGHRjc9jmyzVrc8q0rsGDBQhQVF0GlorjrDIMnYScRj8eDyqpqrF62BP/86DM0Wd3Q506FihIymMkZsuGTpKGB+U8wLmClh2zpqgXqt2OoYgum52XixssvwOyzFiD/NKtd6OnpwW5Kxt579228v2EXAuZ4GIrnQUgvCXaS5QHX+EEuPRQdw1A074V93waYnP247OzZuOziizBl+gxERoTLB3M4Xw+73Y59FRX4bPFH+Oenq2BVGKDNnQ4FLYLRHNQtXpA4PmAFM0y3aCW2VEKs3YaRhnIsnFqM6y+/GNNmz53wBYeH09raim1bt+Dfb7+Dz/fWQZOYA03hHAhJeXQvlKRdvBntuIGNGC7XfAmNuzC0dz0SdCKuvXAhLjjvfJRNmQKDXi8ffObBk7BTwMjICCorKqWasfdWrENVmwW69GKo82cDcRnBEgIp4OU/xSmH3XuFCiIFuWLjHgTqtsFauwfzScAuWzAXs+YvRHFhgTQE8elKe3s79u7Zg08+WYxPt+zFkF+FsLKzgIzJEEMjITDbHEfzCJ0xsOCKCZhKA3G4F4GarRip3oxIwYtLKPk6d+HZUvKVEB8vv4HDObEMDAyQdlVITezfWb0J7QM2GPNnQpkzDWJkMgUQFOjy2odvBuYbWIsNv1fqC+qjxd1ZjwvmTMPFi+ZLyVdezsTos3y81NXVYdfOHfhw8adYubsaHmMkQsrmA8lFgCGU4ioPLyz4JpC0i2xTpUagpwXi/i2wVW9DRqQJly6chwULFmAyJV/hZrP8hjMXnoSdQkZG7Ni/vxY7t2zGhyvXYvO+/dAkZEOZNQlCWgkEnTEY7EqDePCf5aQhlRySg2BOwtoLsbUCLgpwA4PduGj2ZBKwBSiePBU52VlnTOdQBkvGqqurpDmEFq/fhuY+G8KLZyGQWgpFQmaw5pYFXFzUTi6jiZfXDaGnGb66HXA07kV6uBFXnjMfZ82fh9z8Ij7pMueUwZKx/bW12LR2NT5ctRF7G1oRml0GMWMSFCkU8DKbZb6BF9acXFiNONMu0jBxoBNi0144a7bB6Hfg8rNn4YJzFiG3sAhZmRl0CB17hlDf0IDKfeVYtvxzLN2yB/1eBcwlcxBIKYYQnRws5Ga2yWvHTiIsrmLapYboGoHQWQ93zWa42+pQlh6Pq85fiBkzZyEnPx8R4bzVxig8CfsG8Hq9qKtvwL5dO/D52vVYvnkXBslHmDJLoMwoBZLyITBj5gnZiUOuVRAp8RI8TvhbKoCWfRhuqEByTDgumlaMCy+5FOmZWcjMSJffdGbS399PyVg1tmzcgKXrNmFbTRPUEbEwsKZIqRRwRSbJJYwsIeOidkJgNbJSZ3qRgqvuYHBVvxsKez+m5qbjckq+pkyfiZzcPJjNYcH3cDinmJERB2rrarFr6xYsX7cRK3fsg1dtgjGHkrH0EgjxmcFaMaZdvLDmxMCSKZbkMv0asSLQUo5AczlGKLjNS47HRbOnYOG55yErOweJ42yuylNNR2cnqiorsWHdOizdsBVVrd3QxadDlzMl2G+MjfjplWvHeEJ2AmBxVbBggE2wzuZPFZlt1u+BSXRjTlEOLj3/HBRPmoQ80i4+V+V/wpOwb5iWlha0NDVhz45tWLZ5JzbtoeQgLAaGzDIIKQUQYikhYA54VNS44zh65KaG0v3zuBDoboCivRLW6p0w0eazJxVgwaxpKCqbjPT0dMTF8ZqFsYw4HGioq0NLcxPWrF6Nz3dWoq6tC6GZhVCnl0JIyAn2bWQDzUj2yWyTu5OjYrSpISvVJhcsWvsogqiBp34XXN0tyEmKwXkzpmD69KnIJvHKysqCVquV38zhfLOwieAbSbfaW5qxecMGLN+2F7uqayngTZN8gyI5DwKbnoWFF6O15zzUOHrkpIvN/wfnMAKddUBbJYbryhEdosO500owb9Z05BUWIyMjAxHjbLLlbxo2JUtDfT2a6muxfPU6rNpVie6hEYRll0CRWkzalQWY6J6NNlfkBQZHz1jtovsmDnRBaK+Co3YXAkO9KMtKwTmzpmLq1CnIzM6R7PN0nmz568KTsHGC0+mUJs5sbajD9u2UkG3ZjX31LRBCwmEgQVMkZkNIpKCXDRfMgl2pLT4XtkOQSgwPlhrC2gNfRy2ErjrYmmqg9rsxsygH86eUYOacuUhMTkZqairUZ+CIPMcKG5WqqakZddUVWLtpC1btrkTXgB2mxHRoWMBFCZkQkxq876NBF68lG4NcYigtbJQ5d7CtfMd+eNtq4LR0IDkqDGdNLsS8mSy4KkJaWhqioqLk93M44xM22mozaVdT3X5s2rIVy7fuQX17N7RRCdCk5EKRkC0toloHQfILo76Ba9cBDtR20Zpei/0d8JNvEEm77C11CNUoMLc0H/OnT0LplGlISUmVhvLmk7B/NW1tbaRdTagq34s1m7diffl+DLn8MCVnQ5WcG9SuiATJRUstj6S4imvXAZiNjdoni5WcdgS6myTtcrXWwGvtRW5iDM6eUozZM2ciKzdP0q7Q0FD5BJwvgydh45ChwUE0tzSjo7UV+8hxbCSnsaNyP2zeADmOLAjxJGoU8CqiUwCNNiho0nKGOQ9JsGThYg7CYUWgtw3oa6XAdj9GOpsRYw7BrOIcTCvIRcmkSYhLSJQSr4k4x9e4gNxFC9lla0sLmhvrsWPXHmysqEVNcweUIeEwZRRCjE6DMjYtODceC7TG2uaZ4m7GChcrMfT7IFp7gN4WBLoa4SDxgsOG/LQkzC7JxeSSYmRk5yApJQVJiYk8uOJMSHosFql1R2tzI/aW7yPtqsHumnp4lRqEpuYjEJdJviEVQlRS0HePFiZK/uEMCkUOJFy0Zn7C3gd/bzsUvc1wt+6Hs6cdyXHRmFuSh8mFuSgoLkF8YhJSyT/wGvHjg41W3dpKtkn2Wb+/Btv2VGDTvv1o7u6FLioehrQCBGJIu1hhoilStklmm8xGWVx1BmmXZJ9sIe3yuhBgtV2kXf6uethba6ETfSjLTsNMss+ykhKkpGcghWwzNnZiT4HwTcCTsHGObXgY7Z1d6Onuwv7KCuyurMaWqgbUtVCyodbBmJAGITpVEjaWmMEYFvQVowGvtB51IhOQ0WD2wFp+zRzEYDcJVytEWnyWZkm4dLQ7OzURswsyJeeQkZMrNTOMjycnazDIJ+WcCJjr6O7qQict3Z0d0ihVu2oasLOmET2DVugiYqBPyIAYlQJVHNlpeHxwqNrRgIvZ5Kh9TlQ3dMAex9pmULjE3japtivQ0wyXhQTMNoQocwgmk3jNKM5DQWERElNSkZCQwMWLc9oxMNCPDtKuXks3ynfvwu6qWmwj39Da2Q2FIRTGxHRg1DdEJgN6U9APjPUJoz5iInK4Zh14TV+pvx3+HtIu8g9+Wpx9XTDptChMT8KsohyUlpYgOS2TfEO8pF9n0gBRpwLWL7+LaVdnJzpam7Fj5y7sIO3aV9+KIYcTBkrKtGwwquiUYFJmjqV8mfz6Ac06zE4nIswWJd0aY5tsLAKHLahbfbRYWuHqJjt125EYFSH1T55eWoTc/AIkJCUhnuwzMoISVs5xw5OwCQRzHJbubnRbLBjs60Xt/hrUNjRjV10Lappb4fSJ0IZHQR0WDTEkEgpzDBShURDYMOP0t5S4jHUekkOR//6mOZJDYIvPRZnoAALDfVJ7Y7YWbH1wDfbCM9iH8BAjCtJTMCknFTmZGcjIzkY4OYV4Eq5YWniNwqljaGhIss/e3h4pKauuqkZVYyt217eg3dIHhd5IiVksFGFRQEgUraOl15Jt6kNluzxM3EbX3ySHB1OjCRe7LqcNIrNNWvzWXrLVfslOnQMWKL1upMRHoyQrFcXZ6cjOykJcQhKiY2KkQoGQkBD5Azic0xuH0wkLBb1sbsK+nm7sr67G/qZW7CDtamxth1ehlnyDivxBgHyDknRL8g+kXQiR+zuN+gU2SutYH/GNwvzBYf6Brdk2lwMi8wfMP7BReGmN4X64yDf47EOIjTCjMDMVk7LTJO1KTs9ARGSU5Bt4M+RTS19fH7q7u9DX20tJWQuqavajorEde0m7egcHoTKZoYukRIxsUyTblOzTzLSLfietkWySFSzK9jjWTr/p2rOx2jVqpxQHin4fBDbIi6xdbAoUkWzTR9rl6rdAqwggIylBss3CrHRkZmchOjYeMaRdbEoU3Rk8r9eJhidhExi32y2NZNfb24fBgT60NDagrb0DbZZe1Hf0oIUC376BQXj9ASg0OmjM0RBI2JQkdEopAKa/WQA8WnsWrEJjL2g1aha0Ht03upZWbD12G3vAaWGMrqVth60Pec1WtGYOyzYoCRYLZNkSIIcQGOqBl7b7nSPQ67SIiYxAalw0chJjEBcdicyMDMQnJUvCFRMThQhKvs7EGdfHKywp6ydx6+vvwwAFX3V1tejo6kET2WVDhwVdfQOw2iiJUaqhNoRIIzAyUVOSnQZFLhowhQMacvgHanLH2hxbyWtp+2HbDuwjDre5Q16PWbPt0ssx2z1usk0mVJRokU36rSyo6oOPhMtrG4ZC9CE8NBTxMWSTCTFIi4tCUkI80jMyERUTKwVUbOFt5DmcIGzuzAGmXeQfhgb6UV+7n3xDN1q7+1BHvqG9px8DFPz6oYBCZ4AmnHxDGPn3sJgDAbDUZIz8xiG+QVod/vzTWnrJ1kfYJj3zY5734Avp3yH7xm6TVrRmAxLZBoLaRQGsn/kIpl/02kuJVsDtgMlkRFxUJGlXFGlXLOKjo5BFQW1MXAIiyC9E08KG7BZY4Q5nXNBPmtXX1y8lZ72UnNXX1aHD0oPGrj40dvfC0jsgDVzFuoOoKUFTmskux8RWAtko2KTmas1XaNeRto1ZMw63uSPZ4di1tJ0Wgc5BsdNoQQDTraBt9pB2UcI1MgwVJWYR4WYky9qVQuvU5GSkpKcjMjrmgHbxVkQnD56EnUb4/X7YKKhly/DwsLR2ktgN9veio6MD7RQA13f1ktD1opsCYCZyUGqgMoVCx0SNNRWjv/0qDQS1FgpaBJUaAjkaQaUlh0JreWHORaDj2HxGwT4vXmnoV5GNNkSLyJpj+bwQKYCVBiHwuIL7vRTQ0lqgbQo2yaR7BM5BEi9yFix9iiSHEBcdQYFsNLISopEYF4uExCSEkkgZjCap9iCMglnWpys0jA/VPZFgg8+w5rXDNjstwxix2+Gw22DpJNvs7CS7pGCMbLSTkjTLwKAkciw505DIaULDEWBzZ5F9imqySbJHZp9MBJkdKuhvkb2W7DNov0HblJvxkL3BS/bIalZZUuVntkh/MztlNulhtstskx3nIdt0Q6DXXrsVLuuA9H6jTkcBUwQSWQEA2WZ6fCwSKdmKiYuH3hQCI7NJsk+WbLGF993gcI4O1l/HznRL1i47+QaXYwS9Fgs62tvQQslZI2lXG/mGnv4BDFqtUGr1UIeEQRsaST5BiwDzDfTMB7UruGa+QKHW0X6mV2N9A9MwNUVASkmvgpoVfPaZho3qVFC72HbmJzwI0D4F0y567XeNwMUSL6cDWrUSURHhSCDfkB4fRf6Bki1Zu0zkCwzGkKB2hYWQdrGF90meSDB7lOIqWmzDNjhG7LAPW9HV2Y72jm40UUzVRDba2RMs+HaSPWuMpAFhEVDpwyimUku2GYybyD6ZnbL+/JKtknZJdqmTtCxon2Sb8pQlkOyS7JHNdSatg7YZtNHRRbZfyT7JbslePbZBeKyDEAJehJqMiImMRHJsMNlKZdqVmEiJVjT0FFcxmwwNHbXRMF6YfQrhSdgZAguAmchZKQBmzoQ5ERctUp8eCoB7B4dgd7rgcLphdVCw7HJLrx20drk95FS8pE8euClwZWs2RDGr2pbaSSsUEAN+Cmz9EMhpqMmBqDUqaMixaDVqWjRSTZaBglKjXosQWswGHQxsGy2sVisxKQlRUTGSQzCQQIWEmA4kWzyYPb0JkN3YR0Yo+AqKHLNTJwVgNusQ2ikA6+q2YMhGyToL1BxB+xwhuxwhe3WSbbrINt20sEDOw+yUBUj+AAmaikyUgiyCNb9g85goyVbVFHxpJfvUUg7HbJMWslEDrU16HcLINpmNMps1hxiREBeHuPgEhJnDKdligsWSLZZoBYMp3uSVwzl5sFozpllW8g92O9Mu8gUjNnS2d6CzqxP9Q8NwkB9g/mBohHTOxV674SQfwXzGqG9gzfmZf/BRMMt0S5qLkzRM8g1Mu+gx1pBvYP6B9cFiuqXTqqEnH8F0KoR8Qwj5hlDyDQadjrRMh4SYaCQkJUqtMXSkXUZamF8Io2CWFcqwc3FOX5gt2aRCxaB2jdBrl8OOwf5+dLS3w9LbRzbpkHTK7nCRdrnIPoNxFrNNFldJmsW0S46tAgFxjHaJB7RLRfaqJptkNsrsk9mmjmIsA9mjkewzqF20ptd6ss9ISvilPoWkXUapICCYbIXJyZbRaAx+Cc43Ck/CznDYz89KeRwOB3zkBFhyJYmVvGZ/+2nxkUgF2Gu2JqfAAmcXJXYOp4Mch1dKlAxGAwW1WsrJVFCSw1CQI2FrJa1ZyQpbmCixIeGZI1GplFCRE2HOgDsEzpFgTW5ZEOYi4ZLskBZJrGjN7HPUNtma2WRwTdtoH7NN9j7WtIMFR1oSJ2ZvCmaT0qKSbHTUNkftU6OmNb1WqkjkmLiRcPFgisMZXzAtYtrlpOfc5z3cN7C/yT/IPsHPNMsX1C72mhVKuihpY+/RUfCq1+spwNUGdUv2DUy3JO2i1yrmE2jRsAJGWquktVoqhOH9YzhHgtkYKzBgGsZsjtnkqH1K9sp0il6P1S32miViLB5zu10USymluEqr1QXtUdIs2T4lG6XEjGyR2WdQt1hcxexVLdk0s09m05zxC0/COF8bZkK8NoDD4XA4EwmuXRwO55uEJ2EcDofD4XA4HA6Hcwrhw/FwOBwOh8PhcDgczimEJ2EcDofD4XA4HA6HcwrhSRiHw+FwOBwOh8PhnEJ4EsbhcDgcDofD4XA4pxCehHE4HA6Hw+FwOBzOKYQnYRwOh8PhcDgcDodzCuFJGIfD4XA4HA6Hw+GcQngSxuFwOBwOh8PhcDinEJ6EcTgcDofD4XA4HM4phCdhHA6Hw+FwOBwOh3MK4UkYh8PhcDgcDofD4ZxCeBLG4XA4HA6Hw+FwOKcQnoRxOBwOh8PhcDgczimEJ2EcDofD4XA4HA6HcwrhSRiHw+FwOBwOh8PhnEJ4EsbhcDgcDofD4XA4pxCehHE4HA6Hw+FwOBzOKYQnYRwOh8PhcDgcDodzCuFJGIfD4XA4HA6Hw+GcMoD/ByoqEkG9YX/zAAAAAElFTkSuQmCC;" vertex="1" parent="1">
                    <mxGeometry x="290" y="-300" width="237.23" height="214.47" as="geometry"/>
                </mxCell>
            </root>
        </mxGraphModel>
    </diagram>
</mxfile>